G04*
G04 #@! TF.GenerationSoftware,Altium Limited,Altium Designer,20.0.10 (225)*
G04*
G04 Layer_Color=65535*
%FSLAX25Y25*%
%MOIN*%
G70*
G01*
G75*
%ADD10C,0.01181*%
%ADD11C,0.00800*%
%ADD12C,0.01378*%
%ADD13C,0.00984*%
%ADD14C,0.00787*%
%ADD15C,0.01000*%
%ADD16C,0.00394*%
%ADD17C,0.00500*%
%ADD18R,0.01968X0.03937*%
%ADD19R,0.03937X0.01968*%
%ADD20R,0.06693X0.20472*%
%ADD21R,0.21102X0.05906*%
%ADD22R,0.05906X0.21102*%
G36*
X116142Y-139095D02*
X135827Y-139095D01*
X134709Y-139740D01*
X132325Y-140728D01*
X129833Y-141395D01*
X127275Y-141732D01*
X124694D01*
X122136Y-141395D01*
X119643Y-140728D01*
X117259Y-139740D01*
X116142Y-139095D01*
Y-139095D01*
D02*
G37*
G36*
Y-95788D02*
X135827Y-95788D01*
X134709Y-96433D01*
X132325Y-97421D01*
X129833Y-98088D01*
X127275Y-98425D01*
X124694D01*
X122136Y-98088D01*
X119643Y-97421D01*
X117259Y-96433D01*
X116142Y-95788D01*
Y-95788D01*
D02*
G37*
G36*
X69291Y-59842D02*
X66174Y-59843D01*
X66171Y-59532D01*
X66286Y-58922D01*
X66517Y-58347D01*
X66856Y-57827D01*
X67291Y-57384D01*
X67803Y-57034D01*
X68374Y-56791D01*
X68981Y-56663D01*
X69291Y-56660D01*
X69291D01*
X69291Y-59842D01*
D02*
G37*
G36*
X118898Y35433D02*
X114173Y30709D01*
X118898D01*
Y35433D01*
D02*
G37*
G36*
X218898Y-13780D02*
X214931Y-13780D01*
X214929Y-13406D01*
X215070Y-12672D01*
X215351Y-11980D01*
X215762Y-11355D01*
X216288Y-10823D01*
X216906Y-10404D01*
X217595Y-10114D01*
X218327Y-9963D01*
X218701Y-9961D01*
X218898D01*
Y-13780D01*
D02*
G37*
G36*
Y25591D02*
X214931Y25591D01*
X214929Y25964D01*
X215070Y26698D01*
X215351Y27391D01*
X215762Y28015D01*
X216288Y28547D01*
X216906Y28966D01*
X217595Y29256D01*
X218327Y29407D01*
X218701Y29409D01*
X218898D01*
Y25591D01*
D02*
G37*
G36*
X302756Y59646D02*
X306722D01*
X306725Y59272D01*
X306584Y58538D01*
X306302Y57846D01*
X305891Y57222D01*
X305366Y56690D01*
X304747Y56270D01*
X304059Y55980D01*
X303327Y55829D01*
X302953Y55827D01*
X302756Y55827D01*
Y59646D01*
D02*
G37*
G36*
X347441Y104331D02*
Y133858D01*
X348042Y133071D01*
X349112Y131401D01*
X350039Y129649D01*
X350819Y127827D01*
X351446Y125946D01*
X351915Y124021D01*
X352224Y122063D01*
X352371Y120086D01*
X352362Y119095D01*
X352362Y119095D01*
X352371Y118103D01*
X352224Y116127D01*
X351915Y114169D01*
X351446Y112243D01*
X350819Y110362D01*
X350039Y108540D01*
X349112Y106788D01*
X348042Y105119D01*
X347441Y104331D01*
Y104331D01*
D02*
G37*
G36*
X167221Y139211D02*
X162587D01*
X162596Y139202D01*
X162615Y139183D01*
X162642Y139146D01*
X162689Y139091D01*
X162744Y139026D01*
X162800Y138952D01*
X162864Y138859D01*
X162938Y138758D01*
X163012Y138647D01*
X163086Y138526D01*
X163170Y138397D01*
X163244Y138258D01*
X163382Y137962D01*
X163512Y137629D01*
X162402D01*
Y137638D01*
X162393Y137648D01*
X162383Y137675D01*
X162374Y137713D01*
X162328Y137805D01*
X162272Y137935D01*
X162198Y138092D01*
X162097Y138268D01*
X161967Y138462D01*
X161819Y138665D01*
X161810Y138674D01*
X161801Y138693D01*
X161773Y138721D01*
X161736Y138758D01*
X161643Y138859D01*
X161523Y138970D01*
X161375Y139100D01*
X161190Y139230D01*
X160996Y139350D01*
X160783Y139442D01*
Y140441D01*
X167221D01*
Y139211D01*
D02*
G37*
G36*
Y135076D02*
X165991D01*
Y136307D01*
X167221D01*
Y135076D01*
D02*
G37*
G36*
Y131746D02*
X162587D01*
X162596Y131737D01*
X162615Y131719D01*
X162642Y131682D01*
X162689Y131626D01*
X162744Y131561D01*
X162800Y131487D01*
X162864Y131395D01*
X162938Y131293D01*
X163012Y131182D01*
X163086Y131062D01*
X163170Y130932D01*
X163244Y130793D01*
X163382Y130498D01*
X163512Y130165D01*
X162402D01*
Y130174D01*
X162393Y130183D01*
X162383Y130211D01*
X162374Y130248D01*
X162328Y130340D01*
X162272Y130470D01*
X162198Y130627D01*
X162097Y130803D01*
X161967Y130997D01*
X161819Y131201D01*
X161810Y131210D01*
X161801Y131228D01*
X161773Y131256D01*
X161736Y131293D01*
X161643Y131395D01*
X161523Y131506D01*
X161375Y131635D01*
X161190Y131765D01*
X160996Y131885D01*
X160783Y131977D01*
Y132976D01*
X167221D01*
Y131746D01*
D02*
G37*
G36*
Y125012D02*
Y123902D01*
X162578Y122034D01*
Y123319D01*
X164955Y124198D01*
X165741Y124448D01*
X165732Y124457D01*
X165695Y124467D01*
X165639Y124485D01*
X165584Y124504D01*
X165445Y124550D01*
X165390Y124568D01*
X165343Y124577D01*
X165334D01*
X165306Y124587D01*
X165269Y124596D01*
X165223Y124615D01*
X165094Y124652D01*
X164955Y124707D01*
X162578Y125595D01*
Y126853D01*
X167221Y125012D01*
D02*
G37*
G36*
X165260Y118565D02*
X165269D01*
X165288D01*
X165316D01*
X165353Y118574D01*
X165445Y118584D01*
X165575Y118602D01*
X165704Y118639D01*
X165852Y118694D01*
X165991Y118759D01*
X166111Y118852D01*
X166120Y118861D01*
X166157Y118907D01*
X166204Y118963D01*
X166259Y119046D01*
X166315Y119148D01*
X166361Y119277D01*
X166398Y119416D01*
X166407Y119564D01*
Y119610D01*
X166398Y119666D01*
X166389Y119730D01*
X166370Y119805D01*
X166342Y119888D01*
X166305Y119971D01*
X166250Y120045D01*
X166241Y120054D01*
X166222Y120082D01*
X166185Y120119D01*
X166130Y120156D01*
X166056Y120212D01*
X165972Y120258D01*
X165861Y120304D01*
X165741Y120350D01*
X165945Y121571D01*
X165954D01*
X165972Y121562D01*
X166009Y121544D01*
X166056Y121525D01*
X166111Y121497D01*
X166176Y121469D01*
X166324Y121386D01*
X166490Y121284D01*
X166666Y121155D01*
X166823Y120998D01*
X166971Y120822D01*
Y120813D01*
X166990Y120803D01*
X166999Y120766D01*
X167027Y120729D01*
X167055Y120683D01*
X167082Y120618D01*
X167110Y120554D01*
X167147Y120470D01*
X167212Y120285D01*
X167267Y120073D01*
X167304Y119823D01*
X167323Y119555D01*
Y119499D01*
X167314Y119444D01*
Y119360D01*
X167295Y119259D01*
X167277Y119139D01*
X167258Y119009D01*
X167221Y118879D01*
X167184Y118731D01*
X167129Y118584D01*
X167064Y118436D01*
X166990Y118288D01*
X166897Y118140D01*
X166796Y118001D01*
X166675Y117880D01*
X166537Y117760D01*
X166527Y117751D01*
X166509Y117742D01*
X166472Y117723D01*
X166426Y117686D01*
X166361Y117658D01*
X166287Y117622D01*
X166204Y117575D01*
X166102Y117538D01*
X165991Y117492D01*
X165871Y117455D01*
X165741Y117409D01*
X165593Y117381D01*
X165445Y117353D01*
X165288Y117325D01*
X165112Y117316D01*
X164936Y117307D01*
X164927D01*
X164890D01*
X164825D01*
X164742Y117316D01*
X164650Y117325D01*
X164539Y117335D01*
X164418Y117353D01*
X164280Y117381D01*
X163993Y117455D01*
X163845Y117501D01*
X163688Y117557D01*
X163540Y117631D01*
X163401Y117714D01*
X163262Y117806D01*
X163133Y117908D01*
X163123Y117918D01*
X163105Y117936D01*
X163068Y117973D01*
X163031Y118019D01*
X162985Y118075D01*
X162929Y118149D01*
X162864Y118232D01*
X162800Y118324D01*
X162744Y118426D01*
X162679Y118546D01*
X162624Y118667D01*
X162578Y118806D01*
X162541Y118944D01*
X162504Y119102D01*
X162485Y119259D01*
X162476Y119425D01*
Y119527D01*
X162485Y119601D01*
X162494Y119684D01*
X162513Y119786D01*
X162531Y119897D01*
X162559Y120017D01*
X162596Y120147D01*
X162642Y120276D01*
X162698Y120415D01*
X162772Y120554D01*
X162846Y120683D01*
X162938Y120813D01*
X163049Y120942D01*
X163170Y121053D01*
X163179Y121063D01*
X163197Y121081D01*
X163244Y121109D01*
X163299Y121146D01*
X163373Y121192D01*
X163456Y121238D01*
X163567Y121294D01*
X163688Y121349D01*
X163826Y121405D01*
X163984Y121460D01*
X164150Y121507D01*
X164344Y121553D01*
X164548Y121590D01*
X164770Y121617D01*
X165001Y121636D01*
X165260D01*
Y118565D01*
D02*
G37*
G36*
X167221Y115420D02*
X165834Y114495D01*
X165824Y114486D01*
X165797Y114477D01*
X165760Y114449D01*
X165713Y114412D01*
X165658Y114375D01*
X165584Y114329D01*
X165436Y114227D01*
X165269Y114107D01*
X165121Y113996D01*
X164983Y113894D01*
X164936Y113847D01*
X164890Y113811D01*
X164881Y113801D01*
X164862Y113783D01*
X164825Y113746D01*
X164779Y113699D01*
X164742Y113635D01*
X164696Y113570D01*
X164659Y113496D01*
X164622Y113422D01*
Y113413D01*
X164613Y113385D01*
X164594Y113339D01*
X164585Y113265D01*
X164566Y113172D01*
X164557Y113061D01*
X164548Y112932D01*
Y112515D01*
X167221D01*
Y111221D01*
X160820D01*
Y114107D01*
X160829Y114190D01*
Y114292D01*
X160839Y114393D01*
Y114514D01*
X160866Y114754D01*
X160894Y115004D01*
X160940Y115235D01*
X160968Y115337D01*
X160996Y115429D01*
Y115438D01*
X161005Y115448D01*
X161033Y115503D01*
X161079Y115586D01*
X161135Y115698D01*
X161227Y115818D01*
X161329Y115938D01*
X161458Y116058D01*
X161616Y116169D01*
X161625D01*
X161634Y116179D01*
X161662Y116197D01*
X161690Y116216D01*
X161782Y116262D01*
X161902Y116317D01*
X162050Y116364D01*
X162217Y116410D01*
X162411Y116447D01*
X162615Y116456D01*
X162624D01*
X162642D01*
X162689D01*
X162735Y116447D01*
X162800D01*
X162864Y116437D01*
X163031Y116401D01*
X163225Y116354D01*
X163419Y116280D01*
X163623Y116169D01*
X163715Y116104D01*
X163808Y116031D01*
X163817Y116021D01*
X163826Y116012D01*
X163854Y115984D01*
X163882Y115947D01*
X163919Y115910D01*
X163965Y115855D01*
X164011Y115790D01*
X164058Y115716D01*
X164113Y115633D01*
X164159Y115531D01*
X164206Y115429D01*
X164252Y115318D01*
X164298Y115189D01*
X164335Y115059D01*
X164372Y114920D01*
X164400Y114763D01*
Y114772D01*
X164409Y114782D01*
X164446Y114837D01*
X164492Y114911D01*
X164557Y115004D01*
X164640Y115115D01*
X164724Y115226D01*
X164825Y115346D01*
X164936Y115448D01*
X164946Y115457D01*
X164992Y115503D01*
X165066Y115559D01*
X165177Y115642D01*
X165316Y115753D01*
X165408Y115808D01*
X165501Y115873D01*
X165602Y115947D01*
X165713Y116021D01*
X165843Y116104D01*
X165972Y116188D01*
X167221Y116974D01*
Y115420D01*
D02*
G37*
G36*
X223638Y132984D02*
X223791Y132970D01*
X223971Y132956D01*
X224152Y132928D01*
X224360Y132900D01*
X224804Y132803D01*
X225026Y132734D01*
X225248Y132664D01*
X225470Y132567D01*
X225679Y132456D01*
X225873Y132331D01*
X226053Y132192D01*
X226067Y132178D01*
X226095Y132151D01*
X226137Y132109D01*
X226192Y132053D01*
X226262Y131970D01*
X226345Y131873D01*
X226428Y131762D01*
X226525Y131637D01*
X226609Y131484D01*
X226692Y131332D01*
X226775Y131151D01*
X226845Y130957D01*
X226914Y130763D01*
X226970Y130541D01*
X227011Y130318D01*
X227025Y130069D01*
X225082Y129999D01*
Y130013D01*
Y130027D01*
X225054Y130124D01*
X225026Y130249D01*
X224971Y130402D01*
X224901Y130582D01*
X224804Y130749D01*
X224679Y130915D01*
X224540Y131054D01*
X224527Y131068D01*
X224471Y131110D01*
X224374Y131165D01*
X224235Y131221D01*
X224069Y131276D01*
X223860Y131332D01*
X223611Y131373D01*
X223319Y131387D01*
X223180D01*
X223028Y131373D01*
X222847Y131346D01*
X222639Y131304D01*
X222417Y131235D01*
X222209Y131151D01*
X222014Y131026D01*
X222001Y131012D01*
X221973Y130985D01*
X221917Y130943D01*
X221862Y130874D01*
X221806Y130790D01*
X221751Y130679D01*
X221723Y130568D01*
X221709Y130429D01*
Y130416D01*
Y130374D01*
X221723Y130305D01*
X221751Y130235D01*
X221778Y130138D01*
X221820Y130041D01*
X221889Y129944D01*
X221987Y129847D01*
X222001Y129833D01*
X222070Y129791D01*
X222112Y129763D01*
X222181Y129736D01*
X222250Y129694D01*
X222347Y129652D01*
X222459Y129611D01*
X222583Y129555D01*
X222736Y129500D01*
X222889Y129444D01*
X223083Y129388D01*
X223291Y129333D01*
X223513Y129278D01*
X223763Y129208D01*
X223777D01*
X223833Y129194D01*
X223902Y129180D01*
X223999Y129153D01*
X224110Y129125D01*
X224249Y129083D01*
X224402Y129042D01*
X224554Y129000D01*
X224887Y128889D01*
X225235Y128778D01*
X225568Y128653D01*
X225706Y128584D01*
X225845Y128514D01*
X225859D01*
X225873Y128500D01*
X225956Y128445D01*
X226081Y128361D01*
X226234Y128250D01*
X226400Y128112D01*
X226581Y127945D01*
X226761Y127751D01*
X226914Y127529D01*
X226928Y127501D01*
X226970Y127418D01*
X227039Y127293D01*
X227108Y127112D01*
X227178Y126890D01*
X227247Y126626D01*
X227289Y126335D01*
X227303Y126002D01*
Y125988D01*
Y125960D01*
Y125918D01*
Y125863D01*
X227289Y125794D01*
X227275Y125697D01*
X227247Y125502D01*
X227192Y125252D01*
X227108Y124989D01*
X226983Y124725D01*
X226831Y124447D01*
Y124433D01*
X226803Y124419D01*
X226747Y124336D01*
X226636Y124197D01*
X226498Y124045D01*
X226317Y123864D01*
X226081Y123698D01*
X225831Y123531D01*
X225526Y123379D01*
X225512D01*
X225484Y123365D01*
X225443Y123351D01*
X225373Y123323D01*
X225290Y123295D01*
X225193Y123267D01*
X225082Y123240D01*
X224957Y123212D01*
X224804Y123170D01*
X224652Y123143D01*
X224291Y123087D01*
X223888Y123045D01*
X223444Y123031D01*
X223264D01*
X223139Y123045D01*
X222986Y123059D01*
X222819Y123073D01*
X222625Y123101D01*
X222417Y123143D01*
X221959Y123240D01*
X221723Y123309D01*
X221501Y123379D01*
X221265Y123476D01*
X221043Y123587D01*
X220834Y123712D01*
X220640Y123864D01*
X220626Y123878D01*
X220599Y123906D01*
X220543Y123948D01*
X220488Y124017D01*
X220404Y124114D01*
X220321Y124225D01*
X220224Y124350D01*
X220127Y124489D01*
X220029Y124655D01*
X219932Y124836D01*
X219835Y125044D01*
X219738Y125266D01*
X219669Y125502D01*
X219585Y125766D01*
X219530Y126043D01*
X219488Y126335D01*
X221376Y126515D01*
Y126502D01*
X221390Y126474D01*
Y126418D01*
X221404Y126363D01*
X221459Y126196D01*
X221529Y125988D01*
X221612Y125752D01*
X221737Y125516D01*
X221876Y125308D01*
X222056Y125113D01*
X222084Y125100D01*
X222153Y125044D01*
X222264Y124975D01*
X222431Y124891D01*
X222639Y124808D01*
X222875Y124739D01*
X223152Y124683D01*
X223472Y124669D01*
X223624D01*
X223791Y124697D01*
X223999Y124725D01*
X224221Y124767D01*
X224457Y124836D01*
X224679Y124933D01*
X224874Y125058D01*
X224901Y125072D01*
X224957Y125127D01*
X225026Y125211D01*
X225124Y125322D01*
X225207Y125461D01*
X225290Y125627D01*
X225346Y125794D01*
X225359Y125988D01*
Y126002D01*
Y126043D01*
X225346Y126113D01*
X225332Y126196D01*
X225304Y126279D01*
X225276Y126377D01*
X225221Y126474D01*
X225151Y126571D01*
X225137Y126585D01*
X225110Y126612D01*
X225068Y126654D01*
X224998Y126710D01*
X224901Y126779D01*
X224777Y126848D01*
X224638Y126918D01*
X224457Y126987D01*
X224443D01*
X224388Y127015D01*
X224291Y127043D01*
X224221Y127071D01*
X224138Y127085D01*
X224041Y127112D01*
X223930Y127154D01*
X223805Y127182D01*
X223666Y127223D01*
X223499Y127265D01*
X223319Y127306D01*
X223125Y127362D01*
X222903Y127418D01*
X222889D01*
X222833Y127431D01*
X222750Y127459D01*
X222653Y127487D01*
X222528Y127529D01*
X222375Y127570D01*
X222223Y127626D01*
X222042Y127681D01*
X221681Y127820D01*
X221334Y127987D01*
X221154Y128070D01*
X221001Y128167D01*
X220848Y128264D01*
X220724Y128361D01*
X220710Y128375D01*
X220682Y128403D01*
X220640Y128445D01*
X220585Y128500D01*
X220515Y128584D01*
X220446Y128681D01*
X220363Y128778D01*
X220293Y128903D01*
X220127Y129194D01*
X219988Y129527D01*
X219932Y129708D01*
X219891Y129888D01*
X219863Y130096D01*
X219849Y130305D01*
Y130318D01*
Y130332D01*
Y130374D01*
Y130429D01*
X219877Y130568D01*
X219905Y130749D01*
X219946Y130957D01*
X220016Y131193D01*
X220113Y131443D01*
X220252Y131679D01*
Y131693D01*
X220266Y131707D01*
X220335Y131790D01*
X220418Y131901D01*
X220557Y132040D01*
X220724Y132192D01*
X220932Y132359D01*
X221168Y132511D01*
X221445Y132650D01*
X221459D01*
X221487Y132664D01*
X221529Y132678D01*
X221584Y132706D01*
X221667Y132734D01*
X221751Y132761D01*
X221862Y132789D01*
X221987Y132831D01*
X222264Y132886D01*
X222583Y132942D01*
X222944Y132984D01*
X223347Y132997D01*
X223513D01*
X223638Y132984D01*
D02*
G37*
G36*
X246374Y123212D02*
X244583D01*
X244569Y130763D01*
X242682Y123212D01*
X240808D01*
X238920Y130763D01*
Y123212D01*
X237130D01*
Y132817D01*
X240031D01*
X241752Y126252D01*
X243459Y132817D01*
X246374D01*
Y123212D01*
D02*
G37*
G36*
X251176Y132859D02*
X251301Y132845D01*
X251426Y132831D01*
X251579Y132803D01*
X251731Y132761D01*
X252078Y132664D01*
X252259Y132595D01*
X252453Y132498D01*
X252634Y132401D01*
X252800Y132290D01*
X252981Y132151D01*
X253133Y131998D01*
X253147Y131984D01*
X253161Y131970D01*
X253203Y131929D01*
X253244Y131873D01*
X253355Y131734D01*
X253480Y131540D01*
X253605Y131304D01*
X253702Y131026D01*
X253786Y130721D01*
X253800Y130568D01*
X253813Y130402D01*
Y130388D01*
Y130346D01*
X253800Y130277D01*
X253786Y130194D01*
X253772Y130082D01*
X253744Y129958D01*
X253702Y129819D01*
X253647Y129666D01*
X253564Y129514D01*
X253480Y129347D01*
X253369Y129180D01*
X253231Y129014D01*
X253064Y128847D01*
X252884Y128681D01*
X252675Y128528D01*
X252425Y128375D01*
X252439D01*
X252467Y128361D01*
X252509D01*
X252564Y128334D01*
X252717Y128292D01*
X252897Y128209D01*
X253105Y128098D01*
X253328Y127959D01*
X253550Y127778D01*
X253744Y127570D01*
X253772Y127542D01*
X253827Y127459D01*
X253897Y127334D01*
X253994Y127154D01*
X254091Y126946D01*
X254160Y126682D01*
X254216Y126404D01*
X254244Y126085D01*
Y126071D01*
Y126030D01*
Y125960D01*
X254230Y125877D01*
X254216Y125766D01*
X254188Y125641D01*
X254160Y125488D01*
X254133Y125336D01*
X254022Y125003D01*
X253938Y124822D01*
X253855Y124628D01*
X253744Y124447D01*
X253619Y124267D01*
X253480Y124086D01*
X253314Y123920D01*
X253300Y123906D01*
X253272Y123878D01*
X253217Y123837D01*
X253147Y123781D01*
X253050Y123712D01*
X252953Y123642D01*
X252814Y123559D01*
X252675Y123476D01*
X252523Y123392D01*
X252342Y123309D01*
X252148Y123240D01*
X251954Y123170D01*
X251731Y123115D01*
X251509Y123073D01*
X251259Y123045D01*
X251010Y123031D01*
X250885D01*
X250788Y123045D01*
X250676Y123059D01*
X250552Y123073D01*
X250413Y123101D01*
X250246Y123129D01*
X249913Y123212D01*
X249552Y123351D01*
X249358Y123434D01*
X249191Y123531D01*
X249011Y123656D01*
X248844Y123781D01*
X248831Y123795D01*
X248803Y123823D01*
X248761Y123864D01*
X248706Y123920D01*
X248636Y123989D01*
X248567Y124086D01*
X248483Y124183D01*
X248400Y124309D01*
X248317Y124447D01*
X248220Y124586D01*
X248067Y124919D01*
X247942Y125308D01*
X247887Y125516D01*
X247859Y125738D01*
X249636Y125960D01*
Y125946D01*
Y125932D01*
X249649Y125849D01*
X249677Y125724D01*
X249719Y125572D01*
X249788Y125405D01*
X249858Y125224D01*
X249969Y125058D01*
X250094Y124905D01*
X250108Y124891D01*
X250163Y124850D01*
X250246Y124794D01*
X250343Y124739D01*
X250482Y124669D01*
X250635Y124614D01*
X250801Y124572D01*
X250996Y124558D01*
X251024D01*
X251093Y124572D01*
X251190Y124586D01*
X251329Y124614D01*
X251482Y124669D01*
X251634Y124739D01*
X251801Y124850D01*
X251954Y124989D01*
X251967Y125003D01*
X252023Y125072D01*
X252078Y125169D01*
X252162Y125294D01*
X252231Y125461D01*
X252301Y125669D01*
X252342Y125905D01*
X252356Y126168D01*
Y126182D01*
Y126196D01*
Y126279D01*
X252342Y126404D01*
X252314Y126571D01*
X252259Y126751D01*
X252189Y126932D01*
X252092Y127112D01*
X251967Y127279D01*
X251954Y127293D01*
X251898Y127348D01*
X251815Y127418D01*
X251717Y127487D01*
X251579Y127570D01*
X251426Y127626D01*
X251259Y127681D01*
X251065Y127695D01*
X250926D01*
X250829Y127681D01*
X250704Y127667D01*
X250552Y127640D01*
X250399Y127598D01*
X250219Y127556D01*
X250413Y129042D01*
X250538D01*
X250676Y129055D01*
X250843Y129069D01*
X251024Y129111D01*
X251218Y129166D01*
X251398Y129250D01*
X251565Y129361D01*
X251579Y129375D01*
X251634Y129430D01*
X251690Y129500D01*
X251773Y129611D01*
X251842Y129736D01*
X251912Y129888D01*
X251954Y130069D01*
X251967Y130277D01*
Y130305D01*
Y130360D01*
X251954Y130443D01*
X251926Y130554D01*
X251898Y130679D01*
X251842Y130804D01*
X251773Y130943D01*
X251676Y131054D01*
X251662Y131068D01*
X251620Y131096D01*
X251565Y131151D01*
X251468Y131207D01*
X251357Y131248D01*
X251232Y131304D01*
X251065Y131332D01*
X250899Y131346D01*
X250815D01*
X250732Y131332D01*
X250621Y131304D01*
X250496Y131262D01*
X250357Y131207D01*
X250219Y131123D01*
X250094Y131012D01*
X250080Y130999D01*
X250038Y130957D01*
X249983Y130874D01*
X249913Y130763D01*
X249844Y130638D01*
X249788Y130471D01*
X249733Y130277D01*
X249691Y130055D01*
X247998Y130332D01*
Y130346D01*
X248012Y130374D01*
Y130416D01*
X248025Y130485D01*
X248067Y130638D01*
X248123Y130846D01*
X248206Y131068D01*
X248289Y131304D01*
X248400Y131526D01*
X248525Y131734D01*
X248539Y131762D01*
X248594Y131817D01*
X248678Y131915D01*
X248789Y132040D01*
X248928Y132165D01*
X249094Y132303D01*
X249302Y132442D01*
X249524Y132567D01*
X249538D01*
X249552Y132581D01*
X249636Y132609D01*
X249774Y132664D01*
X249941Y132720D01*
X250149Y132775D01*
X250399Y132831D01*
X250663Y132859D01*
X250954Y132872D01*
X251079D01*
X251176Y132859D01*
D02*
G37*
G36*
X276396Y130971D02*
X272912D01*
X272621Y129333D01*
X272635D01*
X272649Y129347D01*
X272732Y129388D01*
X272857Y129430D01*
X273009Y129500D01*
X273204Y129555D01*
X273412Y129597D01*
X273648Y129638D01*
X273884Y129652D01*
X274009D01*
X274092Y129638D01*
X274189Y129624D01*
X274314Y129611D01*
X274453Y129583D01*
X274606Y129541D01*
X274925Y129430D01*
X275105Y129361D01*
X275272Y129278D01*
X275452Y129166D01*
X275633Y129042D01*
X275799Y128903D01*
X275966Y128750D01*
X275980Y128736D01*
X276008Y128708D01*
X276049Y128653D01*
X276105Y128584D01*
X276160Y128500D01*
X276243Y128389D01*
X276313Y128264D01*
X276396Y128126D01*
X276480Y127973D01*
X276549Y127792D01*
X276632Y127598D01*
X276688Y127404D01*
X276743Y127182D01*
X276785Y126946D01*
X276813Y126696D01*
X276827Y126432D01*
Y126418D01*
Y126377D01*
Y126321D01*
X276813Y126238D01*
Y126127D01*
X276785Y126002D01*
X276771Y125863D01*
X276743Y125724D01*
X276660Y125391D01*
X276535Y125030D01*
X276452Y124836D01*
X276368Y124655D01*
X276257Y124475D01*
X276132Y124295D01*
X276119Y124281D01*
X276091Y124239D01*
X276035Y124183D01*
X275966Y124100D01*
X275869Y124003D01*
X275744Y123892D01*
X275605Y123781D01*
X275452Y123670D01*
X275272Y123545D01*
X275078Y123434D01*
X274869Y123323D01*
X274633Y123226D01*
X274384Y123143D01*
X274120Y123087D01*
X273828Y123045D01*
X273523Y123031D01*
X273398D01*
X273301Y123045D01*
X273190Y123059D01*
X273051Y123073D01*
X272912Y123087D01*
X272746Y123115D01*
X272413Y123198D01*
X272038Y123337D01*
X271857Y123406D01*
X271677Y123503D01*
X271510Y123615D01*
X271344Y123739D01*
X271330Y123753D01*
X271302Y123767D01*
X271261Y123809D01*
X271205Y123864D01*
X271149Y123948D01*
X271066Y124031D01*
X270997Y124128D01*
X270914Y124239D01*
X270816Y124378D01*
X270733Y124517D01*
X270581Y124850D01*
X270442Y125224D01*
X270400Y125433D01*
X270358Y125655D01*
X272190Y125849D01*
Y125821D01*
X272204Y125752D01*
X272232Y125627D01*
X272274Y125488D01*
X272329Y125336D01*
X272413Y125169D01*
X272524Y125016D01*
X272649Y124864D01*
X272662Y124850D01*
X272718Y124808D01*
X272801Y124753D01*
X272912Y124683D01*
X273037Y124614D01*
X273190Y124558D01*
X273370Y124517D01*
X273551Y124503D01*
X273579D01*
X273648Y124517D01*
X273759Y124530D01*
X273898Y124558D01*
X274050Y124614D01*
X274217Y124697D01*
X274384Y124822D01*
X274536Y124975D01*
X274550Y125003D01*
X274606Y125058D01*
X274661Y125169D01*
X274745Y125336D01*
X274814Y125530D01*
X274883Y125766D01*
X274925Y126057D01*
X274939Y126391D01*
Y126404D01*
Y126432D01*
Y126474D01*
Y126543D01*
X274925Y126696D01*
X274883Y126890D01*
X274842Y127112D01*
X274772Y127334D01*
X274675Y127542D01*
X274536Y127723D01*
X274522Y127737D01*
X274467Y127792D01*
X274370Y127862D01*
X274259Y127959D01*
X274106Y128042D01*
X273926Y128112D01*
X273717Y128167D01*
X273495Y128181D01*
X273412D01*
X273357Y128167D01*
X273218Y128139D01*
X273023Y128098D01*
X272801Y128014D01*
X272565Y127890D01*
X272440Y127806D01*
X272316Y127709D01*
X272190Y127598D01*
X272066Y127473D01*
X270581Y127681D01*
X271524Y132692D01*
X276396D01*
Y130971D01*
D02*
G37*
G36*
X281907Y132803D02*
X282267D01*
X282656Y132775D01*
X283045Y132747D01*
X283211Y132734D01*
X283378Y132720D01*
X283517Y132692D01*
X283628Y132664D01*
X283642D01*
X283669Y132650D01*
X283711Y132636D01*
X283767Y132623D01*
X283919Y132553D01*
X284114Y132470D01*
X284322Y132345D01*
X284558Y132178D01*
X284780Y131970D01*
X285002Y131720D01*
Y131707D01*
X285030Y131693D01*
X285057Y131651D01*
X285085Y131596D01*
X285141Y131512D01*
X285182Y131429D01*
X285238Y131332D01*
X285293Y131221D01*
X285390Y130943D01*
X285488Y130638D01*
X285543Y130263D01*
X285571Y129860D01*
Y129847D01*
Y129819D01*
Y129777D01*
Y129708D01*
X285557Y129638D01*
Y129541D01*
X285529Y129347D01*
X285488Y129111D01*
X285432Y128847D01*
X285349Y128597D01*
X285238Y128361D01*
X285224Y128334D01*
X285182Y128264D01*
X285113Y128153D01*
X285016Y128014D01*
X284905Y127876D01*
X284752Y127709D01*
X284599Y127556D01*
X284419Y127418D01*
X284391Y127404D01*
X284336Y127362D01*
X284238Y127306D01*
X284114Y127237D01*
X283961Y127154D01*
X283794Y127085D01*
X283614Y127015D01*
X283419Y126960D01*
X283392D01*
X283350Y126946D01*
X283295D01*
X283225Y126932D01*
X283128Y126918D01*
X283031Y126904D01*
X282906D01*
X282781Y126890D01*
X282628Y126876D01*
X282462Y126862D01*
X282281Y126848D01*
X282087D01*
X281879Y126835D01*
X280158D01*
Y123212D01*
X278215D01*
Y132817D01*
X281754D01*
X281907Y132803D01*
D02*
G37*
G36*
X258796Y132859D02*
X258921Y132845D01*
X259060Y132831D01*
X259213Y132803D01*
X259379Y132775D01*
X259740Y132678D01*
X260101Y132539D01*
X260295Y132456D01*
X260462Y132359D01*
X260642Y132234D01*
X260795Y132095D01*
X260809Y132081D01*
X260837Y132067D01*
X260864Y132012D01*
X260920Y131956D01*
X260989Y131887D01*
X261059Y131790D01*
X261128Y131693D01*
X261211Y131568D01*
X261350Y131290D01*
X261489Y130971D01*
X261545Y130790D01*
X261572Y130596D01*
X261600Y130388D01*
X261614Y130180D01*
Y130152D01*
Y130069D01*
X261600Y129944D01*
X261586Y129791D01*
X261559Y129597D01*
X261517Y129388D01*
X261461Y129166D01*
X261378Y128944D01*
X261364Y128917D01*
X261336Y128847D01*
X261281Y128722D01*
X261198Y128570D01*
X261100Y128389D01*
X260976Y128181D01*
X260823Y127959D01*
X260642Y127723D01*
X260629Y127709D01*
X260573Y127640D01*
X260490Y127542D01*
X260365Y127404D01*
X260198Y127237D01*
X259990Y127015D01*
X259740Y126779D01*
X259435Y126488D01*
X259421Y126474D01*
X259393Y126460D01*
X259351Y126418D01*
X259296Y126363D01*
X259143Y126224D01*
X258963Y126057D01*
X258783Y125877D01*
X258602Y125697D01*
X258436Y125544D01*
X258380Y125474D01*
X258324Y125419D01*
X258311Y125405D01*
X258283Y125377D01*
X258241Y125322D01*
X258186Y125252D01*
X258061Y125100D01*
X257950Y124919D01*
X261614D01*
Y123212D01*
X255160D01*
Y123226D01*
Y123254D01*
X255174Y123309D01*
X255188Y123379D01*
X255201Y123462D01*
X255215Y123559D01*
X255271Y123809D01*
X255354Y124086D01*
X255465Y124392D01*
X255604Y124725D01*
X255784Y125044D01*
Y125058D01*
X255812Y125086D01*
X255840Y125141D01*
X255895Y125197D01*
X255951Y125294D01*
X256034Y125391D01*
X256131Y125516D01*
X256242Y125655D01*
X256367Y125821D01*
X256520Y125988D01*
X256687Y126182D01*
X256881Y126391D01*
X257089Y126599D01*
X257325Y126835D01*
X257575Y127085D01*
X257853Y127348D01*
X257866Y127362D01*
X257908Y127404D01*
X257963Y127459D01*
X258047Y127542D01*
X258158Y127626D01*
X258269Y127737D01*
X258519Y127987D01*
X258769Y128250D01*
X259018Y128514D01*
X259130Y128625D01*
X259241Y128750D01*
X259324Y128847D01*
X259379Y128930D01*
X259393Y128958D01*
X259435Y129028D01*
X259504Y129139D01*
X259574Y129291D01*
X259643Y129458D01*
X259712Y129652D01*
X259754Y129847D01*
X259768Y130055D01*
Y130069D01*
Y130082D01*
Y130152D01*
X259754Y130277D01*
X259726Y130416D01*
X259685Y130568D01*
X259629Y130721D01*
X259546Y130874D01*
X259435Y131012D01*
X259421Y131026D01*
X259379Y131068D01*
X259296Y131123D01*
X259199Y131179D01*
X259060Y131235D01*
X258907Y131290D01*
X258727Y131332D01*
X258519Y131346D01*
X258422D01*
X258311Y131332D01*
X258186Y131304D01*
X258033Y131262D01*
X257880Y131193D01*
X257728Y131110D01*
X257589Y130999D01*
X257575Y130985D01*
X257533Y130929D01*
X257478Y130846D01*
X257422Y130721D01*
X257353Y130568D01*
X257297Y130360D01*
X257242Y130124D01*
X257214Y129847D01*
X255382Y130027D01*
Y130041D01*
X255396Y130096D01*
Y130166D01*
X255423Y130277D01*
X255437Y130402D01*
X255479Y130541D01*
X255521Y130693D01*
X255562Y130874D01*
X255701Y131221D01*
X255868Y131582D01*
X255979Y131762D01*
X256104Y131929D01*
X256242Y132067D01*
X256395Y132206D01*
X256409Y132220D01*
X256437Y132234D01*
X256478Y132262D01*
X256548Y132317D01*
X256631Y132359D01*
X256742Y132414D01*
X256853Y132484D01*
X256992Y132539D01*
X257145Y132609D01*
X257311Y132664D01*
X257672Y132775D01*
X258102Y132845D01*
X258324Y132859D01*
X258560Y132872D01*
X258699D01*
X258796Y132859D01*
D02*
G37*
G36*
X235894Y131193D02*
X233063D01*
Y123212D01*
X231120D01*
Y131193D01*
X228274D01*
Y132817D01*
X235894D01*
Y131193D01*
D02*
G37*
G36*
X266208Y132859D02*
X266319Y132845D01*
X266458Y132817D01*
X266597Y132789D01*
X266763Y132747D01*
X266944Y132692D01*
X267110Y132623D01*
X267291Y132553D01*
X267471Y132456D01*
X267652Y132331D01*
X267832Y132206D01*
X267999Y132053D01*
X268151Y131873D01*
X268165Y131859D01*
X268193Y131817D01*
X268235Y131748D01*
X268304Y131651D01*
X268373Y131512D01*
X268457Y131346D01*
X268540Y131165D01*
X268623Y130929D01*
X268707Y130679D01*
X268804Y130388D01*
X268873Y130069D01*
X268943Y129708D01*
X269012Y129319D01*
X269054Y128903D01*
X269081Y128445D01*
X269095Y127945D01*
Y127931D01*
Y127917D01*
Y127876D01*
Y127820D01*
Y127681D01*
X269081Y127501D01*
X269068Y127279D01*
X269040Y127015D01*
X269012Y126737D01*
X268984Y126432D01*
X268929Y126113D01*
X268859Y125780D01*
X268790Y125461D01*
X268693Y125141D01*
X268596Y124822D01*
X268457Y124530D01*
X268318Y124253D01*
X268151Y124017D01*
X268138Y124003D01*
X268110Y123975D01*
X268068Y123920D01*
X268013Y123864D01*
X267929Y123795D01*
X267832Y123712D01*
X267707Y123615D01*
X267582Y123531D01*
X267430Y123434D01*
X267277Y123337D01*
X267097Y123254D01*
X266902Y123184D01*
X266694Y123129D01*
X266458Y123073D01*
X266222Y123045D01*
X265972Y123031D01*
X265917D01*
X265833Y123045D01*
X265736D01*
X265625Y123059D01*
X265487Y123087D01*
X265334Y123115D01*
X265167Y123170D01*
X264987Y123226D01*
X264806Y123295D01*
X264612Y123379D01*
X264432Y123489D01*
X264237Y123601D01*
X264057Y123753D01*
X263876Y123906D01*
X263710Y124100D01*
X263696Y124114D01*
X263668Y124156D01*
X263627Y124225D01*
X263585Y124309D01*
X263515Y124433D01*
X263446Y124586D01*
X263363Y124780D01*
X263294Y124989D01*
X263210Y125238D01*
X263127Y125516D01*
X263057Y125835D01*
X263002Y126182D01*
X262947Y126571D01*
X262905Y127001D01*
X262877Y127459D01*
X262863Y127959D01*
Y127973D01*
Y127987D01*
Y128028D01*
Y128084D01*
Y128223D01*
X262877Y128403D01*
X262891Y128625D01*
X262919Y128889D01*
X262947Y129166D01*
X262974Y129472D01*
X263030Y129791D01*
X263085Y130110D01*
X263169Y130443D01*
X263252Y130763D01*
X263363Y131068D01*
X263488Y131360D01*
X263627Y131637D01*
X263793Y131873D01*
X263807Y131887D01*
X263835Y131915D01*
X263876Y131970D01*
X263946Y132026D01*
X264015Y132109D01*
X264112Y132192D01*
X264237Y132276D01*
X264362Y132373D01*
X264515Y132470D01*
X264668Y132553D01*
X264848Y132636D01*
X265042Y132720D01*
X265251Y132775D01*
X265487Y132831D01*
X265722Y132859D01*
X265972Y132872D01*
X266111D01*
X266208Y132859D01*
D02*
G37*
G36*
X299791Y203732D02*
X299903Y203621D01*
X300125Y203473D01*
X300421Y203288D01*
X300791Y203029D01*
X301236Y202732D01*
X301791Y202362D01*
X301828D01*
X301865Y202325D01*
X302050Y202177D01*
X302346Y201992D01*
X302680Y201770D01*
X303457Y201214D01*
X303791Y200955D01*
X304087Y200696D01*
X305457Y199696D01*
X305531Y199659D01*
X305716Y199511D01*
X306049Y199326D01*
X306457Y199104D01*
X306975Y198881D01*
X307568Y198622D01*
X308271Y198437D01*
X309012Y198289D01*
X309049D01*
X309160Y198252D01*
X309382Y198215D01*
X309604Y198178D01*
X309938Y198104D01*
X310271Y198030D01*
X310678Y197956D01*
X311086Y197845D01*
X311974Y197585D01*
X312900Y197252D01*
X313789Y196845D01*
X314159Y196623D01*
X314529Y196400D01*
X315233Y195808D01*
X315270Y195771D01*
X315381Y195660D01*
X315529Y195512D01*
X315714Y195290D01*
X315751Y195253D01*
X315899Y195104D01*
X316122Y194919D01*
X316381Y194697D01*
X316455Y194660D01*
X316640Y194549D01*
X316973Y194401D01*
X317381Y194253D01*
X317418D01*
X317492Y194216D01*
X317677Y194179D01*
X317973Y194068D01*
X318343Y193956D01*
X318862Y193808D01*
X319158Y193734D01*
X319491Y193623D01*
X319899Y193512D01*
X320306Y193401D01*
X320343D01*
X320417Y193364D01*
X320528Y193327D01*
X320713Y193290D01*
X320936Y193216D01*
X321158Y193142D01*
X321750Y192994D01*
X322417Y192808D01*
X323120Y192586D01*
X323861Y192364D01*
X324602Y192142D01*
X324639D01*
X324676Y192105D01*
X324898Y192031D01*
X325194Y191957D01*
X325564Y191809D01*
X325935Y191661D01*
X326268Y191512D01*
X326527Y191364D01*
X326638Y191327D01*
X326675Y191253D01*
Y191216D01*
X326712Y191105D01*
Y190957D01*
Y190809D01*
Y190587D01*
X326638Y190401D01*
X326564Y190253D01*
X326416Y190105D01*
X326379Y190068D01*
X326268Y189957D01*
X326120Y189809D01*
X326046Y189661D01*
Y189624D01*
X326009Y189476D01*
X325935Y189180D01*
X325898Y188994D01*
X325861Y188772D01*
Y188735D01*
Y188661D01*
X325823Y188513D01*
X325786Y188328D01*
X325712Y188069D01*
X325675Y187772D01*
X325564Y187476D01*
X325453Y187106D01*
Y187069D01*
X325416Y186995D01*
X325342Y186884D01*
X325231Y186699D01*
X325083Y186439D01*
X324898Y186180D01*
X324639Y185847D01*
X324342Y185440D01*
X324305Y185403D01*
X324194Y185254D01*
X324046Y185106D01*
X323861Y184884D01*
X323676Y184662D01*
X323454Y184440D01*
X323268Y184292D01*
X323083Y184180D01*
X322972Y185032D01*
X322898Y185069D01*
X322824Y185143D01*
X322676Y185180D01*
X322491Y185254D01*
X322269Y185328D01*
X321972Y185403D01*
X321639Y185477D01*
X321602D01*
X321491Y185514D01*
X321306Y185551D01*
X321084Y185588D01*
X320528Y185625D01*
X319973Y185662D01*
Y185625D01*
X319899Y185588D01*
X319751Y185365D01*
X319565Y185069D01*
X319380Y184810D01*
X319343Y184773D01*
X319232Y184662D01*
X319084Y184551D01*
X318862Y184440D01*
X318825D01*
X318677Y184403D01*
X318529Y184366D01*
X318343D01*
X318232Y184403D01*
X317973Y184440D01*
X317640Y184514D01*
X317603D01*
X317566Y184551D01*
X317344Y184588D01*
X317047Y184625D01*
X316714Y184662D01*
X316566D01*
X316418Y184699D01*
X316196D01*
X315714Y184736D01*
X315233Y184773D01*
X314307D01*
X314122Y184736D01*
X313974D01*
X313826Y184699D01*
X313604Y184662D01*
X313344Y184625D01*
X313233D01*
X313085Y184588D01*
X312937D01*
X312567Y184551D01*
X312233Y184477D01*
Y184514D01*
X312270Y184588D01*
X312308Y184662D01*
X312382Y184810D01*
X312604Y185143D01*
X312900Y185514D01*
X312937Y185551D01*
X313011Y185588D01*
X313159Y185662D01*
X313344Y185773D01*
X313604Y185847D01*
X313863Y185921D01*
X314159Y185958D01*
X314603D01*
X314789Y185921D01*
X315011Y185884D01*
X315307Y185847D01*
X315640Y185810D01*
X316381Y185699D01*
X316418D01*
X316566Y185662D01*
X316751D01*
X316936Y185625D01*
X317381Y185588D01*
X317677D01*
X317714Y185625D01*
X317788Y185699D01*
X318047Y185921D01*
X318269Y186180D01*
X318380Y186328D01*
X318418Y186402D01*
X318380Y186439D01*
X318269Y186550D01*
X318010Y186699D01*
X317677Y186884D01*
X317418Y186995D01*
X317159Y187106D01*
X316862Y187217D01*
X316529Y187328D01*
X316122Y187402D01*
X315677Y187513D01*
X315196Y187624D01*
X314678Y187698D01*
X314566D01*
X314455Y187735D01*
X313270D01*
X312604Y187698D01*
X311900Y187624D01*
X311086Y187476D01*
X310308Y187217D01*
Y187254D01*
X310382Y187328D01*
X310456Y187476D01*
X310567Y187624D01*
X310752Y187809D01*
X311012Y188032D01*
X311382Y188291D01*
X311789Y188513D01*
X311826Y188550D01*
X311974Y188624D01*
X312196Y188698D01*
X312456Y188809D01*
X313085Y189031D01*
X313419Y189143D01*
X313715Y189180D01*
X313863D01*
X314011Y189217D01*
X314233Y189180D01*
X314529D01*
X314900Y189143D01*
X315344Y189068D01*
X315825Y188957D01*
X315899D01*
X316048Y188920D01*
X316307Y188846D01*
X316640Y188772D01*
X317010Y188661D01*
X317418Y188550D01*
X317788Y188402D01*
X318158Y188254D01*
X318195D01*
X318232Y188217D01*
X318455Y188143D01*
X318825Y187995D01*
X319306Y187735D01*
X319343D01*
X319454Y187661D01*
X319602Y187587D01*
X319788Y187513D01*
X320232Y187328D01*
X320676Y187143D01*
X320713D01*
X320787Y187106D01*
X320899D01*
X321084Y187069D01*
X321306Y187032D01*
X321528Y186995D01*
X322120Y186921D01*
X322602D01*
X322898Y186958D01*
X323231Y187032D01*
X323528Y187143D01*
X323824Y187291D01*
X324046Y187513D01*
X324083Y187550D01*
X324120Y187661D01*
X324231Y187847D01*
X324305Y188069D01*
X324416Y188365D01*
X324490Y188735D01*
X324565Y189180D01*
Y189661D01*
X324490D01*
X324342Y189698D01*
X324083D01*
X323787Y189735D01*
X323713D01*
X323528Y189772D01*
X323306Y189809D01*
X323083D01*
X322972Y189846D01*
X322824Y189883D01*
X322639Y189957D01*
X322602Y189994D01*
X322528Y190068D01*
X322417Y190179D01*
X322306Y190365D01*
Y190401D01*
X322232Y190550D01*
X322195Y190772D01*
X322158Y191105D01*
X322083Y191142D01*
X321935Y191179D01*
X321639Y191253D01*
X321306Y191401D01*
X320862Y191512D01*
X320417Y191661D01*
X319380Y191994D01*
X318343Y192327D01*
X317825Y192475D01*
X317381Y192623D01*
X317010Y192734D01*
X316677Y192808D01*
X316455Y192845D01*
X316344Y192883D01*
X316307Y192845D01*
X316233Y192697D01*
X316048Y192438D01*
X315788Y192068D01*
Y192031D01*
X315714Y191994D01*
X315566Y191772D01*
X315381Y191550D01*
X315233Y191364D01*
X315159D01*
X314974Y191401D01*
X314640Y191475D01*
X314270Y191661D01*
X314233D01*
X314159Y191586D01*
X314011Y191550D01*
X313826Y191475D01*
X313789D01*
X313752Y191438D01*
X313641D01*
X313492Y191401D01*
X313122Y191327D01*
X312715Y191290D01*
X312233Y191327D01*
X311752Y191438D01*
X311493Y191550D01*
X311271Y191661D01*
X311086Y191846D01*
X310900Y192068D01*
X310863Y192105D01*
X310826Y192216D01*
X310678Y192438D01*
X310493Y192771D01*
X310308D01*
X310197Y192808D01*
X310049Y192845D01*
X309641Y192957D01*
X309123Y193105D01*
X309086D01*
X309012Y193142D01*
X308901Y193216D01*
X308753Y193290D01*
X308419Y193512D01*
X308271Y193660D01*
X308160Y193808D01*
X308123Y193882D01*
X308049Y194030D01*
X307938Y194253D01*
X307901Y194512D01*
X307975D01*
X308123Y194475D01*
X309345D01*
X310086Y194549D01*
X310234D01*
X310456Y194586D01*
X310752Y194623D01*
X310789D01*
X310826Y194660D01*
X311012Y194697D01*
X311234Y194734D01*
X312048D01*
X312270Y194697D01*
X312456Y194623D01*
X312493Y194586D01*
X312641Y194549D01*
X312789Y194438D01*
X313011Y194290D01*
X313048Y194253D01*
X313085Y194216D01*
X313233Y194105D01*
X313381Y193919D01*
X313419Y193882D01*
X313567Y193808D01*
X313715Y193660D01*
X313863Y193549D01*
X313900D01*
X314011Y193475D01*
X314159Y193401D01*
X314344Y193327D01*
X314381D01*
X314492Y193290D01*
X314640Y193253D01*
X314789Y193290D01*
X314826Y193327D01*
X314900Y193401D01*
X315011Y193512D01*
X315122Y193734D01*
X315085Y193808D01*
X314937Y193993D01*
X314789Y194142D01*
X314640Y194290D01*
X314455Y194475D01*
X314196Y194660D01*
X314122Y194734D01*
X313900Y194882D01*
X313567Y195104D01*
X313159Y195364D01*
X312604Y195660D01*
X311974Y195956D01*
X311271Y196215D01*
X310530Y196400D01*
X310456D01*
X310308Y196475D01*
X310086Y196511D01*
X309752Y196586D01*
X309419Y196660D01*
X309012Y196697D01*
X308605Y196734D01*
X308049D01*
X307864Y196697D01*
X307605Y196623D01*
X307272Y196511D01*
X306938Y196400D01*
X306568Y196215D01*
X306161Y195956D01*
X306123Y195882D01*
X306049Y195808D01*
X305938Y195734D01*
X305901D01*
X305864Y195660D01*
X305679Y195549D01*
X305642Y195512D01*
X305568Y195475D01*
X305457Y195364D01*
X305383Y195290D01*
X305272Y195141D01*
X305198Y195178D01*
X305087Y195253D01*
X304902Y195438D01*
X304642Y195660D01*
X304309Y196030D01*
X304087Y196252D01*
X303865Y196511D01*
X303569Y196808D01*
X303272Y197141D01*
Y197178D01*
X303198Y197215D01*
X303013Y197474D01*
X302717Y197808D01*
X302346Y198215D01*
X301939Y198696D01*
X301569Y199141D01*
X301199Y199622D01*
X300865Y199992D01*
Y200029D01*
X300828Y200066D01*
X300717Y200178D01*
X300680Y200215D01*
X300606Y200252D01*
Y200178D01*
Y200103D01*
Y199992D01*
Y199807D01*
Y199585D01*
Y199289D01*
X300606Y198956D01*
Y198918D01*
Y198807D01*
Y198622D01*
Y198437D01*
Y198030D01*
X300643Y197845D01*
Y197696D01*
Y197659D01*
X300680Y197548D01*
X300754Y197400D01*
X300902Y197215D01*
X300939Y197178D01*
X301087Y197067D01*
X301310Y196919D01*
X301569Y196734D01*
X301606D01*
X301643Y196697D01*
X301791Y196623D01*
X301939Y196548D01*
X302050Y196475D01*
X302013Y196437D01*
X301939Y196400D01*
X301828Y196326D01*
X301643Y196289D01*
X301606D01*
X301532Y196252D01*
X301421D01*
X301273Y196215D01*
X300828Y196104D01*
X300310Y195956D01*
X299717Y195734D01*
X299051Y195475D01*
X298421Y195178D01*
X297792Y194808D01*
X297755Y194771D01*
X297644Y194734D01*
X297496Y194623D01*
X297310Y194512D01*
X296903Y194216D01*
X296718Y194105D01*
X296533Y193956D01*
X296459Y193882D01*
X296311Y193734D01*
X296088Y193549D01*
X295866Y193290D01*
X295829Y193216D01*
X295681Y193068D01*
X295459Y192883D01*
X295163Y192623D01*
X295089Y192549D01*
X294977Y192438D01*
X294866Y192290D01*
X294681Y192068D01*
X294459Y191809D01*
X294163Y191438D01*
X293867Y191031D01*
X293830Y190994D01*
X293756Y190883D01*
X293644Y190735D01*
X293533Y190550D01*
X293274Y190179D01*
X293163Y190031D01*
X293089Y189920D01*
X293052Y189883D01*
X292978Y189735D01*
X292867Y189550D01*
X292719Y189254D01*
X292533Y188883D01*
X292348Y188439D01*
X292126Y187958D01*
X291904Y187365D01*
X291682Y186736D01*
X291423Y186069D01*
X291200Y185328D01*
X291015Y184514D01*
X290830Y183699D01*
X290682Y182810D01*
X290534Y181885D01*
X290460Y180922D01*
Y180811D01*
Y180700D01*
Y180589D01*
Y180403D01*
Y180144D01*
Y180107D01*
Y180033D01*
Y179922D01*
Y179774D01*
X290423Y179441D01*
Y179255D01*
X290386Y179144D01*
Y179107D01*
X290312Y178996D01*
X290238Y178737D01*
X290127Y178404D01*
Y178367D01*
X290090Y178330D01*
X290053Y178108D01*
X289979Y177848D01*
X289941Y177626D01*
X290201Y177960D01*
Y177885D01*
X290164Y177737D01*
Y177663D01*
X290127Y177589D01*
Y177552D01*
Y177478D01*
X290164Y177441D01*
Y177367D01*
X290201Y177330D01*
X290312Y177219D01*
Y177182D01*
X290386Y177145D01*
X290460Y177034D01*
X290534Y176886D01*
X290793Y176515D01*
X291089Y176071D01*
X291386Y175590D01*
X291719Y175108D01*
X292052Y174664D01*
X292311Y174293D01*
X292385Y174219D01*
X292533Y174034D01*
X292756Y173775D01*
X293089Y173442D01*
X293422Y173035D01*
X293830Y172590D01*
X294274Y172183D01*
X294718Y171775D01*
X294755Y171738D01*
X294866Y171664D01*
X295015Y171516D01*
X295274Y171331D01*
X295570Y171109D01*
X295940Y170850D01*
X296385Y170554D01*
X296866Y170220D01*
X297422Y169850D01*
X298051Y169517D01*
X298717Y169109D01*
X299421Y168739D01*
X300236Y168369D01*
X301050Y167998D01*
X301939Y167628D01*
X302902Y167258D01*
X302939D01*
X303050Y167221D01*
X303235Y167147D01*
X303457Y167073D01*
X303754Y166999D01*
X304087Y166887D01*
X304457Y166813D01*
X304902Y166702D01*
X305827Y166480D01*
X306901Y166258D01*
X308012Y166110D01*
X309123Y166036D01*
X309382D01*
Y166073D01*
Y166110D01*
X309419Y166147D01*
X309382Y166184D01*
X309234Y166369D01*
X309012Y166591D01*
X308753Y166887D01*
X308716Y166925D01*
X308642Y166999D01*
X308568Y167147D01*
X308419Y167369D01*
X308234Y167628D01*
X308049Y167961D01*
X307827Y168332D01*
X307605Y168739D01*
X307383Y169220D01*
X307160Y169739D01*
X306938Y170294D01*
X306753Y170887D01*
X306568Y171516D01*
X306383Y172220D01*
X306272Y172960D01*
X306161Y173701D01*
Y173738D01*
Y173812D01*
Y173923D01*
X306123Y174071D01*
Y174479D01*
X306086Y174997D01*
Y175552D01*
X306123Y176219D01*
X306198Y176849D01*
X306309Y177478D01*
Y177515D01*
X306346Y177552D01*
X306383Y177774D01*
X306494Y178071D01*
X306679Y178515D01*
X306901Y178996D01*
X307160Y179515D01*
X307531Y180107D01*
X307938Y180663D01*
X307975Y180700D01*
X308049Y180774D01*
X308160Y180922D01*
X308308Y181070D01*
X308642Y181366D01*
X308827Y181514D01*
X309012Y181588D01*
X308975Y181625D01*
X308827Y181700D01*
X308716D01*
X308568Y181737D01*
X308382Y181774D01*
X308086D01*
X307901Y181737D01*
X307605Y181700D01*
X307197Y181662D01*
X307012D01*
X306790Y181625D01*
X306494Y181551D01*
X306123Y181477D01*
X305716Y181403D01*
X305235Y181255D01*
X304753Y181107D01*
X304679D01*
X304531Y181033D01*
X304272Y180959D01*
X303976Y180885D01*
X303643Y180774D01*
X303272Y180700D01*
X302902Y180626D01*
X302532Y180589D01*
Y180626D01*
X302569Y180663D01*
X302680Y180811D01*
X302828Y181033D01*
X303531Y181737D01*
X303569Y181774D01*
X303717Y181848D01*
X303902Y181996D01*
X304198Y182181D01*
X304531Y182366D01*
X304939Y182551D01*
X305383Y182699D01*
X305864Y182847D01*
X305938D01*
X306123Y182922D01*
X306383Y182958D01*
X306716Y183033D01*
X307123Y183107D01*
X307568Y183144D01*
X308049Y183181D01*
X309012D01*
X309345Y183144D01*
X309752D01*
X310197Y183107D01*
X311197Y183033D01*
X311382D01*
X311604Y182995D01*
X312345D01*
X312863Y182958D01*
X317084Y182958D01*
X317307Y182922D01*
X317566D01*
X317899Y182885D01*
X318455D01*
X318899Y182847D01*
X319417D01*
X319565Y182885D01*
X319714D01*
X319862Y182847D01*
X320232D01*
X320269Y182885D01*
X320417Y182922D01*
X320454D01*
X320528Y182958D01*
X320602Y183033D01*
X320639Y183070D01*
X320676Y183107D01*
X320750Y183181D01*
X320787Y183255D01*
X320862Y183329D01*
X320936Y183440D01*
X320973Y183477D01*
X321047Y183551D01*
X321269Y183736D01*
X321306Y183699D01*
X321380Y183551D01*
X321417Y183403D01*
X321491Y183255D01*
X321565Y183033D01*
X321639Y182773D01*
Y182736D01*
X321676Y182662D01*
Y182551D01*
Y182403D01*
X321639Y182070D01*
X321565Y181922D01*
X321454Y181774D01*
X321417D01*
X321380Y181700D01*
X321195Y181551D01*
X320899Y181366D01*
X320602Y181255D01*
X320454D01*
X320306Y181218D01*
X320158D01*
X319936Y181255D01*
X319714D01*
X319417Y181292D01*
X318788D01*
X318529Y181329D01*
X314048Y181329D01*
X313752Y181292D01*
X313419Y181255D01*
X313011Y181218D01*
X312159Y181070D01*
X311197Y180811D01*
X310271Y180440D01*
X309826Y180218D01*
X309456Y179922D01*
X309123Y179626D01*
X308827Y179255D01*
X308790Y179218D01*
X308716Y179107D01*
X308605Y178922D01*
X308456Y178663D01*
X308160Y178145D01*
X308049Y177848D01*
X307938Y177589D01*
Y177552D01*
X307901Y177515D01*
Y177404D01*
X307864Y177256D01*
X307827Y177071D01*
X307753Y176849D01*
X307679Y176293D01*
X307605Y175627D01*
X307568Y174886D01*
X307605Y174034D01*
X307679Y173146D01*
Y173108D01*
Y173035D01*
X307716Y172923D01*
X307753Y172738D01*
X307790Y172516D01*
X307827Y172294D01*
X307975Y171701D01*
X308160Y171072D01*
X308382Y170368D01*
X308642Y169702D01*
X308975Y169072D01*
Y169035D01*
X309012Y168998D01*
X309160Y168776D01*
X309382Y168443D01*
X309716Y168035D01*
X310049Y167591D01*
X310493Y167110D01*
X310937Y166665D01*
X311419Y166258D01*
X311456Y166221D01*
X311567Y166147D01*
X311789Y165999D01*
X312122Y165814D01*
X312567Y165554D01*
X313122Y165258D01*
X313789Y164888D01*
X314196Y164703D01*
X314640Y164480D01*
X314603D01*
X314492Y164444D01*
X314270D01*
X314011Y164407D01*
X313678Y164369D01*
X313233Y164332D01*
X312752D01*
X312233Y164295D01*
X311641D01*
X310975Y164332D01*
X310234Y164369D01*
X309493Y164407D01*
X308679Y164518D01*
X307827Y164629D01*
X306901Y164777D01*
X305975Y164962D01*
X305901D01*
X305753Y164999D01*
X305494Y165073D01*
X305124Y165147D01*
X304716Y165258D01*
X304198Y165406D01*
X303643Y165554D01*
X303050Y165740D01*
X301754Y166184D01*
X300421Y166665D01*
X299088Y167258D01*
X298458Y167554D01*
X297866Y167887D01*
X297792Y167924D01*
X297607Y168035D01*
X297310Y168258D01*
X296903Y168517D01*
X296459Y168813D01*
X295903Y169183D01*
X295348Y169554D01*
X294755Y169998D01*
X294681Y170072D01*
X294459Y170220D01*
X294126Y170479D01*
X293719Y170813D01*
X293200Y171257D01*
X292645Y171812D01*
X292052Y172405D01*
X291423Y173072D01*
X290497Y174293D01*
X290460Y174330D01*
X290423Y174405D01*
X290312Y174553D01*
X290164Y174775D01*
X290016Y175034D01*
X289830Y175330D01*
X289608Y175664D01*
X289386Y176071D01*
X289349Y176108D01*
X289275Y176256D01*
X289164Y176441D01*
X289016Y176700D01*
X288645Y177182D01*
X288460Y177404D01*
X288238Y177552D01*
X288201Y177589D01*
X288127Y177626D01*
X287868Y177774D01*
X287609Y177960D01*
X287534Y177997D01*
X287460Y178033D01*
X287497Y178071D01*
X287572Y178219D01*
X287720Y178367D01*
X287942Y178589D01*
X288016Y178626D01*
X288127Y178737D01*
X288312Y178885D01*
X288423Y178996D01*
Y179033D01*
X288460Y179070D01*
X288608Y179255D01*
X288720Y179441D01*
X288793Y179589D01*
Y179626D01*
X288830Y179774D01*
Y179885D01*
Y180033D01*
Y180218D01*
Y180477D01*
Y180515D01*
Y180663D01*
X288868Y180885D01*
X288905Y181218D01*
X288942Y181588D01*
X288979Y182033D01*
X289053Y182514D01*
X289127Y183070D01*
X289201Y183662D01*
X289312Y184255D01*
X289608Y185514D01*
X289941Y186810D01*
X290386Y188069D01*
Y188106D01*
X290460Y188217D01*
X290534Y188402D01*
X290645Y188624D01*
X290793Y188920D01*
X290941Y189254D01*
X291163Y189624D01*
X291423Y190031D01*
X291978Y190994D01*
X292682Y191994D01*
X293533Y193105D01*
X294533Y194179D01*
X296681Y195956D01*
X296755Y195993D01*
X296903Y196104D01*
X297125Y196252D01*
X297385Y196437D01*
X297422D01*
X297459Y196475D01*
X297644Y196586D01*
X297940Y196734D01*
X298273Y196919D01*
X298310D01*
X298347Y196956D01*
X298569Y197067D01*
X298829Y197215D01*
X299051Y197363D01*
Y197400D01*
Y197548D01*
X299088Y197771D01*
Y197919D01*
Y198141D01*
X299125Y198363D01*
Y198659D01*
X299162Y199030D01*
X299162Y199437D01*
X299199Y199918D01*
X299236Y200437D01*
Y200474D01*
Y200585D01*
X299273Y200733D01*
Y200918D01*
X299310Y201177D01*
Y201436D01*
X299384Y202029D01*
X299458Y202621D01*
X299532Y203140D01*
X299569Y203399D01*
X299606Y203584D01*
X299643Y203732D01*
X299680Y203806D01*
X299717D01*
X299791Y203732D01*
D02*
G37*
G36*
X305605Y188735D02*
X305975Y188698D01*
X306346Y188587D01*
X306383D01*
X306420Y188550D01*
X306568Y188439D01*
X306531D01*
X306494Y188402D01*
X306383Y188365D01*
X306235Y188328D01*
X305864Y188180D01*
X305457Y187995D01*
X305013Y187772D01*
X304568Y187550D01*
X304198Y187328D01*
X303902Y187106D01*
X303865Y187069D01*
X303791Y187032D01*
X303569Y186810D01*
X303272Y186439D01*
X303013Y186032D01*
Y185995D01*
X302976Y185921D01*
X302939Y185810D01*
X302865Y185699D01*
X302754Y185328D01*
X302643Y184995D01*
Y184921D01*
X302606Y184773D01*
X302569Y184588D01*
Y184477D01*
X302532Y184440D01*
X302458Y184403D01*
X302309Y184329D01*
X302124Y184218D01*
X301717Y184032D01*
X301273Y183884D01*
Y183958D01*
Y184143D01*
X301310Y184440D01*
X301384Y184810D01*
X301495Y185254D01*
X301680Y185810D01*
X301902Y186365D01*
X302235Y186958D01*
X302161D01*
X302013Y186884D01*
X301754Y186847D01*
X301458Y186773D01*
X301162Y186662D01*
X300865Y186587D01*
X300643Y186513D01*
X300458Y186476D01*
X300384Y186439D01*
X300273Y186402D01*
X300162Y186328D01*
X299939Y186217D01*
X299680Y186069D01*
X299347Y185884D01*
X298940Y185662D01*
Y185699D01*
X298977Y185736D01*
X299051Y185958D01*
X299199Y186254D01*
X299458Y186662D01*
X299791Y187069D01*
X300051Y187291D01*
X300310Y187513D01*
X300643Y187735D01*
X300976Y187920D01*
X301384Y188106D01*
X301828Y188291D01*
X301865D01*
X301976Y188328D01*
X302161Y188402D01*
X302421Y188476D01*
X302754Y188550D01*
X303124Y188624D01*
X303569Y188698D01*
X304050Y188735D01*
X304124D01*
X304272Y188772D01*
X305198D01*
X305605Y188735D01*
D02*
G37*
G36*
X303902Y177811D02*
X304235Y177737D01*
X304568Y177626D01*
Y177552D01*
Y177441D01*
X304531Y177293D01*
Y177071D01*
X304494Y176812D01*
X304457Y176478D01*
X304383Y176108D01*
Y176071D01*
X304346Y175923D01*
Y175738D01*
X304309Y175515D01*
X304272Y174997D01*
X304235Y174775D01*
Y174553D01*
Y174516D01*
Y174368D01*
X304272Y174219D01*
Y174071D01*
Y173886D01*
X304309Y173627D01*
Y173590D01*
X304346Y173516D01*
Y173368D01*
X304383Y173220D01*
X304420Y172812D01*
X304494Y172368D01*
Y172331D01*
Y172294D01*
X304531Y172072D01*
Y171850D01*
Y171738D01*
X304494Y171701D01*
Y171738D01*
X304457Y171812D01*
X304383Y171961D01*
X304272Y172146D01*
X304235Y172183D01*
X304198Y172331D01*
X304087Y172479D01*
X304013Y172627D01*
X303976Y172701D01*
X303939Y172886D01*
X303828Y173146D01*
X303717Y173553D01*
X303606Y174071D01*
X303531Y174664D01*
X303457Y175330D01*
X303420Y176108D01*
X303087D01*
X302902Y176071D01*
X302643Y175997D01*
X302346Y175923D01*
X302087Y175775D01*
X301791Y175590D01*
X301754Y175552D01*
X301680Y175478D01*
X301532Y175367D01*
X301384Y175182D01*
X301162Y174997D01*
X300939Y174738D01*
X300495Y174182D01*
X300458Y174145D01*
X300421Y174071D01*
X300310Y173923D01*
X300199Y173775D01*
X299903Y173442D01*
X299791Y173331D01*
X299680Y173257D01*
Y173331D01*
X299717Y173516D01*
X299754Y173775D01*
X299829Y174145D01*
X299939Y174553D01*
X300088Y175034D01*
X300273Y175552D01*
X300532Y176071D01*
X300569Y176145D01*
X300680Y176293D01*
X300828Y176515D01*
X301050Y176812D01*
X301310Y177108D01*
X301643Y177367D01*
X302013Y177589D01*
X302383Y177737D01*
X302458D01*
X302606Y177774D01*
X302865Y177811D01*
X303198Y177848D01*
X303531D01*
X303902Y177811D01*
D02*
G37*
%LPC*%
G36*
X164511Y120415D02*
X164502D01*
X164483D01*
X164465D01*
X164428Y120406D01*
X164326Y120396D01*
X164215Y120378D01*
X164085Y120341D01*
X163947Y120295D01*
X163817Y120221D01*
X163706Y120138D01*
X163697Y120128D01*
X163660Y120091D01*
X163614Y120036D01*
X163558Y119962D01*
X163512Y119869D01*
X163466Y119758D01*
X163429Y119638D01*
X163419Y119499D01*
Y119434D01*
X163438Y119360D01*
X163456Y119268D01*
X163493Y119166D01*
X163540Y119055D01*
X163614Y118944D01*
X163715Y118842D01*
X163725Y118833D01*
X163771Y118806D01*
X163836Y118759D01*
X163928Y118713D01*
X164039Y118658D01*
X164178Y118621D01*
X164335Y118593D01*
X164511Y118584D01*
Y120415D01*
D02*
G37*
G36*
X162707Y115124D02*
X162689D01*
X162652D01*
X162596Y115115D01*
X162522Y115105D01*
X162439Y115078D01*
X162356Y115050D01*
X162263Y115004D01*
X162189Y114948D01*
X162180Y114939D01*
X162152Y114920D01*
X162124Y114874D01*
X162078Y114819D01*
X162032Y114754D01*
X161995Y114671D01*
X161958Y114569D01*
X161930Y114458D01*
Y114449D01*
X161921Y114421D01*
Y114365D01*
X161912Y114282D01*
Y114079D01*
X161902Y113996D01*
Y112515D01*
X163530D01*
Y113774D01*
X163521Y113959D01*
X163512Y114153D01*
X163503Y114347D01*
X163493Y114430D01*
X163484Y114504D01*
X163466Y114578D01*
X163456Y114625D01*
Y114634D01*
X163438Y114662D01*
X163419Y114708D01*
X163392Y114754D01*
X163308Y114874D01*
X163253Y114930D01*
X163188Y114985D01*
X163179Y114995D01*
X163151Y115004D01*
X163114Y115032D01*
X163059Y115059D01*
X162985Y115078D01*
X162901Y115105D01*
X162809Y115115D01*
X162707Y115124D01*
D02*
G37*
G36*
X281601Y131193D02*
X280158D01*
Y128459D01*
X281490D01*
X281587Y128472D01*
X281837D01*
X282087Y128486D01*
X282337Y128514D01*
X282559Y128556D01*
X282656Y128570D01*
X282739Y128597D01*
X282753Y128611D01*
X282809Y128625D01*
X282878Y128667D01*
X282961Y128708D01*
X283059Y128778D01*
X283156Y128861D01*
X283267Y128958D01*
X283350Y129069D01*
X283364Y129083D01*
X283392Y129125D01*
X283419Y129194D01*
X283461Y129291D01*
X283503Y129402D01*
X283544Y129527D01*
X283558Y129666D01*
X283572Y129819D01*
Y129847D01*
Y129902D01*
X283558Y129999D01*
X283530Y130124D01*
X283489Y130263D01*
X283433Y130416D01*
X283364Y130554D01*
X283253Y130693D01*
X283239Y130707D01*
X283197Y130749D01*
X283128Y130804D01*
X283045Y130874D01*
X282934Y130957D01*
X282795Y131026D01*
X282642Y131082D01*
X282476Y131123D01*
X282462D01*
X282406Y131137D01*
X282309Y131151D01*
X282170Y131165D01*
X281990D01*
X281865Y131179D01*
X281740D01*
X281601Y131193D01*
D02*
G37*
G36*
X265972Y131346D02*
X265917D01*
X265847Y131332D01*
X265778Y131318D01*
X265681Y131290D01*
X265584Y131248D01*
X265473Y131193D01*
X265375Y131123D01*
X265362Y131110D01*
X265334Y131082D01*
X265292Y131026D01*
X265237Y130957D01*
X265167Y130846D01*
X265112Y130721D01*
X265042Y130554D01*
X264987Y130360D01*
Y130346D01*
X264973Y130332D01*
Y130277D01*
X264959Y130221D01*
X264945Y130138D01*
X264931Y130041D01*
X264917Y129930D01*
X264903Y129791D01*
X264876Y129624D01*
X264862Y129458D01*
X264848Y129250D01*
X264834Y129042D01*
X264820Y128792D01*
Y128542D01*
X264806Y128250D01*
Y127945D01*
Y127931D01*
Y127876D01*
Y127778D01*
Y127667D01*
Y127529D01*
X264820Y127376D01*
Y127196D01*
X264834Y127015D01*
X264848Y126626D01*
X264876Y126238D01*
X264890Y126057D01*
X264917Y125891D01*
X264945Y125738D01*
X264973Y125599D01*
X264987Y125572D01*
X265001Y125502D01*
X265042Y125391D01*
X265084Y125266D01*
X265153Y125127D01*
X265223Y124989D01*
X265306Y124864D01*
X265389Y124767D01*
X265403Y124753D01*
X265431Y124739D01*
X265487Y124697D01*
X265556Y124669D01*
X265639Y124628D01*
X265736Y124586D01*
X265847Y124572D01*
X265972Y124558D01*
X266028D01*
X266097Y124572D01*
X266167Y124586D01*
X266264Y124614D01*
X266361Y124642D01*
X266458Y124697D01*
X266555Y124767D01*
X266569Y124780D01*
X266597Y124808D01*
X266652Y124864D01*
X266708Y124947D01*
X266763Y125044D01*
X266833Y125183D01*
X266902Y125336D01*
X266958Y125530D01*
Y125544D01*
X266972Y125558D01*
Y125613D01*
X266986Y125669D01*
X266999Y125752D01*
X267013Y125849D01*
X267041Y125960D01*
X267055Y126099D01*
X267069Y126252D01*
X267097Y126432D01*
X267110Y126626D01*
X267124Y126848D01*
X267138Y127085D01*
Y127348D01*
X267152Y127640D01*
Y127945D01*
Y127959D01*
Y128014D01*
Y128112D01*
Y128223D01*
Y128361D01*
X267138Y128514D01*
Y128694D01*
X267124Y128875D01*
X267110Y129264D01*
X267083Y129638D01*
X267055Y129819D01*
X267027Y129999D01*
X266999Y130152D01*
X266972Y130277D01*
Y130291D01*
X266958Y130305D01*
X266944Y130374D01*
X266902Y130485D01*
X266861Y130624D01*
X266791Y130763D01*
X266722Y130902D01*
X266638Y131026D01*
X266555Y131123D01*
X266541Y131137D01*
X266514Y131165D01*
X266458Y131193D01*
X266389Y131235D01*
X266305Y131276D01*
X266208Y131318D01*
X266097Y131332D01*
X265972Y131346D01*
D02*
G37*
%LPD*%
D10*
X122539Y27559D02*
G03*
X122539Y27559I-492J0D01*
G01*
D11*
X145669Y-78740D02*
G03*
X145669Y-78740I-19685J0D01*
G01*
X352362Y119095D02*
G03*
X352362Y119095I-24606J0D01*
G01*
X253937Y-76772D02*
G03*
X253937Y-76772I-9843J0D01*
G01*
X360236Y-15748D02*
G03*
X360236Y-15748I-9843J0D01*
G01*
X145669Y-122047D02*
G03*
X145669Y-122047I-19685J0D01*
G01*
X225544Y-87647D02*
G03*
X225544Y-65896I-5071J10876D01*
G01*
X140984Y-63110D02*
Y-59110D01*
X138984Y-61110D02*
X142984D01*
X6299Y-82874D02*
X29134D01*
Y-3740D02*
X29134Y-82874D01*
X6299Y-3740D02*
X6299Y-82874D01*
X6299Y-3740D02*
X29134D01*
X154724Y116535D02*
Y139370D01*
X105118D02*
X154724D01*
X105118Y116535D02*
X154724D01*
X105118D02*
Y139370D01*
X27362Y-145276D02*
X67126D01*
Y-122441D01*
X27362D02*
X67126D01*
X27362Y-145276D02*
Y-122441D01*
X24409Y116535D02*
X54331D01*
Y139370D01*
X24409Y116535D02*
Y139370D01*
X54331D01*
X166142Y-139370D02*
X196063D01*
Y-116535D01*
X166142Y-139370D02*
Y-116535D01*
X196063D01*
X352854Y101870D02*
Y106791D01*
X350394Y104331D02*
X355315D01*
X297087Y-19248D02*
Y-12248D01*
Y-19248D02*
X298587Y-20748D01*
X317087D01*
Y-10748D01*
X298587D02*
X317087D01*
X297087Y-12248D02*
X298587Y-10748D01*
X253095Y-68272D02*
Y-64272D01*
X251095Y-66272D02*
X255095D01*
X341394Y-28248D02*
Y-24248D01*
X339394Y-26248D02*
X343394D01*
X138984Y-104417D02*
X142984D01*
X140984Y-106417D02*
Y-102417D01*
X324803Y-132283D02*
Y-111811D01*
X331496Y-132283D02*
Y-111811D01*
X298425Y-132283D02*
X331496D01*
X298425D02*
Y-111811D01*
X331496D01*
X297087Y-27996D02*
X298587Y-26496D01*
X317087D01*
Y-36496D02*
Y-26496D01*
X298587Y-36496D02*
X317087D01*
X297087Y-34996D02*
X298587Y-36496D01*
X297087Y-34996D02*
Y-27996D01*
X315587Y69803D02*
X317087Y71303D01*
X297087Y69803D02*
X315587D01*
X297087D02*
Y79803D01*
X315587D01*
X317087Y78303D01*
Y71303D02*
Y78303D01*
X214488Y-86772D02*
Y-66772D01*
X236614Y-141142D02*
Y-106496D01*
X204331D02*
X236614D01*
X204331Y-141142D02*
X236614D01*
X204331D02*
Y-106496D01*
X350591Y-58661D02*
X385236D01*
X350591Y-90945D02*
Y-58661D01*
X385236Y-90945D02*
Y-58661D01*
X350591Y-90945D02*
X385236D01*
X150000Y10630D02*
X164961D01*
Y28740D01*
X150000D02*
X164961D01*
X150000Y10630D02*
Y28740D01*
X186850Y140984D02*
X206850D01*
Y110984D02*
Y140984D01*
X186850Y110984D02*
X206850D01*
X186850D02*
Y140984D01*
X71772Y100079D02*
Y140079D01*
X81772Y100079D02*
Y140079D01*
X71772Y100079D02*
X81772D01*
X71772Y140079D02*
X81772D01*
X19410Y18425D02*
X39409D01*
Y78425D01*
X19410Y18425D02*
Y78425D01*
X39409D01*
X251063Y-50039D02*
Y-30039D01*
X201063Y-50039D02*
X251063D01*
X201063Y-30039D02*
X251063D01*
X201063Y-50039D02*
Y-30039D01*
D12*
X300590Y62008D02*
G03*
X300590Y62008I-591J0D01*
G01*
X72638Y-62992D02*
G03*
X72638Y-62992I-591J0D01*
G01*
X222244Y-17559D02*
G03*
X222244Y-17559I-591J0D01*
G01*
Y21811D02*
G03*
X222244Y21811I-591J0D01*
G01*
D13*
X215465Y-63272D02*
G03*
X215465Y-63272I-492J0D01*
G01*
X156595Y-44882D02*
G03*
X156595Y-44882I-492J0D01*
G01*
D14*
X118898Y30709D02*
Y55905D01*
X93701Y30709D02*
Y55905D01*
Y30709D02*
X118898D01*
X93701Y55905D02*
X118898D01*
X302756Y19094D02*
Y59646D01*
X311417Y19094D02*
Y59646D01*
X302756D02*
X311417D01*
X302756Y19094D02*
X311417D01*
X313583Y-54528D02*
Y-50984D01*
X310433Y-54528D02*
X313583D01*
X300590D02*
Y-50984D01*
Y-54528D02*
X303740D01*
X239370Y105118D02*
X242913D01*
Y101969D02*
Y105118D01*
X239370Y92126D02*
X242913D01*
Y95276D01*
X381268Y-23031D02*
Y19094D01*
X385236Y-23031D02*
Y19094D01*
X366732D02*
X385236D01*
X366732Y-23031D02*
X385236D01*
X366732D02*
Y19094D01*
X156102Y-38465D02*
X182480D01*
X156102Y-28465D02*
X182480D01*
X156102Y-38465D02*
Y-28465D01*
X182480Y-38465D02*
Y-28465D01*
X381890Y39961D02*
Y82087D01*
X385858Y39961D02*
Y82087D01*
X367354D02*
X385858D01*
X367354Y39961D02*
X385858D01*
X367354D02*
Y82087D01*
X69291Y-59842D02*
Y-18898D01*
X60630Y-59842D02*
Y-18898D01*
Y-59842D02*
X69291D01*
X60630Y-18898D02*
X69291D01*
X218898Y-13780D02*
Y5906D01*
X210236Y-13780D02*
Y5906D01*
Y-13780D02*
X218898D01*
X210236Y5906D02*
X218898D01*
Y25591D02*
Y45276D01*
X210236Y25591D02*
Y45276D01*
Y25591D02*
X218898D01*
X210236Y45276D02*
X218898D01*
D15*
X251969Y-141732D02*
Y-102362D01*
Y-141732D02*
X370079D01*
Y-102362D01*
X251969D02*
X370079D01*
X61303Y-104236D02*
X87303D01*
X61303Y-116236D02*
Y-104236D01*
Y-116236D02*
X87303D01*
X89303Y-114236D02*
Y-106236D01*
X87303Y-104236D02*
X89303Y-106236D01*
X87303Y-116236D02*
X89303Y-114236D01*
X61303Y-88488D02*
X87303D01*
X61303Y-100488D02*
Y-88488D01*
Y-100488D02*
X87303D01*
X89303Y-98488D02*
Y-90488D01*
X87303Y-88488D02*
X89303Y-90488D01*
X87303Y-100488D02*
X89303Y-98488D01*
X29807Y-104236D02*
X55807D01*
X29807Y-116236D02*
Y-104236D01*
Y-116236D02*
X55807D01*
X57807Y-114236D02*
Y-106236D01*
X55807Y-104236D02*
X57807Y-106236D01*
X55807Y-116236D02*
X57807Y-114236D01*
X29807Y-88488D02*
X55807D01*
X29807Y-100488D02*
Y-88488D01*
Y-100488D02*
X55807D01*
X57807Y-98488D02*
Y-90488D01*
X55807Y-88488D02*
X57807Y-90488D01*
X55807Y-100488D02*
X57807Y-98488D01*
X289793Y122130D02*
X293792Y116132D01*
Y122130D02*
X289793Y116132D01*
X299790D02*
X295791D01*
X299790Y120131D01*
Y121131D01*
X298790Y122130D01*
X296791D01*
X295791Y121131D01*
X168400Y15648D02*
X174398Y19647D01*
X168400D02*
X174398Y15648D01*
Y21646D02*
Y23645D01*
Y22646D01*
X168400D01*
X169400Y21646D01*
X57498Y-9554D02*
Y-14552D01*
X58498Y-15552D01*
X60497D01*
X61497Y-14552D01*
Y-9554D01*
X63497Y-15552D02*
X65496D01*
X64496D01*
Y-9554D01*
X63497Y-10554D01*
X68495D02*
X69495Y-9554D01*
X71494D01*
X72494Y-10554D01*
Y-14552D01*
X71494Y-15552D01*
X69495D01*
X68495Y-14552D01*
Y-10554D01*
X302098Y15746D02*
Y10748D01*
X303098Y9748D01*
X305098D01*
X306097Y10748D01*
Y15746D01*
X308097Y14746D02*
X309096Y15746D01*
X311095D01*
X312095Y14746D01*
Y13747D01*
X311095Y12747D01*
X312095Y11747D01*
Y10748D01*
X311095Y9748D01*
X309096D01*
X308097Y10748D01*
Y11747D01*
X309096Y12747D01*
X308097Y13747D01*
Y14746D01*
X309096Y12747D02*
X311095D01*
X209545Y54798D02*
Y49800D01*
X210545Y48800D01*
X212544D01*
X213544Y49800D01*
Y54798D01*
X215543D02*
X219542D01*
Y53798D01*
X215543Y49800D01*
Y48800D01*
X209545Y15498D02*
Y10500D01*
X210545Y9500D01*
X212544D01*
X213544Y10500D01*
Y15498D01*
X219542D02*
X217542Y14498D01*
X215543Y12499D01*
Y10500D01*
X216543Y9500D01*
X218542D01*
X219542Y10500D01*
Y11499D01*
X218542Y12499D01*
X215543D01*
X101301Y82133D02*
Y77135D01*
X102301Y76135D01*
X104300D01*
X105299Y77135D01*
Y82133D01*
X111298D02*
X107299D01*
Y79134D01*
X109298Y80133D01*
X110298D01*
X111298Y79134D01*
Y77135D01*
X110298Y76135D01*
X108299D01*
X107299Y77135D01*
X142098Y-30454D02*
Y-35452D01*
X143098Y-36452D01*
X145097D01*
X146097Y-35452D01*
Y-30454D01*
X151095Y-36452D02*
Y-30454D01*
X148097Y-33453D01*
X152095D01*
X367998Y93446D02*
Y88448D01*
X368998Y87448D01*
X370998D01*
X371997Y88448D01*
Y93446D01*
X373996Y92446D02*
X374996Y93446D01*
X376995D01*
X377995Y92446D01*
Y91447D01*
X376995Y90447D01*
X375996D01*
X376995D01*
X377995Y89447D01*
Y88448D01*
X376995Y87448D01*
X374996D01*
X373996Y88448D01*
X214198Y-53254D02*
Y-58252D01*
X215198Y-59252D01*
X217197D01*
X218197Y-58252D01*
Y-53254D01*
X224195Y-59252D02*
X220197D01*
X224195Y-55253D01*
Y-54254D01*
X223196Y-53254D01*
X221196D01*
X220197Y-54254D01*
X367298Y30459D02*
Y25461D01*
X368298Y24461D01*
X370298D01*
X371297Y25461D01*
Y30459D01*
X373296Y24461D02*
X375296D01*
X374296D01*
Y30459D01*
X373296Y29460D01*
X252498Y-98852D02*
Y-92854D01*
X255498D01*
X256497Y-93854D01*
Y-95853D01*
X255498Y-96853D01*
X252498D01*
X254498D02*
X256497Y-98852D01*
X258496D02*
X260496D01*
X259496D01*
Y-92854D01*
X258496Y-93854D01*
X267494Y-92854D02*
X263495D01*
Y-95853D01*
X265494Y-94853D01*
X266494D01*
X267494Y-95853D01*
Y-97852D01*
X266494Y-98852D01*
X264494D01*
X263495Y-97852D01*
X37097Y110146D02*
X35098D01*
X36097D01*
Y105148D01*
X35098Y104148D01*
X34098D01*
X33098Y105148D01*
X39097Y104148D02*
X41096D01*
X40096D01*
Y110146D01*
X39097Y109146D01*
X44095Y104148D02*
X46094D01*
X45094D01*
Y110146D01*
X44095Y109146D01*
X14197Y5646D02*
X12198D01*
X13197D01*
Y648D01*
X12198Y-352D01*
X11198D01*
X10198Y648D01*
X16196Y-352D02*
X18196D01*
X17196D01*
Y5646D01*
X16196Y4646D01*
X21195D02*
X22195Y5646D01*
X24194D01*
X25194Y4646D01*
Y648D01*
X24194Y-352D01*
X22195D01*
X21195Y648D01*
Y4646D01*
X208956Y-97080D02*
X206957D01*
X207957D01*
Y-102078D01*
X206957Y-103078D01*
X205957D01*
X204958Y-102078D01*
X210956D02*
X211955Y-103078D01*
X213955D01*
X214954Y-102078D01*
Y-98080D01*
X213955Y-97080D01*
X211955D01*
X210956Y-98080D01*
Y-99079D01*
X211955Y-100079D01*
X214954D01*
X355197Y-49254D02*
X353198D01*
X354198D01*
Y-54252D01*
X353198Y-55252D01*
X352198D01*
X351198Y-54252D01*
X357196Y-50254D02*
X358196Y-49254D01*
X360195D01*
X361195Y-50254D01*
Y-51253D01*
X360195Y-52253D01*
X361195Y-53253D01*
Y-54252D01*
X360195Y-55252D01*
X358196D01*
X357196Y-54252D01*
Y-53253D01*
X358196Y-52253D01*
X357196Y-51253D01*
Y-50254D01*
X358196Y-52253D02*
X360195D01*
X156697Y-124954D02*
X154698D01*
X155698D01*
Y-129952D01*
X154698Y-130952D01*
X153698D01*
X152698Y-129952D01*
X158696Y-124954D02*
X162695D01*
Y-125954D01*
X158696Y-129952D01*
Y-130952D01*
X62400Y119047D02*
Y117047D01*
Y118047D01*
X67399D01*
X68398Y117047D01*
Y116048D01*
X67399Y115048D01*
X62400Y125045D02*
X63400Y123045D01*
X65399Y121046D01*
X67399D01*
X68398Y122046D01*
Y124045D01*
X67399Y125045D01*
X66399D01*
X65399Y124045D01*
Y121046D01*
X177432Y124984D02*
Y122984D01*
Y123984D01*
X182430D01*
X183430Y122984D01*
Y121985D01*
X182430Y120985D01*
X177432Y130982D02*
Y126983D01*
X180431D01*
X179431Y128982D01*
Y129982D01*
X180431Y130982D01*
X182430D01*
X183430Y129982D01*
Y127983D01*
X182430Y126983D01*
X23997Y87846D02*
X21998D01*
X22998D01*
Y82848D01*
X21998Y81848D01*
X20998D01*
X19998Y82848D01*
X28995Y81848D02*
Y87846D01*
X25997Y84847D01*
X29995D01*
X205697Y-20654D02*
X203698D01*
X204697D01*
Y-25652D01*
X203698Y-26652D01*
X202698D01*
X201698Y-25652D01*
X207697Y-21654D02*
X208696Y-20654D01*
X210696D01*
X211695Y-21654D01*
Y-22653D01*
X210696Y-23653D01*
X209696D01*
X210696D01*
X211695Y-24653D01*
Y-25652D01*
X210696Y-26652D01*
X208696D01*
X207697Y-25652D01*
X128897Y113146D02*
X126898D01*
X127898D01*
Y108148D01*
X126898Y107148D01*
X125898D01*
X124898Y108148D01*
X134895Y107148D02*
X130896D01*
X134895Y111147D01*
Y112146D01*
X133896Y113146D01*
X131896D01*
X130896Y112146D01*
X19997Y-130854D02*
X17998D01*
X18997D01*
Y-135852D01*
X17998Y-136852D01*
X16998D01*
X15998Y-135852D01*
X21996Y-136852D02*
X23996D01*
X22996D01*
Y-130854D01*
X21996Y-131854D01*
X306025Y-91489D02*
Y-97487D01*
X309024D01*
X310024Y-96487D01*
Y-92489D01*
X309024Y-91489D01*
X306025D01*
X316022D02*
X312023D01*
Y-94488D01*
X314023Y-93489D01*
X315022D01*
X316022Y-94488D01*
Y-96487D01*
X315022Y-97487D01*
X313023D01*
X312023Y-96487D01*
X16335Y-107254D02*
Y-113252D01*
X19334D01*
X20334Y-112252D01*
Y-108254D01*
X19334Y-107254D01*
X16335D01*
X25332Y-113252D02*
Y-107254D01*
X22333Y-110253D01*
X26332D01*
X16335Y-91454D02*
Y-97452D01*
X19334D01*
X20334Y-96452D01*
Y-92454D01*
X19334Y-91454D01*
X16335D01*
X22333Y-92454D02*
X23333Y-91454D01*
X25332D01*
X26332Y-92454D01*
Y-93453D01*
X25332Y-94453D01*
X24333D01*
X25332D01*
X26332Y-95453D01*
Y-96452D01*
X25332Y-97452D01*
X23333D01*
X22333Y-96452D01*
X92798Y-107254D02*
Y-113252D01*
X95797D01*
X96797Y-112252D01*
Y-108254D01*
X95797Y-107254D01*
X92798D01*
X102795Y-113252D02*
X98796D01*
X102795Y-109253D01*
Y-108254D01*
X101795Y-107254D01*
X99796D01*
X98796Y-108254D01*
X92798Y-91454D02*
Y-97452D01*
X95797D01*
X96797Y-96452D01*
Y-92454D01*
X95797Y-91454D01*
X92798D01*
X98796Y-97452D02*
X100796D01*
X99796D01*
Y-91454D01*
X98796Y-92454D01*
X238897Y-55854D02*
X237897Y-54854D01*
X235898D01*
X234898Y-55854D01*
Y-59852D01*
X235898Y-60852D01*
X237897D01*
X238897Y-59852D01*
X244895Y-54854D02*
X240897D01*
Y-60852D01*
X244895D01*
X240897Y-57853D02*
X242896D01*
X249894Y-60852D02*
Y-54854D01*
X246895Y-57853D01*
X250893D01*
X97900Y-137153D02*
X96900Y-138153D01*
Y-140152D01*
X97900Y-141152D01*
X101899D01*
X102898Y-140152D01*
Y-138153D01*
X101899Y-137153D01*
X96900Y-131155D02*
Y-135154D01*
X102898D01*
Y-131155D01*
X99899Y-135154D02*
Y-133155D01*
X97900Y-129156D02*
X96900Y-128156D01*
Y-126157D01*
X97900Y-125157D01*
X98900D01*
X99899Y-126157D01*
Y-127156D01*
Y-126157D01*
X100899Y-125157D01*
X101899D01*
X102898Y-126157D01*
Y-128156D01*
X101899Y-129156D01*
X345797Y-32654D02*
X344797Y-31654D01*
X342798D01*
X341798Y-32654D01*
Y-36652D01*
X342798Y-37652D01*
X344797D01*
X345797Y-36652D01*
X351795Y-31654D02*
X347797D01*
Y-37652D01*
X351795D01*
X347797Y-34653D02*
X349796D01*
X357793Y-37652D02*
X353795D01*
X357793Y-33653D01*
Y-32654D01*
X356794Y-31654D01*
X354794D01*
X353795Y-32654D01*
X150100Y-93853D02*
X149100Y-94853D01*
Y-96852D01*
X150100Y-97852D01*
X154099D01*
X155098Y-96852D01*
Y-94853D01*
X154099Y-93853D01*
X149100Y-87855D02*
Y-91854D01*
X155098D01*
Y-87855D01*
X152099Y-91854D02*
Y-89855D01*
X155098Y-85856D02*
Y-83856D01*
Y-84856D01*
X149100D01*
X150100Y-85856D01*
X0Y-148228D02*
Y148228D01*
X395669D01*
X395669Y-148228D01*
X0D02*
X395669D01*
D16*
X94291Y78740D02*
X96653D01*
X137795Y65748D02*
Y68110D01*
X187795Y-86614D02*
X190157D01*
X172047D02*
X174409D01*
X279528Y6693D02*
Y9055D01*
Y14567D02*
Y16929D01*
Y22441D02*
Y24803D01*
X179921Y-102362D02*
X182283D01*
X187795D02*
X190157D01*
X157480Y50000D02*
Y52362D01*
X279528Y30315D02*
Y32677D01*
X157480Y57874D02*
Y60236D01*
X279528Y-9055D02*
Y-6693D01*
X157480Y42126D02*
Y44488D01*
X279528Y-1181D02*
Y1181D01*
X172047Y-102362D02*
X174409D01*
X334646Y14567D02*
Y16929D01*
X326772Y-16929D02*
Y-14567D01*
X321654Y-51181D02*
X324016D01*
X334646Y6693D02*
Y9055D01*
Y22441D02*
Y24803D01*
Y46063D02*
Y48425D01*
X279528Y93307D02*
Y95669D01*
Y101181D02*
Y103543D01*
X334646Y53937D02*
Y56299D01*
X355118Y3937D02*
X357480D01*
X199606Y-86614D02*
X201969D01*
X162402Y-60236D02*
Y-57874D01*
X176181Y-60236D02*
Y-57874D01*
X357087Y49213D02*
X359449D01*
X357087Y69488D02*
X359449D01*
X43701Y3150D02*
X46063D01*
X242126Y14567D02*
Y16929D01*
Y-9055D02*
Y-6693D01*
Y-1181D02*
Y1181D01*
X190945Y-12618D02*
Y-10256D01*
X242126Y6693D02*
Y9055D01*
Y53937D02*
Y56299D01*
Y30315D02*
Y32677D01*
Y38189D02*
Y40551D01*
X190945Y26752D02*
Y29114D01*
X242126Y46063D02*
Y48425D01*
X279528Y53937D02*
Y56299D01*
Y38189D02*
Y40551D01*
Y61811D02*
Y64173D01*
X157480Y73622D02*
Y75984D01*
X279528Y46063D02*
Y48425D01*
X157480Y65748D02*
Y68110D01*
X279528Y69685D02*
Y72047D01*
X157480Y81496D02*
Y83858D01*
X334646Y38189D02*
Y40551D01*
X279528Y77559D02*
Y79921D01*
Y85433D02*
Y87795D01*
X137795Y73622D02*
Y75984D01*
Y50000D02*
Y52362D01*
Y57874D02*
Y60236D01*
X116929Y13780D02*
X119291D01*
X77559Y29134D02*
X79921D01*
X157480Y34252D02*
Y36614D01*
Y2756D02*
Y5118D01*
X189764Y96457D02*
X192126D01*
X201575D02*
X203937D01*
X111811Y104134D02*
Y106496D01*
D17*
X289198Y-14253D02*
Y-17252D01*
X290698D01*
X291198Y-16752D01*
Y-14753D01*
X290698Y-14253D01*
X289198D01*
X292197D02*
X294197D01*
Y-14753D01*
X292197Y-16752D01*
Y-17252D01*
X94499Y88047D02*
X93999Y87548D01*
Y86548D01*
X94499Y86048D01*
X96499D01*
X96998Y86548D01*
Y87548D01*
X96499Y88047D01*
X96998Y91046D02*
Y89047D01*
X94999Y91046D01*
X94499D01*
X93999Y90547D01*
Y89547D01*
X94499Y89047D01*
Y92046D02*
X93999Y92546D01*
Y93546D01*
X94499Y94045D01*
X94999D01*
X95499Y93546D01*
Y93046D01*
Y93546D01*
X95999Y94045D01*
X96499D01*
X96998Y93546D01*
Y92546D01*
X96499Y92046D01*
X52498Y-852D02*
X49499D01*
Y648D01*
X49999Y1147D01*
X50999D01*
X51499Y648D01*
Y-852D01*
Y148D02*
X52498Y1147D01*
X49999Y2147D02*
X49499Y2647D01*
Y3647D01*
X49999Y4146D01*
X50499D01*
X50999Y3647D01*
Y3147D01*
Y3647D01*
X51499Y4146D01*
X51999D01*
X52498Y3647D01*
Y2647D01*
X51999Y2147D01*
X49999Y5146D02*
X49499Y5646D01*
Y6646D01*
X49999Y7145D01*
X51999D01*
X52498Y6646D01*
Y5646D01*
X51999Y5146D01*
X49999D01*
X341998Y53648D02*
Y56647D01*
X343498D01*
X343998Y56147D01*
Y55148D01*
X343498Y54648D01*
X341998D01*
X342998D02*
X343998Y53648D01*
X346997D02*
X344998D01*
X346997Y55647D01*
Y56147D01*
X346497Y56647D01*
X345497D01*
X344998Y56147D01*
X347996Y54148D02*
X348496Y53648D01*
X349496D01*
X349996Y54148D01*
Y56147D01*
X349496Y56647D01*
X348496D01*
X347996Y56147D01*
Y55647D01*
X348496Y55148D01*
X349996D01*
X264198Y100848D02*
Y103847D01*
X265698D01*
X266198Y103347D01*
Y102348D01*
X265698Y101848D01*
X264198D01*
X265198D02*
X266198Y100848D01*
X269197D02*
X267197D01*
X269197Y102847D01*
Y103347D01*
X268697Y103847D01*
X267697D01*
X267197Y103347D01*
X270197D02*
X270696Y103847D01*
X271696D01*
X272196Y103347D01*
Y102847D01*
X271696Y102348D01*
X272196Y101848D01*
Y101348D01*
X271696Y100848D01*
X270696D01*
X270197Y101348D01*
Y101848D01*
X270696Y102348D01*
X270197Y102847D01*
Y103347D01*
X270696Y102348D02*
X271696D01*
X264198Y92970D02*
Y95969D01*
X265698D01*
X266198Y95469D01*
Y94470D01*
X265698Y93970D01*
X264198D01*
X265198D02*
X266198Y92970D01*
X269197D02*
X267197D01*
X269197Y94969D01*
Y95469D01*
X268697Y95969D01*
X267697D01*
X267197Y95469D01*
X270197Y95969D02*
X272196D01*
Y95469D01*
X270197Y93470D01*
Y92970D01*
X341998Y22152D02*
Y25151D01*
X343498D01*
X343998Y24651D01*
Y23652D01*
X343498Y23152D01*
X341998D01*
X342998D02*
X343998Y22152D01*
X346997D02*
X344998D01*
X346997Y24151D01*
Y24651D01*
X346497Y25151D01*
X345497D01*
X344998Y24651D01*
X349996Y25151D02*
X348996Y24651D01*
X347996Y23652D01*
Y22652D01*
X348496Y22152D01*
X349496D01*
X349996Y22652D01*
Y23152D01*
X349496Y23652D01*
X347996D01*
X341998Y6348D02*
Y9347D01*
X343498D01*
X343998Y8847D01*
Y7847D01*
X343498Y7348D01*
X341998D01*
X342998D02*
X343998Y6348D01*
X346997D02*
X344998D01*
X346997Y8347D01*
Y8847D01*
X346497Y9347D01*
X345497D01*
X344998Y8847D01*
X349996Y9347D02*
X347996D01*
Y7847D01*
X348996Y8347D01*
X349496D01*
X349996Y7847D01*
Y6848D01*
X349496Y6348D01*
X348496D01*
X347996Y6848D01*
X322439Y-11125D02*
Y-8126D01*
X323939D01*
X324439Y-8626D01*
Y-9626D01*
X323939Y-10125D01*
X322439D01*
X323439D02*
X324439Y-11125D01*
X327438D02*
X325438D01*
X327438Y-9126D01*
Y-8626D01*
X326938Y-8126D01*
X325938D01*
X325438Y-8626D01*
X329937Y-11125D02*
Y-8126D01*
X328437Y-9626D01*
X330437D01*
X324298Y-66552D02*
X321299D01*
Y-65052D01*
X321799Y-64553D01*
X322799D01*
X323299Y-65052D01*
Y-66552D01*
Y-65552D02*
X324298Y-64553D01*
Y-61554D02*
Y-63553D01*
X322299Y-61554D01*
X321799D01*
X321299Y-62053D01*
Y-63053D01*
X321799Y-63553D01*
Y-60554D02*
X321299Y-60054D01*
Y-59054D01*
X321799Y-58555D01*
X322299D01*
X322799Y-59054D01*
Y-59554D01*
Y-59054D01*
X323299Y-58555D01*
X323799D01*
X324298Y-59054D01*
Y-60054D01*
X323799Y-60554D01*
X264224Y77225D02*
Y80224D01*
X265724D01*
X266224Y79724D01*
Y78725D01*
X265724Y78225D01*
X264224D01*
X265224D02*
X266224Y77225D01*
X269223D02*
X267224D01*
X269223Y79224D01*
Y79724D01*
X268723Y80224D01*
X267723D01*
X267224Y79724D01*
X272222Y77225D02*
X270222D01*
X272222Y79224D01*
Y79724D01*
X271722Y80224D01*
X270722D01*
X270222Y79724D01*
X265224Y69362D02*
Y72361D01*
X266724D01*
X267224Y71861D01*
Y70862D01*
X266724Y70362D01*
X265224D01*
X266224D02*
X267224Y69362D01*
X270223D02*
X268224D01*
X270223Y71362D01*
Y71861D01*
X269723Y72361D01*
X268723D01*
X268224Y71861D01*
X271222Y69362D02*
X272222D01*
X271722D01*
Y72361D01*
X271222Y71861D01*
X164761Y65400D02*
Y68399D01*
X166261D01*
X166761Y67899D01*
Y66900D01*
X166261Y66400D01*
X164761D01*
X165761D02*
X166761Y65400D01*
X169760D02*
X167760D01*
X169760Y67399D01*
Y67899D01*
X169260Y68399D01*
X168260D01*
X167760Y67899D01*
X170759D02*
X171259Y68399D01*
X172259D01*
X172759Y67899D01*
Y65900D01*
X172259Y65400D01*
X171259D01*
X170759Y65900D01*
Y67899D01*
X264698Y45748D02*
Y48747D01*
X266198D01*
X266698Y48247D01*
Y47248D01*
X266198Y46748D01*
X264698D01*
X265698D02*
X266698Y45748D01*
X267698D02*
X268697D01*
X268197D01*
Y48747D01*
X267698Y48247D01*
X270197Y46248D02*
X270696Y45748D01*
X271696D01*
X272196Y46248D01*
Y48247D01*
X271696Y48747D01*
X270696D01*
X270197Y48247D01*
Y47747D01*
X270696Y47248D01*
X272196D01*
X164784Y73322D02*
Y76321D01*
X166283D01*
X166783Y75821D01*
Y74822D01*
X166283Y74322D01*
X164784D01*
X165783D02*
X166783Y73322D01*
X167782D02*
X168782D01*
X168282D01*
Y76321D01*
X167782Y75821D01*
X170282D02*
X170782Y76321D01*
X171781D01*
X172281Y75821D01*
Y75321D01*
X171781Y74822D01*
X172281Y74322D01*
Y73822D01*
X171781Y73322D01*
X170782D01*
X170282Y73822D01*
Y74322D01*
X170782Y74822D01*
X170282Y75321D01*
Y75821D01*
X170782Y74822D02*
X171781D01*
X264730Y61480D02*
Y64479D01*
X266229D01*
X266729Y63979D01*
Y62979D01*
X266229Y62479D01*
X264730D01*
X265730D02*
X266729Y61480D01*
X267729D02*
X268729D01*
X268229D01*
Y64479D01*
X267729Y63979D01*
X270228Y64479D02*
X272228D01*
Y63979D01*
X270228Y61979D01*
Y61480D01*
X264714Y53579D02*
Y56579D01*
X266214D01*
X266714Y56079D01*
Y55079D01*
X266214Y54579D01*
X264714D01*
X265714D02*
X266714Y53579D01*
X267713D02*
X268713D01*
X268213D01*
Y56579D01*
X267713Y56079D01*
X272212Y56579D02*
X271212Y56079D01*
X270212Y55079D01*
Y54079D01*
X270712Y53579D01*
X271712D01*
X272212Y54079D01*
Y54579D01*
X271712Y55079D01*
X270212D01*
X168698Y-106152D02*
X165699D01*
Y-104652D01*
X166199Y-104153D01*
X167199D01*
X167699Y-104652D01*
Y-106152D01*
Y-105152D02*
X168698Y-104153D01*
Y-103153D02*
Y-102153D01*
Y-102653D01*
X165699D01*
X166199Y-103153D01*
X168698Y-99154D02*
X165699D01*
X167199Y-100654D01*
Y-98654D01*
X264698Y-1478D02*
Y1521D01*
X266198D01*
X266698Y1021D01*
Y22D01*
X266198Y-478D01*
X264698D01*
X265698D02*
X266698Y-1478D01*
X267698D02*
X268697D01*
X268197D01*
Y1521D01*
X267698Y1021D01*
X270197D02*
X270696Y1521D01*
X271696D01*
X272196Y1021D01*
Y521D01*
X271696Y22D01*
X271196D01*
X271696D01*
X272196Y-478D01*
Y-978D01*
X271696Y-1478D01*
X270696D01*
X270197Y-978D01*
X179649Y-90363D02*
X176650D01*
Y-88863D01*
X177150Y-88364D01*
X178150D01*
X178649Y-88863D01*
Y-90363D01*
Y-89363D02*
X179649Y-88364D01*
Y-87364D02*
Y-86364D01*
Y-86864D01*
X176650D01*
X177150Y-87364D01*
X179649Y-82865D02*
Y-84865D01*
X177650Y-82865D01*
X177150D01*
X176650Y-83365D01*
Y-84365D01*
X177150Y-84865D01*
X185555Y-89863D02*
X182556D01*
Y-88364D01*
X183055Y-87864D01*
X184055D01*
X184555Y-88364D01*
Y-89863D01*
Y-88863D02*
X185555Y-87864D01*
Y-86864D02*
Y-85864D01*
Y-86364D01*
X182556D01*
X183055Y-86864D01*
X185555Y-84365D02*
Y-83365D01*
Y-83865D01*
X182556D01*
X183055Y-84365D01*
X264698Y-9378D02*
Y-6379D01*
X266198D01*
X266698Y-6879D01*
Y-7878D01*
X266198Y-8378D01*
X264698D01*
X265698D02*
X266698Y-9378D01*
X267698D02*
X268697D01*
X268197D01*
Y-6379D01*
X267698Y-6879D01*
X270197D02*
X270696Y-6379D01*
X271696D01*
X272196Y-6879D01*
Y-8878D01*
X271696Y-9378D01*
X270696D01*
X270197Y-8878D01*
Y-6879D01*
X164761Y57600D02*
Y60599D01*
X166261D01*
X166761Y60099D01*
Y59100D01*
X166261Y58600D01*
X164761D01*
X165761D02*
X166761Y57600D01*
X167760Y58100D02*
X168260Y57600D01*
X169260D01*
X169760Y58100D01*
Y60099D01*
X169260Y60599D01*
X168260D01*
X167760Y60099D01*
Y59599D01*
X168260Y59100D01*
X169760D01*
X267198Y29948D02*
Y32947D01*
X268698D01*
X269198Y32447D01*
Y31448D01*
X268698Y30948D01*
X267198D01*
X268198D02*
X269198Y29948D01*
X270198Y32447D02*
X270697Y32947D01*
X271697D01*
X272197Y32447D01*
Y31947D01*
X271697Y31448D01*
X272197Y30948D01*
Y30448D01*
X271697Y29948D01*
X270697D01*
X270198Y30448D01*
Y30948D01*
X270697Y31448D01*
X270198Y31947D01*
Y32447D01*
X270697Y31448D02*
X271697D01*
X182598Y-114652D02*
X179599D01*
Y-113152D01*
X180099Y-112653D01*
X181099D01*
X181599Y-113152D01*
Y-114652D01*
Y-113652D02*
X182598Y-112653D01*
X179599Y-111653D02*
Y-109654D01*
X180099D01*
X182099Y-111653D01*
X182598D01*
X164784Y49726D02*
Y52725D01*
X166283D01*
X166783Y52225D01*
Y51226D01*
X166283Y50726D01*
X164784D01*
X165783D02*
X166783Y49726D01*
X169782Y52725D02*
X168782Y52225D01*
X167782Y51226D01*
Y50226D01*
X168282Y49726D01*
X169282D01*
X169782Y50226D01*
Y50726D01*
X169282Y51226D01*
X167782D01*
X267198Y22148D02*
Y25147D01*
X268698D01*
X269198Y24647D01*
Y23648D01*
X268698Y23148D01*
X267198D01*
X268198D02*
X269198Y22148D01*
X272197Y25147D02*
X270198D01*
Y23648D01*
X271197Y24147D01*
X271697D01*
X272197Y23648D01*
Y22648D01*
X271697Y22148D01*
X270697D01*
X270198Y22648D01*
X267198Y14248D02*
Y17247D01*
X268698D01*
X269198Y16747D01*
Y15748D01*
X268698Y15248D01*
X267198D01*
X268198D02*
X269198Y14248D01*
X271697D02*
Y17247D01*
X270198Y15748D01*
X272197D01*
X192398Y84148D02*
X189399D01*
Y85648D01*
X189899Y86147D01*
X190899D01*
X191399Y85648D01*
Y84148D01*
Y85148D02*
X192398Y86147D01*
X189899Y87147D02*
X189399Y87647D01*
Y88647D01*
X189899Y89146D01*
X190399D01*
X190899Y88647D01*
Y88147D01*
Y88647D01*
X191399Y89146D01*
X191899D01*
X192398Y88647D01*
Y87647D01*
X191899Y87147D01*
X204298Y84148D02*
X201299D01*
Y85648D01*
X201799Y86147D01*
X202799D01*
X203299Y85648D01*
Y84148D01*
Y85148D02*
X204298Y86147D01*
Y89146D02*
Y87147D01*
X202299Y89146D01*
X201799D01*
X201299Y88647D01*
Y87647D01*
X201799Y87147D01*
X145098Y49696D02*
Y52695D01*
X146598D01*
X147098Y52195D01*
Y51196D01*
X146598Y50696D01*
X145098D01*
X146098D02*
X147098Y49696D01*
X148098D02*
X149097D01*
X148597D01*
Y52695D01*
X148098Y52195D01*
X227298Y97648D02*
Y99647D01*
X226798Y100147D01*
X225798D01*
X225298Y99647D01*
Y97648D01*
X225798Y97148D01*
X226798D01*
X226298Y98148D02*
X227298Y97148D01*
X226798D02*
X227298Y97648D01*
X230297Y97148D02*
X228297D01*
X230297Y99147D01*
Y99647D01*
X229797Y100147D01*
X228797D01*
X228297Y99647D01*
X295698Y-52152D02*
Y-50153D01*
X295198Y-49653D01*
X294198D01*
X293698Y-50153D01*
Y-52152D01*
X294198Y-52652D01*
X295198D01*
X294698Y-51652D02*
X295698Y-52652D01*
X295198D02*
X295698Y-52152D01*
X296697Y-52652D02*
X297697D01*
X297197D01*
Y-49653D01*
X296697Y-50153D01*
X249445Y56636D02*
Y53637D01*
X251444D01*
X252444Y56136D02*
X252944Y56636D01*
X253943D01*
X254443Y56136D01*
Y55636D01*
X253943Y55137D01*
X253444D01*
X253943D01*
X254443Y54637D01*
Y54137D01*
X253943Y53637D01*
X252944D01*
X252444Y54137D01*
X249408Y17199D02*
Y14200D01*
X251407D01*
X254406D02*
X252407D01*
X254406Y16199D01*
Y16699D01*
X253906Y17199D01*
X252907D01*
X252407Y16699D01*
X145130Y76338D02*
Y73339D01*
X147129D01*
X148129D02*
X149129D01*
X148629D01*
Y76338D01*
X148129Y75838D01*
X297213Y85746D02*
Y82747D01*
X298713D01*
X299213Y83247D01*
Y85246D01*
X298713Y85746D01*
X297213D01*
X300212Y85246D02*
X300712Y85746D01*
X301712D01*
X302212Y85246D01*
Y84747D01*
X301712Y84247D01*
X302212Y83747D01*
Y83247D01*
X301712Y82747D01*
X300712D01*
X300212Y83247D01*
Y83747D01*
X300712Y84247D01*
X300212Y84747D01*
Y85246D01*
X300712Y84247D02*
X301712D01*
X289198Y-29953D02*
Y-32952D01*
X290698D01*
X291198Y-32452D01*
Y-30453D01*
X290698Y-29953D01*
X289198D01*
X294197D02*
X293197Y-30453D01*
X292197Y-31452D01*
Y-32452D01*
X292697Y-32952D01*
X293697D01*
X294197Y-32452D01*
Y-31952D01*
X293697Y-31452D01*
X292197D01*
X343998Y48247D02*
X343498Y48747D01*
X342498D01*
X341998Y48247D01*
Y46248D01*
X342498Y45748D01*
X343498D01*
X343998Y46248D01*
X344998Y48247D02*
X345497Y48747D01*
X346497D01*
X346997Y48247D01*
Y47747D01*
X346497Y47248D01*
X345997D01*
X346497D01*
X346997Y46748D01*
Y46248D01*
X346497Y45748D01*
X345497D01*
X344998Y46248D01*
X349996Y45748D02*
X347996D01*
X349996Y47747D01*
Y48247D01*
X349496Y48747D01*
X348496D01*
X347996Y48247D01*
X343998Y16747D02*
X343498Y17247D01*
X342498D01*
X341998Y16747D01*
Y14748D01*
X342498Y14248D01*
X343498D01*
X343998Y14748D01*
X344998Y16747D02*
X345497Y17247D01*
X346497D01*
X346997Y16747D01*
Y16247D01*
X346497Y15748D01*
X345997D01*
X346497D01*
X346997Y15248D01*
Y14748D01*
X346497Y14248D01*
X345497D01*
X344998Y14748D01*
X347996Y14248D02*
X348996D01*
X348496D01*
Y17247D01*
X347996Y16747D01*
X266224Y87587D02*
X265724Y88087D01*
X264724D01*
X264224Y87587D01*
Y85588D01*
X264724Y85088D01*
X265724D01*
X266224Y85588D01*
X267224Y87587D02*
X267723Y88087D01*
X268723D01*
X269223Y87587D01*
Y87088D01*
X268723Y86588D01*
X268223D01*
X268723D01*
X269223Y86088D01*
Y85588D01*
X268723Y85088D01*
X267723D01*
X267224Y85588D01*
X270222Y87587D02*
X270722Y88087D01*
X271722D01*
X272222Y87587D01*
Y85588D01*
X271722Y85088D01*
X270722D01*
X270222Y85588D01*
Y87587D01*
X343998Y40347D02*
X343498Y40847D01*
X342498D01*
X341998Y40347D01*
Y38348D01*
X342498Y37848D01*
X343498D01*
X343998Y38348D01*
X346997Y37848D02*
X344998D01*
X346997Y39847D01*
Y40347D01*
X346497Y40847D01*
X345497D01*
X344998Y40347D01*
X347996Y38348D02*
X348496Y37848D01*
X349496D01*
X349996Y38348D01*
Y40347D01*
X349496Y40847D01*
X348496D01*
X347996Y40347D01*
Y39847D01*
X348496Y39348D01*
X349996D01*
X166783Y83673D02*
X166283Y84173D01*
X165283D01*
X164784Y83673D01*
Y81674D01*
X165283Y81174D01*
X166283D01*
X166783Y81674D01*
X169782Y81174D02*
X167782D01*
X169782Y83173D01*
Y83673D01*
X169282Y84173D01*
X168282D01*
X167782Y83673D01*
X170782D02*
X171281Y84173D01*
X172281D01*
X172781Y83673D01*
Y83173D01*
X172281Y82674D01*
X172781Y82174D01*
Y81674D01*
X172281Y81174D01*
X171281D01*
X170782Y81674D01*
Y82174D01*
X171281Y82674D01*
X170782Y83173D01*
Y83673D01*
X171281Y82674D02*
X172281D01*
X266198Y40347D02*
X265698Y40847D01*
X264698D01*
X264198Y40347D01*
Y38348D01*
X264698Y37848D01*
X265698D01*
X266198Y38348D01*
X269197Y37848D02*
X267197D01*
X269197Y39847D01*
Y40347D01*
X268697Y40847D01*
X267697D01*
X267197Y40347D01*
X270197Y40847D02*
X272196D01*
Y40347D01*
X270197Y38348D01*
Y37848D01*
X166783Y44325D02*
X166283Y44825D01*
X165283D01*
X164784Y44325D01*
Y42326D01*
X165283Y41826D01*
X166283D01*
X166783Y42326D01*
X169782Y41826D02*
X167782D01*
X169782Y43825D01*
Y44325D01*
X169282Y44825D01*
X168282D01*
X167782Y44325D01*
X172781Y44825D02*
X170782D01*
Y43325D01*
X171781Y43825D01*
X172281D01*
X172781Y43325D01*
Y42326D01*
X172281Y41826D01*
X171281D01*
X170782Y42326D01*
X193899Y-104353D02*
X193399Y-104852D01*
Y-105852D01*
X193899Y-106352D01*
X195899D01*
X196398Y-105852D01*
Y-104852D01*
X195899Y-104353D01*
X196398Y-101354D02*
Y-103353D01*
X194399Y-101354D01*
X193899D01*
X193399Y-101853D01*
Y-102853D01*
X193899Y-103353D01*
X196398Y-98854D02*
X193399D01*
X194899Y-100354D01*
Y-98355D01*
X266198Y8921D02*
X265698Y9421D01*
X264698D01*
X264198Y8921D01*
Y6922D01*
X264698Y6422D01*
X265698D01*
X266198Y6922D01*
X269197Y6422D02*
X267197D01*
X269197Y8421D01*
Y8921D01*
X268697Y9421D01*
X267697D01*
X267197Y8921D01*
X272196Y6422D02*
X270197D01*
X272196Y8421D01*
Y8921D01*
X271696Y9421D01*
X270696D01*
X270197Y8921D01*
X251444Y48236D02*
X250944Y48736D01*
X249945D01*
X249445Y48236D01*
Y46237D01*
X249945Y45737D01*
X250944D01*
X251444Y46237D01*
X254443Y45737D02*
X252444D01*
X254443Y47736D01*
Y48236D01*
X253943Y48736D01*
X252944D01*
X252444Y48236D01*
X255443Y45737D02*
X256443D01*
X255943D01*
Y48736D01*
X255443Y48236D01*
X188898Y23047D02*
X188398Y23547D01*
X187398D01*
X186898Y23047D01*
Y21048D01*
X187398Y20548D01*
X188398D01*
X188898Y21048D01*
X191897Y20548D02*
X189898D01*
X191897Y22547D01*
Y23047D01*
X191397Y23547D01*
X190397D01*
X189898Y23047D01*
X192896D02*
X193396Y23547D01*
X194396D01*
X194896Y23047D01*
Y21048D01*
X194396Y20548D01*
X193396D01*
X192896Y21048D01*
Y23047D01*
X251444Y40336D02*
X250944Y40836D01*
X249945D01*
X249445Y40336D01*
Y38337D01*
X249945Y37837D01*
X250944D01*
X251444Y38337D01*
X252444Y37837D02*
X253444D01*
X252944D01*
Y40836D01*
X252444Y40336D01*
X254943Y38337D02*
X255443Y37837D01*
X256443D01*
X256943Y38337D01*
Y40336D01*
X256443Y40836D01*
X255443D01*
X254943Y40336D01*
Y39836D01*
X255443Y39336D01*
X256943D01*
X251444Y32536D02*
X250944Y33036D01*
X249945D01*
X249445Y32536D01*
Y30537D01*
X249945Y30037D01*
X250944D01*
X251444Y30537D01*
X252444Y30037D02*
X253444D01*
X252944D01*
Y33036D01*
X252444Y32536D01*
X254943D02*
X255443Y33036D01*
X256443D01*
X256943Y32536D01*
Y32036D01*
X256443Y31536D01*
X256943Y31037D01*
Y30537D01*
X256443Y30037D01*
X255443D01*
X254943Y30537D01*
Y31037D01*
X255443Y31536D01*
X254943Y32036D01*
Y32536D01*
X255443Y31536D02*
X256443D01*
X251407Y8899D02*
X250907Y9399D01*
X249908D01*
X249408Y8899D01*
Y6900D01*
X249908Y6400D01*
X250907D01*
X251407Y6900D01*
X252407Y6400D02*
X253407D01*
X252907D01*
Y9399D01*
X252407Y8899D01*
X254906Y9399D02*
X256906D01*
Y8899D01*
X254906Y6900D01*
Y6400D01*
X189198Y-16353D02*
X188698Y-15853D01*
X187698D01*
X187198Y-16353D01*
Y-18352D01*
X187698Y-18852D01*
X188698D01*
X189198Y-18352D01*
X190198Y-18852D02*
X191197D01*
X190697D01*
Y-15853D01*
X190198Y-16353D01*
X194696Y-15853D02*
X193696Y-16353D01*
X192697Y-17352D01*
Y-18352D01*
X193196Y-18852D01*
X194196D01*
X194696Y-18352D01*
Y-17852D01*
X194196Y-17352D01*
X192697D01*
X251407Y973D02*
X250907Y1473D01*
X249908D01*
X249408Y973D01*
Y-1026D01*
X249908Y-1526D01*
X250907D01*
X251407Y-1026D01*
X252407Y-1526D02*
X253407D01*
X252907D01*
Y1473D01*
X252407Y973D01*
X256906Y1473D02*
X254906D01*
Y-27D01*
X255906Y473D01*
X256406D01*
X256906Y-27D01*
Y-1026D01*
X256406Y-1526D01*
X255406D01*
X254906Y-1026D01*
X251407Y-6875D02*
X250907Y-6375D01*
X249908D01*
X249408Y-6875D01*
Y-8874D01*
X249908Y-9374D01*
X250907D01*
X251407Y-8874D01*
X252407Y-9374D02*
X253407D01*
X252907D01*
Y-6375D01*
X252407Y-6875D01*
X256406Y-9374D02*
Y-6375D01*
X254906Y-7875D01*
X256906D01*
X98967Y106347D02*
X98467Y106847D01*
X97468D01*
X96968Y106347D01*
Y104348D01*
X97468Y103848D01*
X98467D01*
X98967Y104348D01*
X99967Y103848D02*
X100966D01*
X100467D01*
Y106847D01*
X99967Y106347D01*
X102466D02*
X102966Y106847D01*
X103965D01*
X104465Y106347D01*
Y105847D01*
X103965Y105348D01*
X103466D01*
X103965D01*
X104465Y104848D01*
Y104348D01*
X103965Y103848D01*
X102966D01*
X102466Y104348D01*
X166798Y36447D02*
X166298Y36947D01*
X165298D01*
X164798Y36447D01*
Y34448D01*
X165298Y33948D01*
X166298D01*
X166798Y34448D01*
X167798Y33948D02*
X168797D01*
X168297D01*
Y36947D01*
X167798Y36447D01*
X172296Y33948D02*
X170297D01*
X172296Y35947D01*
Y36447D01*
X171796Y36947D01*
X170797D01*
X170297Y36447D01*
X166798Y4947D02*
X166298Y5447D01*
X165298D01*
X164798Y4947D01*
Y2948D01*
X165298Y2448D01*
X166298D01*
X166798Y2948D01*
X167798Y2448D02*
X168797D01*
X168297D01*
Y5447D01*
X167798Y4947D01*
X170297Y2448D02*
X171296D01*
X170797D01*
Y5447D01*
X170297Y4947D01*
X117099Y947D02*
X116599Y448D01*
Y-552D01*
X117099Y-1052D01*
X119099D01*
X119598Y-552D01*
Y448D01*
X119099Y947D01*
X119598Y1947D02*
Y2947D01*
Y2447D01*
X116599D01*
X117099Y1947D01*
Y4446D02*
X116599Y4946D01*
Y5946D01*
X117099Y6446D01*
X119099D01*
X119598Y5946D01*
Y4946D01*
X119099Y4446D01*
X117099D01*
X77699Y18847D02*
X77199Y18348D01*
Y17348D01*
X77699Y16848D01*
X79699D01*
X80198Y17348D01*
Y18348D01*
X79699Y18847D01*
Y19847D02*
X80198Y20347D01*
Y21347D01*
X79699Y21846D01*
X77699D01*
X77199Y21347D01*
Y20347D01*
X77699Y19847D01*
X78199D01*
X78699Y20347D01*
Y21846D01*
X147129Y60069D02*
X146629Y60569D01*
X145630D01*
X145130Y60069D01*
Y58070D01*
X145630Y57570D01*
X146629D01*
X147129Y58070D01*
X148129Y60069D02*
X148629Y60569D01*
X149628D01*
X150128Y60069D01*
Y59569D01*
X149628Y59070D01*
X150128Y58570D01*
Y58070D01*
X149628Y57570D01*
X148629D01*
X148129Y58070D01*
Y58570D01*
X148629Y59070D01*
X148129Y59569D01*
Y60069D01*
X148629Y59070D02*
X149628D01*
X147129Y67969D02*
X146629Y68469D01*
X145630D01*
X145130Y67969D01*
Y65970D01*
X145630Y65470D01*
X146629D01*
X147129Y65970D01*
X148129Y68469D02*
X150128D01*
Y67969D01*
X148129Y65970D01*
Y65470D01*
X160059Y-52168D02*
X159559Y-51668D01*
X158560D01*
X158060Y-52168D01*
Y-54167D01*
X158560Y-54667D01*
X159559D01*
X160059Y-54167D01*
X163058Y-51668D02*
X162058Y-52168D01*
X161059Y-53167D01*
Y-54167D01*
X161559Y-54667D01*
X162558D01*
X163058Y-54167D01*
Y-53667D01*
X162558Y-53167D01*
X161059D01*
X173861Y-52153D02*
X173361Y-51653D01*
X172361D01*
X171861Y-52153D01*
Y-54152D01*
X172361Y-54652D01*
X173361D01*
X173861Y-54152D01*
X176860Y-51653D02*
X174860D01*
Y-53152D01*
X175860Y-52653D01*
X176360D01*
X176860Y-53152D01*
Y-54152D01*
X176360Y-54652D01*
X175360D01*
X174860Y-54152D01*
X357299Y38847D02*
X356799Y38348D01*
Y37348D01*
X357299Y36848D01*
X359299D01*
X359798Y37348D01*
Y38348D01*
X359299Y38847D01*
X359798Y41347D02*
X356799D01*
X358299Y39847D01*
Y41846D01*
X357299Y78847D02*
X356799Y78348D01*
Y77348D01*
X357299Y76848D01*
X359299D01*
X359798Y77348D01*
Y78348D01*
X359299Y78847D01*
X357299Y79847D02*
X356799Y80347D01*
Y81347D01*
X357299Y81846D01*
X357799D01*
X358299Y81347D01*
Y80847D01*
Y81347D01*
X358799Y81846D01*
X359299D01*
X359798Y81347D01*
Y80347D01*
X359299Y79847D01*
X201384Y-76827D02*
X200884Y-76327D01*
X199884D01*
X199384Y-76827D01*
Y-78826D01*
X199884Y-79326D01*
X200884D01*
X201384Y-78826D01*
X204383Y-79326D02*
X202383D01*
X204383Y-77327D01*
Y-76827D01*
X203883Y-76327D01*
X202883D01*
X202383Y-76827D01*
X356909Y13724D02*
X356409Y14224D01*
X355409D01*
X354909Y13724D01*
Y11725D01*
X355409Y11225D01*
X356409D01*
X356909Y11725D01*
X357909Y11225D02*
X358908D01*
X358408D01*
Y14224D01*
X357909Y13724D01*
D18*
X28150Y-43307D02*
D03*
D19*
X129921Y117520D02*
D03*
X47244Y-144291D02*
D03*
X39370Y117520D02*
D03*
X181102Y-138386D02*
D03*
D20*
X328150Y-122047D02*
D03*
D21*
X220472Y-138189D02*
D03*
D22*
X382283Y-74803D02*
D03*
M02*
