M48
;Layer_Color=9474304
;FILE_FORMAT=2:5
INCH,LZ
;TYPE=PLATED
T1F00S00C0.01181
T2F00S00C0.01200
T3F00S00C0.03150
T4F00S00C0.03400
T5F00S00C0.03500
T6F00S00C0.03800
T7F00S00C0.03937
T8F00S00C0.05315
T9F00S00C0.05512
T10F00S00C0.07283
T11F00S00C0.12205
%
T01
X0200787Y-0095472
X02Y-0070472
X0269171Y-0066096
X0274456
X0133465Y-0017717
X0135827Y-0012598
X0139764Y-0008661
X0148622Y0003937
X0109568Y0005906
X0095156Y0020276
X0100394Y0037402
Y0049213
X0113189
Y0037402
X0128405Y0051122
X0141732Y0043307
X0146653Y0055118
X0117442Y0066142
X0105118Y0070079
X0100394Y006811
X0098373Y0064947
X0083071Y0065748
Y0061811
Y0069685
X0090551Y0087598
X009941Y0098425
X0082087Y0042639
X0076494Y0043701
X0084646Y0036101
X0084233Y003248
X0058052Y0006299
X0057874Y0
X0077756Y-0014764
X0046457Y-002687
Y-003687
X0187992Y-0001969
X0188919Y0037933
Y0042933
X0176181Y0029528
X0170276
X0192451Y0072363
X0197244Y0077953
X0186221Y0085039
X0227953Y007559
X022441Y0070079
X0252756Y0064173
X0261811Y0067913
X0260827Y0057087
X0261811Y0047244
X0260827Y0040354
X0261811Y0031496
X0264632Y0023622
X0262795Y0016732
X0252953Y0023622
X0245669Y0023228
X023937
X0232283Y0032933
Y0042933
Y0003563
Y-0006437
X0263779Y-0012795
X0280315Y-0027756
X0255906Y-0046063
X0290059Y003937
X0324803Y003937
X034252Y003248
X0359252Y0060039
X0320866Y0064961
X0319882Y-0015748
X023937Y0111811
T02
X0280315Y-0051968
X0059055Y-008563
Y-0119095
T03
X0244094Y-0080709
Y-0072835
X0125984Y-0068898
Y-0088583
Y-0112205
Y-013189
X0350394Y-0019685
Y-0011811
X0340551Y0119095
X0314961
T04
X0206063Y-0045039
X0216063
Y-0035039
X0226063
X0236063
X0246063
Y-0045039
X0236063
X0226063
X0206063Y-0035039
T05
X0220472Y-0086614
Y-0076772
Y-0066929
T06
X0024409Y0023425
X0034409
Y0033425
X0024409
Y0043425
X0034409
Y0053425
X0024409
Y0063425
X0034409
Y0073425
X0024409
X0076772Y0105079
X019185Y0115984
X020185
Y0125984
X019185
Y0135984
X020185
X0076772Y0135079
Y0125079
Y0115079
T07
X0176181Y-0129921
X0186024
X0057087Y-0135827
X0047244
X0037402
X0019685Y-0072835
Y-0062992
Y-005315
Y-0043307
Y-0033465
Y-0023622
Y-001378
X0374016Y-0011969
Y-0001969
Y0008032
X0374638Y0051024
Y0061024
Y0071024
X0144685Y0125984
X0134843
X0125
X0115157
X0044291
X0034449
T08
X0342791Y-0122047
X0287131
T09
X0354331Y-0122047
X0267717
T10
X0370079Y-0082598
Y-0067008
X0228268Y-0125984
X0212677
T11
X0381102Y-012185
X0011024
Y010689
X0381398
M30
