G04*
G04 #@! TF.GenerationSoftware,Altium Limited,Altium Designer,20.0.10 (225)*
G04*
G04 Layer_Physical_Order=1*
G04 Layer_Color=255*
%FSLAX25Y25*%
%MOIN*%
G70*
G01*
G75*
%ADD11C,0.00800*%
%ADD15C,0.01000*%
%ADD23O,0.04724X0.01181*%
%ADD24O,0.01181X0.04724*%
%ADD25R,0.03937X0.06299*%
%ADD26R,0.03543X0.02756*%
%ADD27R,0.02756X0.03543*%
%ADD28O,0.07874X0.02362*%
%ADD29R,0.02362X0.04528*%
%ADD30R,0.04528X0.02362*%
%ADD31R,0.07700X0.08000*%
%ADD32R,0.03937X0.09449*%
%ADD33R,0.12992X0.09449*%
%ADD34R,0.04724X0.05512*%
%ADD70C,0.01200*%
%ADD71C,0.01800*%
%ADD72C,0.05512*%
%ADD73R,0.05512X0.05512*%
%ADD74O,0.06693X0.05512*%
%ADD75R,0.06693X0.05512*%
%ADD76O,0.05512X0.06693*%
%ADD77R,0.05512X0.06693*%
%ADD78C,0.07087*%
%ADD79R,0.07087X0.07087*%
%ADD80C,0.17323*%
%ADD81C,0.07500*%
%ADD82R,0.06299X0.06299*%
%ADD83C,0.06299*%
%ADD84C,0.06000*%
%ADD85R,0.09843X0.09843*%
%ADD86C,0.09843*%
%ADD87R,0.09843X0.09843*%
%ADD88R,0.06000X0.06000*%
%ADD89R,0.06000X0.06000*%
%ADD90C,0.12205*%
%ADD91C,0.01969*%
%ADD92C,0.02200*%
%ADD93C,0.02000*%
G36*
X395669Y-148228D02*
X0D01*
Y148228D01*
X395669D01*
X395669Y-148228D01*
D02*
G37*
%LPC*%
G36*
X202350Y139953D02*
Y136484D01*
X205819D01*
X205747Y137029D01*
X205344Y138002D01*
X204703Y138837D01*
X203868Y139478D01*
X202895Y139881D01*
X202350Y139953D01*
D02*
G37*
G36*
X192350D02*
Y136484D01*
X195819D01*
X195747Y137029D01*
X195344Y138002D01*
X194703Y138837D01*
X193868Y139478D01*
X192895Y139881D01*
X192350Y139953D01*
D02*
G37*
G36*
X201350Y139953D02*
X200806Y139881D01*
X199833Y139478D01*
X198998Y138837D01*
X198356Y138002D01*
X197953Y137029D01*
X197882Y136484D01*
X201350D01*
Y139953D01*
D02*
G37*
G36*
X191350D02*
X190806Y139881D01*
X189833Y139478D01*
X188998Y138837D01*
X188356Y138002D01*
X187953Y137029D01*
X187882Y136484D01*
X191350D01*
Y139953D01*
D02*
G37*
G36*
X77272Y139047D02*
Y135579D01*
X80740D01*
X80669Y136123D01*
X80266Y137096D01*
X79624Y137932D01*
X78789Y138573D01*
X77816Y138976D01*
X77272Y139047D01*
D02*
G37*
G36*
X76272Y139047D02*
X75727Y138976D01*
X74754Y138573D01*
X73919Y137932D01*
X73278Y137096D01*
X72875Y136123D01*
X72803Y135579D01*
X76272D01*
Y139047D01*
D02*
G37*
G36*
X205819Y135484D02*
X202350D01*
Y132016D01*
X202895Y132087D01*
X203868Y132490D01*
X204703Y133131D01*
X205344Y133967D01*
X205747Y134940D01*
X205819Y135484D01*
D02*
G37*
G36*
X195819D02*
X192350D01*
Y132016D01*
X192895Y132087D01*
X193868Y132490D01*
X194703Y133131D01*
X195344Y133967D01*
X195747Y134940D01*
X195819Y135484D01*
D02*
G37*
G36*
X201350D02*
X197882D01*
X197953Y134940D01*
X198356Y133967D01*
X198998Y133131D01*
X199833Y132490D01*
X200806Y132087D01*
X201350Y132016D01*
Y135484D01*
D02*
G37*
G36*
X191350D02*
X187882D01*
X187953Y134940D01*
X188356Y133967D01*
X188998Y133131D01*
X189833Y132490D01*
X190806Y132087D01*
X191350Y132016D01*
Y135484D01*
D02*
G37*
G36*
X76272Y134579D02*
X72803D01*
X72875Y134035D01*
X73278Y133062D01*
X73919Y132226D01*
X74754Y131585D01*
X75727Y131182D01*
X76272Y131110D01*
Y134579D01*
D02*
G37*
G36*
X80740D02*
X77272D01*
Y131110D01*
X77816Y131182D01*
X78789Y131585D01*
X79624Y132226D01*
X80266Y133062D01*
X80669Y134035D01*
X80740Y134579D01*
D02*
G37*
G36*
X148441Y130331D02*
X145185D01*
Y126484D01*
X148441D01*
Y130331D01*
D02*
G37*
G36*
X144185D02*
X140929D01*
Y126484D01*
X144185D01*
Y130331D01*
D02*
G37*
G36*
X47747Y130031D02*
X40835D01*
Y121938D01*
X47747D01*
Y130031D01*
D02*
G37*
G36*
X134843Y130061D02*
X133940Y129942D01*
X133100Y129594D01*
X132378Y129040D01*
X131824Y128318D01*
X131476Y127477D01*
X131357Y126575D01*
Y125394D01*
X131476Y124492D01*
X131824Y123651D01*
X132378Y122929D01*
X133100Y122375D01*
X133940Y122027D01*
X134843Y121908D01*
X135745Y122027D01*
X136585Y122375D01*
X137307Y122929D01*
X137861Y123651D01*
X138209Y124492D01*
X138328Y125394D01*
Y126575D01*
X138209Y127477D01*
X137861Y128318D01*
X137307Y129040D01*
X136585Y129594D01*
X135745Y129942D01*
X134843Y130061D01*
D02*
G37*
G36*
X125000D02*
X124098Y129942D01*
X123257Y129594D01*
X122535Y129040D01*
X121981Y128318D01*
X121633Y127477D01*
X121514Y126575D01*
Y125394D01*
X121633Y124492D01*
X121981Y123651D01*
X122535Y122929D01*
X123257Y122375D01*
X124098Y122027D01*
X125000Y121908D01*
X125902Y122027D01*
X126743Y122375D01*
X127465Y122929D01*
X128019Y123651D01*
X128367Y124492D01*
X128486Y125394D01*
Y126575D01*
X128367Y127477D01*
X128019Y128318D01*
X127465Y129040D01*
X126743Y129594D01*
X125902Y129942D01*
X125000Y130061D01*
D02*
G37*
G36*
X34449D02*
X33547Y129942D01*
X32706Y129594D01*
X31984Y129040D01*
X31430Y128318D01*
X31082Y127477D01*
X30963Y126575D01*
Y125394D01*
X31082Y124492D01*
X31430Y123651D01*
X31984Y122929D01*
X32706Y122375D01*
X33547Y122027D01*
X34449Y121908D01*
X35351Y122027D01*
X36192Y122375D01*
X36914Y122929D01*
X37468Y123651D01*
X37816Y124492D01*
X37934Y125394D01*
Y126575D01*
X37816Y127477D01*
X37468Y128318D01*
X36914Y129040D01*
X36192Y129594D01*
X35351Y129942D01*
X34449Y130061D01*
D02*
G37*
G36*
X148441Y125484D02*
X145185D01*
Y121638D01*
X148441D01*
Y125484D01*
D02*
G37*
G36*
X144185D02*
X140929D01*
Y121638D01*
X144185D01*
Y125484D01*
D02*
G37*
G36*
X76772Y128811D02*
X75806Y128683D01*
X74906Y128311D01*
X74133Y127718D01*
X73540Y126945D01*
X73167Y126045D01*
X73040Y125079D01*
X73167Y124113D01*
X73540Y123213D01*
X74133Y122440D01*
X74906Y121847D01*
X75806Y121474D01*
X76772Y121347D01*
X77737Y121474D01*
X78638Y121847D01*
X79410Y122440D01*
X80004Y123213D01*
X80376Y124113D01*
X80504Y125079D01*
X80376Y126045D01*
X80004Y126945D01*
X79410Y127718D01*
X78638Y128311D01*
X77737Y128683D01*
X76772Y128811D01*
D02*
G37*
G36*
X344795Y123338D02*
X336308D01*
Y114851D01*
X344795D01*
Y123338D01*
D02*
G37*
G36*
X314961Y123374D02*
X313853Y123229D01*
X312821Y122801D01*
X311934Y122121D01*
X311254Y121234D01*
X310826Y120202D01*
X310681Y119095D01*
X310826Y117987D01*
X311254Y116955D01*
X311934Y116068D01*
X312821Y115388D01*
X313853Y114960D01*
X314961Y114815D01*
X316068Y114960D01*
X317101Y115388D01*
X317987Y116068D01*
X318667Y116955D01*
X319095Y117987D01*
X319240Y119095D01*
X319095Y120202D01*
X318667Y121234D01*
X317987Y122121D01*
X317101Y122801D01*
X316068Y123229D01*
X314961Y123374D01*
D02*
G37*
G36*
X205550Y119684D02*
X198150D01*
Y112284D01*
X205550D01*
Y119684D01*
D02*
G37*
G36*
X191850Y119716D02*
X190884Y119589D01*
X189984Y119216D01*
X189211Y118623D01*
X188618Y117850D01*
X188246Y116950D01*
X188119Y115984D01*
X188246Y115018D01*
X188618Y114118D01*
X189211Y113345D01*
X189984Y112752D01*
X190884Y112380D01*
X191850Y112252D01*
X192816Y112380D01*
X193716Y112752D01*
X194489Y113345D01*
X195082Y114118D01*
X195455Y115018D01*
X195582Y115984D01*
X195455Y116950D01*
X195082Y117850D01*
X194489Y118623D01*
X193716Y119216D01*
X192816Y119589D01*
X191850Y119716D01*
D02*
G37*
G36*
X76772Y118811D02*
X75806Y118684D01*
X74906Y118311D01*
X74133Y117718D01*
X73540Y116945D01*
X73167Y116045D01*
X73040Y115079D01*
X73167Y114113D01*
X73540Y113213D01*
X74133Y112440D01*
X74906Y111847D01*
X75806Y111474D01*
X76772Y111347D01*
X77737Y111474D01*
X78638Y111847D01*
X79410Y112440D01*
X80004Y113213D01*
X80376Y114113D01*
X80504Y115079D01*
X80376Y116045D01*
X80004Y116945D01*
X79410Y117718D01*
X78638Y118311D01*
X77737Y118684D01*
X76772Y118811D01*
D02*
G37*
G36*
X115157Y130061D02*
X114255Y129942D01*
X113415Y129594D01*
X112693Y129040D01*
X112139Y128318D01*
X111848Y127616D01*
X102362D01*
X101738Y127491D01*
X101209Y127138D01*
X80972Y106901D01*
X80472Y107108D01*
Y108779D01*
X73072D01*
Y106710D01*
X48779D01*
X48155Y106586D01*
X47626Y106232D01*
X23256Y81862D01*
X22902Y81333D01*
X22778Y80709D01*
Y77125D01*
X20709D01*
Y75057D01*
X18307D01*
X17683Y74932D01*
X17154Y74579D01*
X15461Y72886D01*
X15107Y72357D01*
X14983Y71732D01*
Y44480D01*
Y16739D01*
X7114Y8870D01*
X6761Y8341D01*
X6636Y7717D01*
Y-77559D01*
X6761Y-78183D01*
X7114Y-78713D01*
X11839Y-83437D01*
X12368Y-83791D01*
X12992Y-83915D01*
X30709D01*
X31333Y-83791D01*
X31862Y-83437D01*
X35321Y-79978D01*
X82284D01*
X82908Y-79854D01*
X83437Y-79500D01*
X97329Y-65608D01*
X122528D01*
Y-67266D01*
X101568D01*
X100943Y-67391D01*
X100414Y-67744D01*
X81524Y-86635D01*
X81170Y-87164D01*
X81046Y-87788D01*
Y-89788D01*
X78127D01*
Y-99188D01*
X81046D01*
Y-105536D01*
X78127D01*
Y-114936D01*
X87227D01*
Y-105536D01*
X84308D01*
Y-99188D01*
X87227D01*
Y-89788D01*
X84308D01*
Y-88464D01*
X102243Y-70529D01*
X122528D01*
Y-72354D01*
X129440D01*
Y-70529D01*
X145395D01*
X150370Y-75504D01*
X150899Y-75858D01*
X151523Y-75982D01*
X183524D01*
X184148Y-75858D01*
X184677Y-75504D01*
X196739Y-63442D01*
X217668D01*
X217829Y-63916D01*
X217620Y-64076D01*
X216978Y-64912D01*
X216575Y-65885D01*
X216504Y-66429D01*
X224441D01*
X224370Y-65885D01*
X223966Y-64912D01*
X223325Y-64076D01*
X223116Y-63916D01*
X223277Y-63442D01*
X262212D01*
X262837Y-63318D01*
X263366Y-62965D01*
X268794Y-57537D01*
X283576D01*
X293728Y-67689D01*
X294258Y-68043D01*
X294882Y-68167D01*
X339961D01*
X340585Y-68043D01*
X341114Y-67689D01*
X362880Y-45923D01*
X372047D01*
X372672Y-45799D01*
X373201Y-45445D01*
X386980Y-31665D01*
X387334Y-31136D01*
X387458Y-30512D01*
Y10827D01*
Y65945D01*
X387334Y66569D01*
X386980Y67098D01*
X381902Y72177D01*
X381372Y72531D01*
X380748Y72655D01*
X378487D01*
Y74873D01*
X370788D01*
Y72497D01*
X367802D01*
X366311Y73988D01*
X365782Y74342D01*
X365158Y74466D01*
X360739D01*
Y74913D01*
X355796D01*
Y70757D01*
X360739D01*
Y71203D01*
X364482D01*
X365972Y69713D01*
X366502Y69359D01*
X367126Y69235D01*
X370788D01*
Y67174D01*
X378487D01*
Y69392D01*
X380072D01*
X384195Y65269D01*
Y11502D01*
X382356Y9663D01*
X377865D01*
Y11881D01*
X370166D01*
Y9663D01*
X364603D01*
X363979Y9539D01*
X363450Y9185D01*
X363180Y8915D01*
X358771D01*
Y9361D01*
X353828D01*
Y5206D01*
X358771D01*
Y5652D01*
X363856D01*
X364480Y5776D01*
X365009Y6130D01*
X365279Y6400D01*
X370166D01*
Y4182D01*
X377865D01*
Y6400D01*
X383032D01*
X383656Y6524D01*
X383695Y6551D01*
X384195Y6284D01*
Y-29836D01*
X371372Y-42660D01*
X362205D01*
X361580Y-42784D01*
X361051Y-43138D01*
X339285Y-64904D01*
X337701D01*
X337509Y-64404D01*
X351547Y-50366D01*
X351901Y-49837D01*
X352025Y-49213D01*
Y-23141D01*
X353850D01*
Y-21316D01*
X366299D01*
X366923Y-21192D01*
X367453Y-20839D01*
X372701Y-15591D01*
X373011Y-15719D01*
X374016Y-15851D01*
X375021Y-15719D01*
X375957Y-15331D01*
X376761Y-14714D01*
X377378Y-13910D01*
X377766Y-12973D01*
X377899Y-11969D01*
X377766Y-10964D01*
X377378Y-10027D01*
X376761Y-9223D01*
X375957Y-8606D01*
X375021Y-8218D01*
X374016Y-8086D01*
X373011Y-8218D01*
X372074Y-8606D01*
X371270Y-9223D01*
X370653Y-10027D01*
X370265Y-10964D01*
X370133Y-11969D01*
X370265Y-12973D01*
X370394Y-13284D01*
X365623Y-18054D01*
X353850D01*
Y-16229D01*
X346938D01*
Y-23141D01*
X348762D01*
Y-48537D01*
X335545Y-61755D01*
X324466D01*
Y-56605D01*
X325306D01*
Y-52450D01*
X320617D01*
Y-51533D01*
X322237Y-49913D01*
X325306D01*
Y-45757D01*
X320363D01*
Y-48038D01*
X319651Y-48750D01*
X319151Y-48543D01*
Y-43786D01*
X320755Y-42182D01*
X330512D01*
X331136Y-42058D01*
X331665Y-41705D01*
X344657Y-28713D01*
X345011Y-28183D01*
X345135Y-27559D01*
Y-7565D01*
X350563Y-2138D01*
X350917Y-1609D01*
X351041Y-984D01*
Y41647D01*
X353628Y44235D01*
X355796D01*
Y43788D01*
X360739D01*
Y44235D01*
X363779D01*
X364404Y44359D01*
X364933Y44713D01*
X369464Y49244D01*
X371208D01*
X371275Y49082D01*
X371892Y48278D01*
X372696Y47661D01*
X373633Y47273D01*
X374638Y47141D01*
X375643Y47273D01*
X376579Y47661D01*
X377383Y48278D01*
X378000Y49082D01*
X378388Y50019D01*
X378521Y51024D01*
X378388Y52029D01*
X378000Y52965D01*
X377383Y53769D01*
X376579Y54386D01*
X375643Y54774D01*
X374638Y54906D01*
X373633Y54774D01*
X372696Y54386D01*
X371892Y53769D01*
X371275Y52965D01*
X371085Y52506D01*
X368788D01*
X368164Y52382D01*
X367635Y52028D01*
X363104Y47497D01*
X360739D01*
Y47944D01*
X355796D01*
Y47497D01*
X352953D01*
X352328Y47373D01*
X351799Y47020D01*
X348256Y43476D01*
X347902Y42947D01*
X347778Y42323D01*
Y-308D01*
X342350Y-5736D01*
X341997Y-6266D01*
X341873Y-6890D01*
Y-26883D01*
X329836Y-38920D01*
X320079D01*
X319454Y-39044D01*
X318925Y-39398D01*
X316366Y-41957D01*
X316013Y-42486D01*
X315888Y-43110D01*
Y-48340D01*
X314679Y-49550D01*
X312708D01*
Y-43788D01*
X312152D01*
Y-37205D01*
X312051Y-36698D01*
X311764Y-36268D01*
X311342Y-35846D01*
X311549Y-35346D01*
X316251D01*
Y-32822D01*
X326772D01*
X327279Y-32721D01*
X327709Y-32433D01*
X331055Y-29087D01*
X331343Y-28657D01*
X331444Y-28150D01*
Y-18220D01*
X332196D01*
Y-13276D01*
X328040D01*
Y-18220D01*
X328793D01*
Y-27601D01*
X326223Y-30171D01*
X316251D01*
Y-27646D01*
X310914D01*
Y-34710D01*
X310414Y-34918D01*
X308412Y-32915D01*
Y-23974D01*
X312789Y-19598D01*
X316251D01*
Y-17074D01*
X318834D01*
X319225Y-17335D01*
X319882Y-17466D01*
X320539Y-17335D01*
X320847Y-17129D01*
X321347Y-17281D01*
Y-18220D01*
X325503D01*
Y-13276D01*
X321347D01*
Y-14215D01*
X320847Y-14367D01*
X320539Y-14161D01*
X319882Y-14030D01*
X319225Y-14161D01*
X318834Y-14423D01*
X316251D01*
Y-11898D01*
X310914D01*
Y-17723D01*
X306149Y-22488D01*
X305862Y-22918D01*
X305761Y-23425D01*
Y-33465D01*
X305862Y-33972D01*
X306149Y-34402D01*
X309501Y-37754D01*
Y-43788D01*
X308946D01*
Y-49550D01*
X305228D01*
Y-43788D01*
X304672D01*
Y-42717D01*
X304571Y-42209D01*
X304284Y-41779D01*
X301725Y-39220D01*
X301295Y-38933D01*
X300787Y-38832D01*
X276088D01*
X275581Y-38933D01*
X275151Y-39220D01*
X269634Y-44737D01*
X256954D01*
X256563Y-44476D01*
X255906Y-44346D01*
X255248Y-44476D01*
X254691Y-44848D01*
X254319Y-45406D01*
X254188Y-46063D01*
X254319Y-46720D01*
X254691Y-47277D01*
X255248Y-47650D01*
X255906Y-47780D01*
X256563Y-47650D01*
X256954Y-47388D01*
X270183D01*
X270690Y-47288D01*
X271120Y-47000D01*
X276637Y-41483D01*
X300238D01*
X302021Y-43266D01*
Y-43788D01*
X301465D01*
Y-49550D01*
X294376D01*
X291705Y-46878D01*
X291176Y-46524D01*
X290551Y-46400D01*
X275197D01*
X274573Y-46524D01*
X274043Y-46878D01*
X269403Y-51518D01*
X266535D01*
X265911Y-51642D01*
X265382Y-51996D01*
X259954Y-57424D01*
X236164D01*
X236013Y-56924D01*
X236134Y-56843D01*
X244557Y-48420D01*
X245097Y-48644D01*
X246063Y-48771D01*
X247029Y-48644D01*
X247929Y-48271D01*
X248702Y-47678D01*
X249295Y-46905D01*
X249668Y-46005D01*
X249795Y-45039D01*
X249668Y-44074D01*
X249295Y-43173D01*
X248702Y-42401D01*
X247929Y-41807D01*
X247029Y-41435D01*
X246063Y-41307D01*
X245097Y-41435D01*
X244197Y-41807D01*
X243424Y-42401D01*
X242831Y-43173D01*
X242458Y-44074D01*
X242331Y-45039D01*
X242458Y-46005D01*
X242682Y-46546D01*
X234648Y-54580D01*
X229050D01*
X228859Y-54118D01*
X234557Y-48420D01*
X235097Y-48644D01*
X236063Y-48771D01*
X237029Y-48644D01*
X237929Y-48271D01*
X238702Y-47678D01*
X239295Y-46905D01*
X239668Y-46005D01*
X239795Y-45039D01*
X239668Y-44074D01*
X239295Y-43173D01*
X238702Y-42401D01*
X237929Y-41807D01*
X237029Y-41435D01*
X236063Y-41307D01*
X235097Y-41435D01*
X234197Y-41807D01*
X233424Y-42401D01*
X232831Y-43173D01*
X232458Y-44074D01*
X232331Y-45039D01*
X232458Y-46005D01*
X232682Y-46546D01*
X226548Y-52680D01*
X220950D01*
X220759Y-52218D01*
X224557Y-48420D01*
X225097Y-48644D01*
X226063Y-48771D01*
X227029Y-48644D01*
X227929Y-48271D01*
X228702Y-47678D01*
X229295Y-46905D01*
X229668Y-46005D01*
X229795Y-45039D01*
X229668Y-44074D01*
X229295Y-43173D01*
X228702Y-42401D01*
X227929Y-41807D01*
X227029Y-41435D01*
X226063Y-41307D01*
X225097Y-41435D01*
X224197Y-41807D01*
X223424Y-42401D01*
X222831Y-43173D01*
X222458Y-44074D01*
X222331Y-45039D01*
X222458Y-46005D01*
X222682Y-46546D01*
X218448Y-50780D01*
X212850D01*
X212659Y-50318D01*
X214557Y-48420D01*
X215097Y-48644D01*
X216063Y-48771D01*
X217029Y-48644D01*
X217929Y-48271D01*
X218702Y-47678D01*
X219295Y-46905D01*
X219668Y-46005D01*
X219795Y-45039D01*
X219668Y-44074D01*
X219295Y-43173D01*
X218702Y-42401D01*
X217929Y-41807D01*
X217029Y-41435D01*
X216063Y-41307D01*
X215097Y-41435D01*
X214197Y-41807D01*
X213424Y-42401D01*
X212831Y-43173D01*
X212458Y-44074D01*
X212331Y-45039D01*
X212458Y-46005D01*
X212682Y-46546D01*
X210348Y-48880D01*
X207766D01*
X207666Y-48380D01*
X207929Y-48271D01*
X208702Y-47678D01*
X209295Y-46905D01*
X209668Y-46005D01*
X209795Y-45039D01*
X209668Y-44074D01*
X209295Y-43173D01*
X208702Y-42401D01*
X207929Y-41807D01*
X207029Y-41435D01*
X206063Y-41307D01*
X205097Y-41435D01*
X204197Y-41807D01*
X203424Y-42401D01*
X202831Y-43173D01*
X202607Y-43714D01*
X197557D01*
X195540Y-41697D01*
Y-38309D01*
X195439Y-37801D01*
X195151Y-37371D01*
X185583Y-27803D01*
X185153Y-27516D01*
X184646Y-27415D01*
X176487D01*
Y-23679D01*
X184449D01*
X185073Y-23554D01*
X185602Y-23201D01*
X194895Y-13909D01*
X196369D01*
Y-13068D01*
X201024D01*
X201235Y-13209D01*
X201969Y-13355D01*
X207480D01*
X208214Y-13209D01*
X208837Y-12793D01*
X209252Y-12171D01*
X209398Y-11437D01*
X209252Y-10703D01*
X208837Y-10081D01*
X208214Y-9665D01*
X207480Y-9519D01*
X201969D01*
X201235Y-9665D01*
X201024Y-9806D01*
X196369D01*
Y-8965D01*
X195923D01*
Y-842D01*
X195965Y-809D01*
X196423Y-659D01*
X198138Y-2374D01*
X198568Y-2662D01*
X199075Y-2763D01*
X200592D01*
X200612Y-2793D01*
X201235Y-3209D01*
X201969Y-3355D01*
X207480D01*
X208214Y-3209D01*
X208837Y-2793D01*
X209252Y-2171D01*
X209398Y-1437D01*
X209252Y-703D01*
X208837Y-81D01*
X208214Y335D01*
X207480Y481D01*
X201969D01*
X201235Y335D01*
X200612Y-81D01*
X200592Y-111D01*
X199624D01*
X198570Y943D01*
Y6538D01*
X199565Y7533D01*
X209646D01*
X210153Y7634D01*
X210583Y7921D01*
X211757Y9095D01*
X212257Y8888D01*
Y6454D01*
X210691Y4888D01*
X208857D01*
X208837Y4919D01*
X208214Y5335D01*
X207480Y5481D01*
X201969D01*
X201235Y5335D01*
X200612Y4919D01*
X200197Y4297D01*
X200050Y3563D01*
X200197Y2829D01*
X200612Y2207D01*
X201235Y1791D01*
X201969Y1645D01*
X207480D01*
X208214Y1791D01*
X208837Y2207D01*
X208857Y2238D01*
X211240D01*
X211747Y2338D01*
X212177Y2626D01*
X214520Y4968D01*
X214807Y5398D01*
X214908Y5906D01*
Y41339D01*
X214908Y41339D01*
X214807Y41846D01*
X214520Y42276D01*
X212926Y43870D01*
X212495Y44158D01*
X211988Y44258D01*
X208857D01*
X208837Y44289D01*
X208214Y44705D01*
X207480Y44851D01*
X201969D01*
X201235Y44705D01*
X200612Y44289D01*
X200592Y44258D01*
X189967D01*
X189576Y44520D01*
X188919Y44651D01*
X188261Y44520D01*
X187704Y44148D01*
X187332Y43590D01*
X187201Y42933D01*
X187332Y42276D01*
X187704Y41719D01*
X188261Y41346D01*
X188919Y41216D01*
X189576Y41346D01*
X189967Y41608D01*
X200592D01*
X200612Y41577D01*
X201235Y41161D01*
X201969Y41015D01*
X207480D01*
X208214Y41161D01*
X208837Y41577D01*
X208857Y41608D01*
X211439D01*
X212257Y40790D01*
Y38356D01*
X211757Y38149D01*
X211036Y38870D01*
X210606Y39158D01*
X210098Y39259D01*
X208857D01*
X208837Y39289D01*
X208214Y39705D01*
X207480Y39851D01*
X201969D01*
X201235Y39705D01*
X200612Y39289D01*
X200592Y39259D01*
X189967D01*
X189576Y39520D01*
X188919Y39651D01*
X188261Y39520D01*
X187704Y39147D01*
X187332Y38590D01*
X187201Y37933D01*
X187332Y37276D01*
X187704Y36719D01*
X188261Y36346D01*
X188919Y36216D01*
X189576Y36346D01*
X189967Y36608D01*
X200592D01*
X200612Y36577D01*
X201235Y36161D01*
X201969Y36015D01*
X207480D01*
X208214Y36161D01*
X208837Y36577D01*
X208857Y36608D01*
X209549D01*
X209792Y36365D01*
Y34300D01*
X209292Y34148D01*
X209053Y34506D01*
X208331Y34988D01*
X207480Y35157D01*
X205224D01*
Y32933D01*
Y30709D01*
X207480D01*
X208331Y30878D01*
X209053Y31361D01*
X209292Y31718D01*
X209792Y31566D01*
Y28518D01*
X209292Y28469D01*
X209252Y28667D01*
X208837Y29289D01*
X208214Y29705D01*
X207480Y29851D01*
X201969D01*
X201235Y29705D01*
X201024Y29564D01*
X196369D01*
Y30405D01*
X192213D01*
Y25461D01*
X192660D01*
Y-8965D01*
X192213D01*
Y-11976D01*
X190476Y-13713D01*
X189976Y-13506D01*
Y-11937D01*
X188098D01*
Y-14209D01*
X189273D01*
X189480Y-14709D01*
X183773Y-20416D01*
X176487D01*
Y-16623D01*
X170923D01*
Y-8550D01*
X177335Y-2138D01*
X177688Y-1609D01*
X177812Y-984D01*
Y29094D01*
X177899Y29528D01*
X177812Y29961D01*
Y35433D01*
X177688Y36057D01*
X177335Y36587D01*
X162905Y51016D01*
Y53653D01*
X160623D01*
X158806Y55470D01*
Y56583D01*
X162905D01*
Y57730D01*
X225394D01*
X225901Y57831D01*
X226331Y58118D01*
X227518Y59304D01*
X253782D01*
X255564Y57522D01*
Y4921D01*
X255665Y4414D01*
X255953Y3984D01*
X260874Y-937D01*
X261304Y-1225D01*
X261811Y-1326D01*
X274103D01*
Y-2472D01*
X276384D01*
X278202Y-4289D01*
Y-5402D01*
X274103D01*
Y-6549D01*
X268701D01*
X268194Y-6650D01*
X267763Y-6937D01*
X263584Y-11117D01*
X263122Y-11208D01*
X262565Y-11581D01*
X262193Y-12138D01*
X262062Y-12795D01*
X262193Y-13453D01*
X262565Y-14010D01*
X263122Y-14382D01*
X263779Y-14513D01*
X264437Y-14382D01*
X264994Y-14010D01*
X265366Y-13453D01*
X265458Y-12991D01*
X269250Y-9200D01*
X274103D01*
Y-10346D01*
X278202D01*
Y-11811D01*
X278303Y-12318D01*
X278590Y-12748D01*
X280559Y-14717D01*
X280989Y-15004D01*
X281496Y-15105D01*
X288386D01*
X288893Y-15004D01*
X289323Y-14717D01*
X291292Y-12748D01*
X291579Y-12318D01*
X291680Y-11811D01*
Y6549D01*
X329221D01*
Y5402D01*
X333320D01*
Y1533D01*
X328191Y-3596D01*
X304528D01*
X304020Y-3697D01*
X303590Y-3984D01*
X299653Y-7921D01*
X299366Y-8351D01*
X299265Y-8858D01*
Y-11898D01*
X297922D01*
Y-19598D01*
X302624D01*
X302831Y-20098D01*
X302207Y-20722D01*
X253305D01*
X243691Y-11108D01*
X243882Y-10646D01*
X244972D01*
Y-8374D01*
X243094D01*
Y-9906D01*
X242718Y-10167D01*
X242595Y-10201D01*
X242146Y-10112D01*
X240858D01*
Y-5402D01*
X240411D01*
Y-2472D01*
X240858D01*
Y2472D01*
X240411D01*
Y5402D01*
X240858D01*
Y10346D01*
X240411D01*
Y13276D01*
X240858D01*
Y18220D01*
X236702D01*
Y13276D01*
X237148D01*
Y10346D01*
X236702D01*
Y5402D01*
X237148D01*
Y2472D01*
X236702D01*
Y-1458D01*
X236240Y-1649D01*
X234874Y-283D01*
X234345Y70D01*
X233720Y194D01*
X228110D01*
X227899Y335D01*
X227165Y481D01*
X221654D01*
X220920Y335D01*
X220297Y-81D01*
X219882Y-703D01*
X219736Y-1437D01*
X219882Y-2171D01*
X220297Y-2793D01*
X220920Y-3209D01*
X221654Y-3355D01*
X227165D01*
X227899Y-3209D01*
X228110Y-3068D01*
X233045D01*
X235067Y-5091D01*
X235596Y-5444D01*
X236221Y-5568D01*
X236702D01*
Y-10112D01*
X228542D01*
X228522Y-10081D01*
X227899Y-9665D01*
X227165Y-9519D01*
X221654D01*
X220920Y-9665D01*
X220297Y-10081D01*
X219882Y-10703D01*
X219736Y-11437D01*
X219882Y-12171D01*
X220297Y-12793D01*
X220920Y-13209D01*
X221654Y-13355D01*
X227165D01*
X227899Y-13209D01*
X228522Y-12793D01*
X228542Y-12763D01*
X241597D01*
X251819Y-22985D01*
X252249Y-23272D01*
X252756Y-23373D01*
X302756D01*
X303263Y-23272D01*
X303693Y-22985D01*
X309008Y-17670D01*
X309295Y-17240D01*
X309396Y-16732D01*
Y-12360D01*
X311573Y-10184D01*
X333661D01*
X334169Y-10083D01*
X334599Y-9796D01*
X345425Y1031D01*
X345713Y1461D01*
X345814Y1969D01*
Y20669D01*
X345713Y21177D01*
X345425Y21607D01*
X342473Y24559D01*
X342043Y24847D01*
X341535Y24948D01*
X340070D01*
Y26094D01*
X335971D01*
Y27559D01*
X335870Y28066D01*
X335583Y28496D01*
X328772Y35307D01*
X328342Y35595D01*
X327835Y35695D01*
X321062D01*
X321041Y35726D01*
X320419Y36142D01*
X319685Y36288D01*
X314173D01*
X313439Y36142D01*
X312817Y35726D01*
X312401Y35104D01*
X312255Y34370D01*
X312401Y33636D01*
X312817Y33014D01*
X313439Y32598D01*
X314173Y32452D01*
X319685D01*
X320419Y32598D01*
X321041Y33014D01*
X321062Y33045D01*
X327286D01*
X333320Y27010D01*
Y26094D01*
X330702D01*
X326488Y30307D01*
X326058Y30595D01*
X325551Y30696D01*
X321062D01*
X321041Y30726D01*
X320419Y31142D01*
X319685Y31288D01*
X314173D01*
X313439Y31142D01*
X312817Y30726D01*
X312401Y30104D01*
X312255Y29370D01*
X312401Y28636D01*
X312817Y28014D01*
X313439Y27598D01*
X314173Y27452D01*
X319685D01*
X320419Y27598D01*
X321041Y28014D01*
X321062Y28045D01*
X325002D01*
X329190Y23856D01*
X329221Y23836D01*
Y21150D01*
X333320D01*
Y19488D01*
X333421Y18981D01*
X333546Y18794D01*
X333536Y18419D01*
X333453Y18317D01*
X333415Y18283D01*
X333087Y18221D01*
X332956Y18220D01*
X332930Y18220D01*
X331096D01*
X324008Y25307D01*
X323578Y25595D01*
X323071Y25695D01*
X321062D01*
X321041Y25726D01*
X320419Y26142D01*
X319685Y26288D01*
X314173D01*
X313439Y26142D01*
X312817Y25726D01*
X312401Y25104D01*
X312255Y24370D01*
X312401Y23636D01*
X312817Y23014D01*
X313439Y22598D01*
X314173Y22452D01*
X319685D01*
X320419Y22598D01*
X321041Y23014D01*
X321062Y23045D01*
X322522D01*
X329221Y16345D01*
Y13276D01*
X331503D01*
X333320Y11459D01*
Y10346D01*
X329221D01*
Y9200D01*
X291680D01*
Y22089D01*
X292636Y23045D01*
X293111D01*
X293132Y23014D01*
X293754Y22598D01*
X294488Y22452D01*
X300000D01*
X300734Y22598D01*
X301356Y23014D01*
X301772Y23636D01*
X301918Y24370D01*
X301772Y25104D01*
X301356Y25726D01*
X300734Y26142D01*
X300000Y26288D01*
X294488D01*
X293754Y26142D01*
X293132Y25726D01*
X293111Y25695D01*
X292087D01*
X291579Y25595D01*
X291149Y25307D01*
X289417Y23575D01*
X289130Y23145D01*
X289029Y22638D01*
Y7874D01*
Y-11262D01*
X287837Y-12454D01*
X282045D01*
X280853Y-11262D01*
Y-10346D01*
X284952D01*
Y-5402D01*
X284200D01*
Y-2472D01*
X284952D01*
Y886D01*
X288195Y4128D01*
X288195Y4128D01*
X288438Y4492D01*
X288523Y4921D01*
Y27095D01*
X289677Y28249D01*
X292975D01*
X293132Y28014D01*
X293754Y27598D01*
X294488Y27452D01*
X300000D01*
X300734Y27598D01*
X301356Y28014D01*
X301772Y28636D01*
X301918Y29370D01*
X301772Y30104D01*
X301356Y30726D01*
X300734Y31142D01*
X300000Y31288D01*
X294488D01*
X293754Y31142D01*
X293132Y30726D01*
X292975Y30492D01*
X289213D01*
X288783Y30406D01*
X288420Y30163D01*
X288420Y30163D01*
X286609Y28352D01*
X286365Y27988D01*
X286280Y27559D01*
X286280Y27559D01*
Y5386D01*
X283366Y2472D01*
X280796D01*
X280796Y-1985D01*
Y-2110D01*
X280796Y-2110D01*
X280735Y-2462D01*
X280723Y-2481D01*
X280345Y-2513D01*
X280145Y-2483D01*
X278259Y-597D01*
Y2472D01*
X277507D01*
Y5402D01*
X278259D01*
Y10346D01*
X274103D01*
Y5402D01*
X274856D01*
Y2472D01*
X274103D01*
Y1326D01*
X262360D01*
X258215Y5470D01*
Y45774D01*
X258715Y45874D01*
X258855Y45537D01*
X259397Y44830D01*
X260104Y44288D01*
X260928Y43947D01*
X261811Y43830D01*
X262695Y43947D01*
X263350Y44218D01*
X272403D01*
Y43072D01*
X279959D01*
Y51416D01*
X272403D01*
Y50270D01*
X263350D01*
X262695Y50542D01*
X261811Y50658D01*
X260928Y50542D01*
X260104Y50200D01*
X259397Y49658D01*
X258855Y48951D01*
X258715Y48614D01*
X258215Y48714D01*
Y58071D01*
X258114Y58578D01*
X257827Y59008D01*
X255338Y61497D01*
X255393Y61777D01*
X255524Y61997D01*
X265995D01*
X266619Y62122D01*
X267148Y62475D01*
X267215Y62542D01*
X274103D01*
Y60520D01*
X278259D01*
Y65464D01*
X275949D01*
X275624Y65680D01*
X275000Y65805D01*
X267587D01*
X267396Y66267D01*
X268970Y67840D01*
X272403D01*
Y66694D01*
X279959D01*
Y75038D01*
X272403D01*
Y73892D01*
X267717D01*
X266933Y73789D01*
X266204Y73487D01*
X265577Y73006D01*
X265577Y73006D01*
X263510Y70939D01*
X263350D01*
X262695Y71211D01*
X261890Y71317D01*
X261621Y71754D01*
X267281Y77415D01*
X274103D01*
Y76269D01*
X278259D01*
Y81212D01*
X277812D01*
Y84143D01*
X278259D01*
Y87178D01*
X278327Y87279D01*
X278427Y87786D01*
X278327Y88293D01*
X278259Y88394D01*
Y89086D01*
X278701Y89226D01*
X280354D01*
X280796Y89086D01*
X280796Y88726D01*
Y84143D01*
X281243D01*
Y81212D01*
X280796D01*
Y76269D01*
X281243D01*
Y73338D01*
X280796D01*
Y68395D01*
X284952D01*
Y69541D01*
X285868D01*
X286076Y69333D01*
Y52165D01*
X286177Y51658D01*
X286464Y51228D01*
X289260Y48433D01*
X289690Y48145D01*
X290197Y48045D01*
X293111D01*
X293132Y48014D01*
X293754Y47598D01*
X294488Y47452D01*
X300000D01*
X300734Y47598D01*
X301356Y48014D01*
X301772Y48636D01*
X301918Y49370D01*
X301772Y50104D01*
X301356Y50726D01*
X300734Y51142D01*
X300000Y51288D01*
X294488D01*
X293754Y51142D01*
X293132Y50726D01*
X293111Y50696D01*
X290746D01*
X288727Y52714D01*
Y69882D01*
X288626Y70389D01*
X288339Y70819D01*
X287355Y71803D01*
X286925Y72091D01*
X286417Y72192D01*
X284952D01*
Y73338D01*
X284505D01*
Y76269D01*
X284952D01*
Y81212D01*
X284505D01*
Y84143D01*
X284952D01*
X284952Y89086D01*
X285394Y89226D01*
X290013D01*
Y55073D01*
X290114Y54566D01*
X290401Y54136D01*
X291104Y53433D01*
X291534Y53145D01*
X292041Y53045D01*
X293111D01*
X293132Y53014D01*
X293754Y52598D01*
X294488Y52452D01*
X300000D01*
X300734Y52598D01*
X301356Y53014D01*
X301772Y53636D01*
X301918Y54370D01*
X301772Y55104D01*
X301356Y55726D01*
X300734Y56142D01*
X300000Y56288D01*
X294488D01*
X293754Y56142D01*
X293164Y55748D01*
X292664Y55857D01*
Y89848D01*
X292563Y90355D01*
X292276Y90785D01*
X291573Y91488D01*
X291143Y91776D01*
X290636Y91877D01*
X285394D01*
X284952Y92017D01*
X284952Y92377D01*
Y93163D01*
X290986D01*
X293950Y90199D01*
Y67913D01*
X294051Y67406D01*
X294338Y66976D01*
X298275Y63039D01*
X298705Y62752D01*
X299213Y62651D01*
X304569D01*
X306745Y60475D01*
Y47244D01*
X306846Y46737D01*
X307134Y46307D01*
X310008Y43433D01*
X310438Y43145D01*
X310945Y43045D01*
X312796D01*
X312817Y43014D01*
X313439Y42598D01*
X314173Y42452D01*
X319685D01*
X320419Y42598D01*
X321041Y43014D01*
X321062Y43045D01*
X328425D01*
X328932Y43145D01*
X329363Y43433D01*
X330702Y44772D01*
X333377D01*
Y49277D01*
X333877Y49485D01*
X335914Y47447D01*
Y44772D01*
X340070D01*
Y49716D01*
X337395D01*
X335971Y51140D01*
Y52646D01*
X340070D01*
Y57590D01*
X339318D01*
Y76378D01*
X339217Y76885D01*
X338929Y77315D01*
X303496Y112748D01*
X303066Y113036D01*
X302559Y113136D01*
X240418D01*
X240027Y113398D01*
X239370Y113529D01*
X238713Y113398D01*
X238156Y113025D01*
X237783Y112468D01*
X237653Y111811D01*
X237783Y111154D01*
X238156Y110597D01*
X238713Y110224D01*
X239370Y110093D01*
X240027Y110224D01*
X240418Y110485D01*
X302010D01*
X336667Y75829D01*
Y57590D01*
X335971D01*
Y58071D01*
X335870Y58578D01*
X335583Y59008D01*
X333614Y60977D01*
X333184Y61264D01*
X332677Y61365D01*
X329081D01*
Y68898D01*
X328980Y69405D01*
X328693Y69835D01*
X322788Y75740D01*
X322358Y76028D01*
X321850Y76129D01*
X316251D01*
Y78653D01*
X314908D01*
Y83071D01*
X314807Y83578D01*
X314520Y84008D01*
X295229Y103299D01*
X294799Y103587D01*
X294291Y103688D01*
X284952D01*
Y104834D01*
X280796D01*
Y99891D01*
X284952D01*
Y101037D01*
X293742D01*
X312257Y82522D01*
Y78653D01*
X310914D01*
Y70954D01*
X316251D01*
Y73478D01*
X321301D01*
X326430Y68349D01*
Y60588D01*
X321538Y55696D01*
X321062D01*
X321041Y55726D01*
X320419Y56142D01*
X319685Y56288D01*
X314173D01*
X313439Y56142D01*
X312817Y55726D01*
X312401Y55104D01*
X312255Y54370D01*
X312401Y53636D01*
X312817Y53014D01*
X313439Y52598D01*
X314173Y52452D01*
X319685D01*
X320419Y52598D01*
X321041Y53014D01*
X321062Y53045D01*
X322087D01*
X322594Y53145D01*
X323024Y53433D01*
X328305Y58714D01*
X332128D01*
X332790Y58052D01*
X332599Y57590D01*
X329221D01*
Y54521D01*
X325396Y50696D01*
X321062D01*
X321041Y50726D01*
X320419Y51142D01*
X319685Y51288D01*
X314173D01*
X313439Y51142D01*
X312817Y50726D01*
X312401Y50104D01*
X312255Y49370D01*
X312401Y48636D01*
X312817Y48014D01*
X313439Y47598D01*
X314173Y47452D01*
X319685D01*
X320419Y47598D01*
X321041Y48014D01*
X321062Y48045D01*
X325945D01*
X326452Y48145D01*
X326882Y48433D01*
X331096Y52646D01*
X333320D01*
Y50590D01*
X333396Y50208D01*
X333179Y49834D01*
X333065Y49716D01*
X329221D01*
Y47041D01*
X327876Y45695D01*
X321062D01*
X321041Y45726D01*
X320419Y46142D01*
X319685Y46288D01*
X314173D01*
X313439Y46142D01*
X312817Y45726D01*
X312796Y45695D01*
X311494D01*
X309396Y47793D01*
Y61024D01*
X309295Y61531D01*
X309008Y61961D01*
X306055Y64914D01*
X305625Y65201D01*
X305118Y65302D01*
X299762D01*
X296601Y68462D01*
Y90748D01*
X296500Y91255D01*
X296213Y91685D01*
X292473Y95425D01*
X292043Y95713D01*
X291535Y95814D01*
X284952D01*
Y96960D01*
X280796D01*
X280796Y92017D01*
X280354Y91877D01*
X278701D01*
X278259Y92017D01*
Y96960D01*
X274103D01*
Y92017D01*
X274550D01*
Y89086D01*
X274103D01*
Y84143D01*
X274550D01*
Y81212D01*
X274103D01*
Y80066D01*
X266732D01*
X266225Y79965D01*
X265795Y79677D01*
X259097Y72979D01*
X234055D01*
X233548Y72878D01*
X233118Y72591D01*
X228782Y68255D01*
X225611D01*
X225460Y68755D01*
X225624Y68864D01*
X225996Y69421D01*
X226127Y70079D01*
X225996Y70736D01*
X225624Y71293D01*
X225067Y71666D01*
X224410Y71796D01*
X223752Y71666D01*
X223361Y71404D01*
X194392D01*
X194077Y71904D01*
X194169Y72363D01*
X194038Y73020D01*
X193666Y73578D01*
X193385Y73765D01*
X193537Y74265D01*
X226904D01*
X227295Y74004D01*
X227953Y73873D01*
X228610Y74004D01*
X229167Y74376D01*
X229539Y74933D01*
X229670Y75590D01*
X229539Y76248D01*
X229167Y76805D01*
X228610Y77177D01*
X227953Y77308D01*
X227295Y77177D01*
X226904Y76916D01*
X199133D01*
X198855Y77416D01*
X198962Y77953D01*
X198831Y78610D01*
X198459Y79167D01*
X197901Y79540D01*
X197244Y79670D01*
X196587Y79540D01*
X196196Y79278D01*
X188925D01*
X184926Y83277D01*
X185245Y83665D01*
X185563Y83453D01*
X186221Y83322D01*
X186878Y83453D01*
X187435Y83825D01*
X187497Y83918D01*
X201969D01*
X201969Y83918D01*
X202398Y84003D01*
X202762Y84246D01*
X203549Y85034D01*
X203549Y85034D01*
X203792Y85398D01*
X203877Y85827D01*
Y91032D01*
X205228D01*
Y95131D01*
X220866D01*
X221373Y95232D01*
X221803Y95519D01*
X223581Y97297D01*
X231471D01*
X231874Y97063D01*
X231874Y96797D01*
Y95382D01*
X235138D01*
X238402D01*
Y96797D01*
X238402Y97063D01*
X238805Y97297D01*
X241032D01*
Y96741D01*
X246960D01*
Y100503D01*
X241032D01*
Y99948D01*
X223031D01*
X222524Y99847D01*
X222094Y99559D01*
X220317Y97782D01*
X205228D01*
Y99810D01*
X211567Y106149D01*
X211855Y106579D01*
X211955Y107087D01*
Y117205D01*
X211855Y117712D01*
X211567Y118142D01*
X205231Y124478D01*
X205455Y125018D01*
X205582Y125984D01*
X205455Y126950D01*
X205082Y127850D01*
X204489Y128623D01*
X203716Y129216D01*
X202816Y129589D01*
X201850Y129716D01*
X200885Y129589D01*
X199984Y129216D01*
X199212Y128623D01*
X198618Y127850D01*
X198246Y126950D01*
X198118Y125984D01*
X198246Y125018D01*
X198618Y124118D01*
X199212Y123345D01*
X199984Y122752D01*
X200885Y122380D01*
X201850Y122252D01*
X202816Y122380D01*
X203357Y122603D01*
X209304Y116656D01*
Y107636D01*
X203575Y101907D01*
X203534D01*
X203406Y101881D01*
X200284D01*
Y97782D01*
X199606D01*
X199099Y97681D01*
X198669Y97394D01*
X193878Y92603D01*
X193417Y92795D01*
Y95188D01*
X190348D01*
X188196Y97340D01*
X188518Y97725D01*
X188955Y97725D01*
X193417D01*
Y101881D01*
X190348D01*
X184396Y107833D01*
Y116656D01*
X190344Y122603D01*
X190884Y122380D01*
X191850Y122252D01*
X192816Y122380D01*
X193716Y122752D01*
X194489Y123345D01*
X195082Y124118D01*
X195455Y125018D01*
X195582Y125984D01*
X195455Y126950D01*
X195082Y127850D01*
X194489Y128623D01*
X193716Y129216D01*
X192816Y129589D01*
X191850Y129716D01*
X190884Y129589D01*
X189984Y129216D01*
X189211Y128623D01*
X188618Y127850D01*
X188246Y126950D01*
X188119Y125984D01*
X188246Y125018D01*
X188470Y124478D01*
X182134Y118142D01*
X181846Y117712D01*
X181745Y117205D01*
Y107283D01*
X181846Y106776D01*
X182134Y106346D01*
X188473Y100007D01*
Y98223D01*
X188473Y97770D01*
X188088Y97448D01*
X186516Y99020D01*
X186086Y99307D01*
X185579Y99408D01*
X127561D01*
X127054Y99307D01*
X126624Y99020D01*
X101777Y74173D01*
X101490Y73743D01*
X101389Y73236D01*
Y70027D01*
X100889Y69729D01*
X100394Y69828D01*
X99736Y69697D01*
X99179Y69325D01*
X98807Y68767D01*
X98676Y68110D01*
X98807Y67453D01*
X99069Y67060D01*
X98860Y66629D01*
X98772Y66585D01*
X98373Y66665D01*
X97715Y66534D01*
X97298Y66255D01*
X96798Y66454D01*
Y73316D01*
X97944D01*
Y77472D01*
X93001D01*
Y77025D01*
X91621D01*
X78403Y90243D01*
Y101379D01*
X80472D01*
Y103447D01*
X81457D01*
X82081Y103572D01*
X82610Y103925D01*
X103038Y124353D01*
X111848D01*
X112139Y123651D01*
X112693Y122929D01*
X113415Y122375D01*
X113526Y122329D01*
Y107787D01*
X113080D01*
Y105969D01*
X113060Y105939D01*
X112936Y105315D01*
X113060Y104691D01*
X113080Y104661D01*
Y102843D01*
X117235D01*
Y107787D01*
X116789D01*
Y122329D01*
X116900Y122375D01*
X117622Y122929D01*
X118176Y123651D01*
X118524Y124492D01*
X118643Y125394D01*
Y126575D01*
X118524Y127477D01*
X118176Y128318D01*
X117622Y129040D01*
X116900Y129594D01*
X116060Y129942D01*
X115157Y130061D01*
D02*
G37*
G36*
X110843Y108087D02*
X108965D01*
Y105815D01*
X110843D01*
Y108087D01*
D02*
G37*
G36*
X107965D02*
X106087D01*
Y105815D01*
X107965D01*
Y108087D01*
D02*
G37*
G36*
X278259Y104834D02*
X274103D01*
Y103688D01*
X264176D01*
X263681Y103786D01*
X238102D01*
Y104243D01*
X232174D01*
Y100481D01*
X238102D01*
Y101135D01*
X254033D01*
X254528Y101037D01*
X274103D01*
Y99891D01*
X278259D01*
Y104834D01*
D02*
G37*
G36*
X110843Y104815D02*
X108965D01*
Y102543D01*
X110843D01*
Y104815D01*
D02*
G37*
G36*
X107965D02*
X106087D01*
Y102543D01*
X107965D01*
Y104815D01*
D02*
G37*
G36*
X381398Y113725D02*
X380064Y113594D01*
X378782Y113205D01*
X377600Y112573D01*
X376564Y111723D01*
X375714Y110687D01*
X375083Y109505D01*
X374694Y108223D01*
X374562Y106890D01*
X374694Y105556D01*
X375083Y104274D01*
X375714Y103092D01*
X376564Y102057D01*
X377600Y101206D01*
X378782Y100575D01*
X380064Y100186D01*
X381398Y100055D01*
X382731Y100186D01*
X384013Y100575D01*
X385195Y101206D01*
X386231Y102057D01*
X387081Y103092D01*
X387713Y104274D01*
X388102Y105556D01*
X388233Y106890D01*
X388102Y108223D01*
X387713Y109505D01*
X387081Y110687D01*
X386231Y111723D01*
X385195Y112573D01*
X384013Y113205D01*
X382731Y113594D01*
X381398Y113725D01*
D02*
G37*
G36*
X11024D02*
X9690Y113594D01*
X8408Y113205D01*
X7226Y112573D01*
X6190Y111723D01*
X5340Y110687D01*
X4709Y109505D01*
X4320Y108223D01*
X4188Y106890D01*
X4320Y105556D01*
X4709Y104274D01*
X5340Y103092D01*
X6190Y102057D01*
X7226Y101206D01*
X8408Y100575D01*
X9690Y100186D01*
X11024Y100055D01*
X12357Y100186D01*
X13639Y100575D01*
X14821Y101206D01*
X15857Y102057D01*
X16707Y103092D01*
X17339Y104274D01*
X17728Y105556D01*
X17859Y106890D01*
X17728Y108223D01*
X17339Y109505D01*
X16707Y110687D01*
X15857Y111723D01*
X14821Y112573D01*
X13639Y113205D01*
X12357Y113594D01*
X11024Y113725D01*
D02*
G37*
G36*
X238402Y94382D02*
X235638D01*
Y92701D01*
X238402D01*
Y94382D01*
D02*
G37*
G36*
X234638D02*
X231874D01*
Y92701D01*
X234638D01*
Y94382D01*
D02*
G37*
G36*
X98244Y84465D02*
X95972D01*
Y82587D01*
X98244D01*
Y84465D01*
D02*
G37*
G36*
X94972D02*
X92701D01*
Y82587D01*
X94972D01*
Y84465D01*
D02*
G37*
G36*
X98244Y81587D02*
X95972D01*
Y79709D01*
X98244D01*
Y81587D01*
D02*
G37*
G36*
X94972D02*
X92701D01*
Y79709D01*
X94972D01*
Y81587D01*
D02*
G37*
G36*
X361039Y68520D02*
X358768D01*
Y66642D01*
X361039D01*
Y68520D01*
D02*
G37*
G36*
X357768D02*
X355496D01*
Y66642D01*
X357768D01*
Y68520D01*
D02*
G37*
G36*
X361039Y65642D02*
X358768D01*
Y63764D01*
X361039D01*
Y65642D01*
D02*
G37*
G36*
X357768D02*
X355496D01*
Y63764D01*
X357768D01*
Y65642D01*
D02*
G37*
G36*
X303259Y78653D02*
X297922D01*
Y70954D01*
X301501D01*
X301659Y70922D01*
X302164D01*
X309279Y63807D01*
X309809Y63454D01*
X310433Y63329D01*
X320433D01*
X320866Y63243D01*
X321523Y63374D01*
X322081Y63746D01*
X322453Y64303D01*
X322584Y64961D01*
X322453Y65618D01*
X322081Y66175D01*
X321523Y66547D01*
X320866Y66678D01*
X320433Y66592D01*
X311109D01*
X303994Y73707D01*
X303464Y74061D01*
X303259Y74102D01*
Y78653D01*
D02*
G37*
G36*
X375138Y65143D02*
Y61524D01*
X378757D01*
X378681Y62107D01*
X378262Y63116D01*
X377597Y63983D01*
X376730Y64648D01*
X375721Y65066D01*
X375138Y65143D01*
D02*
G37*
G36*
X374138Y65143D02*
X373554Y65066D01*
X372545Y64648D01*
X371678Y63983D01*
X371013Y63116D01*
X370595Y62107D01*
X370518Y61524D01*
X374138D01*
Y65143D01*
D02*
G37*
G36*
Y60524D02*
X370518D01*
X370595Y59940D01*
X371013Y58931D01*
X371678Y58064D01*
X372545Y57399D01*
X373554Y56981D01*
X374138Y56904D01*
Y60524D01*
D02*
G37*
G36*
X378757D02*
X375138D01*
Y56904D01*
X375721Y56981D01*
X376730Y57399D01*
X377597Y58064D01*
X378262Y58931D01*
X378681Y59940D01*
X378757Y60524D01*
D02*
G37*
G36*
X278559Y57890D02*
X276681D01*
Y55618D01*
X278559D01*
Y57890D01*
D02*
G37*
G36*
X275681D02*
X273803D01*
Y55618D01*
X275681D01*
Y57890D01*
D02*
G37*
G36*
X361039Y54937D02*
X358768D01*
Y53059D01*
X361039D01*
Y54937D01*
D02*
G37*
G36*
X357768D02*
X355496D01*
Y53059D01*
X357768D01*
Y54937D01*
D02*
G37*
G36*
X278559Y54618D02*
X276681D01*
Y52346D01*
X278559D01*
Y54618D01*
D02*
G37*
G36*
X275681D02*
X273803D01*
Y52346D01*
X275681D01*
Y54618D01*
D02*
G37*
G36*
X361039Y52059D02*
X358768D01*
Y50181D01*
X361039D01*
Y52059D01*
D02*
G37*
G36*
X357768D02*
X355496D01*
Y50181D01*
X357768D01*
Y52059D01*
D02*
G37*
G36*
X244972Y50016D02*
X243094D01*
Y47744D01*
X244972D01*
Y50016D01*
D02*
G37*
G36*
X247850Y46744D02*
X245972D01*
Y44472D01*
X247850D01*
Y46744D01*
D02*
G37*
G36*
X244972D02*
X243094D01*
Y44472D01*
X244972D01*
Y46744D01*
D02*
G37*
G36*
X284952Y65464D02*
X280796D01*
Y60520D01*
X281549D01*
Y57590D01*
X280796D01*
Y52646D01*
X281549D01*
Y49716D01*
X280796D01*
Y44772D01*
X284952D01*
Y45919D01*
X285868D01*
X288354Y43433D01*
X288784Y43145D01*
X289291Y43045D01*
X293111D01*
X293132Y43014D01*
X293754Y42598D01*
X294488Y42452D01*
X300000D01*
X300734Y42598D01*
X301356Y43014D01*
X301772Y43636D01*
X301918Y44370D01*
X301772Y45104D01*
X301356Y45726D01*
X300734Y46142D01*
X300000Y46288D01*
X294488D01*
X293754Y46142D01*
X293132Y45726D01*
X293111Y45695D01*
X289840D01*
X287355Y48181D01*
X286925Y48469D01*
X286417Y48570D01*
X284952D01*
Y49716D01*
X284200D01*
Y52646D01*
X284952D01*
Y57590D01*
X284200D01*
Y60520D01*
X284952D01*
Y65464D01*
D02*
G37*
G36*
X227165Y44851D02*
X221654D01*
X220920Y44705D01*
X220297Y44289D01*
X219882Y43667D01*
X219736Y42933D01*
X219882Y42199D01*
X220297Y41577D01*
X220920Y41161D01*
X221654Y41015D01*
X227165D01*
X227899Y41161D01*
X228522Y41577D01*
X228542Y41608D01*
X231235D01*
X231626Y41346D01*
X232283Y41216D01*
X232941Y41346D01*
X233498Y41719D01*
X233870Y42276D01*
X234001Y42933D01*
X233870Y43590D01*
X233498Y44148D01*
X232941Y44520D01*
X232283Y44651D01*
X231626Y44520D01*
X231235Y44258D01*
X228542D01*
X228522Y44289D01*
X227899Y44705D01*
X227165Y44851D01*
D02*
G37*
G36*
X333377Y41842D02*
X329221D01*
Y41001D01*
X325236D01*
X324803Y41088D01*
X324370Y41001D01*
X320629D01*
X320419Y41142D01*
X319685Y41288D01*
X314173D01*
X313439Y41142D01*
X312817Y40726D01*
X312401Y40104D01*
X312255Y39370D01*
X312401Y38636D01*
X312817Y38014D01*
X313439Y37598D01*
X314173Y37452D01*
X319685D01*
X320419Y37598D01*
X320629Y37739D01*
X324370D01*
X324803Y37653D01*
X325236Y37739D01*
X329221D01*
Y36898D01*
X333377D01*
Y41842D01*
D02*
G37*
G36*
X340370Y42142D02*
X338492D01*
Y39870D01*
X340370D01*
Y42142D01*
D02*
G37*
G36*
X337492D02*
X335614D01*
Y39870D01*
X337492D01*
Y42142D01*
D02*
G37*
G36*
X278559Y42142D02*
X276681D01*
Y39870D01*
X278559D01*
Y42142D01*
D02*
G37*
G36*
X275681D02*
X273803D01*
Y39870D01*
X275681D01*
Y42142D01*
D02*
G37*
G36*
X247850Y42142D02*
X245972D01*
Y39870D01*
X247850D01*
Y42142D01*
D02*
G37*
G36*
X244972D02*
X243094D01*
Y39870D01*
X244972D01*
Y42142D01*
D02*
G37*
G36*
X240858Y57590D02*
X236702D01*
Y52646D01*
X237148D01*
Y49716D01*
X236702D01*
Y44772D01*
X237148D01*
Y41842D01*
X236702D01*
Y37912D01*
X236240Y37721D01*
X234874Y39087D01*
X234345Y39440D01*
X233720Y39564D01*
X228110D01*
X227899Y39705D01*
X227165Y39851D01*
X221654D01*
X220920Y39705D01*
X220297Y39289D01*
X219882Y38667D01*
X219736Y37933D01*
X219882Y37199D01*
X220297Y36577D01*
X220920Y36161D01*
X221654Y36015D01*
X227165D01*
X227899Y36161D01*
X228110Y36302D01*
X233045D01*
X235067Y34280D01*
X235596Y33926D01*
X236221Y33802D01*
X236702D01*
Y29024D01*
X240858D01*
Y33968D01*
X240411D01*
Y36898D01*
X240858D01*
Y41842D01*
X240411D01*
Y44772D01*
X240858D01*
Y49716D01*
X240411D01*
Y52646D01*
X240858D01*
Y57590D01*
D02*
G37*
G36*
X284952Y41842D02*
X280796D01*
Y36898D01*
X284952D01*
Y37739D01*
X289626D01*
X290059Y37653D01*
X290492Y37739D01*
X293544D01*
X293754Y37598D01*
X294488Y37452D01*
X300000D01*
X300734Y37598D01*
X301356Y38014D01*
X301772Y38636D01*
X301918Y39370D01*
X301772Y40104D01*
X301356Y40726D01*
X300734Y41142D01*
X300000Y41288D01*
X294488D01*
X293754Y41142D01*
X293544Y41001D01*
X290492D01*
X290059Y41088D01*
X289626Y41001D01*
X284952D01*
Y41842D01*
D02*
G37*
G36*
X278559Y38870D02*
X276681D01*
Y36598D01*
X278559D01*
Y38870D01*
D02*
G37*
G36*
X275681D02*
X273803D01*
Y36598D01*
X275681D01*
Y38870D01*
D02*
G37*
G36*
X247850Y38870D02*
X245972D01*
Y36598D01*
X247850D01*
Y38870D01*
D02*
G37*
G36*
X244972D02*
X243094D01*
Y36598D01*
X244972D01*
Y38870D01*
D02*
G37*
G36*
X340370Y38870D02*
X338492D01*
Y36598D01*
X340370D01*
Y38870D01*
D02*
G37*
G36*
X337492D02*
X335614D01*
Y36598D01*
X337492D01*
Y38870D01*
D02*
G37*
G36*
X227165Y35157D02*
X224909D01*
Y33433D01*
X229290D01*
X229220Y33784D01*
X228738Y34506D01*
X228016Y34988D01*
X227165Y35157D01*
D02*
G37*
G36*
X223909D02*
X221654D01*
X220802Y34988D01*
X220081Y34506D01*
X219599Y33784D01*
X219529Y33433D01*
X223909D01*
Y35157D01*
D02*
G37*
G36*
X204224D02*
X201969D01*
X201117Y34988D01*
X200396Y34506D01*
X199914Y33784D01*
X199844Y33433D01*
X204224D01*
Y35157D01*
D02*
G37*
G36*
X300000Y36288D02*
X294488D01*
X293754Y36142D01*
X293132Y35726D01*
X293111Y35695D01*
X288307D01*
X287800Y35595D01*
X287370Y35307D01*
X285414Y33351D01*
X284952Y33543D01*
Y33968D01*
X280796D01*
Y29024D01*
X281549D01*
Y26094D01*
X280796D01*
Y21150D01*
X281549D01*
Y18220D01*
X280796D01*
Y13276D01*
X281549D01*
Y10346D01*
X280796D01*
Y5402D01*
X284952D01*
Y10346D01*
X284200D01*
Y13276D01*
X284952D01*
Y18220D01*
X284200D01*
Y21150D01*
X284952D01*
Y26094D01*
X284200D01*
Y29024D01*
X284952D01*
Y30171D01*
X285433D01*
X285940Y30272D01*
X286370Y30559D01*
X288856Y33045D01*
X293111D01*
X293132Y33014D01*
X293754Y32598D01*
X294488Y32452D01*
X300000D01*
X300734Y32598D01*
X301356Y33014D01*
X301772Y33636D01*
X301918Y34370D01*
X301772Y35104D01*
X301356Y35726D01*
X300734Y36142D01*
X300000Y36288D01*
D02*
G37*
G36*
X278259Y33968D02*
X274103D01*
Y32822D01*
X262859D01*
X262468Y33083D01*
X261811Y33214D01*
X261154Y33083D01*
X260597Y32710D01*
X260224Y32153D01*
X260093Y31496D01*
X260224Y30839D01*
X260597Y30282D01*
X261154Y29909D01*
X261811Y29779D01*
X262468Y29909D01*
X262859Y30171D01*
X274103D01*
Y29024D01*
X278259D01*
Y33968D01*
D02*
G37*
G36*
X247850Y34268D02*
X245972D01*
Y31996D01*
X247850D01*
Y34268D01*
D02*
G37*
G36*
X244972D02*
X243094D01*
Y31996D01*
X244972D01*
Y34268D01*
D02*
G37*
G36*
X229290Y32433D02*
X224909D01*
Y30709D01*
X227165D01*
X228016Y30878D01*
X228738Y31361D01*
X229220Y32082D01*
X229290Y32433D01*
D02*
G37*
G36*
X223909D02*
X219529D01*
X219599Y32082D01*
X220081Y31361D01*
X220802Y30878D01*
X221654Y30709D01*
X223909D01*
Y32433D01*
D02*
G37*
G36*
X204224D02*
X199844D01*
X199914Y32082D01*
X200396Y31361D01*
X201117Y30878D01*
X201969Y30709D01*
X204224D01*
Y32433D01*
D02*
G37*
G36*
X247850Y30996D02*
X245972D01*
Y28724D01*
X247850D01*
Y30996D01*
D02*
G37*
G36*
X244972D02*
X243094D01*
Y28724D01*
X244972D01*
Y30996D01*
D02*
G37*
G36*
X189976Y30705D02*
X188098D01*
Y28433D01*
X189976D01*
Y30705D01*
D02*
G37*
G36*
X187098D02*
X185221D01*
Y28433D01*
X187098D01*
Y30705D01*
D02*
G37*
G36*
X278259Y26094D02*
X274103D01*
Y25253D01*
X265065D01*
X264632Y25339D01*
X263975Y25209D01*
X263418Y24836D01*
X263045Y24279D01*
X262914Y23622D01*
X263045Y22965D01*
X263418Y22408D01*
X263975Y22035D01*
X264632Y21905D01*
X265065Y21991D01*
X274103D01*
Y21150D01*
X278259D01*
Y26094D01*
D02*
G37*
G36*
X189976Y27433D02*
X188098D01*
Y25161D01*
X189976D01*
Y27433D01*
D02*
G37*
G36*
X187098D02*
X185221D01*
Y25161D01*
X187098D01*
Y27433D01*
D02*
G37*
G36*
X227165Y29851D02*
X221654D01*
X220920Y29705D01*
X220297Y29289D01*
X219882Y28667D01*
X219736Y27933D01*
X219882Y27199D01*
X220297Y26577D01*
X220920Y26161D01*
X221654Y26015D01*
X227165D01*
X227899Y26161D01*
X228522Y26577D01*
X228542Y26608D01*
X234116D01*
X237692Y23032D01*
X237783Y22571D01*
X238156Y22014D01*
X238713Y21642D01*
X239370Y21511D01*
X240027Y21642D01*
X240584Y22014D01*
X240957Y22571D01*
X241088Y23228D01*
X240957Y23886D01*
X240584Y24443D01*
X240027Y24815D01*
X239566Y24907D01*
X235603Y28870D01*
X235173Y29158D01*
X234665Y29258D01*
X228542D01*
X228522Y29289D01*
X227899Y29705D01*
X227165Y29851D01*
D02*
G37*
G36*
X278559Y18520D02*
X276681D01*
Y16248D01*
X278559D01*
Y18520D01*
D02*
G37*
G36*
X275681D02*
X273803D01*
Y16248D01*
X275681D01*
Y18520D01*
D02*
G37*
G36*
X247550Y57590D02*
X243394D01*
Y52646D01*
X245243D01*
X247374Y50516D01*
X247167Y50016D01*
X245972D01*
Y47744D01*
X247850D01*
Y49332D01*
X248350Y49539D01*
X251321Y46568D01*
Y24298D01*
X245243Y18220D01*
X243394D01*
Y13276D01*
X247550D01*
Y15913D01*
X253800Y22162D01*
X254167Y22408D01*
X254539Y22965D01*
X254670Y23622D01*
X254584Y24055D01*
Y47244D01*
X254460Y47868D01*
X254106Y48398D01*
X247550Y54953D01*
Y57590D01*
D02*
G37*
G36*
X278559Y15248D02*
X276681D01*
Y12976D01*
X278559D01*
Y15248D01*
D02*
G37*
G36*
X275681D02*
X273803D01*
Y12976D01*
X275681D01*
Y15248D01*
D02*
G37*
G36*
X247850Y10646D02*
X245972D01*
Y8374D01*
X247850D01*
Y10646D01*
D02*
G37*
G36*
X244972D02*
X243094D01*
Y8374D01*
X244972D01*
Y10646D01*
D02*
G37*
G36*
X247850Y7374D02*
X245972D01*
Y5102D01*
X247850D01*
Y7374D01*
D02*
G37*
G36*
X244972D02*
X243094D01*
Y5102D01*
X244972D01*
Y7374D01*
D02*
G37*
G36*
X227165Y5481D02*
X221654D01*
X220920Y5335D01*
X220297Y4919D01*
X219882Y4297D01*
X219736Y3563D01*
X219882Y2829D01*
X220297Y2207D01*
X220920Y1791D01*
X221654Y1645D01*
X227165D01*
X227899Y1791D01*
X228522Y2207D01*
X228542Y2238D01*
X231235D01*
X231626Y1976D01*
X232283Y1846D01*
X232941Y1976D01*
X233498Y2348D01*
X233870Y2906D01*
X234001Y3563D01*
X233870Y4220D01*
X233498Y4778D01*
X232941Y5150D01*
X232283Y5280D01*
X231626Y5150D01*
X231235Y4888D01*
X228542D01*
X228522Y4919D01*
X227899Y5335D01*
X227165Y5481D01*
D02*
G37*
G36*
X359071Y2968D02*
X356799D01*
Y1091D01*
X359071D01*
Y2968D01*
D02*
G37*
G36*
X355799D02*
X353528D01*
Y1091D01*
X355799D01*
Y2968D01*
D02*
G37*
G36*
X247850Y2772D02*
X245972D01*
Y500D01*
X247850D01*
Y2772D01*
D02*
G37*
G36*
X244972D02*
X243094D01*
Y500D01*
X244972D01*
Y2772D01*
D02*
G37*
G36*
X374516Y2151D02*
Y-1469D01*
X378135D01*
X378059Y-885D01*
X377640Y124D01*
X376975Y991D01*
X376109Y1656D01*
X375099Y2074D01*
X374516Y2151D01*
D02*
G37*
G36*
X373516Y2151D02*
X372933Y2074D01*
X371923Y1656D01*
X371056Y991D01*
X370391Y124D01*
X369973Y-885D01*
X369896Y-1469D01*
X373516D01*
Y2151D01*
D02*
G37*
G36*
X359071Y91D02*
X356799D01*
Y-1787D01*
X359071D01*
Y91D01*
D02*
G37*
G36*
X355799D02*
X353528D01*
Y-1787D01*
X355799D01*
Y91D01*
D02*
G37*
G36*
X247850Y-500D02*
X245972D01*
Y-2772D01*
X247850D01*
Y-500D01*
D02*
G37*
G36*
X244972D02*
X243094D01*
Y-2772D01*
X244972D01*
Y-500D01*
D02*
G37*
G36*
X227165Y-4213D02*
X224909D01*
Y-5937D01*
X229290D01*
X229220Y-5586D01*
X228738Y-4865D01*
X228016Y-4383D01*
X227165Y-4213D01*
D02*
G37*
G36*
X207480D02*
X205224D01*
Y-5937D01*
X209605D01*
X209535Y-5586D01*
X209053Y-4865D01*
X208331Y-4383D01*
X207480Y-4213D01*
D02*
G37*
G36*
X223909D02*
X221654D01*
X220802Y-4383D01*
X220081Y-4865D01*
X219599Y-5586D01*
X219529Y-5937D01*
X223909D01*
Y-4213D01*
D02*
G37*
G36*
X204224D02*
X201969D01*
X201117Y-4383D01*
X200396Y-4865D01*
X199914Y-5586D01*
X199844Y-5937D01*
X204224D01*
Y-4213D01*
D02*
G37*
G36*
X373516Y-2469D02*
X369896D01*
X369973Y-3052D01*
X370391Y-4061D01*
X371056Y-4928D01*
X371923Y-5593D01*
X372933Y-6011D01*
X373516Y-6088D01*
Y-2469D01*
D02*
G37*
G36*
X378135D02*
X374516D01*
Y-6088D01*
X375099Y-6011D01*
X376109Y-5593D01*
X376975Y-4928D01*
X377640Y-4061D01*
X378059Y-3052D01*
X378135Y-2469D01*
D02*
G37*
G36*
X247850Y-5102D02*
X245972D01*
Y-7374D01*
X247850D01*
Y-5102D01*
D02*
G37*
G36*
X244972D02*
X243094D01*
Y-7374D01*
X244972D01*
Y-5102D01*
D02*
G37*
G36*
X232283Y-4719D02*
X231626Y-4850D01*
X231069Y-5223D01*
X230697Y-5780D01*
X230566Y-6437D01*
X230697Y-7094D01*
X231069Y-7651D01*
X231626Y-8024D01*
X232283Y-8155D01*
X232941Y-8024D01*
X233498Y-7651D01*
X233870Y-7094D01*
X234001Y-6437D01*
X233870Y-5780D01*
X233498Y-5223D01*
X232941Y-4850D01*
X232283Y-4719D01*
D02*
G37*
G36*
X229290Y-6937D02*
X224909D01*
Y-8661D01*
X227165D01*
X228016Y-8492D01*
X228738Y-8010D01*
X229220Y-7288D01*
X229290Y-6937D01*
D02*
G37*
G36*
X223909D02*
X219529D01*
X219599Y-7288D01*
X220081Y-8010D01*
X220802Y-8492D01*
X221654Y-8661D01*
X223909D01*
Y-6937D01*
D02*
G37*
G36*
X209605D02*
X205224D01*
Y-8661D01*
X207480D01*
X208331Y-8492D01*
X209053Y-8010D01*
X209535Y-7288D01*
X209605Y-6937D01*
D02*
G37*
G36*
X204224D02*
X199844D01*
X199914Y-7288D01*
X200396Y-8010D01*
X201117Y-8492D01*
X201969Y-8661D01*
X204224D01*
Y-6937D01*
D02*
G37*
G36*
X247850Y-8374D02*
X245972D01*
Y-10646D01*
X247850D01*
Y-8374D01*
D02*
G37*
G36*
X189976Y-8665D02*
X188098D01*
Y-10937D01*
X189976D01*
Y-8665D01*
D02*
G37*
G36*
X187098D02*
X185221D01*
Y-10937D01*
X187098D01*
Y-8665D01*
D02*
G37*
G36*
X350894Y-8089D02*
Y-11311D01*
X354116D01*
X354053Y-10830D01*
X353675Y-9917D01*
X353072Y-9132D01*
X352288Y-8530D01*
X351374Y-8152D01*
X350894Y-8089D01*
D02*
G37*
G36*
X349894Y-8089D02*
X349413Y-8152D01*
X348499Y-8530D01*
X347715Y-9132D01*
X347113Y-9917D01*
X346734Y-10830D01*
X346671Y-11311D01*
X349894D01*
Y-8089D01*
D02*
G37*
G36*
X187098Y-11937D02*
X185221D01*
Y-14209D01*
X187098D01*
Y-11937D01*
D02*
G37*
G36*
X354116Y-12311D02*
X350894D01*
Y-15533D01*
X351374Y-15470D01*
X352288Y-15092D01*
X353072Y-14490D01*
X353675Y-13705D01*
X354053Y-12791D01*
X354116Y-12311D01*
D02*
G37*
G36*
X349894D02*
X346671D01*
X346734Y-12791D01*
X347113Y-13705D01*
X347715Y-14490D01*
X348499Y-15092D01*
X349413Y-15470D01*
X349894Y-15533D01*
Y-12311D01*
D02*
G37*
G36*
X250063Y-31039D02*
X246563D01*
Y-34539D01*
X250063D01*
Y-31039D01*
D02*
G37*
G36*
X245563D02*
X242063D01*
Y-34539D01*
X245563D01*
Y-31039D01*
D02*
G37*
G36*
X280315Y-26038D02*
X279658Y-26169D01*
X279100Y-26541D01*
X278728Y-27099D01*
X278597Y-27756D01*
X278728Y-28413D01*
X279100Y-28970D01*
X279658Y-29343D01*
X280315Y-29473D01*
X280748Y-29387D01*
X288497D01*
X291760Y-32650D01*
X292289Y-33003D01*
X292913Y-33127D01*
X297922D01*
Y-35346D01*
X303259D01*
Y-27646D01*
X297922D01*
Y-29865D01*
X293589D01*
X290327Y-26602D01*
X289797Y-26249D01*
X289173Y-26125D01*
X280748D01*
X280315Y-26038D01*
D02*
G37*
G36*
X236063Y-31307D02*
X235097Y-31435D01*
X234197Y-31807D01*
X233424Y-32401D01*
X232831Y-33173D01*
X232458Y-34073D01*
X232331Y-35039D01*
X232458Y-36005D01*
X232831Y-36905D01*
X233424Y-37678D01*
X234197Y-38271D01*
X235097Y-38644D01*
X236063Y-38771D01*
X237029Y-38644D01*
X237929Y-38271D01*
X238702Y-37678D01*
X239295Y-36905D01*
X239668Y-36005D01*
X239795Y-35039D01*
X239668Y-34073D01*
X239295Y-33173D01*
X238702Y-32401D01*
X237929Y-31807D01*
X237029Y-31435D01*
X236063Y-31307D01*
D02*
G37*
G36*
X226063D02*
X225097Y-31435D01*
X224197Y-31807D01*
X223424Y-32401D01*
X222831Y-33173D01*
X222458Y-34073D01*
X222331Y-35039D01*
X222458Y-36005D01*
X222831Y-36905D01*
X223424Y-37678D01*
X224197Y-38271D01*
X225097Y-38644D01*
X226063Y-38771D01*
X227029Y-38644D01*
X227929Y-38271D01*
X228702Y-37678D01*
X229295Y-36905D01*
X229668Y-36005D01*
X229795Y-35039D01*
X229668Y-34073D01*
X229295Y-33173D01*
X228702Y-32401D01*
X227929Y-31807D01*
X227029Y-31435D01*
X226063Y-31307D01*
D02*
G37*
G36*
X216063D02*
X215097Y-31435D01*
X214197Y-31807D01*
X213424Y-32401D01*
X212831Y-33173D01*
X212458Y-34073D01*
X212331Y-35039D01*
X212458Y-36005D01*
X212831Y-36905D01*
X213424Y-37678D01*
X214197Y-38271D01*
X215097Y-38644D01*
X216063Y-38771D01*
X217029Y-38644D01*
X217929Y-38271D01*
X218702Y-37678D01*
X219295Y-36905D01*
X219668Y-36005D01*
X219795Y-35039D01*
X219668Y-34073D01*
X219295Y-33173D01*
X218702Y-32401D01*
X217929Y-31807D01*
X217029Y-31435D01*
X216063Y-31307D01*
D02*
G37*
G36*
X206063D02*
X205097Y-31435D01*
X204197Y-31807D01*
X203424Y-32401D01*
X202831Y-33173D01*
X202458Y-34073D01*
X202331Y-35039D01*
X202458Y-36005D01*
X202831Y-36905D01*
X203424Y-37678D01*
X204197Y-38271D01*
X205097Y-38644D01*
X206063Y-38771D01*
X207029Y-38644D01*
X207929Y-38271D01*
X208702Y-37678D01*
X209295Y-36905D01*
X209668Y-36005D01*
X209795Y-35039D01*
X209668Y-34073D01*
X209295Y-33173D01*
X208702Y-32401D01*
X207929Y-31807D01*
X207029Y-31435D01*
X206063Y-31307D01*
D02*
G37*
G36*
X250063Y-35539D02*
X246563D01*
Y-39039D01*
X250063D01*
Y-35539D01*
D02*
G37*
G36*
X245563D02*
X242063D01*
Y-39039D01*
X245563D01*
Y-35539D01*
D02*
G37*
G36*
X274456Y-62682D02*
X273572Y-62798D01*
X272749Y-63139D01*
X272151Y-63598D01*
X271814Y-63648D01*
X271476Y-63598D01*
X270878Y-63139D01*
X270055Y-62798D01*
X269171Y-62682D01*
X268288Y-62798D01*
X267464Y-63139D01*
X266757Y-63682D01*
X266215Y-64389D01*
X265874Y-65212D01*
X265758Y-66096D01*
X265874Y-66979D01*
X266215Y-67802D01*
X266241Y-67836D01*
X266292Y-68226D01*
X266594Y-68956D01*
X267075Y-69583D01*
X272959Y-75466D01*
X272959Y-75466D01*
X273586Y-75947D01*
X274315Y-76249D01*
X275098Y-76353D01*
X286315D01*
X289297Y-79334D01*
Y-96188D01*
X283226Y-102258D01*
X283201Y-102267D01*
X282610Y-102167D01*
X282242Y-101616D01*
X277321Y-96695D01*
X276527Y-96164D01*
X275590Y-95978D01*
X220472D01*
X219536Y-96164D01*
X218742Y-96695D01*
X218212Y-97489D01*
X218025Y-98425D01*
Y-122409D01*
X217525Y-122558D01*
X216884Y-121777D01*
X215983Y-121037D01*
X214954Y-120487D01*
X213838Y-120149D01*
X213177Y-120084D01*
Y-125984D01*
Y-131885D01*
X213838Y-131820D01*
X214954Y-131481D01*
X215983Y-130931D01*
X216884Y-130192D01*
X217525Y-129410D01*
X218025Y-129559D01*
Y-142717D01*
X218212Y-143653D01*
X218742Y-144447D01*
X219536Y-144977D01*
X220472Y-145164D01*
X275590D01*
X276527Y-144977D01*
X277321Y-144447D01*
X282242Y-139526D01*
X282773Y-138732D01*
X282959Y-137795D01*
Y-125234D01*
X283459Y-125065D01*
X283743Y-125435D01*
X284735Y-126196D01*
X285891Y-126675D01*
X286631Y-126772D01*
Y-122047D01*
Y-117322D01*
X285891Y-117420D01*
X284735Y-117898D01*
X283743Y-118659D01*
X283459Y-119030D01*
X282959Y-118860D01*
Y-111084D01*
X294462Y-99581D01*
X294943Y-98954D01*
X295246Y-98224D01*
X295349Y-97441D01*
X295349Y-97441D01*
Y-83352D01*
X295811Y-83161D01*
X309966Y-97316D01*
Y-103347D01*
X310069Y-104130D01*
X310372Y-104859D01*
X310853Y-105486D01*
X329553Y-124187D01*
X330180Y-124668D01*
X330910Y-124970D01*
X331693Y-125073D01*
X331693Y-125073D01*
X333183D01*
Y-140748D01*
X333369Y-141684D01*
X333900Y-142478D01*
X334694Y-143009D01*
X335630Y-143195D01*
X365158D01*
X366094Y-143009D01*
X366888Y-142478D01*
X371809Y-137557D01*
X372340Y-136763D01*
X372526Y-135827D01*
Y-109281D01*
X389526Y-92282D01*
X390056Y-91488D01*
X390242Y-90551D01*
Y-74803D01*
X390056Y-73867D01*
X389526Y-73073D01*
X388732Y-72542D01*
X387795Y-72356D01*
X376000D01*
Y-67508D01*
X370079D01*
X364158D01*
Y-72356D01*
X336614D01*
X335678Y-72542D01*
X334884Y-73073D01*
X333900Y-74057D01*
X333369Y-74851D01*
X333183Y-75787D01*
Y-118551D01*
X332683Y-118758D01*
X316018Y-102093D01*
Y-96063D01*
X315915Y-95280D01*
X315613Y-94550D01*
X315132Y-93923D01*
X287966Y-66758D01*
X287340Y-66277D01*
X286610Y-65975D01*
X285827Y-65872D01*
X278511D01*
X277683Y-65044D01*
X277412Y-64389D01*
X276870Y-63682D01*
X276163Y-63139D01*
X275339Y-62798D01*
X274456Y-62682D01*
D02*
G37*
G36*
X376000Y-61087D02*
X370579D01*
Y-66508D01*
X376000D01*
Y-61087D01*
D02*
G37*
G36*
X369579D02*
X364158D01*
Y-66508D01*
X369579D01*
Y-61087D01*
D02*
G37*
G36*
X224441Y-67429D02*
X220972D01*
Y-70898D01*
X221517Y-70826D01*
X222490Y-70423D01*
X223325Y-69782D01*
X223966Y-68946D01*
X224370Y-67973D01*
X224441Y-67429D01*
D02*
G37*
G36*
X219972D02*
X216504D01*
X216575Y-67973D01*
X216978Y-68946D01*
X217620Y-69782D01*
X218455Y-70423D01*
X219428Y-70826D01*
X219972Y-70898D01*
Y-67429D01*
D02*
G37*
G36*
X247850Y-69079D02*
X244595D01*
Y-72335D01*
X247850D01*
Y-69079D01*
D02*
G37*
G36*
X243595D02*
X240339D01*
Y-72335D01*
X243595D01*
Y-69079D01*
D02*
G37*
G36*
X247850Y-73335D02*
X244595D01*
Y-76591D01*
X247850D01*
Y-73335D01*
D02*
G37*
G36*
X243595D02*
X240339D01*
Y-76591D01*
X243595D01*
Y-73335D01*
D02*
G37*
G36*
X220472Y-73040D02*
X219507Y-73167D01*
X218606Y-73540D01*
X217834Y-74133D01*
X217241Y-74906D01*
X217017Y-75446D01*
X205709D01*
X205201Y-75547D01*
X204771Y-75834D01*
X199850Y-80756D01*
X199563Y-81186D01*
X199562Y-81190D01*
X198316D01*
Y-85346D01*
X203259D01*
Y-81190D01*
X203259Y-81190D01*
X203259D01*
X203537Y-80818D01*
X206258Y-78097D01*
X217017D01*
X217241Y-78638D01*
X217834Y-79410D01*
X218606Y-80004D01*
X219507Y-80376D01*
X220472Y-80504D01*
X221438Y-80376D01*
X222338Y-80004D01*
X223111Y-79410D01*
X223704Y-78638D01*
X224077Y-77737D01*
X224204Y-76772D01*
X224077Y-75806D01*
X223704Y-74906D01*
X223111Y-74133D01*
X222338Y-73540D01*
X221438Y-73167D01*
X220472Y-73040D01*
D02*
G37*
G36*
X244094Y-77223D02*
X243192Y-77342D01*
X242352Y-77690D01*
X241630Y-78244D01*
X241076Y-78966D01*
X240727Y-79807D01*
X240609Y-80709D01*
X240727Y-81611D01*
X241076Y-82451D01*
X241630Y-83174D01*
X242352Y-83727D01*
X243192Y-84076D01*
X244094Y-84194D01*
X244997Y-84076D01*
X245837Y-83727D01*
X246559Y-83174D01*
X247113Y-82451D01*
X247461Y-81611D01*
X247580Y-80709D01*
X247461Y-79807D01*
X247113Y-78966D01*
X246559Y-78244D01*
X245837Y-77690D01*
X244997Y-77342D01*
X244094Y-77223D01*
D02*
G37*
G36*
X200000Y-68755D02*
X199343Y-68886D01*
X198785Y-69258D01*
X198413Y-69815D01*
X198321Y-70276D01*
X193551Y-75047D01*
X193264Y-75477D01*
X193163Y-75984D01*
Y-84294D01*
X191833Y-85623D01*
X191448Y-85301D01*
X191448Y-84864D01*
Y-81190D01*
X186505D01*
Y-81636D01*
X175700D01*
Y-81190D01*
X170757D01*
Y-85346D01*
X175700D01*
Y-84899D01*
X186505D01*
Y-85346D01*
X190950D01*
X191403Y-85346D01*
X191725Y-85731D01*
X189574Y-87883D01*
X186505D01*
Y-92039D01*
X187345D01*
Y-96938D01*
X186505D01*
Y-97384D01*
X183574D01*
Y-96938D01*
X178631D01*
Y-101094D01*
X183574D01*
Y-100647D01*
X186505D01*
Y-101094D01*
X191448D01*
Y-96938D01*
X190608D01*
Y-92039D01*
X191448D01*
Y-89757D01*
X195425Y-85780D01*
X195713Y-85350D01*
X195814Y-84842D01*
Y-76533D01*
X200196Y-72151D01*
X200657Y-72059D01*
X201215Y-71687D01*
X201587Y-71130D01*
X201717Y-70472D01*
X201587Y-69815D01*
X201215Y-69258D01*
X200657Y-68886D01*
X200000Y-68755D01*
D02*
G37*
G36*
X126484Y-84860D02*
Y-88083D01*
X129707D01*
X129643Y-87602D01*
X129265Y-86689D01*
X128663Y-85904D01*
X127878Y-85302D01*
X126965Y-84923D01*
X126484Y-84860D01*
D02*
G37*
G36*
X125484Y-84860D02*
X125004Y-84923D01*
X124090Y-85302D01*
X123305Y-85904D01*
X122704Y-86689D01*
X122325Y-87602D01*
X122262Y-88083D01*
X125484D01*
Y-84860D01*
D02*
G37*
G36*
X203559Y-87583D02*
X201287D01*
Y-89461D01*
X203559D01*
Y-87583D01*
D02*
G37*
G36*
X200287D02*
X198016D01*
Y-89461D01*
X200287D01*
Y-87583D01*
D02*
G37*
G36*
X220472Y-82882D02*
X219507Y-83009D01*
X218606Y-83382D01*
X217834Y-83975D01*
X217241Y-84748D01*
X216868Y-85648D01*
X216740Y-86614D01*
X216868Y-87580D01*
X217241Y-88480D01*
X217834Y-89253D01*
X218606Y-89846D01*
X219507Y-90219D01*
X220472Y-90346D01*
X221438Y-90219D01*
X222338Y-89846D01*
X223111Y-89253D01*
X223704Y-88480D01*
X224077Y-87580D01*
X224204Y-86614D01*
X224077Y-85648D01*
X223704Y-84748D01*
X223111Y-83975D01*
X222338Y-83382D01*
X221438Y-83009D01*
X220472Y-82882D01*
D02*
G37*
G36*
X129707Y-89083D02*
X126484D01*
Y-92305D01*
X126965Y-92242D01*
X127878Y-91864D01*
X128663Y-91261D01*
X129265Y-90477D01*
X129643Y-89563D01*
X129707Y-89083D01*
D02*
G37*
G36*
X125484D02*
X122262D01*
X122325Y-89563D01*
X122704Y-90477D01*
X123305Y-91261D01*
X124090Y-91864D01*
X125004Y-92242D01*
X125484Y-92305D01*
Y-89083D01*
D02*
G37*
G36*
X203559Y-90461D02*
X201287D01*
Y-92339D01*
X203559D01*
Y-90461D01*
D02*
G37*
G36*
X200287D02*
X198016D01*
Y-92339D01*
X200287D01*
Y-90461D01*
D02*
G37*
G36*
X59055Y-83897D02*
X58392Y-84029D01*
X57829Y-84404D01*
X57454Y-84967D01*
X57322Y-85630D01*
X57365Y-85847D01*
X53424Y-89788D01*
X46631D01*
Y-99188D01*
X55731D01*
Y-92095D01*
X59055Y-88771D01*
X62379Y-92095D01*
Y-99188D01*
X71479D01*
Y-89788D01*
X64686D01*
X60745Y-85847D01*
X60788Y-85630D01*
X60656Y-84967D01*
X60281Y-84404D01*
X59718Y-84029D01*
X59055Y-83897D01*
D02*
G37*
G36*
X175700Y-87883D02*
X170757D01*
Y-92039D01*
X171597D01*
Y-96938D01*
X170757D01*
Y-101094D01*
X175700D01*
Y-96938D01*
X174860D01*
Y-92039D01*
X175700D01*
Y-87883D01*
D02*
G37*
G36*
X191448Y-103631D02*
X186505D01*
Y-104077D01*
X183574D01*
Y-103631D01*
X178631D01*
Y-107787D01*
X183574D01*
Y-107340D01*
X186505D01*
Y-107787D01*
X187345D01*
Y-125112D01*
X186582Y-125875D01*
X182568D01*
Y-133968D01*
X189479D01*
Y-127591D01*
X190130Y-126941D01*
X190484Y-126412D01*
X190608Y-125787D01*
Y-107787D01*
X191448D01*
Y-103631D01*
D02*
G37*
G36*
X129740Y-108449D02*
X126484D01*
Y-111705D01*
X129740D01*
Y-108449D01*
D02*
G37*
G36*
X125484D02*
X122228D01*
Y-111705D01*
X125484D01*
Y-108449D01*
D02*
G37*
G36*
X71479Y-105536D02*
X62379D01*
Y-112629D01*
X59055Y-115953D01*
X55731Y-112629D01*
Y-105536D01*
X46631D01*
Y-114936D01*
X53424D01*
X57365Y-118877D01*
X57322Y-119095D01*
X57454Y-119758D01*
X57829Y-120320D01*
X58392Y-120696D01*
X59055Y-120828D01*
X59718Y-120696D01*
X60281Y-120320D01*
X60656Y-119758D01*
X60788Y-119095D01*
X60745Y-118877D01*
X64686Y-114936D01*
X71479D01*
Y-105536D01*
D02*
G37*
G36*
X129740Y-112705D02*
X126484D01*
Y-115961D01*
X129740D01*
Y-112705D01*
D02*
G37*
G36*
X125484D02*
X122228D01*
Y-115961D01*
X125484D01*
Y-112705D01*
D02*
G37*
G36*
X287631Y-117322D02*
Y-121547D01*
X291856D01*
X291758Y-120807D01*
X291280Y-119652D01*
X290518Y-118659D01*
X289526Y-117898D01*
X288371Y-117420D01*
X287631Y-117322D01*
D02*
G37*
G36*
X212177Y-120084D02*
X211516Y-120149D01*
X210400Y-120487D01*
X209372Y-121037D01*
X208470Y-121777D01*
X207730Y-122679D01*
X207180Y-123707D01*
X206842Y-124823D01*
X206776Y-125484D01*
X212177D01*
Y-120084D01*
D02*
G37*
G36*
X291856Y-122547D02*
X287631D01*
Y-126772D01*
X288371Y-126675D01*
X289526Y-126196D01*
X290518Y-125435D01*
X291280Y-124443D01*
X291758Y-123287D01*
X291856Y-122547D01*
D02*
G37*
G36*
X381102Y-115015D02*
X379769Y-115147D01*
X378487Y-115535D01*
X377305Y-116167D01*
X376269Y-117017D01*
X375419Y-118053D01*
X374787Y-119235D01*
X374398Y-120517D01*
X374267Y-121850D01*
X374398Y-123184D01*
X374787Y-124466D01*
X375419Y-125648D01*
X376269Y-126684D01*
X377305Y-127534D01*
X378487Y-128165D01*
X379769Y-128554D01*
X381102Y-128686D01*
X382436Y-128554D01*
X383718Y-128165D01*
X384900Y-127534D01*
X385936Y-126684D01*
X386786Y-125648D01*
X387417Y-124466D01*
X387806Y-123184D01*
X387938Y-121850D01*
X387806Y-120517D01*
X387417Y-119235D01*
X386786Y-118053D01*
X385936Y-117017D01*
X384900Y-116167D01*
X383718Y-115535D01*
X382436Y-115147D01*
X381102Y-115015D01*
D02*
G37*
G36*
X11024D02*
X9690Y-115147D01*
X8408Y-115535D01*
X7226Y-116167D01*
X6190Y-117017D01*
X5340Y-118053D01*
X4709Y-119235D01*
X4320Y-120517D01*
X4188Y-121850D01*
X4320Y-123184D01*
X4709Y-124466D01*
X5340Y-125648D01*
X6190Y-126684D01*
X7226Y-127534D01*
X8408Y-128165D01*
X9690Y-128554D01*
X11024Y-128686D01*
X12357Y-128554D01*
X13639Y-128165D01*
X14821Y-127534D01*
X15857Y-126684D01*
X16707Y-125648D01*
X17339Y-124466D01*
X17728Y-123184D01*
X17859Y-121850D01*
X17728Y-120517D01*
X17339Y-119235D01*
X16707Y-118053D01*
X15857Y-117017D01*
X14821Y-116167D01*
X13639Y-115535D01*
X12357Y-115147D01*
X11024Y-115015D01*
D02*
G37*
G36*
X212177Y-126484D02*
X206776D01*
X206842Y-127145D01*
X207180Y-128261D01*
X207730Y-129290D01*
X208470Y-130192D01*
X209372Y-130931D01*
X210400Y-131481D01*
X211516Y-131820D01*
X212177Y-131885D01*
Y-126484D01*
D02*
G37*
G36*
X175700Y-103631D02*
X170757D01*
Y-107787D01*
X171597D01*
Y-125587D01*
X171721Y-126212D01*
X172075Y-126741D01*
X173092Y-127758D01*
X172814Y-128428D01*
X172695Y-129331D01*
Y-130512D01*
X172814Y-131414D01*
X173162Y-132255D01*
X173716Y-132977D01*
X174438Y-133530D01*
X175279Y-133879D01*
X176181Y-133997D01*
X177083Y-133879D01*
X177924Y-133530D01*
X178646Y-132977D01*
X179200Y-132255D01*
X179548Y-131414D01*
X179667Y-130512D01*
Y-129331D01*
X179548Y-128428D01*
X179200Y-127588D01*
X178646Y-126866D01*
X177924Y-126312D01*
X177083Y-125964D01*
X176181Y-125845D01*
X175838Y-125890D01*
X174860Y-124912D01*
Y-107787D01*
X175700D01*
Y-103631D01*
D02*
G37*
G36*
X47744Y-131514D02*
Y-135327D01*
X51032D01*
Y-135236D01*
X50903Y-134256D01*
X50525Y-133342D01*
X49923Y-132557D01*
X49138Y-131955D01*
X48225Y-131577D01*
X47744Y-131514D01*
D02*
G37*
G36*
X46744Y-131514D02*
X46264Y-131577D01*
X45350Y-131955D01*
X44565Y-132557D01*
X43963Y-133342D01*
X43585Y-134256D01*
X43456Y-135236D01*
Y-135327D01*
X46744D01*
Y-131514D01*
D02*
G37*
G36*
X39983Y-89788D02*
X30883D01*
Y-99188D01*
X33802D01*
Y-105536D01*
X30883D01*
Y-114936D01*
X33802D01*
Y-123622D01*
X33926Y-124246D01*
X34280Y-124776D01*
X38217Y-128713D01*
X38746Y-129066D01*
X39370Y-129190D01*
X120978D01*
X122663Y-130876D01*
X122617Y-130988D01*
X122499Y-131890D01*
X122617Y-132792D01*
X122966Y-133633D01*
X123520Y-134354D01*
X124241Y-134908D01*
X125082Y-135257D01*
X125984Y-135375D01*
X126886Y-135257D01*
X127727Y-134908D01*
X128449Y-134354D01*
X129003Y-133633D01*
X129351Y-132792D01*
X129470Y-131890D01*
X129351Y-130988D01*
X129003Y-130147D01*
X128449Y-129425D01*
X127727Y-128871D01*
X126886Y-128523D01*
X125984Y-128404D01*
X125082Y-128523D01*
X124971Y-128569D01*
X122807Y-126406D01*
X122278Y-126052D01*
X121653Y-125928D01*
X40046D01*
X37064Y-122946D01*
Y-114936D01*
X39983D01*
Y-105536D01*
X37064D01*
Y-99188D01*
X39983D01*
Y-89788D01*
D02*
G37*
G36*
X60543Y-131780D02*
X53631D01*
Y-139873D01*
X60543D01*
Y-131780D01*
D02*
G37*
G36*
X37402Y-131751D02*
X36499Y-131869D01*
X35659Y-132218D01*
X34937Y-132771D01*
X34383Y-133493D01*
X34035Y-134334D01*
X33916Y-135236D01*
Y-136417D01*
X34035Y-137320D01*
X34383Y-138160D01*
X34937Y-138882D01*
X35659Y-139436D01*
X36499Y-139784D01*
X37402Y-139903D01*
X38304Y-139784D01*
X39144Y-139436D01*
X39866Y-138882D01*
X40420Y-138160D01*
X40769Y-137320D01*
X40887Y-136417D01*
Y-135236D01*
X40769Y-134334D01*
X40420Y-133493D01*
X39866Y-132771D01*
X39144Y-132218D01*
X38304Y-131869D01*
X37402Y-131751D01*
D02*
G37*
G36*
X51032Y-136327D02*
X47744D01*
Y-140140D01*
X48225Y-140076D01*
X49138Y-139698D01*
X49923Y-139096D01*
X50525Y-138312D01*
X50903Y-137398D01*
X51032Y-136417D01*
Y-136327D01*
D02*
G37*
G36*
X46744D02*
X43456D01*
Y-136417D01*
X43585Y-137398D01*
X43963Y-138312D01*
X44565Y-139096D01*
X45350Y-139698D01*
X46264Y-140076D01*
X46744Y-140140D01*
Y-136327D01*
D02*
G37*
%LPD*%
G36*
X73072Y101379D02*
X75140D01*
Y89567D01*
X75265Y88943D01*
X75618Y88413D01*
X89791Y74240D01*
X90321Y73887D01*
X90945Y73762D01*
X93001D01*
Y73316D01*
X94147D01*
Y60039D01*
X94157Y59991D01*
Y58268D01*
X94257Y57764D01*
X94542Y57337D01*
X94969Y57052D01*
X95472Y56952D01*
X95976Y57052D01*
X96128Y57154D01*
X96294Y57121D01*
X96820Y56770D01*
X96941Y56745D01*
Y60039D01*
X97941D01*
Y56745D01*
X98062Y56770D01*
X98588Y57121D01*
X98753Y57154D01*
X98906Y57052D01*
X99410Y56952D01*
X99913Y57052D01*
X99999Y57109D01*
X100394Y57310D01*
X100789Y57109D01*
X100874Y57052D01*
X101378Y56952D01*
X101882Y57052D01*
X101967Y57109D01*
X102362Y57310D01*
X102757Y57109D01*
X102843Y57052D01*
X103347Y56952D01*
X103850Y57052D01*
X103936Y57109D01*
X104331Y57310D01*
X104726Y57109D01*
X104811Y57052D01*
X105315Y56952D01*
X105818Y57052D01*
X105904Y57109D01*
X106299Y57310D01*
X106694Y57109D01*
X106780Y57052D01*
X107283Y56952D01*
X107787Y57052D01*
X107873Y57109D01*
X108268Y57310D01*
X108663Y57109D01*
X108748Y57052D01*
X109252Y56952D01*
X109756Y57052D01*
X109841Y57109D01*
X110236Y57310D01*
X110631Y57109D01*
X110717Y57052D01*
X111221Y56952D01*
X111724Y57052D01*
X111810Y57109D01*
X112205Y57310D01*
X112600Y57109D01*
X112685Y57052D01*
X113189Y56952D01*
X113692Y57052D01*
X113778Y57109D01*
X114173Y57310D01*
X114568Y57109D01*
X114654Y57052D01*
X115157Y56952D01*
X115661Y57052D01*
X115747Y57109D01*
X116142Y57310D01*
X116537Y57109D01*
X116622Y57052D01*
X117126Y56952D01*
X117630Y57052D01*
X118056Y57337D01*
X118342Y57764D01*
X118442Y58268D01*
Y61811D01*
X118342Y62315D01*
X118247Y62455D01*
Y64654D01*
X118656Y64927D01*
X119029Y65484D01*
X119159Y66142D01*
X119029Y66799D01*
X118656Y67356D01*
X118099Y67729D01*
X117442Y67859D01*
X116983Y67768D01*
X116483Y68082D01*
Y71695D01*
X132045Y87257D01*
X169136D01*
X187252Y69142D01*
X187682Y68854D01*
X188189Y68753D01*
X188186Y68255D01*
X162905D01*
Y69401D01*
X158806D01*
Y70514D01*
X160623Y72332D01*
X162905D01*
Y77275D01*
X158749D01*
Y74206D01*
X156597Y72054D01*
X156212Y72376D01*
Y77275D01*
X155255D01*
Y80206D01*
X156212D01*
Y85149D01*
X152056D01*
Y83799D01*
X135496D01*
X135067Y83713D01*
X134703Y83470D01*
X134703Y83470D01*
X127160Y75927D01*
X126917Y75563D01*
X126831Y75134D01*
X126831Y75134D01*
Y56567D01*
X125520Y55255D01*
X125448D01*
X125307Y55349D01*
X124803Y55450D01*
X121260D01*
X120756Y55349D01*
X120329Y55064D01*
X120044Y54637D01*
X119944Y54134D01*
X120044Y53630D01*
X120329Y53203D01*
Y53096D01*
X120044Y52669D01*
X119944Y52165D01*
X120044Y51662D01*
X120329Y51235D01*
Y51127D01*
X120044Y50700D01*
X119944Y50197D01*
X120044Y49693D01*
X120329Y49266D01*
Y49159D01*
X120044Y48732D01*
X119944Y48228D01*
X120044Y47725D01*
X120146Y47572D01*
X120113Y47407D01*
X119762Y46880D01*
X119738Y46760D01*
X123031D01*
Y45760D01*
X119738D01*
X119762Y45639D01*
X120113Y45113D01*
X120146Y44947D01*
X120044Y44795D01*
X119944Y44291D01*
X120044Y43788D01*
X120329Y43361D01*
Y43253D01*
X120044Y42826D01*
X119944Y42323D01*
X120044Y41819D01*
X120101Y41734D01*
X120302Y41339D01*
X120101Y40944D01*
X120044Y40858D01*
X119944Y40354D01*
X120044Y39851D01*
X120329Y39424D01*
Y39316D01*
X120044Y38889D01*
X119944Y38386D01*
X120044Y37882D01*
X120329Y37455D01*
Y37348D01*
X120044Y36921D01*
X119944Y36417D01*
X120044Y35914D01*
X120101Y35828D01*
X120302Y35433D01*
X120101Y35038D01*
X120044Y34952D01*
X119944Y34449D01*
X120044Y33945D01*
X120329Y33518D01*
Y33411D01*
X120044Y32984D01*
X119944Y32480D01*
X120044Y31977D01*
X120329Y31550D01*
X120756Y31265D01*
X121260Y31165D01*
X124803D01*
X125307Y31265D01*
X125734Y31550D01*
X126019Y31977D01*
X126119Y32480D01*
X126091Y32623D01*
X126481Y33123D01*
X128782D01*
X132139Y29766D01*
Y-16668D01*
X131878Y-17059D01*
X131747Y-17717D01*
X131878Y-18374D01*
X132250Y-18931D01*
X132807Y-19303D01*
X133465Y-19434D01*
X134122Y-19303D01*
X134679Y-18931D01*
X135051Y-18374D01*
X135182Y-17717D01*
X135051Y-17059D01*
X134790Y-16668D01*
Y-14487D01*
X135290Y-14209D01*
X135827Y-14316D01*
X136484Y-14185D01*
X137041Y-13813D01*
X137414Y-13256D01*
X137544Y-12598D01*
X137414Y-11941D01*
X137152Y-11550D01*
Y30005D01*
X137614Y30196D01*
X138438Y29372D01*
Y-7613D01*
X138177Y-8004D01*
X138046Y-8661D01*
X138177Y-9319D01*
X138549Y-9876D01*
X139107Y-10248D01*
X139764Y-10379D01*
X140421Y-10248D01*
X140978Y-9876D01*
X141350Y-9319D01*
X141481Y-8661D01*
X141350Y-8004D01*
X141089Y-7613D01*
Y29218D01*
X141551Y29409D01*
X144344Y26616D01*
Y10630D01*
X144445Y10123D01*
X144732Y9693D01*
X146701Y7724D01*
X147131Y7437D01*
X147638Y7336D01*
X159501D01*
Y6409D01*
X158749D01*
Y1465D01*
X162905D01*
Y6409D01*
X162152D01*
Y8661D01*
Y11898D01*
X163692D01*
Y18810D01*
X157693D01*
Y19110D01*
X154831D01*
Y15354D01*
Y11598D01*
X157693D01*
Y11898D01*
X159501D01*
Y9987D01*
X148187D01*
X146995Y11179D01*
Y27165D01*
X146894Y27673D01*
X146607Y28103D01*
X141072Y33637D01*
X141232Y34018D01*
X141309Y34108D01*
X152056D01*
Y32961D01*
X153005D01*
Y27472D01*
X151268D01*
Y20560D01*
X157268D01*
Y20260D01*
X160130D01*
Y24016D01*
X160630D01*
Y24516D01*
X163992D01*
Y27772D01*
X161955D01*
Y32661D01*
X163205D01*
Y34933D01*
X158449D01*
Y32661D01*
X159304D01*
Y27772D01*
X157268D01*
Y27472D01*
X155656D01*
Y32961D01*
X156212D01*
Y37905D01*
X152056D01*
Y36759D01*
X141819D01*
X135317Y43260D01*
X134887Y43547D01*
X134741Y43576D01*
X134576Y44119D01*
X135386Y44929D01*
X135673Y45359D01*
X135774Y45866D01*
Y48709D01*
X136527D01*
Y53176D01*
X137027Y53383D01*
X139064Y51346D01*
Y48709D01*
X139510D01*
Y43898D01*
X139635Y43273D01*
X139988Y42744D01*
X140272Y42460D01*
X140518Y42093D01*
X141075Y41720D01*
X141732Y41590D01*
X142390Y41720D01*
X142947Y42093D01*
X143319Y42650D01*
X143450Y43307D01*
X143319Y43964D01*
X142947Y44522D01*
X142773Y44638D01*
Y48709D01*
X143220D01*
Y53653D01*
X141371D01*
X139427Y55597D01*
Y56283D01*
X140642D01*
Y59055D01*
Y61827D01*
X139427D01*
Y64157D01*
X140642D01*
Y66929D01*
Y69701D01*
X139427D01*
Y70387D01*
X141371Y72332D01*
X143220D01*
Y75191D01*
X143682Y75382D01*
X145532Y73532D01*
Y61024D01*
X145532Y61024D01*
X145617Y60594D01*
X145861Y60231D01*
X147829Y58262D01*
X148193Y58019D01*
X148622Y57934D01*
X148622Y57934D01*
X152056D01*
Y56583D01*
X153012D01*
Y53653D01*
X152056D01*
Y48709D01*
X153012D01*
Y45779D01*
X152056D01*
Y40835D01*
X156212D01*
Y45779D01*
X155255D01*
Y48709D01*
X156212D01*
Y53608D01*
X156597Y53930D01*
X158749Y51778D01*
Y48709D01*
X160598D01*
X162728Y46579D01*
X162521Y46079D01*
X161327D01*
Y43807D01*
X163205D01*
Y45395D01*
X163705Y45602D01*
X174550Y34757D01*
Y29961D01*
X174464Y29528D01*
X174550Y29094D01*
Y-308D01*
X168138Y-6720D01*
X167784Y-7250D01*
X167660Y-7874D01*
Y-16623D01*
X162095D01*
Y-20416D01*
X131778D01*
X128403Y-17041D01*
Y14173D01*
X128279Y14797D01*
X127925Y15327D01*
X124972Y18280D01*
X124443Y18633D01*
X123819Y18757D01*
X120582D01*
Y19204D01*
X119436D01*
Y20669D01*
X119335Y21177D01*
X119047Y21607D01*
X118451Y22203D01*
Y26575D01*
X118442Y26623D01*
Y28346D01*
X118342Y28850D01*
X118056Y29277D01*
X117630Y29562D01*
X117126Y29662D01*
X116622Y29562D01*
X116470Y29460D01*
X116304Y29493D01*
X115778Y29845D01*
X115657Y29869D01*
Y26575D01*
Y22917D01*
X115800Y22800D01*
Y21654D01*
X115901Y21146D01*
X116189Y20716D01*
X116785Y20120D01*
Y19204D01*
X115639D01*
Y15048D01*
X120582D01*
Y15495D01*
X123143D01*
X125140Y13498D01*
Y-17717D01*
X125265Y-18341D01*
X125618Y-18870D01*
X129949Y-23201D01*
X130478Y-23554D01*
X131102Y-23679D01*
X162095D01*
Y-27415D01*
X118777D01*
X115991Y-24628D01*
Y8055D01*
X117610D01*
Y10433D01*
Y12811D01*
X115339D01*
Y12780D01*
X114877Y12588D01*
X114514Y12951D01*
Y22800D01*
X114657Y22917D01*
Y26575D01*
Y29869D01*
X114537Y29845D01*
X114011Y29493D01*
X113845Y29460D01*
X113692Y29562D01*
X113189Y29662D01*
X112685Y29562D01*
X112600Y29505D01*
X112205Y29304D01*
X111810Y29505D01*
X111724Y29562D01*
X111221Y29662D01*
X110717Y29562D01*
X110631Y29505D01*
X110236Y29304D01*
X109841Y29505D01*
X109756Y29562D01*
X109252Y29662D01*
X108748Y29562D01*
X108663Y29505D01*
X108268Y29304D01*
X107873Y29505D01*
X107787Y29562D01*
X107283Y29662D01*
X106780Y29562D01*
X106694Y29505D01*
X106299Y29304D01*
X105904Y29505D01*
X105818Y29562D01*
X105315Y29662D01*
X104811Y29562D01*
X104726Y29505D01*
X104331Y29304D01*
X103936Y29505D01*
X103850Y29562D01*
X103347Y29662D01*
X102843Y29562D01*
X102757Y29505D01*
X102362Y29304D01*
X101967Y29505D01*
X101882Y29562D01*
X101378Y29662D01*
X100874Y29562D01*
X100789Y29505D01*
X100394Y29304D01*
X99999Y29505D01*
X99913Y29562D01*
X99409Y29662D01*
X98906Y29562D01*
X98820Y29505D01*
X98425Y29304D01*
X98030Y29505D01*
X97944Y29562D01*
X97441Y29662D01*
X96937Y29562D01*
X96852Y29505D01*
X96457Y29304D01*
X96061Y29505D01*
X95976Y29562D01*
X95472Y29662D01*
X94969Y29562D01*
X94542Y29277D01*
X94257Y28850D01*
X94157Y28346D01*
Y24803D01*
X94257Y24300D01*
X94351Y24159D01*
Y21804D01*
X94344Y21794D01*
X94336Y21753D01*
X93942Y21490D01*
X93570Y20933D01*
X93439Y20276D01*
X93570Y19618D01*
X93942Y19061D01*
X94499Y18689D01*
X95156Y18558D01*
X95616Y18649D01*
X96115Y18335D01*
Y-37443D01*
X88014Y-45545D01*
X78936D01*
X78915Y-45514D01*
X78293Y-45098D01*
X77559Y-44952D01*
X72047D01*
X71313Y-45098D01*
X70691Y-45514D01*
X70275Y-46136D01*
X70129Y-46870D01*
X70275Y-47604D01*
X70691Y-48226D01*
X71313Y-48642D01*
X72047Y-48788D01*
X77559D01*
X78293Y-48642D01*
X78915Y-48226D01*
X78936Y-48195D01*
X88563D01*
X89070Y-48095D01*
X89500Y-47807D01*
X97622Y-39685D01*
X98084Y-39877D01*
Y-41774D01*
X89313Y-50545D01*
X78936D01*
X78915Y-50514D01*
X78293Y-50098D01*
X77559Y-49952D01*
X72047D01*
X71313Y-50098D01*
X70691Y-50514D01*
X70275Y-51136D01*
X70129Y-51870D01*
X70275Y-52604D01*
X70691Y-53226D01*
X71313Y-53642D01*
X72047Y-53788D01*
X77559D01*
X78293Y-53642D01*
X78915Y-53226D01*
X78936Y-53196D01*
X89862D01*
X90369Y-53095D01*
X90421Y-53060D01*
X90740Y-53448D01*
X88644Y-55545D01*
X78936D01*
X78915Y-55514D01*
X78293Y-55098D01*
X77559Y-54952D01*
X72047D01*
X71313Y-55098D01*
X70691Y-55514D01*
X70275Y-56136D01*
X70129Y-56870D01*
X70275Y-57604D01*
X70691Y-58226D01*
X71313Y-58642D01*
X72047Y-58788D01*
X77559D01*
X78293Y-58642D01*
X78915Y-58226D01*
X78936Y-58196D01*
X89193D01*
X89700Y-58095D01*
X90130Y-57807D01*
X102315Y-45622D01*
X102603Y-45192D01*
X102703Y-44685D01*
Y-26491D01*
X103165Y-26300D01*
X114417Y-37551D01*
X114847Y-37839D01*
X115354Y-37940D01*
X181223D01*
X185289Y-42006D01*
Y-53937D01*
X185390Y-54444D01*
X185677Y-54874D01*
X187645Y-56843D01*
X187767Y-56924D01*
X187615Y-57424D01*
X181606D01*
Y-56583D01*
X181159D01*
Y-53543D01*
X181035Y-52919D01*
X180681Y-52390D01*
X179978Y-51687D01*
Y-50306D01*
X181015D01*
Y-39457D01*
X175678D01*
Y-50306D01*
X176715D01*
Y-52362D01*
X176839Y-52987D01*
X177193Y-53516D01*
X177896Y-54219D01*
Y-56583D01*
X177450D01*
Y-61527D01*
X181606D01*
Y-60686D01*
X194227D01*
X194419Y-61148D01*
X182848Y-72719D01*
X152199D01*
X147224Y-67744D01*
X146695Y-67391D01*
X146071Y-67266D01*
X129440D01*
Y-65608D01*
X146371D01*
X151209Y-70445D01*
X151738Y-70798D01*
X152362Y-70923D01*
X162205D01*
X162829Y-70798D01*
X163358Y-70445D01*
X166902Y-66902D01*
X167255Y-66372D01*
X167379Y-65748D01*
Y-61527D01*
X167826D01*
Y-56583D01*
X167379D01*
Y-55400D01*
X170445Y-52335D01*
X170799Y-51805D01*
X170923Y-51181D01*
Y-50306D01*
X171960D01*
Y-39457D01*
X166623D01*
Y-50306D01*
X167152D01*
X167359Y-50806D01*
X164594Y-53571D01*
X164241Y-54100D01*
X164117Y-54724D01*
Y-56583D01*
X163670D01*
Y-61527D01*
X164117D01*
Y-65072D01*
X161529Y-67660D01*
X153038D01*
X148201Y-62823D01*
X147671Y-62469D01*
X147047Y-62345D01*
X96653D01*
X96029Y-62469D01*
X95500Y-62823D01*
X81608Y-76715D01*
X34646D01*
X34021Y-76839D01*
X33492Y-77193D01*
X30033Y-80652D01*
X13668D01*
X9899Y-76883D01*
Y-42819D01*
X10399Y-42627D01*
X12232Y-44461D01*
X12762Y-44814D01*
X13386Y-44938D01*
X13386Y-44938D01*
X16030D01*
X16076Y-45050D01*
X16630Y-45772D01*
X17352Y-46326D01*
X18192Y-46674D01*
X19094Y-46793D01*
X20276D01*
X21178Y-46674D01*
X22018Y-46326D01*
X22740Y-45772D01*
X23294Y-45050D01*
X23642Y-44209D01*
X23761Y-43307D01*
X23642Y-42405D01*
X23294Y-41564D01*
X22740Y-40842D01*
X22018Y-40288D01*
X21178Y-39940D01*
X20276Y-39821D01*
X19094D01*
X18192Y-39940D01*
X17352Y-40288D01*
X16630Y-40842D01*
X16076Y-41564D01*
X16030Y-41676D01*
X14062D01*
X13049Y-40663D01*
Y-21148D01*
X14062Y-20135D01*
X16970D01*
X17310Y-20579D01*
X17310Y-20635D01*
X16630Y-21157D01*
X16076Y-21879D01*
X15728Y-22720D01*
X15609Y-23622D01*
X15728Y-24524D01*
X16076Y-25365D01*
X16630Y-26087D01*
X17352Y-26641D01*
X18192Y-26989D01*
X19094Y-27108D01*
X20276D01*
X21178Y-26989D01*
X22018Y-26641D01*
X22740Y-26087D01*
X23294Y-25365D01*
X23340Y-25253D01*
X29836D01*
X39707Y-35124D01*
Y-41732D01*
X39831Y-42357D01*
X40185Y-42886D01*
X45323Y-48024D01*
X45852Y-48377D01*
X46476Y-48501D01*
X51418D01*
X51628Y-48642D01*
X52362Y-48788D01*
X57874D01*
X58608Y-48642D01*
X59230Y-48226D01*
X59646Y-47604D01*
X59792Y-46870D01*
X59646Y-46136D01*
X59230Y-45514D01*
X58608Y-45098D01*
X57874Y-44952D01*
X52362D01*
X51628Y-45098D01*
X51418Y-45239D01*
X47152D01*
X42970Y-41056D01*
Y-34449D01*
X42846Y-33825D01*
X42492Y-33295D01*
X31665Y-22468D01*
X31136Y-22115D01*
X30512Y-21991D01*
X23340D01*
X23294Y-21879D01*
X22740Y-21157D01*
X22060Y-20635D01*
X22060Y-20579D01*
X22400Y-20135D01*
X38301D01*
X41189Y-23024D01*
X41718Y-23377D01*
X42342Y-23501D01*
X51418D01*
X51628Y-23642D01*
X52362Y-23788D01*
X57874D01*
X58608Y-23642D01*
X59230Y-23226D01*
X59646Y-22604D01*
X59792Y-21870D01*
X59646Y-21136D01*
X59230Y-20514D01*
X58608Y-20098D01*
X57874Y-19952D01*
X52362D01*
X51628Y-20098D01*
X51418Y-20239D01*
X43018D01*
X40130Y-17350D01*
X39601Y-16997D01*
X38976Y-16873D01*
X23731D01*
Y-15411D01*
X31102D01*
X31727Y-15287D01*
X32256Y-14933D01*
X44914Y-2275D01*
X47354D01*
Y-1122D01*
X56598D01*
X56660Y-1214D01*
X57217Y-1587D01*
X57874Y-1718D01*
X58531Y-1587D01*
X59088Y-1214D01*
X59461Y-657D01*
X59592Y0D01*
X59461Y657D01*
X59088Y1214D01*
X58531Y1587D01*
X57874Y1718D01*
X57217Y1587D01*
X56660Y1214D01*
X56598Y1122D01*
X47354D01*
Y1881D01*
X42410D01*
Y-165D01*
X30427Y-12148D01*
X23731D01*
Y-10324D01*
X15639D01*
Y-16873D01*
X13386D01*
X12762Y-16997D01*
X12232Y-17350D01*
X10399Y-19184D01*
X9899Y-18992D01*
Y7041D01*
X16614Y13756D01*
X25028Y5342D01*
X25557Y4989D01*
X26181Y4865D01*
X42410D01*
Y4418D01*
X47354D01*
Y4766D01*
X57314D01*
X57395Y4712D01*
X58052Y4582D01*
X58710Y4712D01*
X59267Y5085D01*
X59639Y5642D01*
X59770Y6299D01*
X59639Y6956D01*
X59267Y7514D01*
X58710Y7886D01*
X58052Y8017D01*
X58034Y8013D01*
X57954Y8029D01*
X47354D01*
Y8574D01*
X42410D01*
Y8127D01*
X26857D01*
X18246Y16739D01*
Y41794D01*
X21080D01*
X21178Y41559D01*
X21771Y40786D01*
X22544Y40193D01*
X23444Y39820D01*
X24409Y39693D01*
X25375Y39820D01*
X26275Y40193D01*
X27048Y40786D01*
X27641Y41559D01*
X28014Y42459D01*
X28141Y43425D01*
X28014Y44391D01*
X27641Y45291D01*
X27048Y46064D01*
X26275Y46657D01*
X25375Y47030D01*
X24409Y47157D01*
X23444Y47030D01*
X22544Y46657D01*
X21771Y46064D01*
X21178Y45291D01*
X21080Y45057D01*
X18344D01*
X18246Y45155D01*
Y71057D01*
X18983Y71794D01*
X20709D01*
Y69725D01*
X28109D01*
Y77125D01*
X26041D01*
Y80033D01*
X49455Y103447D01*
X73072D01*
Y101379D01*
D02*
G37*
%LPC*%
G36*
X163205Y85449D02*
X161327D01*
Y83177D01*
X163205D01*
Y85449D01*
D02*
G37*
G36*
X160327D02*
X158449D01*
Y83177D01*
X160327D01*
Y85449D01*
D02*
G37*
G36*
X163205Y82177D02*
X161327D01*
Y79905D01*
X163205D01*
Y82177D01*
D02*
G37*
G36*
X160327D02*
X158449D01*
Y79905D01*
X160327D01*
Y82177D01*
D02*
G37*
G36*
X34909Y77394D02*
Y73925D01*
X38378D01*
X38306Y74469D01*
X37903Y75442D01*
X37262Y76278D01*
X36427Y76919D01*
X35454Y77322D01*
X34909Y77394D01*
D02*
G37*
G36*
X33909Y77394D02*
X33365Y77322D01*
X32392Y76919D01*
X31557Y76278D01*
X30915Y75442D01*
X30512Y74469D01*
X30441Y73925D01*
X33909D01*
Y77394D01*
D02*
G37*
G36*
X38378Y72925D02*
X34409D01*
X30441D01*
X30512Y72381D01*
X30915Y71408D01*
X31557Y70572D01*
X32392Y69931D01*
X32874Y69732D01*
X32774Y69232D01*
X29094D01*
X29094Y69232D01*
X28665Y69146D01*
X28301Y68903D01*
X28301Y68903D01*
X26120Y66722D01*
X25375Y67030D01*
X24409Y67157D01*
X23444Y67030D01*
X22544Y66657D01*
X21771Y66064D01*
X21178Y65291D01*
X20805Y64391D01*
X20677Y63425D01*
X20805Y62459D01*
X21178Y61559D01*
X21771Y60786D01*
X22544Y60193D01*
X23444Y59820D01*
X24409Y59693D01*
X25375Y59820D01*
X26275Y60193D01*
X27048Y60786D01*
X27641Y61559D01*
X28014Y62459D01*
X28141Y63425D01*
X28014Y64391D01*
X27706Y65136D01*
X29559Y66989D01*
X32154D01*
X32324Y66489D01*
X31771Y66064D01*
X31177Y65291D01*
X30805Y64391D01*
X30678Y63425D01*
X30805Y62459D01*
X31177Y61559D01*
X31771Y60786D01*
X32544Y60193D01*
X33444Y59820D01*
X34409Y59693D01*
X35375Y59820D01*
X36275Y60193D01*
X37048Y60786D01*
X37641Y61559D01*
X37950Y62304D01*
X80748D01*
X80748Y62304D01*
X80775Y62309D01*
X81207Y61960D01*
X81222Y61548D01*
X79850Y60177D01*
X40039D01*
X40039Y60177D01*
X39610Y60091D01*
X39246Y59848D01*
X36120Y56722D01*
X35375Y57030D01*
X34409Y57157D01*
X33444Y57030D01*
X32544Y56657D01*
X31771Y56064D01*
X31177Y55291D01*
X30805Y54391D01*
X30678Y53425D01*
X30805Y52459D01*
X31177Y51559D01*
X31771Y50786D01*
X32544Y50193D01*
X33444Y49820D01*
X34409Y49693D01*
X35375Y49820D01*
X36275Y50193D01*
X37048Y50786D01*
X37641Y51559D01*
X38014Y52459D01*
X38141Y53425D01*
X38014Y54391D01*
X37706Y55136D01*
X40504Y57934D01*
X80315D01*
X80315Y57934D01*
X80744Y58019D01*
X81108Y58262D01*
X82961Y60115D01*
X83071Y60093D01*
X83728Y60224D01*
X84285Y60597D01*
X84658Y61154D01*
X84788Y61811D01*
X84658Y62468D01*
X84285Y63025D01*
X83728Y63398D01*
X83597Y63424D01*
X83298Y63910D01*
X83298Y63993D01*
X83413Y64099D01*
X83728Y64161D01*
X84285Y64534D01*
X84658Y65091D01*
X84788Y65748D01*
X84658Y66405D01*
X84285Y66962D01*
X83728Y67335D01*
X83071Y67466D01*
X82414Y67335D01*
X81856Y66962D01*
X81484Y66405D01*
X81353Y65748D01*
X81375Y65638D01*
X80283Y64547D01*
X37950D01*
X37641Y65291D01*
X37048Y66064D01*
X36495Y66489D01*
X36665Y66989D01*
X55550D01*
X55550Y66989D01*
X55980Y67074D01*
X56344Y67317D01*
X57590Y68563D01*
X81794D01*
X81856Y68471D01*
X82414Y68098D01*
X83071Y67967D01*
X83728Y68098D01*
X84285Y68471D01*
X84658Y69028D01*
X84788Y69685D01*
X84658Y70342D01*
X84285Y70899D01*
X83728Y71272D01*
X83071Y71403D01*
X82414Y71272D01*
X81856Y70899D01*
X81794Y70807D01*
X57125D01*
X56696Y70721D01*
X56332Y70478D01*
X56332Y70478D01*
X55086Y69232D01*
X36045D01*
X35945Y69732D01*
X36427Y69931D01*
X37262Y70572D01*
X37903Y71408D01*
X38306Y72381D01*
X38378Y72925D01*
D02*
G37*
G36*
X143520Y69701D02*
X141642D01*
Y67429D01*
X143520D01*
Y69701D01*
D02*
G37*
G36*
Y66429D02*
X141642D01*
Y64157D01*
X143520D01*
Y66429D01*
D02*
G37*
G36*
Y61827D02*
X141642D01*
Y59555D01*
X143520D01*
Y61827D01*
D02*
G37*
G36*
Y58555D02*
X141642D01*
Y56283D01*
X143520D01*
Y58555D01*
D02*
G37*
G36*
X24409Y57157D02*
X23444Y57030D01*
X22544Y56657D01*
X21771Y56064D01*
X21178Y55291D01*
X20805Y54391D01*
X20677Y53425D01*
X20805Y52459D01*
X21178Y51559D01*
X21771Y50786D01*
X22544Y50193D01*
X23444Y49820D01*
X24409Y49693D01*
X25375Y49820D01*
X26275Y50193D01*
X27048Y50786D01*
X27641Y51559D01*
X28014Y52459D01*
X28141Y53425D01*
X28014Y54391D01*
X27641Y55291D01*
X27048Y56064D01*
X26275Y56657D01*
X25375Y57030D01*
X24409Y57157D01*
D02*
G37*
G36*
X89567Y55459D02*
X61821D01*
X61314Y55358D01*
X60884Y55071D01*
X50445Y44633D01*
X37914D01*
X37641Y45291D01*
X37048Y46064D01*
X36275Y46657D01*
X35375Y47030D01*
X34409Y47157D01*
X33444Y47030D01*
X32544Y46657D01*
X31771Y46064D01*
X31177Y45291D01*
X30805Y44391D01*
X30678Y43425D01*
X30805Y42459D01*
X31177Y41559D01*
X31771Y40786D01*
X32263Y40408D01*
X32094Y39908D01*
X29567D01*
X29060Y39807D01*
X28630Y39520D01*
X25916Y36806D01*
X25375Y37030D01*
X24409Y37157D01*
X23444Y37030D01*
X22544Y36657D01*
X21771Y36064D01*
X21178Y35291D01*
X20805Y34391D01*
X20677Y33425D01*
X20805Y32459D01*
X21178Y31559D01*
X21771Y30786D01*
X22544Y30193D01*
X23444Y29820D01*
X24409Y29693D01*
X25375Y29820D01*
X26275Y30193D01*
X27048Y30786D01*
X27641Y31559D01*
X28014Y32459D01*
X28141Y33425D01*
X28014Y34391D01*
X27790Y34932D01*
X30116Y37257D01*
X32686D01*
X32785Y36757D01*
X32544Y36657D01*
X31771Y36064D01*
X31177Y35291D01*
X30805Y34391D01*
X30678Y33425D01*
X30805Y32459D01*
X31177Y31559D01*
X31771Y30786D01*
X32544Y30193D01*
X32595Y30172D01*
X32495Y29672D01*
X29331D01*
X28824Y29571D01*
X28394Y29284D01*
X25916Y26806D01*
X25375Y27030D01*
X24409Y27157D01*
X23444Y27030D01*
X22544Y26657D01*
X21771Y26064D01*
X21178Y25291D01*
X20805Y24391D01*
X20677Y23425D01*
X20805Y22459D01*
X21178Y21559D01*
X21771Y20786D01*
X22544Y20193D01*
X23444Y19820D01*
X24409Y19693D01*
X25375Y19820D01*
X26275Y20193D01*
X27048Y20786D01*
X27641Y21559D01*
X28014Y22459D01*
X28141Y23425D01*
X28014Y24391D01*
X27790Y24932D01*
X29880Y27021D01*
X32196D01*
X32366Y26521D01*
X31771Y26064D01*
X31177Y25291D01*
X30805Y24391D01*
X30678Y23425D01*
X30805Y22459D01*
X31177Y21559D01*
X31771Y20786D01*
X32544Y20193D01*
X33444Y19820D01*
X34409Y19693D01*
X35375Y19820D01*
X36275Y20193D01*
X37048Y20786D01*
X37641Y21559D01*
X37865Y22100D01*
X42057D01*
X42565Y22201D01*
X42995Y22488D01*
X65605Y45098D01*
X74800D01*
X75067Y44598D01*
X74907Y44358D01*
X74776Y43701D01*
X74907Y43044D01*
X75279Y42486D01*
X75738Y42180D01*
X75652Y41680D01*
X68307D01*
X67800Y41579D01*
X67370Y41292D01*
X62842Y36764D01*
X62555Y36334D01*
X62454Y35827D01*
Y-31890D01*
X62555Y-32397D01*
X62842Y-32827D01*
X67823Y-37807D01*
X68253Y-38095D01*
X68760Y-38195D01*
X70670D01*
X70691Y-38226D01*
X71313Y-38642D01*
X72047Y-38788D01*
X73172D01*
Y-39952D01*
X72047D01*
X71313Y-40098D01*
X70691Y-40514D01*
X70275Y-41136D01*
X70129Y-41870D01*
X70275Y-42604D01*
X70691Y-43226D01*
X71313Y-43642D01*
X72047Y-43788D01*
X77559D01*
X78293Y-43642D01*
X78915Y-43226D01*
X79331Y-42604D01*
X79477Y-41870D01*
X79331Y-41136D01*
X78915Y-40514D01*
X78293Y-40098D01*
X77559Y-39952D01*
X76434D01*
Y-38788D01*
X77559D01*
X78293Y-38642D01*
X78915Y-38226D01*
X79331Y-37604D01*
X79477Y-36870D01*
X79331Y-36136D01*
X78915Y-35514D01*
X78293Y-35098D01*
X77559Y-34952D01*
X76434D01*
Y-33788D01*
X77559D01*
X78293Y-33642D01*
X78915Y-33226D01*
X79331Y-32604D01*
X79477Y-31870D01*
X79331Y-31136D01*
X78915Y-30514D01*
X78293Y-30098D01*
X77559Y-29952D01*
X72047D01*
X71313Y-30098D01*
X70691Y-30514D01*
X70275Y-31136D01*
X70129Y-31870D01*
X70275Y-32604D01*
X70691Y-33226D01*
X71313Y-33642D01*
X72047Y-33788D01*
X73172D01*
Y-34952D01*
X72047D01*
X71313Y-35098D01*
X70691Y-35514D01*
X70670Y-35545D01*
X69309D01*
X65105Y-31341D01*
Y7169D01*
X65576Y7323D01*
X65605Y7324D01*
X84108Y-11179D01*
Y-23860D01*
X82423Y-25545D01*
X78936D01*
X78915Y-25514D01*
X78293Y-25098D01*
X77559Y-24952D01*
X72047D01*
X71313Y-25098D01*
X70691Y-25514D01*
X70275Y-26136D01*
X70129Y-26870D01*
X70275Y-27604D01*
X70691Y-28226D01*
X71313Y-28642D01*
X72047Y-28788D01*
X77559D01*
X78293Y-28642D01*
X78915Y-28226D01*
X78936Y-28196D01*
X82972D01*
X83480Y-28095D01*
X83910Y-27807D01*
X86370Y-25347D01*
X86658Y-24917D01*
X86759Y-24409D01*
Y-10630D01*
X86658Y-10123D01*
X86370Y-9693D01*
X67861Y8817D01*
Y35278D01*
X69674Y37090D01*
X72579D01*
X72804Y36612D01*
X72601Y36317D01*
X72177Y36232D01*
X71620Y35860D01*
X71248Y35303D01*
X71117Y34646D01*
X71248Y33988D01*
X71620Y33431D01*
X72177Y33059D01*
X72835Y32928D01*
X73492Y33059D01*
X74049Y33431D01*
X74421Y33988D01*
X74513Y34450D01*
X75155Y35092D01*
X85792D01*
X85909Y34949D01*
X89567D01*
X92861D01*
X92837Y35069D01*
X92485Y35596D01*
X92452Y35761D01*
X92554Y35914D01*
X92654Y36417D01*
X92554Y36921D01*
X92269Y37348D01*
Y37455D01*
X92554Y37882D01*
X92654Y38386D01*
X92554Y38889D01*
X92497Y38975D01*
X92296Y39370D01*
X92497Y39765D01*
X92554Y39851D01*
X92654Y40354D01*
X92554Y40858D01*
X92269Y41285D01*
Y41392D01*
X92554Y41819D01*
X92654Y42323D01*
X92554Y42826D01*
X92269Y43253D01*
Y43361D01*
X92554Y43788D01*
X92654Y44291D01*
X92554Y44795D01*
X92497Y44881D01*
X92296Y45276D01*
X92497Y45671D01*
X92554Y45756D01*
X92654Y46260D01*
X92554Y46763D01*
X92269Y47190D01*
Y47298D01*
X92554Y47725D01*
X92654Y48228D01*
X92554Y48732D01*
X92497Y48818D01*
X92296Y49213D01*
X92497Y49608D01*
X92554Y49693D01*
X92654Y50197D01*
X92554Y50700D01*
X92269Y51127D01*
Y51235D01*
X92554Y51662D01*
X92654Y52165D01*
X92554Y52669D01*
X92269Y53096D01*
Y53203D01*
X92554Y53630D01*
X92654Y54134D01*
X92554Y54637D01*
X92269Y55064D01*
X91842Y55349D01*
X91339Y55450D01*
X89615D01*
X89567Y55459D01*
D02*
G37*
G36*
X160327Y46079D02*
X158449D01*
Y43807D01*
X160327D01*
Y46079D01*
D02*
G37*
G36*
X163205Y42807D02*
X161327D01*
Y40535D01*
X163205D01*
Y42807D01*
D02*
G37*
G36*
X160327D02*
X158449D01*
Y40535D01*
X160327D01*
Y42807D01*
D02*
G37*
G36*
X163205Y38205D02*
X161327D01*
Y35933D01*
X163205D01*
Y38205D01*
D02*
G37*
G36*
X160327D02*
X158449D01*
Y35933D01*
X160327D01*
Y38205D01*
D02*
G37*
G36*
X73835Y25606D02*
X71957D01*
Y23335D01*
X73835D01*
Y25606D01*
D02*
G37*
G36*
X70957D02*
X69079D01*
Y23335D01*
X70957D01*
Y25606D01*
D02*
G37*
G36*
X163992Y23516D02*
X161130D01*
Y20260D01*
X163992D01*
Y23516D01*
D02*
G37*
G36*
X73835Y22335D02*
X71957D01*
Y20063D01*
X73835D01*
Y22335D01*
D02*
G37*
G36*
X70957D02*
X69079D01*
Y20063D01*
X70957D01*
Y22335D01*
D02*
G37*
G36*
X153831Y19110D02*
X150969D01*
Y15854D01*
X153831D01*
Y19110D01*
D02*
G37*
G36*
Y14854D02*
X150969D01*
Y11598D01*
X153831D01*
Y14854D01*
D02*
G37*
G36*
X120882Y12811D02*
X118610D01*
Y10933D01*
X120882D01*
Y12811D01*
D02*
G37*
G36*
Y9933D02*
X118610D01*
Y8055D01*
X120882D01*
Y9933D01*
D02*
G37*
G36*
X92861Y33949D02*
X89567D01*
X85909D01*
X85792Y33806D01*
X81299D01*
X80792Y33705D01*
X80362Y33418D01*
X77212Y30268D01*
X76925Y29838D01*
X76824Y29331D01*
Y25306D01*
X76072D01*
Y20363D01*
X76518D01*
Y14258D01*
X76012Y13752D01*
X75658Y13223D01*
X75534Y12598D01*
Y6732D01*
X75448Y6299D01*
X75579Y5642D01*
X75951Y5085D01*
X76508Y4712D01*
X77165Y4582D01*
X77823Y4712D01*
X78380Y5085D01*
X78752Y5642D01*
X78883Y6299D01*
X78797Y6732D01*
Y11923D01*
X79303Y12429D01*
X79657Y12958D01*
X79781Y13583D01*
Y20363D01*
X80228D01*
Y25306D01*
X79475D01*
Y28782D01*
X81848Y31155D01*
X89567D01*
X89615Y31165D01*
X91339D01*
X91842Y31265D01*
X92269Y31550D01*
X92554Y31977D01*
X92654Y32480D01*
X92554Y32984D01*
X92452Y33136D01*
X92485Y33302D01*
X92837Y33828D01*
X92861Y33949D01*
D02*
G37*
G36*
X156512Y6709D02*
X154634D01*
Y4437D01*
X156512D01*
Y6709D01*
D02*
G37*
G36*
X153634D02*
X151756D01*
Y4437D01*
X153634D01*
Y6709D01*
D02*
G37*
G36*
X156512Y3437D02*
X154634D01*
Y1165D01*
X156512D01*
Y3437D01*
D02*
G37*
G36*
X153634D02*
X151756D01*
Y1165D01*
X153634D01*
Y3437D01*
D02*
G37*
G36*
X77559Y-19646D02*
X75303D01*
Y-21370D01*
X79683D01*
X79614Y-21019D01*
X79132Y-20298D01*
X78410Y-19816D01*
X77559Y-19646D01*
D02*
G37*
G36*
X74303D02*
X72047D01*
X71196Y-19816D01*
X70475Y-20298D01*
X69993Y-21019D01*
X69923Y-21370D01*
X74303D01*
Y-19646D01*
D02*
G37*
G36*
X79683Y-22370D02*
X75303D01*
Y-24094D01*
X77559D01*
X78410Y-23925D01*
X79132Y-23443D01*
X79614Y-22721D01*
X79683Y-22370D01*
D02*
G37*
G36*
X74303D02*
X69923D01*
X69993Y-22721D01*
X70475Y-23443D01*
X71196Y-23925D01*
X72047Y-24094D01*
X74303D01*
Y-22370D01*
D02*
G37*
G36*
X57874Y-24952D02*
X52362D01*
X51628Y-25098D01*
X51418Y-25239D01*
X46890D01*
X46457Y-25153D01*
X45799Y-25283D01*
X45242Y-25656D01*
X44870Y-26213D01*
X44739Y-26870D01*
X44870Y-27527D01*
X45242Y-28084D01*
X45799Y-28457D01*
X45806Y-28458D01*
X45832Y-28476D01*
X46457Y-28600D01*
X46951Y-28501D01*
X51418D01*
X51628Y-28642D01*
X52362Y-28788D01*
X57874D01*
X58608Y-28642D01*
X59230Y-28226D01*
X59646Y-27604D01*
X59792Y-26870D01*
X59646Y-26136D01*
X59230Y-25514D01*
X58608Y-25098D01*
X57874Y-24952D01*
D02*
G37*
G36*
Y-29952D02*
X52362D01*
X51628Y-30098D01*
X51006Y-30514D01*
X50590Y-31136D01*
X50444Y-31870D01*
X50590Y-32604D01*
X51006Y-33226D01*
X51628Y-33642D01*
X52362Y-33788D01*
X53487D01*
Y-34952D01*
X52362D01*
X51628Y-35098D01*
X51418Y-35239D01*
X46890D01*
X46457Y-35153D01*
X45799Y-35283D01*
X45242Y-35656D01*
X44870Y-36213D01*
X44739Y-36870D01*
X44870Y-37527D01*
X45242Y-38085D01*
X45799Y-38457D01*
X46457Y-38588D01*
X46890Y-38501D01*
X51418D01*
X51628Y-38642D01*
X52362Y-38788D01*
X53487D01*
Y-39952D01*
X52362D01*
X51628Y-40098D01*
X51006Y-40514D01*
X50590Y-41136D01*
X50444Y-41870D01*
X50590Y-42604D01*
X51006Y-43226D01*
X51628Y-43642D01*
X52362Y-43788D01*
X57874D01*
X58608Y-43642D01*
X59230Y-43226D01*
X59646Y-42604D01*
X59792Y-41870D01*
X59646Y-41136D01*
X59230Y-40514D01*
X58608Y-40098D01*
X57874Y-39952D01*
X56749D01*
Y-38788D01*
X57874D01*
X58608Y-38642D01*
X59230Y-38226D01*
X59646Y-37604D01*
X59792Y-36870D01*
X59646Y-36136D01*
X59230Y-35514D01*
X58608Y-35098D01*
X57874Y-34952D01*
X56749D01*
Y-33788D01*
X57874D01*
X58608Y-33642D01*
X59230Y-33226D01*
X59646Y-32604D01*
X59792Y-31870D01*
X59646Y-31136D01*
X59230Y-30514D01*
X58608Y-30098D01*
X57874Y-29952D01*
D02*
G37*
G36*
X163205Y-39158D02*
X160736D01*
Y-44382D01*
X163205D01*
Y-39158D01*
D02*
G37*
G36*
X159736D02*
X157268D01*
Y-44382D01*
X159736D01*
Y-39158D01*
D02*
G37*
G36*
X163205Y-45382D02*
X160736D01*
Y-50606D01*
X163205D01*
Y-45382D01*
D02*
G37*
G36*
X159736D02*
X157268D01*
Y-50606D01*
X159736D01*
Y-45382D01*
D02*
G37*
G36*
X20276Y-49361D02*
X20185D01*
Y-52649D01*
X23998D01*
X23935Y-52169D01*
X23556Y-51255D01*
X22954Y-50471D01*
X22170Y-49869D01*
X21256Y-49490D01*
X20276Y-49361D01*
D02*
G37*
G36*
X19185D02*
X19094D01*
X18114Y-49490D01*
X17200Y-49869D01*
X16416Y-50471D01*
X15814Y-51255D01*
X15435Y-52169D01*
X15372Y-52649D01*
X19185D01*
Y-49361D01*
D02*
G37*
G36*
X20276Y-29979D02*
X19094D01*
X18192Y-30098D01*
X17352Y-30446D01*
X16630Y-31000D01*
X16076Y-31722D01*
X15728Y-32562D01*
X15609Y-33465D01*
X15728Y-34367D01*
X16076Y-35207D01*
X16630Y-35929D01*
X17352Y-36483D01*
X18192Y-36832D01*
X19094Y-36950D01*
X20276D01*
X21178Y-36832D01*
X22018Y-36483D01*
X22740Y-35929D01*
X23294Y-35207D01*
X23340Y-35096D01*
X29245D01*
X33014Y-38865D01*
Y-44488D01*
X33138Y-45112D01*
X33492Y-45642D01*
X40874Y-53024D01*
X41403Y-53377D01*
X42028Y-53501D01*
X51418D01*
X51628Y-53642D01*
X52362Y-53788D01*
X57874D01*
X58608Y-53642D01*
X59230Y-53226D01*
X59646Y-52604D01*
X59792Y-51870D01*
X59646Y-51136D01*
X59230Y-50514D01*
X58608Y-50098D01*
X57874Y-49952D01*
X52362D01*
X51628Y-50098D01*
X51418Y-50239D01*
X42703D01*
X36277Y-43813D01*
Y-38189D01*
X36153Y-37565D01*
X35799Y-37035D01*
X31075Y-32311D01*
X30545Y-31957D01*
X29921Y-31833D01*
X23340D01*
X23294Y-31722D01*
X22740Y-31000D01*
X22018Y-30446D01*
X21178Y-30098D01*
X20276Y-29979D01*
D02*
G37*
G36*
X23998Y-53649D02*
X20185D01*
Y-56938D01*
X20276D01*
X21256Y-56809D01*
X22170Y-56430D01*
X22954Y-55828D01*
X23556Y-55044D01*
X23935Y-54130D01*
X23998Y-53649D01*
D02*
G37*
G36*
X19185D02*
X15372D01*
X15435Y-54130D01*
X15814Y-55044D01*
X16416Y-55828D01*
X17200Y-56430D01*
X18114Y-56809D01*
X19094Y-56938D01*
X19185D01*
Y-53649D01*
D02*
G37*
G36*
X175213Y-56283D02*
X173335D01*
Y-58555D01*
X175213D01*
Y-56283D01*
D02*
G37*
G36*
X161433D02*
X159555D01*
Y-58555D01*
X161433D01*
Y-56283D01*
D02*
G37*
G36*
X158555D02*
X156677D01*
Y-58555D01*
X158555D01*
Y-56283D01*
D02*
G37*
G36*
X172335D02*
X170457D01*
Y-58555D01*
X172335D01*
Y-56283D01*
D02*
G37*
G36*
X57874Y-54952D02*
X52362D01*
X51628Y-55098D01*
X51418Y-55239D01*
X45492D01*
X44868Y-55363D01*
X44339Y-55717D01*
X28852Y-71203D01*
X23340D01*
X23294Y-71092D01*
X22740Y-70370D01*
X22018Y-69816D01*
X21178Y-69468D01*
X20276Y-69349D01*
X19094D01*
X18192Y-69468D01*
X17352Y-69816D01*
X16630Y-70370D01*
X16076Y-71092D01*
X15728Y-71933D01*
X15609Y-72835D01*
X15728Y-73737D01*
X16076Y-74577D01*
X16630Y-75299D01*
X17352Y-75853D01*
X18192Y-76202D01*
X19094Y-76320D01*
X20276D01*
X21178Y-76202D01*
X22018Y-75853D01*
X22740Y-75299D01*
X23294Y-74577D01*
X23340Y-74466D01*
X29528D01*
X30152Y-74342D01*
X30681Y-73988D01*
X46168Y-58501D01*
X51418D01*
X51628Y-58642D01*
X52362Y-58788D01*
X57874D01*
X58608Y-58642D01*
X59230Y-58226D01*
X59646Y-57604D01*
X59792Y-56870D01*
X59646Y-56136D01*
X59230Y-55514D01*
X58608Y-55098D01*
X57874Y-54952D01*
D02*
G37*
G36*
X175213Y-59555D02*
X173335D01*
Y-61827D01*
X175213D01*
Y-59555D01*
D02*
G37*
G36*
X172335D02*
X170457D01*
Y-61827D01*
X172335D01*
Y-59555D01*
D02*
G37*
G36*
X161433D02*
X159555D01*
Y-61827D01*
X161433D01*
Y-59555D01*
D02*
G37*
G36*
X158555D02*
X156677D01*
Y-61827D01*
X158555D01*
Y-59555D01*
D02*
G37*
G36*
X20276Y-59506D02*
X19094D01*
X18192Y-59625D01*
X17352Y-59973D01*
X16630Y-60527D01*
X16076Y-61249D01*
X15728Y-62090D01*
X15609Y-62992D01*
X15728Y-63894D01*
X16076Y-64735D01*
X16630Y-65457D01*
X17352Y-66011D01*
X18192Y-66359D01*
X19094Y-66478D01*
X20276D01*
X21178Y-66359D01*
X22018Y-66011D01*
X22740Y-65457D01*
X23294Y-64735D01*
X23642Y-63894D01*
X23761Y-62992D01*
X23642Y-62090D01*
X23294Y-61249D01*
X22740Y-60527D01*
X22018Y-59973D01*
X21178Y-59625D01*
X20276Y-59506D01*
D02*
G37*
%LPD*%
G36*
X387795Y-90551D02*
X370079Y-108268D01*
Y-135827D01*
X365158Y-140748D01*
X335630D01*
Y-75787D01*
X336614Y-74803D01*
X387795D01*
Y-90551D01*
D02*
G37*
G36*
X280512Y-103347D02*
Y-137795D01*
X275590Y-142717D01*
X220472D01*
Y-98425D01*
X275590D01*
X280512Y-103347D01*
D02*
G37*
%LPC*%
G36*
X370579Y-76698D02*
Y-82098D01*
X375979D01*
X375914Y-81438D01*
X375576Y-80322D01*
X375026Y-79293D01*
X374286Y-78391D01*
X373384Y-77651D01*
X372356Y-77101D01*
X371239Y-76763D01*
X370579Y-76698D01*
D02*
G37*
G36*
X369579Y-76698D02*
X368918Y-76763D01*
X367802Y-77101D01*
X366773Y-77651D01*
X365872Y-78391D01*
X365132Y-79293D01*
X364582Y-80322D01*
X364243Y-81438D01*
X364178Y-82098D01*
X369579D01*
Y-76698D01*
D02*
G37*
G36*
X375979Y-83098D02*
X370579D01*
Y-88499D01*
X371239Y-88434D01*
X372356Y-88095D01*
X373384Y-87546D01*
X374286Y-86806D01*
X375026Y-85904D01*
X375576Y-84875D01*
X375914Y-83759D01*
X375979Y-83098D01*
D02*
G37*
G36*
X369579D02*
X364178D01*
X364243Y-83759D01*
X364582Y-84875D01*
X365132Y-85904D01*
X365872Y-86806D01*
X366773Y-87546D01*
X367802Y-88095D01*
X368918Y-88434D01*
X369579Y-88499D01*
Y-83098D01*
D02*
G37*
G36*
X353831Y-112388D02*
X352437Y-112526D01*
X350616Y-113078D01*
X348937Y-113975D01*
X347466Y-115182D01*
X346259Y-116654D01*
X345647Y-117799D01*
X345187Y-117898D01*
X344031Y-117420D01*
X343291Y-117322D01*
Y-122047D01*
Y-126772D01*
X344031Y-126675D01*
X345187Y-126196D01*
X345647Y-126296D01*
X346259Y-127441D01*
X347466Y-128912D01*
X348937Y-130119D01*
X350616Y-131016D01*
X352437Y-131569D01*
X353831Y-131706D01*
Y-122047D01*
Y-112388D01*
D02*
G37*
G36*
X354831D02*
Y-121547D01*
X363990D01*
X363852Y-120153D01*
X363300Y-118332D01*
X362403Y-116654D01*
X361195Y-115182D01*
X359724Y-113975D01*
X358046Y-113078D01*
X356225Y-112526D01*
X354831Y-112388D01*
D02*
G37*
G36*
X342291Y-117322D02*
X341551Y-117420D01*
X340396Y-117898D01*
X339404Y-118659D01*
X338642Y-119652D01*
X338164Y-120807D01*
X338066Y-121547D01*
X342291D01*
Y-117322D01*
D02*
G37*
G36*
Y-122547D02*
X338066D01*
X338164Y-123287D01*
X338642Y-124443D01*
X339404Y-125435D01*
X340396Y-126196D01*
X341551Y-126675D01*
X342291Y-126772D01*
Y-122547D01*
D02*
G37*
G36*
X363990D02*
X354831D01*
Y-131706D01*
X356225Y-131569D01*
X358046Y-131016D01*
X359724Y-130119D01*
X361195Y-128912D01*
X362403Y-127441D01*
X363300Y-125762D01*
X363852Y-123941D01*
X363990Y-122547D01*
D02*
G37*
G36*
X268216Y-112388D02*
Y-121547D01*
X277375D01*
X277238Y-120153D01*
X276686Y-118332D01*
X275789Y-116654D01*
X274581Y-115182D01*
X273110Y-113975D01*
X271432Y-113078D01*
X269611Y-112526D01*
X268216Y-112388D01*
D02*
G37*
G36*
X267216D02*
X265823Y-112526D01*
X264001Y-113078D01*
X262323Y-113975D01*
X260852Y-115182D01*
X259645Y-116654D01*
X258747Y-118332D01*
X258195Y-120153D01*
X258058Y-121547D01*
X267216D01*
Y-112388D01*
D02*
G37*
G36*
X234189Y-120063D02*
X228768D01*
Y-125484D01*
X234189D01*
Y-120063D01*
D02*
G37*
G36*
X227768D02*
X222346D01*
Y-125484D01*
X227768D01*
Y-120063D01*
D02*
G37*
G36*
X277375Y-122547D02*
X268216D01*
Y-131706D01*
X269611Y-131569D01*
X271432Y-131016D01*
X273110Y-130119D01*
X274581Y-128912D01*
X275789Y-127441D01*
X276686Y-125762D01*
X277238Y-123941D01*
X277375Y-122547D01*
D02*
G37*
G36*
X267216D02*
X258058D01*
X258195Y-123941D01*
X258747Y-125762D01*
X259645Y-127441D01*
X260852Y-128912D01*
X262323Y-130119D01*
X264001Y-131016D01*
X265823Y-131569D01*
X267216Y-131706D01*
Y-122547D01*
D02*
G37*
G36*
X234189Y-126484D02*
X228768D01*
Y-131905D01*
X234189D01*
Y-126484D01*
D02*
G37*
G36*
X227768D02*
X222346D01*
Y-131905D01*
X227768D01*
Y-126484D01*
D02*
G37*
%LPD*%
D11*
X34409Y53425D02*
X40039Y59055D01*
X80315D01*
X83071Y61811D01*
X98373Y64947D02*
X98439D01*
X99410Y63976D01*
Y60039D02*
Y63976D01*
X105118Y60236D02*
Y70079D01*
Y60236D02*
X105315Y60039D01*
X100394Y65457D02*
Y68110D01*
Y65457D02*
X101378Y64473D01*
X34409Y63425D02*
X80748D01*
X83071Y65748D01*
X101378Y60039D02*
Y64473D01*
X24409Y63425D02*
X29094Y68110D01*
X55550D01*
X57125Y69685D02*
X83071D01*
X55550Y68110D02*
X57125Y69685D01*
X76494Y43701D02*
X76694D01*
X95156Y20276D02*
X95380Y20499D01*
Y21364D01*
X95472Y21457D01*
Y26575D01*
X82403Y42639D02*
X82719Y42323D01*
X82087Y42639D02*
X82403D01*
X83382Y44291D02*
X89567D01*
X82719Y42323D02*
X89567D01*
X76694Y43701D02*
X77717Y44723D01*
X82950D01*
X83382Y44291D01*
X117126Y65826D02*
X117442Y66142D01*
X117126Y60039D02*
Y65826D01*
X44882Y0D02*
X44882Y0D01*
X57874D01*
X128288Y51122D02*
X128405D01*
X127362Y50197D02*
X128288Y51122D01*
X123031Y50197D02*
X127362D01*
X123031Y52165D02*
X126500D01*
X123031Y52165D02*
X123031Y52165D01*
X129453Y55118D02*
Y74512D01*
X126500Y52165D02*
X129453Y55118D01*
X202756Y85827D02*
Y93110D01*
X201969Y85039D02*
X202756Y85827D01*
X186221Y85039D02*
X201969D01*
X109568Y5906D02*
Y16416D01*
X109252Y16732D02*
X109568Y16416D01*
X109252Y16732D02*
Y26575D01*
X123031Y54134D02*
X125984D01*
X127953Y56102D01*
X127953D01*
Y75134D01*
X135496Y82677D01*
X129453Y74512D02*
X132615Y77675D01*
X146653Y61024D02*
X148622Y59055D01*
X142975Y77675D02*
X146653Y73997D01*
Y61024D02*
Y73997D01*
X148622Y59055D02*
X154134D01*
X282874Y394D02*
X287402Y4921D01*
Y27559D01*
X282874Y0D02*
Y394D01*
X224410Y3563D02*
X224597Y3750D01*
X132615Y77675D02*
X142975D01*
X135496Y82677D02*
X154134D01*
X287402Y27559D02*
X289213Y29370D01*
X297244D01*
X154134Y74803D02*
Y82677D01*
Y66929D02*
Y74803D01*
X154134Y82677D02*
X154134Y82677D01*
Y51181D02*
Y59055D01*
Y43307D02*
Y51181D01*
D15*
X0Y-148228D02*
Y148228D01*
X395669D01*
X395669Y-148228D01*
X0D02*
X395669D01*
D23*
X89567Y54134D02*
D03*
Y48228D02*
D03*
Y50197D02*
D03*
Y46260D02*
D03*
Y38386D02*
D03*
Y40354D02*
D03*
Y42323D02*
D03*
Y32480D02*
D03*
Y34449D02*
D03*
Y52165D02*
D03*
Y36417D02*
D03*
Y44291D02*
D03*
X123031Y32480D02*
D03*
Y34449D02*
D03*
Y36417D02*
D03*
Y38386D02*
D03*
Y40354D02*
D03*
Y42323D02*
D03*
Y44291D02*
D03*
Y46260D02*
D03*
Y48228D02*
D03*
Y50197D02*
D03*
Y52165D02*
D03*
Y54134D02*
D03*
D24*
X117126Y60039D02*
D03*
X115157D02*
D03*
X113189D02*
D03*
X111221D02*
D03*
X109252D02*
D03*
X107283D02*
D03*
X105315D02*
D03*
X103347D02*
D03*
X101378D02*
D03*
X99410D02*
D03*
X97441D02*
D03*
X95472D02*
D03*
X95472Y26575D02*
D03*
X97441D02*
D03*
X99409D02*
D03*
X101378D02*
D03*
X103347D02*
D03*
X105315D02*
D03*
X107283D02*
D03*
X109252D02*
D03*
X111221D02*
D03*
X113189D02*
D03*
X115157D02*
D03*
X117126D02*
D03*
D25*
X300590Y-15748D02*
D03*
X313583D02*
D03*
Y-31496D02*
D03*
X300590D02*
D03*
Y74803D02*
D03*
X313583D02*
D03*
D26*
X95472Y82087D02*
D03*
Y75394D02*
D03*
X188976Y-89961D02*
D03*
Y-83268D02*
D03*
X173228D02*
D03*
Y-89961D02*
D03*
X181102Y-99016D02*
D03*
Y-105709D02*
D03*
X188976D02*
D03*
Y-99016D02*
D03*
X173228Y-105709D02*
D03*
Y-99016D02*
D03*
X322835Y-54528D02*
D03*
Y-47835D02*
D03*
X356299Y591D02*
D03*
Y7283D02*
D03*
X200787Y-83268D02*
D03*
Y-89961D02*
D03*
X358268Y52559D02*
D03*
Y45866D02*
D03*
X358268Y66142D02*
D03*
Y72835D02*
D03*
X44882Y6496D02*
D03*
Y-197D02*
D03*
X118110Y10433D02*
D03*
Y17126D02*
D03*
X190945Y93110D02*
D03*
Y99803D02*
D03*
X202756D02*
D03*
Y93110D02*
D03*
D27*
X134449Y66929D02*
D03*
X141142D02*
D03*
X282874Y7874D02*
D03*
X276181D02*
D03*
Y15748D02*
D03*
X282874D02*
D03*
X276181Y23622D02*
D03*
X282874D02*
D03*
X160827Y51181D02*
D03*
X154134D02*
D03*
X276181Y31496D02*
D03*
X282874D02*
D03*
X160827Y59055D02*
D03*
X154134D02*
D03*
X276181Y-7874D02*
D03*
X282874D02*
D03*
X160827Y43307D02*
D03*
X154134D02*
D03*
X282874Y0D02*
D03*
X276181D02*
D03*
X337992Y15748D02*
D03*
X331299D02*
D03*
X330118Y-15748D02*
D03*
X323425D02*
D03*
X331299Y7874D02*
D03*
X337992D02*
D03*
Y23622D02*
D03*
X331299D02*
D03*
Y47244D02*
D03*
X337992D02*
D03*
X276181Y94488D02*
D03*
X282874D02*
D03*
Y102362D02*
D03*
X276181D02*
D03*
X337992Y55118D02*
D03*
X331299D02*
D03*
X159055Y-59055D02*
D03*
X165748D02*
D03*
X172835D02*
D03*
X179528D02*
D03*
X245472Y15748D02*
D03*
X238779D02*
D03*
X245472Y-7874D02*
D03*
X238779D02*
D03*
X245472Y0D02*
D03*
X238779D02*
D03*
X187598Y-11437D02*
D03*
X194291D02*
D03*
X245472Y7874D02*
D03*
X238779D02*
D03*
X245472Y55118D02*
D03*
X238779D02*
D03*
X245472Y31496D02*
D03*
X238779D02*
D03*
X245472Y39370D02*
D03*
X238779D02*
D03*
X187598Y27933D02*
D03*
X194291D02*
D03*
X245472Y47244D02*
D03*
X238779D02*
D03*
X276181Y55118D02*
D03*
X282874D02*
D03*
Y39370D02*
D03*
X276181D02*
D03*
Y62992D02*
D03*
X282874D02*
D03*
X160827Y74803D02*
D03*
X154134D02*
D03*
X276181Y47244D02*
D03*
X282874D02*
D03*
X160827Y66929D02*
D03*
X154134D02*
D03*
X276181Y70866D02*
D03*
X282874D02*
D03*
X160827Y82677D02*
D03*
X154134D02*
D03*
X331299Y39370D02*
D03*
X337992D02*
D03*
X282874Y78740D02*
D03*
X276181D02*
D03*
X282874Y86614D02*
D03*
X276181D02*
D03*
X141142Y74803D02*
D03*
X134449D02*
D03*
Y51181D02*
D03*
X141142D02*
D03*
Y59055D02*
D03*
X134449D02*
D03*
X71457Y22835D02*
D03*
X78150D02*
D03*
X160827Y35433D02*
D03*
X154134D02*
D03*
Y3937D02*
D03*
X160827D02*
D03*
X108465Y105315D02*
D03*
X115157D02*
D03*
D28*
X297244Y54370D02*
D03*
Y49370D02*
D03*
Y44370D02*
D03*
Y39370D02*
D03*
Y24370D02*
D03*
Y29370D02*
D03*
Y34370D02*
D03*
X316929Y24370D02*
D03*
Y29370D02*
D03*
Y34370D02*
D03*
Y39370D02*
D03*
Y44370D02*
D03*
Y49370D02*
D03*
Y54370D02*
D03*
X74803Y-21870D02*
D03*
Y-56870D02*
D03*
Y-51870D02*
D03*
Y-46870D02*
D03*
Y-41870D02*
D03*
Y-26870D02*
D03*
Y-31870D02*
D03*
Y-36870D02*
D03*
X55118Y-56870D02*
D03*
Y-51870D02*
D03*
Y-21870D02*
D03*
Y-26870D02*
D03*
Y-31870D02*
D03*
Y-36870D02*
D03*
Y-41870D02*
D03*
Y-46870D02*
D03*
X224410Y-11437D02*
D03*
Y-6437D02*
D03*
Y-1437D02*
D03*
Y3563D02*
D03*
X204724Y-11437D02*
D03*
Y-6437D02*
D03*
Y-1437D02*
D03*
Y3563D02*
D03*
X224410Y27933D02*
D03*
Y32933D02*
D03*
Y37933D02*
D03*
Y42933D02*
D03*
X204724Y27933D02*
D03*
Y32933D02*
D03*
Y37933D02*
D03*
Y42933D02*
D03*
D29*
X310827Y-46752D02*
D03*
X303346D02*
D03*
X307087Y-55610D02*
D03*
D30*
X235138Y102362D02*
D03*
Y94882D02*
D03*
X243996Y98622D02*
D03*
D31*
X82677Y-110236D02*
D03*
X66929D02*
D03*
X82677Y-94488D02*
D03*
X66929D02*
D03*
X51181Y-110236D02*
D03*
X35433D02*
D03*
X51181Y-94488D02*
D03*
X35433D02*
D03*
D32*
X160236Y-44882D02*
D03*
X169291D02*
D03*
X178347D02*
D03*
D33*
X169291Y-22047D02*
D03*
D34*
X160630Y24016D02*
D03*
Y15354D02*
D03*
X154331Y24016D02*
D03*
Y15354D02*
D03*
D70*
X74606Y36417D02*
X89567D01*
X72835Y34646D02*
X74606Y36417D01*
X63779Y-31890D02*
Y35827D01*
X68307Y40354D01*
X89567D01*
X66535Y35827D02*
X69124Y38416D01*
X66535Y8268D02*
Y35827D01*
X69124Y38416D02*
X89537D01*
X89567Y38386D01*
X66535Y8268D02*
X85433Y-10630D01*
X81299Y32480D02*
X89567D01*
X78150Y29331D02*
X81299Y32480D01*
X78150Y22835D02*
Y29331D01*
X63779Y-31890D02*
X68760Y-36870D01*
X44882Y6496D02*
X44980Y6398D01*
X57954D02*
X58052Y6299D01*
X107403Y69133D02*
Y75237D01*
X128348Y96183D01*
X109303Y60090D02*
Y74450D01*
X109252Y60039D02*
X109303Y60090D01*
Y74450D02*
X129135Y94283D01*
X107283Y69013D02*
X107403Y69133D01*
X107283Y60039D02*
Y69013D01*
X102715Y66573D02*
Y73236D01*
X127561Y98083D01*
X102715Y66573D02*
X103347Y65941D01*
Y60039D02*
Y65941D01*
X85228Y50223D02*
X85255Y50197D01*
X44094Y28346D02*
X64071Y48323D01*
X84536Y48228D02*
X89567D01*
X63284Y50223D02*
X85228D01*
X65056Y46423D02*
X83654D01*
X42057Y23425D02*
X65056Y46423D01*
X84441Y48323D02*
X84536Y48228D01*
X83818Y46260D02*
X89567D01*
X83654Y46423D02*
X83818Y46260D01*
X85255Y50197D02*
X89567D01*
X46486Y33425D02*
X63284Y50223D01*
X64071Y48323D02*
X84441D01*
X62539Y52165D02*
X89567D01*
X61821Y54134D02*
X89567D01*
X50994Y43307D02*
X61821Y54134D01*
X48957Y38583D02*
X62539Y52165D01*
X133465Y-17717D02*
Y30315D01*
X303346Y-46752D02*
Y-42717D01*
X300787Y-40157D02*
X303346Y-42717D01*
X276088Y-40157D02*
X300787D01*
X255906Y-46063D02*
X270183D01*
X276088Y-40157D01*
X169685Y88583D02*
X188189Y70079D01*
X131496Y88583D02*
X169685D01*
X188376Y77953D02*
X197244D01*
X172046Y94283D02*
X188376Y77953D01*
X188189Y70079D02*
X224410D01*
X172833Y96183D02*
X180433Y88583D01*
X188051Y75590D02*
X227953D01*
X188592Y72363D02*
X192451D01*
X170472Y90483D02*
X188592Y72363D01*
X128348Y96183D02*
X172833D01*
X129922Y92383D02*
X171259D01*
X129135Y94283D02*
X172046D01*
X130709Y90483D02*
X170472D01*
X171259Y92383D02*
X188051Y75590D01*
X180433Y88583D02*
X191732D01*
X113189Y72963D02*
X130709Y90483D01*
X127561Y98083D02*
X185579D01*
X115157Y72244D02*
X131496Y88583D01*
X111221Y73681D02*
X129922Y92383D01*
X185579Y98083D02*
X190551Y93110D01*
X113189Y60039D02*
Y72963D01*
X115157Y60039D02*
Y72244D01*
X111221Y60039D02*
Y73681D01*
X190551Y93110D02*
X190945D01*
X191732Y88583D02*
X199606Y96457D01*
X234665Y27933D02*
X239370Y23228D01*
X224410Y27933D02*
X234665D01*
X160827Y59055D02*
X225394D01*
X226969Y60630D01*
X229331Y66929D02*
X234055Y71653D01*
X160827Y66929D02*
X229331D01*
X131299Y38386D02*
X139764Y29921D01*
Y-8661D02*
Y29921D01*
X134380Y42323D02*
X141270Y35433D01*
X154134D01*
X132480Y40354D02*
X145669Y27165D01*
X123031Y40354D02*
X132480D01*
X145669Y10630D02*
Y27165D01*
X123031Y38386D02*
X131299D01*
X123031Y42323D02*
X134380D01*
X135827Y-12598D02*
Y31102D01*
X130512Y36417D02*
X135827Y31102D01*
X129331Y34449D02*
X133465Y30315D01*
X123031Y36417D02*
X130512D01*
X160827Y8661D02*
Y15157D01*
Y3937D02*
Y8661D01*
X147638D02*
X160827D01*
X145669Y10630D02*
X147638Y8661D01*
X123031Y34449D02*
X129331D01*
X85433Y-24409D02*
Y-10630D01*
X82972Y-26870D02*
X85433Y-24409D01*
X74803Y-26870D02*
X82972D01*
X68760Y-36870D02*
X74803D01*
X105315Y-23888D02*
X116073Y-34646D01*
X103347Y-24606D02*
X115354Y-36614D01*
X111853Y-25051D02*
Y11051D01*
X118228Y-28740D02*
X184646D01*
X105315Y-23888D02*
Y26575D01*
X103347Y-24606D02*
Y26575D01*
X116791Y-32677D02*
X183209D01*
X114665Y-25177D02*
X118228Y-28740D01*
X116073Y-34646D02*
X182490D01*
X111853Y-25051D02*
X117441Y-30640D01*
X107283Y-23169D02*
Y26575D01*
Y-23169D02*
X116791Y-32677D01*
X117441Y-30640D02*
X183859D01*
X115354Y-36614D02*
X181772D01*
X114665Y-25177D02*
Y10925D01*
X186614Y-53937D02*
X188583Y-55905D01*
X227097Y-54005D02*
X236063Y-45039D01*
X192314Y-48613D02*
X193906Y-50205D01*
X190226Y-54005D02*
X227097D01*
X191869Y-52105D02*
X218997D01*
X188514Y-52294D02*
X190226Y-54005D01*
X188583Y-55905D02*
X235197D01*
X246063Y-45039D01*
X190414Y-50650D02*
X191869Y-52105D01*
X210897Y-50205D02*
X216063Y-45039D01*
X218997Y-52105D02*
X226063Y-45039D01*
X193906Y-50205D02*
X210897D01*
X181772Y-36614D02*
X186614Y-41457D01*
Y-53937D02*
Y-41457D01*
X194214Y-42246D02*
X197008Y-45039D01*
X194214Y-42246D02*
Y-38309D01*
X182490Y-34646D02*
X188514Y-40670D01*
X184646Y-28740D02*
X194214Y-38309D01*
X192314Y-48613D02*
Y-39096D01*
X188514Y-52294D02*
Y-40670D01*
X183209Y-32677D02*
X190414Y-39883D01*
Y-50650D02*
Y-39883D01*
X183859Y-30640D02*
X192314Y-39096D01*
X197008Y-45039D02*
X206063D01*
X113189Y12402D02*
X114665Y10925D01*
X111221Y17520D02*
X111289Y17451D01*
Y11615D02*
Y17451D01*
Y11615D02*
X111853Y11051D01*
X113189Y12402D02*
Y26575D01*
X111221Y17520D02*
Y26575D01*
X117126Y21654D02*
Y26575D01*
X118110Y17126D02*
Y20669D01*
X117126Y21654D02*
X118110Y20669D01*
X188976Y-89961D02*
X189370D01*
X194488Y-84842D01*
Y-75984D01*
X200000Y-70472D01*
X188976Y-105709D02*
X189075Y-105807D01*
X285827Y-68898D02*
X312992Y-96063D01*
X277258Y-68898D02*
X285827D01*
X312992Y-103347D02*
Y-96063D01*
X292323Y-97441D02*
Y-78081D01*
X275098Y-73327D02*
X287569D01*
X292323Y-78081D01*
X269171Y-66096D02*
X269215Y-66139D01*
Y-67443D02*
Y-66139D01*
X274456Y-66096D02*
X277258Y-68898D01*
X269215Y-67443D02*
X275098Y-73327D01*
X307087Y-59533D02*
X308183Y-60630D01*
X322441Y-47835D02*
X322835D01*
X319291Y-50984D02*
X322441Y-47835D01*
X319291Y-55905D02*
Y-50984D01*
X314567Y-60630D02*
X319291Y-55905D01*
X308183Y-60630D02*
X314567D01*
X307087Y-59533D02*
Y-55610D01*
X242146Y-11437D02*
X252756Y-22047D01*
X302756D02*
X308071Y-16732D01*
X252756Y-22047D02*
X302756D01*
X224410Y-11437D02*
X242146D01*
X254331Y60630D02*
X256890Y58071D01*
X226969Y60630D02*
X254331D01*
X259646Y71653D02*
X266732Y78740D01*
X234055Y71653D02*
X259646D01*
X197244Y394D02*
X199075Y-1437D01*
X197244Y7087D02*
X199016Y8858D01*
X197244Y394D02*
Y7087D01*
X199016Y8858D02*
X209646D01*
X199075Y-1437D02*
X204724D01*
X224410Y3563D02*
X232283D01*
X224410Y42933D02*
X232283D01*
X210630Y107087D02*
Y117205D01*
X202756Y99803D02*
X203534Y100581D01*
X204124D01*
X210630Y107087D01*
X189573Y100781D02*
Y100781D01*
X183071Y107283D02*
X189573Y100781D01*
X183071Y107283D02*
Y117205D01*
X189573Y100781D02*
X190551Y99803D01*
X199606Y96457D02*
X220866D01*
X223031Y98622D01*
X243996D01*
X239370Y111811D02*
X302559D01*
X337992Y76378D01*
X34409Y23425D02*
X42057D01*
X29331Y28346D02*
X44094D01*
X34528Y43307D02*
X50994D01*
X34409Y33425D02*
X46486D01*
X29567Y38583D02*
X48957D01*
X24409Y23425D02*
X29331Y28346D01*
X24409Y33425D02*
X29567Y38583D01*
X89862Y-51870D02*
X99409Y-42323D01*
X97441Y-37992D02*
Y26575D01*
X88563Y-46870D02*
X97441Y-37992D01*
X74803Y-51870D02*
X89862D01*
X74803Y-46870D02*
X88563D01*
X99409Y-42323D02*
Y26575D01*
X74803Y-56870D02*
X89193D01*
X101378Y-44685D02*
Y26575D01*
X89193Y-56870D02*
X101378Y-44685D01*
X131153Y50444D02*
Y58318D01*
X123031Y48228D02*
X128937D01*
X131153Y50444D01*
Y58318D02*
X131890Y59055D01*
X256890Y4921D02*
X261811Y0D01*
X256890Y4921D02*
Y58071D01*
X266732Y78740D02*
X276181D01*
X261811Y67913D02*
X264764D01*
X267717Y70866D01*
X160827Y51181D02*
Y51575D01*
X157480Y54921D02*
X160827Y51575D01*
X157480Y54921D02*
Y71063D01*
X160827Y74410D02*
Y74803D01*
X157480Y71063D02*
X160827Y74410D01*
X134449Y59055D02*
Y66929D01*
X134449Y59055D02*
X134449Y59055D01*
X131890Y59055D02*
X134449D01*
X261811Y47244D02*
X276181D01*
X276181Y47244D01*
X263779Y-12795D02*
X268701Y-7874D01*
X267717Y70866D02*
X276181D01*
X307087Y-33465D02*
Y-23425D01*
X313583Y-15748D02*
X323425D01*
X307087Y-33465D02*
X310827Y-37205D01*
Y-46752D02*
Y-37205D01*
X311024Y-8858D02*
X333661D01*
X344488Y1969D02*
Y20669D01*
X333661Y-8858D02*
X344488Y1969D01*
X337992Y23622D02*
X341535D01*
X344488Y20669D01*
X337992Y55118D02*
Y76378D01*
X261811Y0D02*
X276181D01*
X268701Y-7874D02*
X276181D01*
X261811Y31496D02*
X276181D01*
X261811Y31496D02*
X261811Y31496D01*
X205709Y-76772D02*
X220472D01*
X276181Y0D02*
Y7874D01*
X288386Y-13780D02*
X290354Y-11811D01*
X281496Y-13780D02*
X288386D01*
X279528Y-11811D02*
X281496Y-13780D01*
X279528Y-11811D02*
Y-3740D01*
X276181Y-394D02*
X279528Y-3740D01*
X276181Y-394D02*
Y0D01*
X282874Y-7874D02*
Y0D01*
Y7874D02*
Y15748D01*
X267717Y-120079D02*
X269685D01*
X292323Y-97441D01*
X267717Y-122047D02*
Y-120079D01*
X312992Y-103347D02*
X331693Y-122047D01*
X342791D01*
X254528Y102362D02*
X276181D01*
X235236Y102461D02*
X263681D01*
X188919Y37933D02*
X204724D01*
X188919Y42933D02*
X204724D01*
X95472Y75394D02*
X95472Y75394D01*
Y60039D02*
Y75394D01*
X299213Y63976D02*
X305118D01*
X308071Y47244D02*
Y61024D01*
X305118Y63976D02*
X308071Y61024D01*
X295276Y67913D02*
X299213Y63976D01*
X282874Y102362D02*
X294291D01*
X313583Y83071D01*
Y74803D02*
Y83071D01*
X282874Y94488D02*
X291535D01*
X295276Y67913D02*
Y90748D01*
X291535Y94488D02*
X295276Y90748D01*
X308071Y-11811D02*
X311024Y-8858D01*
X308071Y-16732D02*
Y-11811D01*
X290354Y7874D02*
Y22638D01*
Y-11811D02*
Y7874D01*
X290354Y7874D02*
X331299D01*
X290354Y7874D02*
X290354Y7874D01*
X300590Y-15748D02*
Y-8858D01*
X304528Y-4921D02*
X328740D01*
X300590Y-8858D02*
X304528Y-4921D01*
X328740D02*
X334646Y984D01*
Y12008D01*
X331299Y15354D02*
Y15748D01*
Y15354D02*
X334646Y12008D01*
X337992Y15748D02*
Y16142D01*
Y8465D02*
Y15748D01*
X337598Y7874D02*
Y8071D01*
X337992Y8465D01*
X316929Y34370D02*
X327835D01*
X334646Y19488D02*
Y27559D01*
X327835Y34370D02*
X334646Y27559D01*
X313583Y-16929D02*
Y-15748D01*
X307087Y-23425D02*
X313583Y-16929D01*
X34409Y43425D02*
X34528Y43307D01*
X308071Y47244D02*
X310945Y44370D01*
X316929D01*
X276378Y90551D02*
X290636D01*
X291339Y89848D01*
Y55073D02*
Y89848D01*
X282874Y70866D02*
X286417D01*
X287402Y69882D01*
Y52165D02*
Y69882D01*
Y52165D02*
X290197Y49370D01*
X297244D01*
X289291Y44370D02*
X297244D01*
X286417Y47244D02*
X289291Y44370D01*
X282874Y47244D02*
X286417D01*
X282874D02*
Y55118D01*
Y62992D01*
X276181Y90748D02*
X276378Y90551D01*
X292041Y54370D02*
X297244D01*
X291339Y55073D02*
X292041Y54370D01*
X321850Y74803D02*
X327756Y68898D01*
Y60039D02*
Y68898D01*
X313583Y74803D02*
X321850D01*
X316929Y54370D02*
X322087D01*
X327756Y60039D01*
X332677D01*
X334646Y58071D01*
Y50590D02*
Y58071D01*
Y50590D02*
X337992Y47244D01*
X316929Y44370D02*
X328425D01*
X331299Y47244D01*
X316929Y49370D02*
X325945D01*
X331299Y54724D01*
Y55118D01*
X334646Y19488D02*
X337992Y16142D01*
X331299Y23622D02*
Y24016D01*
X330521Y24794D02*
X331299Y24016D01*
X330128Y24794D02*
X330521D01*
X325551Y29370D02*
X330128Y24794D01*
X316929Y29370D02*
X325551D01*
X331299Y15748D02*
Y16142D01*
X323071Y24370D02*
X331299Y16142D01*
X316929Y24370D02*
X323071D01*
X330118Y-28150D02*
Y-15748D01*
X326772Y-31496D02*
X330118Y-28150D01*
X313583Y-31496D02*
X326772D01*
X313583Y-15748D02*
X313583Y-15748D01*
X276959Y87786D02*
X277102D01*
X276181Y87008D02*
X276959Y87786D01*
X209646Y8858D02*
X211117Y10330D01*
Y36914D01*
X210098Y37933D02*
X211117Y36914D01*
X204724Y37933D02*
X210098D01*
X213583Y5906D02*
Y41339D01*
X204724Y42933D02*
X211988D01*
X213583Y41339D01*
X204724Y3563D02*
X211240D01*
X213583Y5906D01*
X200787Y-83268D02*
X200787Y-83268D01*
Y-81693D01*
X205709Y-76772D01*
X235138Y102362D02*
X235236Y102461D01*
X282874Y31496D02*
X285433D01*
X288307Y34370D01*
X282874Y23622D02*
Y31496D01*
X288307Y34370D02*
X297244D01*
X292087Y24370D02*
X297244D01*
X290354Y22638D02*
X292087Y24370D01*
X282874Y15748D02*
Y23622D01*
X316929Y39370D02*
X316929Y39370D01*
X201850Y125984D02*
X210630Y117205D01*
X190551Y99803D02*
X190945D01*
X183071Y117205D02*
X191850Y125984D01*
X134449Y66929D02*
Y74803D01*
Y45866D02*
Y51181D01*
X132874Y44291D02*
X134449Y45866D01*
X123031Y44291D02*
X132874D01*
X160630Y15354D02*
X160827Y15157D01*
X154331Y24016D02*
Y35236D01*
X154134Y35433D02*
X154331Y35236D01*
X160630Y24016D02*
Y35236D01*
X160827Y35433D01*
D71*
X78150Y13583D02*
Y22835D01*
X77165Y12598D02*
X78150Y13583D01*
X77165Y6299D02*
Y12598D01*
X184843Y-129921D02*
X188976Y-125787D01*
X44980Y6398D02*
X57954D01*
X76772Y105079D02*
X81457D01*
X102362Y125984D01*
X115157D01*
X31102Y-13780D02*
X44882Y0D01*
X141142Y43898D02*
X141732Y43307D01*
X141142Y43898D02*
Y51181D01*
X46457Y-26969D02*
X46555Y-26870D01*
X55118D01*
X46457Y-36870D02*
X55118D01*
X13386Y-43307D02*
X19685D01*
X11417Y-41339D02*
X13386Y-43307D01*
X11417Y-41339D02*
Y-20472D01*
X13386Y-18504D01*
X38976D01*
X42342Y-21870D01*
X55118D01*
X30512Y-23622D02*
X41339Y-34449D01*
X19685Y-23622D02*
X30512D01*
X41339Y-41732D02*
Y-34449D01*
X55118Y-36870D02*
Y-31870D01*
Y-41870D02*
Y-36870D01*
X46476Y-46870D02*
X55118D01*
X41339Y-41732D02*
X46476Y-46870D01*
X19685Y-33465D02*
X29921D01*
X34646Y-44488D02*
Y-38189D01*
X29921Y-33465D02*
X34646Y-38189D01*
Y-44488D02*
X42028Y-51870D01*
X55118D01*
X45492Y-56870D02*
X55118D01*
X29528Y-72835D02*
X45492Y-56870D01*
X74803Y-41870D02*
Y-36870D01*
X126772Y-17717D02*
Y14173D01*
X131102Y-22047D02*
X169291D01*
X126772Y-17717D02*
X131102Y-22047D01*
X118110Y17126D02*
X123819D01*
X126772Y14173D01*
X179528Y-59055D02*
Y-53543D01*
Y-59055D02*
X260630D01*
X196063Y-61811D02*
X262212D01*
X183524Y-74350D02*
X196063Y-61811D01*
X262212D02*
X268118Y-55905D01*
X260630Y-59055D02*
X266535Y-53150D01*
X270079D01*
X275197Y-48031D01*
X268118Y-55905D02*
X284252D01*
X294882Y-66535D01*
X339961D01*
X275197Y-48031D02*
X290551D01*
X293701Y-51181D01*
X152362Y-69291D02*
X162205D01*
X96653Y-63976D02*
X147047D01*
X152362Y-69291D01*
X165748Y-59055D02*
Y-54724D01*
Y-65748D02*
Y-59055D01*
X162205Y-69291D02*
X165748Y-65748D01*
X322835Y-63386D02*
X336221D01*
X298221D02*
X322835D01*
X322835Y-63386D02*
Y-54528D01*
X322835Y-63386D02*
X322835Y-63386D01*
X286803Y-51968D02*
X298221Y-63386D01*
X336221D02*
X350394Y-49213D01*
X339961Y-66535D02*
X362205Y-44291D01*
X125984Y-68898D02*
X146071D01*
X101568D02*
X125984D01*
X317520Y-43110D02*
X320079Y-40551D01*
X330512D02*
X343504Y-27559D01*
X320079Y-40551D02*
X330512D01*
X315354Y-51181D02*
X317520Y-49016D01*
Y-43110D01*
X293701Y-51181D02*
X315354D01*
X280315Y-27756D02*
X289173D01*
X292913Y-31496D01*
X280315Y-51968D02*
X286803D01*
X292913Y-31496D02*
X300590D01*
X265995Y63629D02*
X266539Y64173D01*
X253300Y63629D02*
X265995D01*
X252756Y64173D02*
X253300Y63629D01*
X275000Y64173D02*
X276181Y62992D01*
X266539Y64173D02*
X275000D01*
X194291Y27933D02*
X204724D01*
X194291Y-11437D02*
X204724D01*
X194291Y-12205D02*
Y27559D01*
X8268Y-77559D02*
Y7717D01*
X16614Y16063D01*
X8268Y-77559D02*
X12992Y-82284D01*
X30709D01*
X34646Y-78347D01*
X82284D01*
X96653Y-63976D01*
X26181Y6496D02*
X44882D01*
X16614Y16063D02*
Y44480D01*
Y16063D02*
X26181Y6496D01*
X48779Y105079D02*
X76772D01*
X24409Y80709D02*
X48779Y105079D01*
X24409Y73425D02*
Y80709D01*
X19685Y-13780D02*
X31102D01*
X121653Y-127559D02*
X125984Y-131890D01*
X39370Y-127559D02*
X121653D01*
X35433Y-123622D02*
X39370Y-127559D01*
X51181Y-110386D02*
X59017Y-118222D01*
X19685Y-72835D02*
X29528D01*
X115157Y105315D02*
Y125984D01*
X114567Y105315D02*
X114862Y105610D01*
X276181Y87786D02*
Y90748D01*
Y87008D02*
Y87786D01*
X90945Y75394D02*
X95472D01*
X76772Y89567D02*
X90945Y75394D01*
X76772Y89567D02*
Y105079D01*
X264632Y23622D02*
X264764D01*
X146071Y-68898D02*
X151523Y-74350D01*
X183524D01*
X82677Y-94488D02*
Y-87788D01*
Y-110236D02*
Y-94488D01*
X165748Y-54724D02*
X169291Y-51181D01*
Y-44882D01*
X82677Y-87788D02*
X101568Y-68898D01*
X24173Y43425D02*
X24291Y43307D01*
X18307Y73425D02*
X24409D01*
X16614Y71732D02*
X18307Y73425D01*
X17669Y43425D02*
X24173D01*
X16614Y44480D02*
X17669Y43425D01*
X16614Y44480D02*
Y71732D01*
X24291Y43307D02*
X24409Y43425D01*
X352953Y45866D02*
X358268D01*
X349410Y42323D02*
X352953Y45866D01*
X349410Y-984D02*
Y42323D01*
X343504Y-6890D02*
X349410Y-984D01*
X343504Y-27559D02*
Y-6890D01*
X264764Y23622D02*
X264764Y23622D01*
X276181D01*
X245472Y54724D02*
Y55118D01*
Y54724D02*
X252953Y47244D01*
Y23622D02*
Y47244D01*
X245472Y15748D02*
Y16142D01*
X252953Y23622D01*
X169291Y-7874D02*
X176181Y-984D01*
X245472Y15354D02*
Y15748D01*
X176181Y29528D02*
Y35433D01*
Y-984D02*
Y29528D01*
X141142Y51181D02*
Y51575D01*
X137795Y54921D02*
X141142Y51575D01*
X137795Y54921D02*
Y71063D01*
X141142Y74410D02*
Y74803D01*
X137795Y71063D02*
X141142Y74410D01*
X160827Y50787D02*
Y51181D01*
Y50787D02*
X176181Y35433D01*
X169291Y-22047D02*
Y-7874D01*
X184449Y-22047D02*
X194291Y-12205D01*
X169291Y-22047D02*
X184449D01*
X374016Y8032D02*
X383032D01*
X364603D02*
X374016D01*
X362205Y-44291D02*
X372047D01*
X385827Y-30512D01*
Y10827D01*
X350394Y-49213D02*
Y-19685D01*
X290059Y39370D02*
X297244D01*
X282874D02*
X290059D01*
X324803Y39370D02*
X331299D01*
X316929D02*
X324803D01*
X310433Y64961D02*
X320866D01*
X300590Y73622D02*
Y74803D01*
Y73622D02*
X301659Y72553D01*
X302840D01*
X310433Y64961D01*
X276181Y90748D02*
Y94488D01*
Y86614D02*
Y87008D01*
X383032Y8032D02*
X385827Y10827D01*
Y65945D01*
X374638Y71024D02*
X380748D01*
X385827Y65945D01*
X175462Y-128021D02*
Y-127821D01*
X173228Y-125587D02*
Y-105709D01*
X175462Y-128021D02*
X177362Y-129921D01*
X173228Y-125587D02*
X175462Y-127821D01*
X188976Y-125787D02*
Y-105709D01*
X181102D02*
X188976D01*
X181102Y-99016D02*
X188976D01*
X188976Y-89961D02*
X188976Y-89961D01*
Y-99016D02*
Y-89961D01*
Y-99016D02*
X188976Y-99016D01*
X173228Y-83268D02*
X188976D01*
X173228Y-99016D02*
Y-89961D01*
X178347Y-52362D02*
X179528Y-53543D01*
X178347Y-52362D02*
Y-44882D01*
X366299Y-19685D02*
X374016Y-11969D01*
X350394Y-19685D02*
X366299D01*
X356299Y7283D02*
X363856D01*
X364603Y8032D01*
X358268Y45866D02*
X363779D01*
X374489Y50875D02*
X374638Y51024D01*
X368788Y50875D02*
X374489D01*
X363779Y45866D02*
X368788Y50875D01*
X374480Y70866D02*
X374638Y71024D01*
X367126Y70866D02*
X374480D01*
X365158Y72835D02*
X367126Y70866D01*
X358268Y72835D02*
X365158D01*
X276181Y78740D02*
Y86614D01*
X282874Y78740D02*
Y86614D01*
Y70866D02*
Y78740D01*
X238779Y0D02*
Y7874D01*
Y15748D01*
X233720Y-1437D02*
X236221Y-3937D01*
X224410Y-1437D02*
X233720D01*
X236221Y-3937D02*
X238779D01*
Y-7874D02*
Y-3937D01*
Y0D01*
Y35433D02*
Y39370D01*
Y31496D02*
Y35433D01*
X236221D02*
X238779D01*
X224410Y37933D02*
X233720D01*
X236221Y35433D01*
X238779Y47244D02*
Y55118D01*
Y39370D02*
Y47244D01*
X74803Y-36870D02*
Y-31870D01*
X35433Y-123622D02*
Y-110236D01*
Y-94488D01*
X59093Y-118222D02*
X66929Y-110386D01*
X51181Y-94488D02*
Y-94338D01*
X59017Y-86502D01*
Y-85668D01*
X59055Y-85630D01*
X66929Y-94488D02*
Y-94338D01*
X59093Y-86502D02*
X66929Y-94338D01*
X59093Y-86502D02*
Y-85668D01*
X59055Y-85630D02*
X59093Y-85668D01*
D72*
X125984Y-88583D02*
D03*
X244094Y-80709D02*
D03*
X350394Y-11811D02*
D03*
X125984Y-131890D02*
D03*
D73*
Y-68898D02*
D03*
X244094Y-72835D02*
D03*
X350394Y-19685D02*
D03*
X125984Y-112205D02*
D03*
D74*
X19685Y-72835D02*
D03*
Y-53150D02*
D03*
Y-43307D02*
D03*
Y-23622D02*
D03*
Y-33465D02*
D03*
Y-62992D02*
D03*
D75*
Y-13780D02*
D03*
D76*
X125000Y125984D02*
D03*
X134843D02*
D03*
X115157D02*
D03*
X47244Y-135827D02*
D03*
X37402D02*
D03*
X34449Y125984D02*
D03*
X176181Y-129921D02*
D03*
D77*
X144685Y125984D02*
D03*
X57087Y-135827D02*
D03*
X44291Y125984D02*
D03*
X186024Y-129921D02*
D03*
D78*
X314961Y119095D02*
D03*
D79*
X340551D02*
D03*
D80*
X354331Y-122047D02*
D03*
X267717D02*
D03*
D81*
X342791D02*
D03*
X287131D02*
D03*
D82*
X374016Y8032D02*
D03*
X374638Y71024D02*
D03*
D83*
X374016Y-1969D02*
D03*
Y-11969D02*
D03*
X374638Y61024D02*
D03*
Y51024D02*
D03*
D84*
X220472Y-86614D02*
D03*
Y-76772D02*
D03*
Y-66929D02*
D03*
X191850Y115984D02*
D03*
X201850Y125984D02*
D03*
X191850D02*
D03*
X201850Y135984D02*
D03*
X191850D02*
D03*
X76772Y125079D02*
D03*
Y115079D02*
D03*
Y135079D02*
D03*
X34409Y23425D02*
D03*
X24409D02*
D03*
X34409Y33425D02*
D03*
X24409D02*
D03*
X34409Y43425D02*
D03*
X24409D02*
D03*
X34409Y53425D02*
D03*
X24409D02*
D03*
X34409Y63425D02*
D03*
X24409D02*
D03*
X34409Y73425D02*
D03*
X216063Y-35039D02*
D03*
Y-45039D02*
D03*
X246063D02*
D03*
X236063Y-35039D02*
D03*
Y-45039D02*
D03*
X226063Y-35039D02*
D03*
Y-45039D02*
D03*
X206063Y-35039D02*
D03*
Y-45039D02*
D03*
D85*
X228268Y-125984D02*
D03*
D86*
X212677D02*
D03*
X370079Y-82598D02*
D03*
D87*
Y-67008D02*
D03*
D88*
X201850Y115984D02*
D03*
X76772Y105079D02*
D03*
X24409Y73425D02*
D03*
D89*
X246063Y-35039D02*
D03*
D90*
X11024Y106890D02*
D03*
Y-121850D02*
D03*
X381102D02*
D03*
X381398Y106890D02*
D03*
D91*
X72835Y34646D02*
D03*
X77165Y6299D02*
D03*
X58052D02*
D03*
X83071Y61811D02*
D03*
X98373Y64947D02*
D03*
X105118Y70079D02*
D03*
X100394Y68110D02*
D03*
X83071Y65748D02*
D03*
Y69685D02*
D03*
X76494Y43701D02*
D03*
X95156Y20276D02*
D03*
X82087Y42639D02*
D03*
X117442Y66142D02*
D03*
X100394Y49213D02*
D03*
X57874Y0D02*
D03*
X133465Y-17717D02*
D03*
X128405Y51122D02*
D03*
X186221Y85039D02*
D03*
X113189Y37402D02*
D03*
X141732Y43307D02*
D03*
X148622Y3937D02*
D03*
X255906Y-46063D02*
D03*
X192451Y72363D02*
D03*
X197244Y77953D02*
D03*
X232283Y32933D02*
D03*
X239370Y23228D02*
D03*
X227953Y75590D02*
D03*
X224410Y70079D02*
D03*
X139764Y-8661D02*
D03*
X135827Y-12598D02*
D03*
X46457Y-36870D02*
D03*
Y-26870D02*
D03*
X109568Y5906D02*
D03*
X200000Y-70472D02*
D03*
X200787Y-95472D02*
D03*
X269171Y-66096D02*
D03*
X274456D02*
D03*
X252953Y23622D02*
D03*
X280315Y-27756D02*
D03*
X252756Y64173D02*
D03*
X232283Y3563D02*
D03*
Y-6437D02*
D03*
X239370Y111811D02*
D03*
X261811Y67913D02*
D03*
X260827Y40354D02*
D03*
X262795Y16732D02*
D03*
X260827Y57087D02*
D03*
X359252Y60039D02*
D03*
X342520Y32480D02*
D03*
X187992Y-1969D02*
D03*
X245669Y23228D02*
D03*
X90551Y87598D02*
D03*
X100394Y37402D02*
D03*
X113189Y49213D02*
D03*
X99410Y98425D02*
D03*
X146653Y55118D02*
D03*
X170276Y29528D02*
D03*
X77756Y-14764D02*
D03*
X261811Y47244D02*
D03*
X264632Y23622D02*
D03*
X263779Y-12795D02*
D03*
X176181Y29528D02*
D03*
X261811Y31496D02*
D03*
X232283Y42933D02*
D03*
X290059Y39370D02*
D03*
X324803Y39370D02*
D03*
X319882Y-15748D02*
D03*
X320866Y64961D02*
D03*
X188919Y37933D02*
D03*
Y42933D02*
D03*
D92*
X280315Y-51968D02*
D03*
D93*
X59055Y-119095D02*
D03*
Y-85630D02*
D03*
M02*
