G04*
G04 #@! TF.GenerationSoftware,Altium Limited,Altium Designer,20.0.10 (225)*
G04*
G04 Layer_Physical_Order=3*
G04 Layer_Color=128*
%FSLAX25Y25*%
%MOIN*%
G70*
G01*
G75*
%ADD15C,0.01000*%
%ADD81C,0.07500*%
%ADD94C,0.04000*%
%ADD95C,0.07150*%
%ADD96C,0.07937*%
%ADD97C,0.09512*%
%ADD98C,0.09315*%
%ADD99C,0.07937*%
%ADD100C,0.11283*%
%ADD101C,0.07800*%
%ADD102C,0.07400*%
%ADD103C,0.16205*%
%ADD104C,0.05181*%
%ADD105C,0.05200*%
D15*
X0Y-148228D02*
Y148228D01*
X395669D01*
X395669Y-148228D01*
X0D02*
X395669D01*
D81*
X220472Y-86614D02*
D03*
Y-76772D02*
D03*
Y-66929D02*
D03*
D94*
X0Y-148228D02*
Y148228D01*
X395669D01*
X395669Y-148228D01*
X0D02*
X395669D01*
D95*
X125984Y-88583D02*
D03*
Y-68898D02*
D03*
X314961Y119095D02*
D03*
X340551D02*
D03*
X244094Y-80709D02*
D03*
Y-72835D02*
D03*
X350394Y-11811D02*
D03*
Y-19685D02*
D03*
X125984Y-112205D02*
D03*
Y-131890D02*
D03*
D96*
X19685Y-72835D02*
D03*
Y-53150D02*
D03*
Y-43307D02*
D03*
Y-13780D02*
D03*
Y-23622D02*
D03*
Y-33465D02*
D03*
Y-62992D02*
D03*
X125000Y125984D02*
D03*
X134843D02*
D03*
X144685D02*
D03*
X115157D02*
D03*
X57087Y-135827D02*
D03*
X47244D02*
D03*
X37402D02*
D03*
X44291Y125984D02*
D03*
X34449D02*
D03*
X186024Y-129921D02*
D03*
X176181D02*
D03*
D97*
X354331Y-122047D02*
D03*
X267717D02*
D03*
D98*
X342791D02*
D03*
X287131D02*
D03*
D99*
X374016Y8032D02*
D03*
Y-1969D02*
D03*
Y-11969D02*
D03*
X374638Y71024D02*
D03*
Y61024D02*
D03*
Y51024D02*
D03*
D100*
X228268Y-125984D02*
D03*
X212677D02*
D03*
X370079Y-67008D02*
D03*
Y-82598D02*
D03*
D101*
X201850Y115984D02*
D03*
X191850D02*
D03*
X201850Y125984D02*
D03*
X191850D02*
D03*
X201850Y135984D02*
D03*
X191850D02*
D03*
X76772Y125079D02*
D03*
Y115079D02*
D03*
Y105079D02*
D03*
Y135079D02*
D03*
X34409Y23425D02*
D03*
X24409D02*
D03*
X34409Y33425D02*
D03*
X24409D02*
D03*
X34409Y43425D02*
D03*
X24409D02*
D03*
X34409Y53425D02*
D03*
X24409D02*
D03*
X34409Y63425D02*
D03*
X24409D02*
D03*
X34409Y73425D02*
D03*
X24409D02*
D03*
D102*
X216063Y-35039D02*
D03*
Y-45039D02*
D03*
X246063Y-35039D02*
D03*
Y-45039D02*
D03*
X236063Y-35039D02*
D03*
Y-45039D02*
D03*
X226063Y-35039D02*
D03*
Y-45039D02*
D03*
X206063Y-35039D02*
D03*
Y-45039D02*
D03*
D103*
X11024Y106890D02*
D03*
Y-121850D02*
D03*
X381102D02*
D03*
X381398Y106890D02*
D03*
D104*
X72835Y34646D02*
D03*
X77165Y6299D02*
D03*
X58052D02*
D03*
X83071Y61811D02*
D03*
X98373Y64947D02*
D03*
X105118Y70079D02*
D03*
X100394Y68110D02*
D03*
X83071Y65748D02*
D03*
Y69685D02*
D03*
X76494Y43701D02*
D03*
X95156Y20276D02*
D03*
X82087Y42639D02*
D03*
X117442Y66142D02*
D03*
X100394Y49213D02*
D03*
X57874Y0D02*
D03*
X133465Y-17717D02*
D03*
X128405Y51122D02*
D03*
X186221Y85039D02*
D03*
X113189Y37402D02*
D03*
X141732Y43307D02*
D03*
X148622Y3937D02*
D03*
X255906Y-46063D02*
D03*
X192451Y72363D02*
D03*
X197244Y77953D02*
D03*
X232283Y32933D02*
D03*
X239370Y23228D02*
D03*
X227953Y75590D02*
D03*
X224410Y70079D02*
D03*
X139764Y-8661D02*
D03*
X135827Y-12598D02*
D03*
X46457Y-36870D02*
D03*
Y-26870D02*
D03*
X109568Y5906D02*
D03*
X200000Y-70472D02*
D03*
X200787Y-95472D02*
D03*
X269171Y-66096D02*
D03*
X274456D02*
D03*
X252953Y23622D02*
D03*
X280315Y-27756D02*
D03*
X252756Y64173D02*
D03*
X232283Y3563D02*
D03*
Y-6437D02*
D03*
X239370Y111811D02*
D03*
X261811Y67913D02*
D03*
X260827Y40354D02*
D03*
X262795Y16732D02*
D03*
X260827Y57087D02*
D03*
X359252Y60039D02*
D03*
X342520Y32480D02*
D03*
X187992Y-1969D02*
D03*
X245669Y23228D02*
D03*
X90551Y87598D02*
D03*
X100394Y37402D02*
D03*
X113189Y49213D02*
D03*
X99410Y98425D02*
D03*
X146653Y55118D02*
D03*
X170276Y29528D02*
D03*
X77756Y-14764D02*
D03*
X261811Y47244D02*
D03*
X264632Y23622D02*
D03*
X263779Y-12795D02*
D03*
X176181Y29528D02*
D03*
X261811Y31496D02*
D03*
X232283Y42933D02*
D03*
X290059Y39370D02*
D03*
X324803Y39370D02*
D03*
X319882Y-15748D02*
D03*
X320866Y64961D02*
D03*
X188919Y37933D02*
D03*
Y42933D02*
D03*
D105*
X280315Y-51968D02*
D03*
X59055Y-119095D02*
D03*
Y-85630D02*
D03*
M02*
