G04*
G04 #@! TF.GenerationSoftware,Altium Limited,Altium Designer,20.0.10 (225)*
G04*
G04 Layer_Color=8421504*
%FSLAX25Y25*%
%MOIN*%
G70*
G01*
G75*
%ADD14C,0.01000*%
%ADD25R,0.03937X0.06299*%
%ADD26R,0.03543X0.02756*%
%ADD27R,0.02756X0.03543*%
%ADD28O,0.07874X0.02362*%
%ADD29R,0.02362X0.04528*%
%ADD30R,0.04528X0.02362*%
%ADD31R,0.07700X0.08000*%
%ADD32R,0.03937X0.09449*%
%ADD33R,0.12992X0.09449*%
%ADD34O,0.01181X0.04724*%
%ADD35O,0.04724X0.01181*%
%ADD36R,0.04724X0.05512*%
D14*
X0Y-148228D02*
Y148228D01*
X395669D01*
X395669Y-148228D01*
X0D02*
X395669D01*
D25*
X300590Y-15748D02*
D03*
X313583D02*
D03*
Y-31496D02*
D03*
X300590D02*
D03*
Y74803D02*
D03*
X313583D02*
D03*
D26*
X95472Y82087D02*
D03*
Y75394D02*
D03*
X188976Y-89961D02*
D03*
Y-83268D02*
D03*
X173228D02*
D03*
Y-89961D02*
D03*
X181102Y-99016D02*
D03*
Y-105709D02*
D03*
X188976D02*
D03*
Y-99016D02*
D03*
X173228Y-105709D02*
D03*
Y-99016D02*
D03*
X322835Y-47835D02*
D03*
Y-54528D02*
D03*
X356299Y591D02*
D03*
Y7283D02*
D03*
X200787Y-83268D02*
D03*
Y-89961D02*
D03*
X358268Y52559D02*
D03*
Y45866D02*
D03*
X358268Y66142D02*
D03*
Y72835D02*
D03*
X118110Y10433D02*
D03*
Y17126D02*
D03*
X190945Y93110D02*
D03*
Y99803D02*
D03*
X202756D02*
D03*
Y93110D02*
D03*
D27*
X134449Y66929D02*
D03*
X141142D02*
D03*
X282874Y7874D02*
D03*
X276181D02*
D03*
Y15748D02*
D03*
X282874D02*
D03*
X276181Y23622D02*
D03*
X282874D02*
D03*
X160827Y51181D02*
D03*
X154134D02*
D03*
X276181Y31496D02*
D03*
X282874D02*
D03*
X160827Y59055D02*
D03*
X154134D02*
D03*
X276181Y-7874D02*
D03*
X282874D02*
D03*
X160827Y43307D02*
D03*
X154134D02*
D03*
X282874Y0D02*
D03*
X276181D02*
D03*
X337992Y15748D02*
D03*
X331299D02*
D03*
X330118Y-15748D02*
D03*
X323425D02*
D03*
X331299Y7874D02*
D03*
X337992D02*
D03*
Y23622D02*
D03*
X331299D02*
D03*
Y47244D02*
D03*
X337992D02*
D03*
X276181Y94488D02*
D03*
X282874D02*
D03*
Y102362D02*
D03*
X276181D02*
D03*
X337992Y55118D02*
D03*
X331299D02*
D03*
X159055Y-59055D02*
D03*
X165748D02*
D03*
X172835D02*
D03*
X179528D02*
D03*
X68307Y0D02*
D03*
X61614D02*
D03*
X245472Y15748D02*
D03*
X238779D02*
D03*
X245472Y-7874D02*
D03*
X238779D02*
D03*
X245472Y0D02*
D03*
X238779D02*
D03*
X187598Y-11811D02*
D03*
X194291D02*
D03*
X245472Y7874D02*
D03*
X238779D02*
D03*
X245472Y55118D02*
D03*
X238779D02*
D03*
X245472Y31496D02*
D03*
X238779D02*
D03*
X245472Y39370D02*
D03*
X238779D02*
D03*
X187598Y27559D02*
D03*
X194291D02*
D03*
X245472Y47244D02*
D03*
X238779D02*
D03*
X276181Y55118D02*
D03*
X282874D02*
D03*
Y39370D02*
D03*
X276181D02*
D03*
Y62992D02*
D03*
X282874D02*
D03*
X160827Y74803D02*
D03*
X154134D02*
D03*
X276181Y47244D02*
D03*
X282874D02*
D03*
X160827Y66929D02*
D03*
X154134D02*
D03*
X276181Y70866D02*
D03*
X282874D02*
D03*
X160827Y82677D02*
D03*
X154134D02*
D03*
X331299Y39370D02*
D03*
X337992D02*
D03*
X282874Y78740D02*
D03*
X276181D02*
D03*
X282874Y86614D02*
D03*
X276181D02*
D03*
X141142Y74803D02*
D03*
X134449D02*
D03*
Y51181D02*
D03*
X141142D02*
D03*
Y59055D02*
D03*
X134449D02*
D03*
X67520Y31496D02*
D03*
X74213D02*
D03*
X160827Y35433D02*
D03*
X154134D02*
D03*
Y3937D02*
D03*
X160827D02*
D03*
X125394Y104331D02*
D03*
X118701D02*
D03*
D28*
X297244Y54370D02*
D03*
Y49370D02*
D03*
Y44370D02*
D03*
Y39370D02*
D03*
Y24370D02*
D03*
Y29370D02*
D03*
Y34370D02*
D03*
X316929Y24370D02*
D03*
Y29370D02*
D03*
Y34370D02*
D03*
Y39370D02*
D03*
Y44370D02*
D03*
Y49370D02*
D03*
Y54370D02*
D03*
X74803Y-21870D02*
D03*
Y-56870D02*
D03*
Y-51870D02*
D03*
Y-46870D02*
D03*
Y-41870D02*
D03*
Y-26870D02*
D03*
Y-31870D02*
D03*
Y-36870D02*
D03*
X55118Y-56870D02*
D03*
Y-51870D02*
D03*
Y-21870D02*
D03*
Y-26870D02*
D03*
Y-31870D02*
D03*
Y-36870D02*
D03*
Y-41870D02*
D03*
Y-46870D02*
D03*
X224410Y-11437D02*
D03*
Y-6437D02*
D03*
Y-1437D02*
D03*
Y3563D02*
D03*
X204724Y-11437D02*
D03*
Y-6437D02*
D03*
Y-1437D02*
D03*
Y3563D02*
D03*
X224410Y27933D02*
D03*
Y32933D02*
D03*
Y37933D02*
D03*
Y42933D02*
D03*
X204724Y27933D02*
D03*
Y32933D02*
D03*
Y37933D02*
D03*
Y42933D02*
D03*
D29*
X310827Y-46752D02*
D03*
X303346D02*
D03*
X307087Y-55610D02*
D03*
D30*
X193405Y69685D02*
D03*
Y62205D02*
D03*
X202264Y65945D02*
D03*
D31*
X82677Y-110236D02*
D03*
X66929D02*
D03*
X82677Y-94488D02*
D03*
X66929D02*
D03*
X51181Y-110236D02*
D03*
X35433D02*
D03*
X51181Y-94488D02*
D03*
X35433D02*
D03*
D32*
X160236Y-44882D02*
D03*
X169291D02*
D03*
X178347D02*
D03*
D33*
X169291Y-22047D02*
D03*
D34*
X117126Y26575D02*
D03*
X115157D02*
D03*
X113189D02*
D03*
X111221D02*
D03*
X109252D02*
D03*
X107283D02*
D03*
X105315D02*
D03*
X103347D02*
D03*
X101378D02*
D03*
X99409D02*
D03*
X97441D02*
D03*
X95472D02*
D03*
X95472Y60039D02*
D03*
X97441D02*
D03*
X99410D02*
D03*
X101378D02*
D03*
X103347D02*
D03*
X105315D02*
D03*
X107283D02*
D03*
X109252D02*
D03*
X111221D02*
D03*
X113189D02*
D03*
X115157D02*
D03*
X117126D02*
D03*
D35*
X123031Y54134D02*
D03*
Y52165D02*
D03*
Y50197D02*
D03*
Y48228D02*
D03*
Y46260D02*
D03*
Y44291D02*
D03*
Y42323D02*
D03*
Y40354D02*
D03*
Y38386D02*
D03*
Y36417D02*
D03*
Y34449D02*
D03*
Y32480D02*
D03*
X89567Y44291D02*
D03*
Y36417D02*
D03*
Y52165D02*
D03*
Y34449D02*
D03*
Y32480D02*
D03*
Y42323D02*
D03*
Y40354D02*
D03*
Y38386D02*
D03*
Y46260D02*
D03*
Y50197D02*
D03*
Y48228D02*
D03*
Y54134D02*
D03*
D36*
X160630Y24016D02*
D03*
Y15354D02*
D03*
X154331Y24016D02*
D03*
Y15354D02*
D03*
M02*
