G04*
G04 #@! TF.GenerationSoftware,Altium Limited,Altium Designer,20.0.10 (225)*
G04*
G04 Layer_Physical_Order=4*
G04 Layer_Color=16711680*
%FSLAX25Y25*%
%MOIN*%
G70*
G01*
G75*
%ADD11C,0.00800*%
%ADD14C,0.01000*%
%ADD72C,0.01800*%
%ADD73C,0.01200*%
%ADD74C,0.17323*%
%ADD75O,0.06000X0.05600*%
%ADD76R,0.06000X0.05600*%
%ADD77C,0.05512*%
%ADD78R,0.05512X0.05512*%
%ADD79C,0.07500*%
%ADD80R,0.05600X0.06000*%
%ADD81O,0.05600X0.06000*%
%ADD82R,0.06299X0.06299*%
%ADD83C,0.06299*%
%ADD84C,0.06000*%
%ADD85R,0.07087X0.07087*%
%ADD86C,0.07087*%
%ADD87R,0.09843X0.09843*%
%ADD88C,0.09843*%
%ADD89R,0.09843X0.09843*%
%ADD90R,0.06000X0.06000*%
%ADD91R,0.06000X0.06000*%
%ADD92C,0.12205*%
%ADD93C,0.01969*%
%ADD94C,0.02200*%
%ADD95C,0.02000*%
G36*
X395669Y-148228D02*
X0D01*
Y148228D01*
X395669D01*
X395669Y-148228D01*
D02*
G37*
%LPC*%
G36*
X77272Y139047D02*
Y135579D01*
X80740D01*
X80669Y136123D01*
X80266Y137096D01*
X79624Y137932D01*
X78789Y138573D01*
X77816Y138976D01*
X77272Y139047D01*
D02*
G37*
G36*
X76272Y139047D02*
X75727Y138976D01*
X74754Y138573D01*
X73919Y137932D01*
X73278Y137096D01*
X72875Y136123D01*
X72803Y135579D01*
X76272D01*
Y139047D01*
D02*
G37*
G36*
X205819Y135484D02*
X202350D01*
Y132016D01*
X202895Y132087D01*
X203868Y132490D01*
X204703Y133131D01*
X205344Y133967D01*
X205747Y134940D01*
X205819Y135484D01*
D02*
G37*
G36*
X195819D02*
X192350D01*
Y132016D01*
X192895Y132087D01*
X193868Y132490D01*
X194703Y133131D01*
X195344Y133967D01*
X195747Y134940D01*
X195819Y135484D01*
D02*
G37*
G36*
X201350D02*
X197882D01*
X197953Y134940D01*
X198356Y133967D01*
X198998Y133131D01*
X199833Y132490D01*
X200806Y132087D01*
X201350Y132016D01*
Y135484D01*
D02*
G37*
G36*
X191350D02*
X187882D01*
X187953Y134940D01*
X188356Y133967D01*
X188998Y133131D01*
X189833Y132490D01*
X190806Y132087D01*
X191350Y132016D01*
Y135484D01*
D02*
G37*
G36*
X76272Y134579D02*
X72803D01*
X72875Y134035D01*
X73278Y133062D01*
X73919Y132226D01*
X74754Y131585D01*
X75727Y131182D01*
X76272Y131110D01*
Y134579D01*
D02*
G37*
G36*
X80740D02*
X77272D01*
Y131110D01*
X77816Y131182D01*
X78789Y131585D01*
X79624Y132226D01*
X80266Y133062D01*
X80669Y134035D01*
X80740Y134579D01*
D02*
G37*
G36*
X43110Y129715D02*
X42197Y129594D01*
X41345Y129242D01*
X40614Y128681D01*
X40053Y127949D01*
X39700Y127098D01*
X39630Y126563D01*
X39130Y126596D01*
Y129684D01*
X32130D01*
Y122284D01*
X33999D01*
Y107172D01*
X7705Y80878D01*
X7351Y80349D01*
X7227Y79724D01*
Y-40354D01*
X7351Y-40979D01*
X7705Y-41508D01*
X10657Y-44461D01*
X11187Y-44814D01*
X11811Y-44938D01*
X16372D01*
X16428Y-45072D01*
X16989Y-45803D01*
X17720Y-46364D01*
X18571Y-46717D01*
X19485Y-46837D01*
X19885D01*
X20602Y-46743D01*
X20953Y-47140D01*
X20877Y-47438D01*
X20838Y-47474D01*
X20185Y-47388D01*
Y-50681D01*
X23652D01*
X23592Y-50229D01*
X23629Y-50189D01*
X24131Y-50060D01*
X51012Y-76941D01*
X51541Y-77295D01*
X52165Y-77419D01*
X151575D01*
X152199Y-77295D01*
X152728Y-76941D01*
X167999Y-61671D01*
X241450D01*
X253967Y-74187D01*
X253760Y-74687D01*
X249002D01*
X247530Y-73216D01*
X247580Y-72835D01*
X247461Y-71933D01*
X247113Y-71092D01*
X246559Y-70370D01*
X245837Y-69816D01*
X244997Y-69468D01*
X244094Y-69349D01*
X243192Y-69468D01*
X243081Y-69514D01*
X239342Y-65776D01*
X238813Y-65422D01*
X238189Y-65298D01*
X223802D01*
X223704Y-65063D01*
X223111Y-64290D01*
X222338Y-63697D01*
X221438Y-63324D01*
X220472Y-63197D01*
X219507Y-63324D01*
X218606Y-63697D01*
X217834Y-64290D01*
X217241Y-65063D01*
X216868Y-65963D01*
X216740Y-66929D01*
X216868Y-67895D01*
X217241Y-68795D01*
X217834Y-69568D01*
X218606Y-70161D01*
X219507Y-70534D01*
X220472Y-70661D01*
X221438Y-70534D01*
X222338Y-70161D01*
X223111Y-69568D01*
X223704Y-68795D01*
X223802Y-68560D01*
X237513D01*
X240774Y-71821D01*
X240727Y-71933D01*
X240609Y-72835D01*
X240727Y-73737D01*
X241076Y-74577D01*
X241630Y-75299D01*
X242352Y-75853D01*
X243192Y-76202D01*
X244094Y-76320D01*
X244997Y-76202D01*
X245637Y-75937D01*
X246191Y-76491D01*
X246000Y-76953D01*
X244595D01*
Y-80209D01*
X247850D01*
Y-78250D01*
X248237Y-77933D01*
X248326Y-77950D01*
X311476D01*
X312101Y-77826D01*
X312630Y-77472D01*
X335347Y-54756D01*
X335700Y-54227D01*
X335824Y-53602D01*
Y29980D01*
X335700Y30605D01*
X335347Y31134D01*
X326263Y40217D01*
X326018Y40584D01*
X325460Y40957D01*
X324803Y41088D01*
X324146Y40957D01*
X323589Y40584D01*
X323216Y40027D01*
X323086Y39370D01*
X323216Y38713D01*
X323589Y38156D01*
X323956Y37910D01*
X332562Y29305D01*
Y-39195D01*
X332062Y-39347D01*
X331923Y-39140D01*
X331366Y-38768D01*
X330709Y-38637D01*
X330276Y-38723D01*
X287093D01*
X282785Y-34415D01*
X282689Y-34272D01*
X279259Y-30841D01*
X279324Y-30512D01*
X279193Y-29855D01*
X278821Y-29297D01*
X278264Y-28925D01*
X277607Y-28794D01*
X276949Y-28925D01*
X276740Y-29065D01*
X276240Y-28797D01*
Y56510D01*
X276240Y56510D01*
X276137Y57293D01*
X275835Y58023D01*
X275354Y58650D01*
X265039Y68965D01*
X264767Y69620D01*
X264225Y70327D01*
X263518Y70870D01*
X262695Y71211D01*
X261811Y71327D01*
X260928Y71211D01*
X260104Y70870D01*
X259397Y70327D01*
X259021Y69837D01*
X258521Y70007D01*
Y82001D01*
X279219Y102699D01*
X327953D01*
X328577Y102823D01*
X329106Y103177D01*
X340780Y114851D01*
X346960D01*
Y123338D01*
X338473D01*
Y117158D01*
X327277Y105962D01*
X278543D01*
X277919Y105838D01*
X277390Y105484D01*
X255736Y83831D01*
X255383Y83301D01*
X255258Y82677D01*
Y63425D01*
X255172Y62992D01*
X255238Y62663D01*
X251799Y59224D01*
X251446Y58695D01*
X251321Y58071D01*
Y34449D01*
Y-14117D01*
X183747D01*
X173704Y-4074D01*
X173459Y-3707D01*
X172901Y-3334D01*
X172244Y-3204D01*
X171587Y-3334D01*
X171030Y-3707D01*
X170657Y-4264D01*
X170527Y-4921D01*
X170657Y-5579D01*
X171030Y-6136D01*
X171397Y-6381D01*
X181917Y-16902D01*
X182447Y-17255D01*
X183071Y-17379D01*
X252520D01*
X252953Y-17466D01*
X253610Y-17335D01*
X254167Y-16962D01*
X254539Y-16405D01*
X254670Y-15748D01*
X254584Y-15315D01*
Y33773D01*
X255597Y34786D01*
X263071D01*
X263169Y34687D01*
Y33216D01*
X262669Y32948D01*
X262468Y33083D01*
X261811Y33214D01*
X261154Y33083D01*
X260597Y32710D01*
X260224Y32153D01*
X260133Y31692D01*
X257921Y29481D01*
X257634Y29050D01*
X257533Y28543D01*
Y-66865D01*
X257272Y-67256D01*
X257141Y-67913D01*
X257272Y-68571D01*
X257644Y-69128D01*
X258201Y-69500D01*
X258858Y-69631D01*
X259516Y-69500D01*
X260073Y-69128D01*
X260445Y-68571D01*
X260576Y-67913D01*
X260445Y-67256D01*
X260184Y-66865D01*
Y27994D01*
X262007Y29818D01*
X262468Y29909D01*
X262604Y30000D01*
X263054Y29699D01*
X263001Y29431D01*
Y24055D01*
X262914Y23622D01*
X263045Y22965D01*
X263418Y22408D01*
X263975Y22035D01*
X264632Y21905D01*
X265289Y22035D01*
X265846Y22408D01*
X266159Y22875D01*
X266589Y22820D01*
X266659Y22792D01*
Y-61277D01*
X266287Y-61563D01*
X265976Y-61968D01*
X265459Y-61819D01*
X265366Y-61351D01*
X265105Y-60960D01*
Y-13844D01*
X265366Y-13453D01*
X265497Y-12795D01*
X265366Y-12138D01*
X264994Y-11581D01*
X264437Y-11208D01*
X263779Y-11078D01*
X263122Y-11208D01*
X262565Y-11581D01*
X262193Y-12138D01*
X262062Y-12795D01*
X262193Y-13453D01*
X262454Y-13844D01*
Y-60960D01*
X262193Y-61351D01*
X262062Y-62008D01*
X262193Y-62665D01*
X262565Y-63222D01*
X263122Y-63595D01*
X263779Y-63725D01*
X264437Y-63595D01*
X264871Y-63304D01*
X265303Y-63506D01*
X265344Y-63544D01*
X265287Y-63976D01*
X265403Y-64860D01*
X265744Y-65683D01*
X266287Y-66390D01*
X266994Y-66933D01*
X267817Y-67274D01*
X268701Y-67390D01*
X269584Y-67274D01*
X270408Y-66933D01*
X271115Y-66390D01*
X271657Y-65683D01*
X271985Y-64893D01*
X272017Y-64850D01*
X272437Y-64609D01*
X272899Y-64964D01*
X273723Y-65305D01*
X274606Y-65422D01*
X275490Y-65305D01*
X276313Y-64964D01*
X277020Y-64422D01*
X277563Y-63715D01*
X277904Y-62891D01*
X278020Y-62008D01*
X277904Y-61124D01*
X277563Y-60301D01*
X277020Y-59594D01*
X276313Y-59052D01*
X276240Y-59021D01*
Y-33144D01*
X276740Y-32937D01*
X280287Y-36483D01*
X280382Y-36626D01*
X285264Y-41508D01*
X285793Y-41862D01*
X286417Y-41986D01*
X330276D01*
X330709Y-42072D01*
X331366Y-41941D01*
X331923Y-41569D01*
X332062Y-41362D01*
X332562Y-41513D01*
Y-52927D01*
X310801Y-74687D01*
X281673D01*
X281466Y-74187D01*
X286587Y-69067D01*
X286940Y-68538D01*
X287064Y-67913D01*
Y-51031D01*
X287151Y-50598D01*
X287020Y-49941D01*
X286648Y-49384D01*
X286090Y-49012D01*
X285433Y-48881D01*
X284776Y-49012D01*
X284219Y-49384D01*
X283846Y-49941D01*
X283716Y-50598D01*
X283802Y-51031D01*
Y-67238D01*
X279435Y-71605D01*
X255998D01*
X243280Y-58886D01*
X242750Y-58532D01*
X242126Y-58408D01*
X167323D01*
X166699Y-58532D01*
X166169Y-58886D01*
X150899Y-74156D01*
X52841D01*
X24085Y-45400D01*
X24277Y-44938D01*
X38386D01*
X39010Y-44814D01*
X39539Y-44461D01*
X52335Y-31665D01*
X52688Y-31136D01*
X52812Y-30512D01*
Y-22638D01*
X52688Y-22014D01*
X52335Y-21484D01*
X46994Y-16143D01*
X46971Y-16030D01*
X46573Y-15435D01*
X45978Y-15037D01*
X45276Y-14897D01*
X44573Y-15037D01*
X43978Y-15435D01*
X43580Y-16030D01*
X43440Y-16732D01*
X43580Y-17435D01*
X43978Y-18030D01*
X44573Y-18428D01*
X44687Y-18450D01*
X49550Y-23313D01*
Y-29836D01*
X37710Y-41676D01*
X22998D01*
X22942Y-41542D01*
X22381Y-40811D01*
X21650Y-40250D01*
X20799Y-39897D01*
X19885Y-39777D01*
X19485D01*
X18571Y-39897D01*
X17720Y-40250D01*
X16989Y-40811D01*
X16428Y-41542D01*
X16372Y-41676D01*
X12487D01*
X10490Y-39679D01*
Y79049D01*
X11756Y80315D01*
X12217Y80069D01*
X12148Y79724D01*
Y4921D01*
X12272Y4297D01*
X12626Y3768D01*
X43853Y-27459D01*
X43875Y-27572D01*
X44273Y-28168D01*
X44868Y-28566D01*
X45571Y-28705D01*
X46273Y-28566D01*
X46869Y-28168D01*
X47266Y-27572D01*
X47406Y-26870D01*
X47266Y-26168D01*
X46869Y-25572D01*
X46273Y-25174D01*
X46160Y-25152D01*
X15411Y5597D01*
Y79049D01*
X44264Y107902D01*
X44617Y108431D01*
X44742Y109055D01*
Y122672D01*
X44875Y122727D01*
X45606Y123288D01*
X46167Y124019D01*
X46520Y124871D01*
X46640Y125784D01*
Y126184D01*
X46520Y127098D01*
X46167Y127949D01*
X45606Y128681D01*
X44875Y129242D01*
X44024Y129594D01*
X43110Y129715D01*
D02*
G37*
G36*
X145532Y129984D02*
X142232D01*
Y126484D01*
X145532D01*
Y129984D01*
D02*
G37*
G36*
X141232D02*
X137932D01*
Y126484D01*
X141232D01*
Y129984D01*
D02*
G37*
G36*
X133858Y129715D02*
X132945Y129594D01*
X132093Y129242D01*
X131362Y128681D01*
X130801Y127949D01*
X130448Y127098D01*
X130328Y126184D01*
Y125784D01*
X130448Y124871D01*
X130801Y124019D01*
X131362Y123288D01*
X132093Y122727D01*
X132945Y122374D01*
X133858Y122254D01*
X134772Y122374D01*
X135623Y122727D01*
X136354Y123288D01*
X136916Y124019D01*
X137268Y124871D01*
X137389Y125784D01*
Y126184D01*
X137268Y127098D01*
X136916Y127949D01*
X136354Y128681D01*
X135623Y129242D01*
X134772Y129594D01*
X133858Y129715D01*
D02*
G37*
G36*
X201850Y129716D02*
X200885Y129589D01*
X199984Y129216D01*
X199212Y128623D01*
X198618Y127850D01*
X198246Y126950D01*
X198118Y125984D01*
X198246Y125018D01*
X198618Y124118D01*
X199212Y123345D01*
X199984Y122752D01*
X200885Y122380D01*
X201850Y122252D01*
X202816Y122380D01*
X203716Y122752D01*
X204489Y123345D01*
X205082Y124118D01*
X205455Y125018D01*
X205582Y125984D01*
X205455Y126950D01*
X205082Y127850D01*
X204489Y128623D01*
X203716Y129216D01*
X202816Y129589D01*
X201850Y129716D01*
D02*
G37*
G36*
X191850D02*
X190884Y129589D01*
X189984Y129216D01*
X189211Y128623D01*
X188618Y127850D01*
X188246Y126950D01*
X188119Y125984D01*
X188246Y125018D01*
X188618Y124118D01*
X189211Y123345D01*
X189984Y122752D01*
X190884Y122380D01*
X191850Y122252D01*
X192816Y122380D01*
X193716Y122752D01*
X194489Y123345D01*
X195082Y124118D01*
X195455Y125018D01*
X195582Y125984D01*
X195455Y126950D01*
X195082Y127850D01*
X194489Y128623D01*
X193716Y129216D01*
X192816Y129589D01*
X191850Y129716D01*
D02*
G37*
G36*
X145532Y125484D02*
X142232D01*
Y121984D01*
X145532D01*
Y125484D01*
D02*
G37*
G36*
X141232D02*
X137932D01*
Y121984D01*
X141232D01*
Y125484D01*
D02*
G37*
G36*
X290158Y143364D02*
X65945D01*
X65321Y143239D01*
X64791Y142886D01*
X58886Y136980D01*
X58532Y136451D01*
X58408Y135827D01*
Y-43616D01*
X44428Y-57595D01*
X44061Y-57841D01*
X43689Y-58398D01*
X43558Y-59055D01*
X43689Y-59712D01*
X44061Y-60270D01*
X44618Y-60642D01*
X45276Y-60773D01*
X45933Y-60642D01*
X46490Y-60270D01*
X46735Y-59902D01*
X61193Y-45445D01*
X61546Y-44916D01*
X61671Y-44291D01*
Y135151D01*
X66621Y140101D01*
X190030D01*
X190129Y139601D01*
X189833Y139478D01*
X188998Y138837D01*
X188356Y138002D01*
X187953Y137029D01*
X187882Y136484D01*
X191850D01*
X195819D01*
X195747Y137029D01*
X195344Y138002D01*
X194703Y138837D01*
X193868Y139478D01*
X193571Y139601D01*
X193671Y140101D01*
X200030D01*
X200129Y139601D01*
X199833Y139478D01*
X198998Y138837D01*
X198356Y138002D01*
X197953Y137029D01*
X197882Y136484D01*
X201851D01*
X205819D01*
X205747Y137029D01*
X205344Y138002D01*
X204703Y138837D01*
X203868Y139478D01*
X203572Y139601D01*
X203671Y140101D01*
X289482D01*
X308872Y120711D01*
X308661Y120202D01*
X308515Y119095D01*
X308661Y117987D01*
X309089Y116955D01*
X309769Y116068D01*
X310655Y115388D01*
X311688Y114960D01*
X312795Y114815D01*
X313903Y114960D01*
X314935Y115388D01*
X315822Y116068D01*
X316502Y116955D01*
X316929Y117987D01*
X317075Y119095D01*
X316929Y120202D01*
X316502Y121234D01*
X315822Y122121D01*
X314935Y122801D01*
X313903Y123229D01*
X312795Y123374D01*
X311688Y123229D01*
X311179Y123018D01*
X291311Y142886D01*
X290782Y143239D01*
X290158Y143364D01*
D02*
G37*
G36*
X157480Y136474D02*
X126969D01*
X126344Y136350D01*
X125815Y135996D01*
X119299Y129480D01*
X119024Y129594D01*
X118110Y129715D01*
X117197Y129594D01*
X116345Y129242D01*
X115614Y128681D01*
X115053Y127949D01*
X114700Y127098D01*
X114580Y126184D01*
Y125784D01*
X114700Y124871D01*
X115053Y124019D01*
X115614Y123288D01*
X116345Y122727D01*
X117197Y122374D01*
X118110Y122254D01*
X119024Y122374D01*
X119875Y122727D01*
X120607Y123288D01*
X121168Y124019D01*
X121520Y124871D01*
X121640Y125784D01*
Y126184D01*
X121521Y127088D01*
X122388Y127955D01*
X122812Y127672D01*
X122574Y127098D01*
X122454Y126184D01*
Y125784D01*
X122574Y124871D01*
X122927Y124019D01*
X123488Y123288D01*
X124219Y122727D01*
X125071Y122374D01*
X125984Y122254D01*
X126898Y122374D01*
X127749Y122727D01*
X128481Y123288D01*
X129042Y124019D01*
X129394Y124871D01*
X129515Y125784D01*
Y126184D01*
X129394Y127098D01*
X129042Y127949D01*
X128481Y128681D01*
X127749Y129242D01*
X126898Y129594D01*
X125984Y129715D01*
X125071Y129594D01*
X124496Y129356D01*
X124213Y129780D01*
X127644Y133211D01*
X156805D01*
X175185Y114831D01*
X175714Y114477D01*
X176339Y114353D01*
X188521D01*
X188618Y114118D01*
X189211Y113345D01*
X189984Y112752D01*
X190884Y112380D01*
X191850Y112252D01*
X192816Y112380D01*
X193716Y112752D01*
X194489Y113345D01*
X195082Y114118D01*
X195179Y114353D01*
X198150D01*
Y112284D01*
X205550D01*
Y119684D01*
X198150D01*
Y117616D01*
X195179D01*
X195082Y117850D01*
X194489Y118623D01*
X193716Y119216D01*
X192816Y119589D01*
X191850Y119716D01*
X190884Y119589D01*
X189984Y119216D01*
X189211Y118623D01*
X188618Y117850D01*
X188521Y117616D01*
X177014D01*
X158634Y135996D01*
X158105Y136350D01*
X157480Y136474D01*
D02*
G37*
G36*
X76772Y118811D02*
X75806Y118684D01*
X74906Y118311D01*
X74133Y117718D01*
X73540Y116945D01*
X73316Y116404D01*
X70787D01*
X70280Y116303D01*
X69850Y116016D01*
X66976Y113142D01*
X66689Y112712D01*
X66588Y112205D01*
Y83661D01*
X66689Y83154D01*
X66976Y82724D01*
X74230Y75470D01*
Y42640D01*
X70670Y39080D01*
X70209Y38988D01*
X69652Y38616D01*
X69279Y38059D01*
X69149Y37402D01*
X69279Y36744D01*
X69652Y36187D01*
X70209Y35815D01*
X70866Y35684D01*
X71523Y35815D01*
X72081Y36187D01*
X72453Y36744D01*
X72545Y37206D01*
X76493Y41154D01*
X76609Y41327D01*
X77109Y41175D01*
Y31929D01*
X77023Y31496D01*
X77109Y31063D01*
Y11502D01*
X73365Y7759D01*
X72998Y7514D01*
X72626Y6956D01*
X72495Y6299D01*
X72581Y5866D01*
Y-60363D01*
X72705Y-60987D01*
X73059Y-61516D01*
X74114Y-62571D01*
X74643Y-62924D01*
X75267Y-63049D01*
X75267Y-63049D01*
X149213D01*
X149837Y-62924D01*
X150366Y-62571D01*
X152422Y-60515D01*
X152789Y-60270D01*
X153162Y-59712D01*
X153292Y-59055D01*
X153162Y-58398D01*
X152789Y-57841D01*
X152232Y-57468D01*
X151575Y-57338D01*
X150917Y-57468D01*
X150360Y-57841D01*
X150115Y-58208D01*
X148537Y-59786D01*
X95012D01*
X94821Y-59324D01*
X100695Y-53451D01*
X100695Y-53451D01*
X100938Y-53087D01*
X101023Y-52658D01*
Y-11911D01*
X101523Y-11862D01*
X101644Y-12468D01*
X102016Y-13025D01*
X102573Y-13398D01*
X103230Y-13529D01*
X103888Y-13398D01*
X104445Y-13025D01*
X104507Y-12933D01*
X115677D01*
X130112Y-27368D01*
X130112Y-27368D01*
X130476Y-27611D01*
X130905Y-27696D01*
X130906Y-27696D01*
X217134D01*
X222767Y-33329D01*
X222458Y-34073D01*
X222331Y-35039D01*
X222458Y-36005D01*
X222831Y-36905D01*
X223424Y-37678D01*
X224197Y-38271D01*
X225097Y-38644D01*
X226063Y-38771D01*
X227029Y-38644D01*
X227929Y-38271D01*
X228702Y-37678D01*
X229295Y-36905D01*
X229668Y-36005D01*
X229795Y-35039D01*
X229668Y-34073D01*
X229295Y-33173D01*
X228702Y-32401D01*
X227929Y-31807D01*
X227029Y-31435D01*
X226063Y-31307D01*
X225097Y-31435D01*
X224353Y-31743D01*
X218391Y-25782D01*
X218028Y-25539D01*
X217598Y-25453D01*
X217598Y-25453D01*
X131370D01*
X116935Y-11018D01*
X116571Y-10775D01*
X116142Y-10689D01*
X116142Y-10689D01*
X104507D01*
X104445Y-10597D01*
X103888Y-10224D01*
X103230Y-10093D01*
X102573Y-10224D01*
X102016Y-10597D01*
X101644Y-11154D01*
X101523Y-11760D01*
X101023Y-11711D01*
Y-8831D01*
X102827Y-7027D01*
X121063D01*
X121063Y-7027D01*
X121492Y-6942D01*
X121856Y-6699D01*
X126661Y-1893D01*
X126661Y-1893D01*
X126904Y-1529D01*
X126990Y-1100D01*
Y69121D01*
X127083Y69183D01*
X127455Y69740D01*
X127586Y70398D01*
X127455Y71055D01*
X127083Y71612D01*
X126525Y71984D01*
X125868Y72115D01*
X125211Y71984D01*
X124654Y71612D01*
X124282Y71055D01*
X124151Y70398D01*
X124232Y69991D01*
X123771Y69744D01*
X119888Y73628D01*
X119524Y73871D01*
X119095Y73956D01*
X119094Y73956D01*
X116606D01*
X115295Y75268D01*
Y89102D01*
X120543Y94351D01*
X168827D01*
X181375Y81802D01*
X181353Y81693D01*
X181484Y81036D01*
X181856Y80478D01*
X182414Y80106D01*
X183071Y79975D01*
X183728Y80106D01*
X184285Y80478D01*
X184658Y81036D01*
X184788Y81693D01*
X184658Y82350D01*
X184285Y82907D01*
X183728Y83280D01*
X183071Y83410D01*
X182961Y83389D01*
X170084Y96266D01*
X169720Y96509D01*
X169291Y96594D01*
X169291Y96594D01*
X120079D01*
X120079Y96594D01*
X119650Y96509D01*
X119286Y96266D01*
X119286Y96266D01*
X113380Y90360D01*
X113137Y89996D01*
X113052Y89567D01*
X113052Y89567D01*
Y74803D01*
X113052Y74803D01*
X113137Y74374D01*
X113380Y74010D01*
X115349Y72042D01*
X115349Y72042D01*
X115712Y71798D01*
X116142Y71713D01*
X116142Y71713D01*
X118630D01*
X122894Y67449D01*
Y64441D01*
X108459Y50006D01*
X108216Y49642D01*
X108130Y49213D01*
X108130Y49213D01*
Y7182D01*
X108037Y7120D01*
X107665Y6563D01*
X107535Y5906D01*
X107665Y5248D01*
X108037Y4691D01*
X108595Y4319D01*
X109252Y4188D01*
X109909Y4319D01*
X110466Y4691D01*
X110839Y5248D01*
X110969Y5906D01*
X110839Y6563D01*
X110466Y7120D01*
X110373Y7182D01*
Y48748D01*
X124285Y62659D01*
X124747Y62468D01*
Y-636D01*
X120598Y-4784D01*
X102362D01*
X102362Y-4784D01*
X101933Y-4869D01*
X101569Y-5112D01*
X99108Y-7573D01*
X98865Y-7937D01*
X98780Y-8366D01*
X98780Y-8366D01*
Y-52193D01*
X92923Y-58050D01*
X90521D01*
X90208Y-57550D01*
X90261Y-57283D01*
X97710Y-49834D01*
X97997Y-49404D01*
X98098Y-48897D01*
Y-6657D01*
X98051Y-6418D01*
Y55938D01*
X105395Y63282D01*
X105856Y63374D01*
X106413Y63746D01*
X106786Y64303D01*
X106916Y64961D01*
X106786Y65618D01*
X106472Y66088D01*
X106571Y66408D01*
X106693Y66588D01*
X116194D01*
X116585Y66327D01*
X117242Y66196D01*
X117899Y66327D01*
X118456Y66699D01*
X118829Y67256D01*
X118959Y67913D01*
X118829Y68571D01*
X118456Y69128D01*
X117899Y69500D01*
X117242Y69631D01*
X116585Y69500D01*
X116194Y69239D01*
X100394D01*
X99887Y69138D01*
X99456Y68851D01*
X93551Y62945D01*
X93264Y62515D01*
X93163Y62008D01*
Y-18637D01*
X92901Y-19028D01*
X92771Y-19685D01*
X92901Y-20342D01*
X93274Y-20899D01*
X93831Y-21272D01*
X94488Y-21403D01*
X94947Y-21311D01*
X95447Y-21626D01*
Y-48348D01*
X88387Y-55408D01*
X87925Y-55500D01*
X87368Y-55872D01*
X86996Y-56429D01*
X86865Y-57087D01*
X86957Y-57550D01*
X86645Y-58050D01*
X85883D01*
Y-12911D01*
X85883Y-12911D01*
X85798Y-12482D01*
X85555Y-12118D01*
X85555Y-12118D01*
X79452Y-6015D01*
X79473Y-5906D01*
X79343Y-5248D01*
X78970Y-4691D01*
X78413Y-4319D01*
X77756Y-4188D01*
X77099Y-4319D01*
X76541Y-4691D01*
X76344Y-4987D01*
X75844Y-4835D01*
Y5624D01*
X79894Y9673D01*
X80247Y10203D01*
X80371Y10827D01*
Y31063D01*
X80458Y31496D01*
X80371Y31929D01*
Y55017D01*
X80725Y55321D01*
X81230Y55236D01*
X81352Y55054D01*
Y25655D01*
X81090Y25264D01*
X80960Y24606D01*
X81090Y23949D01*
X81463Y23392D01*
X82020Y23020D01*
X82677Y22889D01*
X83334Y23020D01*
X83892Y23392D01*
X84264Y23949D01*
X84395Y24606D01*
X84264Y25264D01*
X84003Y25655D01*
Y55054D01*
X84264Y55445D01*
X84395Y56102D01*
X84264Y56760D01*
X83892Y57317D01*
X83508Y57573D01*
X83378Y58151D01*
X83831Y58604D01*
X84184Y59133D01*
X84308Y59757D01*
Y83661D01*
X84184Y84286D01*
X83831Y84815D01*
X78231Y90414D01*
X77986Y90781D01*
X77429Y91154D01*
X76772Y91284D01*
X76114Y91154D01*
X75557Y90781D01*
X75185Y90224D01*
X75054Y89567D01*
X75185Y88910D01*
X75557Y88353D01*
X75924Y88107D01*
X81046Y82986D01*
Y60433D01*
X77587Y56974D01*
X77381Y56667D01*
X76881Y56818D01*
Y76019D01*
X76780Y76526D01*
X76493Y76956D01*
X69239Y84210D01*
Y111656D01*
X71336Y113753D01*
X73316D01*
X73540Y113213D01*
X74133Y112440D01*
X74906Y111847D01*
X75806Y111474D01*
X76772Y111347D01*
X77737Y111474D01*
X78638Y111847D01*
X79410Y112440D01*
X80004Y113213D01*
X80376Y114113D01*
X80504Y115079D01*
X80376Y116045D01*
X80004Y116945D01*
X79410Y117718D01*
X78638Y118311D01*
X77737Y118684D01*
X76772Y118811D01*
D02*
G37*
G36*
X80472Y108779D02*
X73072D01*
Y101379D01*
X80472D01*
Y108779D01*
D02*
G37*
G36*
X381398Y113725D02*
X380064Y113594D01*
X378782Y113205D01*
X377600Y112573D01*
X376564Y111723D01*
X375714Y110687D01*
X375083Y109505D01*
X374694Y108223D01*
X374562Y106890D01*
X374694Y105556D01*
X375083Y104274D01*
X375714Y103092D01*
X376564Y102057D01*
X377600Y101206D01*
X378782Y100575D01*
X380064Y100186D01*
X381398Y100055D01*
X382731Y100186D01*
X384013Y100575D01*
X385195Y101206D01*
X386231Y102057D01*
X387081Y103092D01*
X387713Y104274D01*
X388102Y105556D01*
X388233Y106890D01*
X388102Y108223D01*
X387713Y109505D01*
X387081Y110687D01*
X386231Y111723D01*
X385195Y112573D01*
X384013Y113205D01*
X382731Y113594D01*
X381398Y113725D01*
D02*
G37*
G36*
X11024D02*
X9690Y113594D01*
X8408Y113205D01*
X7226Y112573D01*
X6190Y111723D01*
X5340Y110687D01*
X4709Y109505D01*
X4320Y108223D01*
X4188Y106890D01*
X4320Y105556D01*
X4709Y104274D01*
X5340Y103092D01*
X6190Y102057D01*
X7226Y101206D01*
X8408Y100575D01*
X9690Y100186D01*
X11024Y100055D01*
X12357Y100186D01*
X13639Y100575D01*
X14821Y101206D01*
X15857Y102057D01*
X16707Y103092D01*
X17339Y104274D01*
X17728Y105556D01*
X17859Y106890D01*
X17728Y108223D01*
X17339Y109505D01*
X16707Y110687D01*
X15857Y111723D01*
X14821Y112573D01*
X13639Y113205D01*
X12357Y113594D01*
X11024Y113725D01*
D02*
G37*
G36*
X34909Y77394D02*
Y73925D01*
X38378D01*
X38306Y74469D01*
X37903Y75442D01*
X37262Y76278D01*
X36427Y76919D01*
X35454Y77322D01*
X34909Y77394D01*
D02*
G37*
G36*
X33909Y77394D02*
X33365Y77322D01*
X32392Y76919D01*
X31557Y76278D01*
X30915Y75442D01*
X30512Y74469D01*
X30441Y73925D01*
X33909D01*
Y77394D01*
D02*
G37*
G36*
X28109Y77125D02*
X20709D01*
Y69725D01*
X28109D01*
Y77125D01*
D02*
G37*
G36*
X33909Y72925D02*
X30441D01*
X30512Y72381D01*
X30915Y71408D01*
X31557Y70572D01*
X32392Y69931D01*
X33365Y69528D01*
X33909Y69456D01*
Y72925D01*
D02*
G37*
G36*
X38378D02*
X34909D01*
Y69456D01*
X35454Y69528D01*
X36427Y69931D01*
X37262Y70572D01*
X37903Y71408D01*
X38306Y72381D01*
X38378Y72925D01*
D02*
G37*
G36*
X378487Y74873D02*
X370788D01*
Y67174D01*
X378487D01*
Y74873D01*
D02*
G37*
G36*
X375138Y65143D02*
Y61524D01*
X378757D01*
X378681Y62107D01*
X378262Y63116D01*
X377597Y63983D01*
X376730Y64648D01*
X375721Y65066D01*
X375138Y65143D01*
D02*
G37*
G36*
X374138Y65143D02*
X373554Y65066D01*
X372545Y64648D01*
X371678Y63983D01*
X371013Y63116D01*
X370595Y62107D01*
X370518Y61524D01*
X374138D01*
Y65143D01*
D02*
G37*
G36*
X34409Y67157D02*
X33444Y67030D01*
X32544Y66657D01*
X31771Y66064D01*
X31177Y65291D01*
X30805Y64391D01*
X30678Y63425D01*
X30805Y62459D01*
X31177Y61559D01*
X31771Y60786D01*
X32544Y60193D01*
X33444Y59820D01*
X34409Y59693D01*
X35375Y59820D01*
X36275Y60193D01*
X37048Y60786D01*
X37641Y61559D01*
X38014Y62459D01*
X38141Y63425D01*
X38014Y64391D01*
X37641Y65291D01*
X37048Y66064D01*
X36275Y66657D01*
X35375Y67030D01*
X34409Y67157D01*
D02*
G37*
G36*
X24409D02*
X23444Y67030D01*
X22544Y66657D01*
X21771Y66064D01*
X21178Y65291D01*
X20805Y64391D01*
X20677Y63425D01*
X20805Y62459D01*
X21178Y61559D01*
X21771Y60786D01*
X22544Y60193D01*
X23444Y59820D01*
X24409Y59693D01*
X25375Y59820D01*
X26275Y60193D01*
X27048Y60786D01*
X27641Y61559D01*
X28014Y62459D01*
X28141Y63425D01*
X28014Y64391D01*
X27641Y65291D01*
X27048Y66064D01*
X26275Y66657D01*
X25375Y67030D01*
X24409Y67157D01*
D02*
G37*
G36*
X374138Y60524D02*
X370518D01*
X370595Y59940D01*
X371013Y58931D01*
X371678Y58064D01*
X372545Y57399D01*
X373554Y56981D01*
X374138Y56904D01*
Y60524D01*
D02*
G37*
G36*
X378757D02*
X375138D01*
Y56904D01*
X375721Y56981D01*
X376730Y57399D01*
X377597Y58064D01*
X378262Y58931D01*
X378681Y59940D01*
X378757Y60524D01*
D02*
G37*
G36*
X34409Y57157D02*
X33444Y57030D01*
X32544Y56657D01*
X31771Y56064D01*
X31177Y55291D01*
X30805Y54391D01*
X30678Y53425D01*
X30805Y52459D01*
X31177Y51559D01*
X31771Y50786D01*
X32544Y50193D01*
X33444Y49820D01*
X34409Y49693D01*
X35375Y49820D01*
X36275Y50193D01*
X37048Y50786D01*
X37641Y51559D01*
X38014Y52459D01*
X38141Y53425D01*
X38014Y54391D01*
X37641Y55291D01*
X37048Y56064D01*
X36275Y56657D01*
X35375Y57030D01*
X34409Y57157D01*
D02*
G37*
G36*
X24409D02*
X23444Y57030D01*
X22544Y56657D01*
X21771Y56064D01*
X21178Y55291D01*
X20805Y54391D01*
X20677Y53425D01*
X20805Y52459D01*
X21178Y51559D01*
X21771Y50786D01*
X22544Y50193D01*
X23444Y49820D01*
X24409Y49693D01*
X25375Y49820D01*
X26275Y50193D01*
X27048Y50786D01*
X27641Y51559D01*
X28014Y52459D01*
X28141Y53425D01*
X28014Y54391D01*
X27641Y55291D01*
X27048Y56064D01*
X26275Y56657D01*
X25375Y57030D01*
X24409Y57157D01*
D02*
G37*
G36*
X374638Y54906D02*
X373633Y54774D01*
X372696Y54386D01*
X371892Y53769D01*
X371275Y52965D01*
X370887Y52029D01*
X370755Y51024D01*
X370887Y50019D01*
X371275Y49082D01*
X371892Y48278D01*
X372696Y47661D01*
X373633Y47273D01*
X374638Y47141D01*
X375643Y47273D01*
X376579Y47661D01*
X377383Y48278D01*
X378000Y49082D01*
X378388Y50019D01*
X378521Y51024D01*
X378388Y52029D01*
X378000Y52965D01*
X377383Y53769D01*
X376579Y54386D01*
X375643Y54774D01*
X374638Y54906D01*
D02*
G37*
G36*
X138779Y90300D02*
X138122Y90169D01*
X137565Y89797D01*
X137193Y89240D01*
X137062Y88583D01*
X137193Y87925D01*
X137565Y87368D01*
X138122Y86996D01*
X138779Y86865D01*
X139437Y86996D01*
X139994Y87368D01*
X140056Y87461D01*
X147173D01*
X189612Y45022D01*
X189366Y44562D01*
X188919Y44651D01*
X188809Y44629D01*
X165716Y67722D01*
X165352Y67965D01*
X164923Y68051D01*
X164923Y68051D01*
X154992D01*
X135554Y87489D01*
X135576Y87598D01*
X135445Y88256D01*
X135073Y88813D01*
X134516Y89185D01*
X133858Y89316D01*
X133201Y89185D01*
X132644Y88813D01*
X132272Y88256D01*
X132141Y87598D01*
X132272Y86941D01*
X132644Y86384D01*
X133201Y86012D01*
X133858Y85881D01*
X133968Y85903D01*
X153735Y66136D01*
X154098Y65893D01*
X154528Y65808D01*
X154528Y65808D01*
X164458D01*
X187223Y43043D01*
X187201Y42933D01*
X187332Y42276D01*
X187704Y41719D01*
X188261Y41346D01*
X188919Y41216D01*
X189576Y41346D01*
X190133Y41719D01*
X190506Y42276D01*
X190636Y42933D01*
X190547Y43380D01*
X191008Y43626D01*
X192307Y42327D01*
X192307Y42327D01*
X192671Y42084D01*
X193100Y41998D01*
X193100Y41998D01*
X232178D01*
X232240Y41906D01*
X232798Y41533D01*
X233455Y41403D01*
X234112Y41533D01*
X234669Y41906D01*
X235041Y42463D01*
X235172Y43120D01*
X235041Y43777D01*
X234669Y44335D01*
X234112Y44707D01*
X233455Y44838D01*
X232798Y44707D01*
X232240Y44335D01*
X232178Y44242D01*
X193565D01*
X148431Y89376D01*
X148067Y89619D01*
X147638Y89704D01*
X147638Y89704D01*
X140056D01*
X139994Y89797D01*
X139437Y90169D01*
X138779Y90300D01*
D02*
G37*
G36*
X34409Y47157D02*
X33444Y47030D01*
X32544Y46657D01*
X31771Y46064D01*
X31177Y45291D01*
X30805Y44391D01*
X30678Y43425D01*
X30805Y42459D01*
X31177Y41559D01*
X31771Y40786D01*
X32544Y40193D01*
X33444Y39820D01*
X34409Y39693D01*
X35375Y39820D01*
X36275Y40193D01*
X37048Y40786D01*
X37641Y41559D01*
X38014Y42459D01*
X38141Y43425D01*
X38014Y44391D01*
X37641Y45291D01*
X37048Y46064D01*
X36275Y46657D01*
X35375Y47030D01*
X34409Y47157D01*
D02*
G37*
G36*
X24409D02*
X23444Y47030D01*
X22544Y46657D01*
X21771Y46064D01*
X21178Y45291D01*
X20805Y44391D01*
X20677Y43425D01*
X20805Y42459D01*
X21178Y41559D01*
X21771Y40786D01*
X22544Y40193D01*
X23444Y39820D01*
X24409Y39693D01*
X25375Y39820D01*
X26275Y40193D01*
X27048Y40786D01*
X27641Y41559D01*
X28014Y42459D01*
X28141Y43425D01*
X28014Y44391D01*
X27641Y45291D01*
X27048Y46064D01*
X26275Y46657D01*
X25375Y47030D01*
X24409Y47157D01*
D02*
G37*
G36*
X128937Y89316D02*
X128280Y89185D01*
X127723Y88813D01*
X127350Y88256D01*
X127219Y87598D01*
X127350Y86941D01*
X127723Y86384D01*
X128280Y86012D01*
X128937Y85881D01*
X129047Y85903D01*
X151766Y63183D01*
X151766Y63183D01*
X152130Y62940D01*
X152559Y62855D01*
X162411D01*
X187223Y38043D01*
X187201Y37933D01*
X187332Y37276D01*
X187704Y36719D01*
X188261Y36346D01*
X188919Y36216D01*
X189576Y36346D01*
X190133Y36719D01*
X190506Y37276D01*
X190636Y37933D01*
X190506Y38590D01*
X190133Y39147D01*
X189576Y39520D01*
X188919Y39651D01*
X188809Y39629D01*
X163669Y64769D01*
X163305Y65013D01*
X162875Y65098D01*
X162875Y65098D01*
X153024D01*
X130633Y87489D01*
X130655Y87598D01*
X130524Y88256D01*
X130151Y88813D01*
X129594Y89185D01*
X128937Y89316D01*
D02*
G37*
G36*
X34409Y37157D02*
X33444Y37030D01*
X32544Y36657D01*
X31771Y36064D01*
X31177Y35291D01*
X30805Y34391D01*
X30678Y33425D01*
X30805Y32459D01*
X31177Y31559D01*
X31771Y30786D01*
X32544Y30193D01*
X33444Y29820D01*
X34409Y29693D01*
X35375Y29820D01*
X36275Y30193D01*
X37048Y30786D01*
X37641Y31559D01*
X38014Y32459D01*
X38141Y33425D01*
X38014Y34391D01*
X37641Y35291D01*
X37048Y36064D01*
X36275Y36657D01*
X35375Y37030D01*
X34409Y37157D01*
D02*
G37*
G36*
X24409D02*
X23444Y37030D01*
X22544Y36657D01*
X21771Y36064D01*
X21178Y35291D01*
X20805Y34391D01*
X20677Y33425D01*
X20805Y32459D01*
X21178Y31559D01*
X21771Y30786D01*
X22544Y30193D01*
X23444Y29820D01*
X24409Y29693D01*
X25375Y29820D01*
X26275Y30193D01*
X27048Y30786D01*
X27641Y31559D01*
X28014Y32459D01*
X28141Y33425D01*
X28014Y34391D01*
X27641Y35291D01*
X27048Y36064D01*
X26275Y36657D01*
X25375Y37030D01*
X24409Y37157D01*
D02*
G37*
G36*
X141732Y45025D02*
X141075Y44894D01*
X140518Y44522D01*
X140146Y43964D01*
X140015Y43307D01*
X140146Y42650D01*
X140518Y42093D01*
X141075Y41720D01*
X141732Y41590D01*
X142165Y41676D01*
X161726D01*
X174721Y28680D01*
X174967Y28313D01*
X175524Y27941D01*
X176181Y27810D01*
X176838Y27941D01*
X177396Y28313D01*
X177768Y28870D01*
X177899Y29528D01*
X177768Y30185D01*
X177396Y30742D01*
X177028Y30987D01*
X163555Y44461D01*
X163026Y44814D01*
X162402Y44938D01*
X142165D01*
X141732Y45025D01*
D02*
G37*
G36*
X229331Y86363D02*
X228674Y86232D01*
X228116Y85860D01*
X227744Y85303D01*
X227613Y84646D01*
X227744Y83988D01*
X228116Y83431D01*
X228674Y83059D01*
X229135Y82967D01*
X237848Y74254D01*
Y25655D01*
X237586Y25264D01*
X237456Y24606D01*
X237586Y23949D01*
X237959Y23392D01*
X238516Y23020D01*
X239173Y22889D01*
X239830Y23020D01*
X240388Y23392D01*
X240760Y23949D01*
X240891Y24606D01*
X240760Y25264D01*
X240499Y25655D01*
Y74803D01*
X240499Y74803D01*
X240398Y75310D01*
X240110Y75740D01*
X231009Y84842D01*
X230918Y85303D01*
X230545Y85860D01*
X229988Y86232D01*
X229331Y86363D01*
D02*
G37*
G36*
X34409Y27157D02*
X33444Y27030D01*
X32544Y26657D01*
X31771Y26064D01*
X31177Y25291D01*
X30805Y24391D01*
X30678Y23425D01*
X30805Y22459D01*
X31177Y21559D01*
X31771Y20786D01*
X32544Y20193D01*
X33444Y19820D01*
X34409Y19693D01*
X35375Y19820D01*
X36275Y20193D01*
X37048Y20786D01*
X37641Y21559D01*
X38014Y22459D01*
X38141Y23425D01*
X38014Y24391D01*
X37641Y25291D01*
X37048Y26064D01*
X36275Y26657D01*
X35375Y27030D01*
X34409Y27157D01*
D02*
G37*
G36*
X24409D02*
X23444Y27030D01*
X22544Y26657D01*
X21771Y26064D01*
X21178Y25291D01*
X20805Y24391D01*
X20677Y23425D01*
X20805Y22459D01*
X21178Y21559D01*
X21771Y20786D01*
X22544Y20193D01*
X23444Y19820D01*
X24409Y19693D01*
X25375Y19820D01*
X26275Y20193D01*
X27048Y20786D01*
X27641Y21559D01*
X28014Y22459D01*
X28141Y23425D01*
X28014Y24391D01*
X27641Y25291D01*
X27048Y26064D01*
X26275Y26657D01*
X25375Y27030D01*
X24409Y27157D01*
D02*
G37*
G36*
X76772Y128811D02*
X75806Y128683D01*
X74906Y128311D01*
X74133Y127718D01*
X73540Y126945D01*
X73167Y126045D01*
X73040Y125079D01*
X73167Y124113D01*
X73540Y123213D01*
X74133Y122440D01*
X74906Y121847D01*
X75806Y121474D01*
X76772Y121347D01*
X77737Y121474D01*
X78638Y121847D01*
X79410Y122440D01*
X80004Y123213D01*
X80312Y123957D01*
X81150D01*
X86477Y118630D01*
Y17025D01*
X86384Y16962D01*
X86012Y16405D01*
X85881Y15748D01*
X86012Y15091D01*
X86384Y14534D01*
X86941Y14161D01*
X87598Y14030D01*
X88256Y14161D01*
X88813Y14534D01*
X89185Y15091D01*
X89316Y15748D01*
X89185Y16405D01*
X88813Y16962D01*
X88720Y17025D01*
Y119094D01*
X88720Y119095D01*
X88635Y119524D01*
X88392Y119887D01*
X88392Y119888D01*
X82407Y125872D01*
X82043Y126115D01*
X81614Y126200D01*
X81614Y126200D01*
X80312D01*
X80004Y126945D01*
X79410Y127718D01*
X78638Y128311D01*
X77737Y128683D01*
X76772Y128811D01*
D02*
G37*
G36*
X377865Y11881D02*
X370166D01*
Y4182D01*
X377865D01*
Y11881D01*
D02*
G37*
G36*
X119095Y78489D02*
X118437Y78358D01*
X117880Y77986D01*
X117508Y77429D01*
X117377Y76772D01*
X117508Y76114D01*
X117880Y75557D01*
X118437Y75185D01*
X119095Y75054D01*
X119752Y75185D01*
X120309Y75557D01*
X120371Y75650D01*
X129123D01*
X144542Y60231D01*
X144542Y60231D01*
X144906Y59987D01*
X145335Y59902D01*
X145335Y59902D01*
X158984D01*
X215929Y2957D01*
X216293Y2714D01*
X216722Y2628D01*
X216722Y2629D01*
X231804D01*
X231866Y2536D01*
X232423Y2163D01*
X233081Y2032D01*
X233738Y2163D01*
X234295Y2536D01*
X234667Y3093D01*
X234798Y3750D01*
X234667Y4407D01*
X234295Y4964D01*
X233738Y5337D01*
X233081Y5468D01*
X232423Y5337D01*
X231866Y4964D01*
X231804Y4871D01*
X217187D01*
X160242Y61817D01*
X159878Y62060D01*
X159449Y62145D01*
X159449Y62145D01*
X145800D01*
X130380Y77565D01*
X130017Y77808D01*
X129587Y77893D01*
X129587Y77893D01*
X120371D01*
X120309Y77986D01*
X119752Y78358D01*
X119095Y78489D01*
D02*
G37*
G36*
X374516Y2151D02*
Y-1469D01*
X378135D01*
X378059Y-885D01*
X377640Y124D01*
X376975Y991D01*
X376109Y1656D01*
X375099Y2074D01*
X374516Y2151D01*
D02*
G37*
G36*
X373516Y2151D02*
X372933Y2074D01*
X371923Y1656D01*
X371056Y991D01*
X370391Y124D01*
X369973Y-885D01*
X369896Y-1469D01*
X373516D01*
Y2151D01*
D02*
G37*
G36*
Y-2469D02*
X369896D01*
X369973Y-3052D01*
X370391Y-4061D01*
X371056Y-4928D01*
X371923Y-5593D01*
X372933Y-6011D01*
X373516Y-6088D01*
Y-2469D01*
D02*
G37*
G36*
X378135D02*
X374516D01*
Y-6088D01*
X375099Y-6011D01*
X376109Y-5593D01*
X376975Y-4928D01*
X377640Y-4061D01*
X378059Y-3052D01*
X378135Y-2469D01*
D02*
G37*
G36*
X350894Y-8089D02*
Y-11311D01*
X354116D01*
X354053Y-10830D01*
X353675Y-9917D01*
X353072Y-9132D01*
X352288Y-8530D01*
X351374Y-8152D01*
X350894Y-8089D01*
D02*
G37*
G36*
X349894Y-8089D02*
X349413Y-8152D01*
X348499Y-8530D01*
X347715Y-9132D01*
X347113Y-9917D01*
X346734Y-10830D01*
X346671Y-11311D01*
X349894D01*
Y-8089D01*
D02*
G37*
G36*
X354116Y-12311D02*
X350894D01*
Y-15533D01*
X351374Y-15470D01*
X352288Y-15092D01*
X353072Y-14490D01*
X353675Y-13705D01*
X354053Y-12791D01*
X354116Y-12311D01*
D02*
G37*
G36*
X349894D02*
X346671D01*
X346734Y-12791D01*
X347113Y-13705D01*
X347715Y-14490D01*
X348499Y-15092D01*
X349413Y-15470D01*
X349894Y-15533D01*
Y-12311D01*
D02*
G37*
G36*
X374016Y-8086D02*
X373011Y-8218D01*
X372074Y-8606D01*
X371270Y-9223D01*
X370653Y-10027D01*
X370265Y-10964D01*
X370133Y-11969D01*
X370265Y-12973D01*
X370653Y-13910D01*
X371270Y-14714D01*
X372074Y-15331D01*
X373011Y-15719D01*
X374016Y-15851D01*
X375021Y-15719D01*
X375957Y-15331D01*
X376761Y-14714D01*
X377378Y-13910D01*
X377766Y-12973D01*
X377899Y-11969D01*
X377766Y-10964D01*
X377378Y-10027D01*
X376761Y-9223D01*
X375957Y-8606D01*
X375021Y-8218D01*
X374016Y-8086D01*
D02*
G37*
G36*
X320866Y66678D02*
X320209Y66547D01*
X319652Y66175D01*
X319279Y65618D01*
X319149Y64961D01*
X319235Y64527D01*
Y-14088D01*
X319035Y-14288D01*
X318667Y-14534D01*
X318295Y-15091D01*
X318164Y-15748D01*
X318295Y-16405D01*
X318667Y-16962D01*
X319225Y-17335D01*
X319882Y-17466D01*
X320539Y-17335D01*
X321096Y-16962D01*
X321342Y-16595D01*
X322020Y-15917D01*
X322373Y-15388D01*
X322498Y-14764D01*
Y64527D01*
X322584Y64961D01*
X322453Y65618D01*
X322081Y66175D01*
X321523Y66547D01*
X320866Y66678D01*
D02*
G37*
G36*
X353850Y-16229D02*
X346938D01*
Y-23141D01*
X353850D01*
Y-16229D01*
D02*
G37*
G36*
X23385Y-16185D02*
X15985D01*
Y-23185D01*
X23385D01*
Y-16185D01*
D02*
G37*
G36*
X290059Y41088D02*
X289402Y40957D01*
X288845Y40585D01*
X288472Y40027D01*
X288342Y39370D01*
X288428Y38937D01*
Y-27179D01*
X285762Y-29844D01*
X285433Y-29779D01*
X284776Y-29909D01*
X284219Y-30282D01*
X283846Y-30839D01*
X283716Y-31496D01*
X283846Y-32153D01*
X284219Y-32710D01*
X284776Y-33083D01*
X285433Y-33214D01*
X285866Y-33127D01*
X286417D01*
X287042Y-33003D01*
X287571Y-32650D01*
X291213Y-29008D01*
X291566Y-28479D01*
X291690Y-27854D01*
Y38937D01*
X291777Y39370D01*
X291646Y40027D01*
X291273Y40585D01*
X290716Y40957D01*
X290059Y41088D01*
D02*
G37*
G36*
X19885Y-24029D02*
X19485D01*
X18571Y-24149D01*
X17720Y-24502D01*
X16989Y-25063D01*
X16428Y-25794D01*
X16075Y-26645D01*
X15955Y-27559D01*
X16075Y-28473D01*
X16428Y-29324D01*
X16989Y-30055D01*
X17720Y-30616D01*
X18571Y-30969D01*
X19485Y-31089D01*
X19885D01*
X20799Y-30969D01*
X21650Y-30616D01*
X22381Y-30055D01*
X22942Y-29324D01*
X23295Y-28473D01*
X23415Y-27559D01*
X23295Y-26645D01*
X22942Y-25794D01*
X22381Y-25063D01*
X21650Y-24502D01*
X20799Y-24149D01*
X19885Y-24029D01*
D02*
G37*
G36*
X108003Y-13485D02*
X107345Y-13616D01*
X106788Y-13988D01*
X106416Y-14546D01*
X106285Y-15203D01*
X106416Y-15860D01*
X106788Y-16417D01*
X107345Y-16790D01*
X108003Y-16920D01*
X108660Y-16790D01*
X109217Y-16417D01*
X109279Y-16325D01*
X114148D01*
X129128Y-31305D01*
X129492Y-31548D01*
X129921Y-31633D01*
X129921Y-31633D01*
X203603D01*
X203772Y-32133D01*
X203424Y-32401D01*
X202831Y-33173D01*
X202523Y-33918D01*
X129008D01*
X114981Y-19891D01*
X115023Y-19685D01*
X114892Y-19028D01*
X114519Y-18471D01*
X113962Y-18098D01*
X113305Y-17967D01*
X112648Y-18098D01*
X112091Y-18471D01*
X111718Y-19028D01*
X111588Y-19685D01*
X111718Y-20342D01*
X112091Y-20899D01*
X112648Y-21272D01*
X113305Y-21403D01*
X113318Y-21400D01*
X127750Y-35832D01*
X127750Y-35832D01*
X128114Y-36075D01*
X128543Y-36161D01*
X128543Y-36161D01*
X202523D01*
X202831Y-36905D01*
X203424Y-37678D01*
X204197Y-38271D01*
X205097Y-38644D01*
X206063Y-38771D01*
X207029Y-38644D01*
X207929Y-38271D01*
X208702Y-37678D01*
X209295Y-36905D01*
X209668Y-36005D01*
X209795Y-35039D01*
X209668Y-34073D01*
X209295Y-33173D01*
X208702Y-32401D01*
X208354Y-32133D01*
X208524Y-31633D01*
X211071D01*
X212767Y-33329D01*
X212458Y-34073D01*
X212331Y-35039D01*
X212458Y-36005D01*
X212831Y-36905D01*
X213424Y-37678D01*
X214197Y-38271D01*
X215097Y-38644D01*
X216063Y-38771D01*
X217029Y-38644D01*
X217929Y-38271D01*
X218702Y-37678D01*
X219295Y-36905D01*
X219668Y-36005D01*
X219795Y-35039D01*
X219668Y-34073D01*
X219295Y-33173D01*
X218702Y-32401D01*
X217929Y-31807D01*
X217029Y-31435D01*
X216063Y-31307D01*
X215097Y-31435D01*
X214353Y-31743D01*
X212329Y-29719D01*
X211965Y-29476D01*
X211535Y-29390D01*
X211535Y-29390D01*
X130386D01*
X115405Y-14410D01*
X115042Y-14167D01*
X114612Y-14081D01*
X114612Y-14081D01*
X109279D01*
X109217Y-13988D01*
X108660Y-13616D01*
X108003Y-13485D01*
D02*
G37*
G36*
X250063Y-31039D02*
X246563D01*
Y-34539D01*
X250063D01*
Y-31039D01*
D02*
G37*
G36*
X137795Y1718D02*
X137138Y1587D01*
X136581Y1214D01*
X136208Y657D01*
X136078Y0D01*
X136208Y-657D01*
X136581Y-1214D01*
X136674Y-1276D01*
Y-20669D01*
X136674Y-20669D01*
X136759Y-21099D01*
X137002Y-21462D01*
X139955Y-24415D01*
X139955Y-24415D01*
X140319Y-24658D01*
X140748Y-24744D01*
X140748Y-24744D01*
X224181D01*
X232767Y-33329D01*
X232458Y-34073D01*
X232331Y-35039D01*
X232458Y-36005D01*
X232831Y-36905D01*
X233424Y-37678D01*
X234197Y-38271D01*
X235097Y-38644D01*
X236063Y-38771D01*
X237029Y-38644D01*
X237929Y-38271D01*
X238702Y-37678D01*
X239295Y-36905D01*
X239520Y-36362D01*
X240020Y-36461D01*
Y-39496D01*
X237773Y-41743D01*
X237029Y-41435D01*
X236063Y-41307D01*
X235097Y-41435D01*
X234197Y-41807D01*
X233424Y-42401D01*
X232831Y-43173D01*
X232458Y-44074D01*
X232331Y-45039D01*
X232458Y-46005D01*
X232831Y-46905D01*
X233424Y-47678D01*
X234197Y-48271D01*
X235097Y-48644D01*
X236063Y-48771D01*
X237029Y-48644D01*
X237929Y-48271D01*
X238702Y-47678D01*
X239295Y-46905D01*
X239668Y-46005D01*
X239795Y-45039D01*
X239668Y-44074D01*
X239359Y-43329D01*
X241935Y-40754D01*
X241935Y-40754D01*
X242178Y-40390D01*
X242263Y-39961D01*
X242263Y-39961D01*
Y-39039D01*
X245563D01*
Y-35039D01*
Y-31039D01*
X242160D01*
X241935Y-30703D01*
X241935Y-30703D01*
X232500Y-21269D01*
X232692Y-20807D01*
X242646D01*
X250847Y-29008D01*
Y-38584D01*
X250524Y-38841D01*
X250256Y-38747D01*
X250063Y-38639D01*
Y-35539D01*
X246563D01*
Y-39039D01*
X249685Y-39039D01*
X249703D01*
D01*
X249770Y-39039D01*
X249817Y-39153D01*
X249977Y-39539D01*
X247773Y-41743D01*
X247029Y-41435D01*
X246063Y-41307D01*
X245097Y-41435D01*
X244197Y-41807D01*
X243424Y-42401D01*
X242831Y-43173D01*
X242458Y-44074D01*
X242331Y-45039D01*
X242458Y-46005D01*
X242831Y-46905D01*
X243424Y-47678D01*
X244197Y-48271D01*
X245097Y-48644D01*
X246063Y-48771D01*
X247029Y-48644D01*
X247929Y-48271D01*
X248702Y-47678D01*
X249295Y-46905D01*
X249668Y-46005D01*
X249795Y-45039D01*
X249668Y-44074D01*
X249359Y-43329D01*
X252762Y-39927D01*
X253005Y-39563D01*
X253090Y-39134D01*
X253090Y-39134D01*
Y-28543D01*
X253090Y-28543D01*
X253005Y-28114D01*
X252762Y-27750D01*
X252762Y-27750D01*
X243903Y-18892D01*
X243539Y-18649D01*
X243110Y-18564D01*
X243110Y-18564D01*
X152039D01*
X144822Y-11347D01*
Y-9151D01*
X144915Y-9088D01*
X145288Y-8531D01*
X145418Y-7874D01*
X145288Y-7217D01*
X144915Y-6660D01*
X144358Y-6287D01*
X143701Y-6157D01*
X143043Y-6287D01*
X142486Y-6660D01*
X142370Y-6834D01*
X141870Y-6683D01*
Y-5214D01*
X141963Y-5152D01*
X142335Y-4594D01*
X142465Y-3937D01*
X142335Y-3280D01*
X141963Y-2723D01*
X141405Y-2350D01*
X140748Y-2220D01*
X140091Y-2350D01*
X139534Y-2723D01*
X139417Y-2897D01*
X138917Y-2746D01*
Y-1276D01*
X139010Y-1214D01*
X139382Y-657D01*
X139513Y0D01*
X139382Y657D01*
X139010Y1214D01*
X138452Y1587D01*
X137795Y1718D01*
D02*
G37*
G36*
X19885Y-31903D02*
X19485D01*
X18571Y-32023D01*
X17720Y-32376D01*
X16989Y-32937D01*
X16428Y-33668D01*
X16075Y-34519D01*
X15955Y-35433D01*
X16075Y-36347D01*
X16428Y-37198D01*
X16989Y-37929D01*
X17720Y-38490D01*
X18571Y-38843D01*
X19485Y-38963D01*
X19885D01*
X20799Y-38843D01*
X21650Y-38490D01*
X22381Y-37929D01*
X22942Y-37198D01*
X23295Y-36347D01*
X23415Y-35433D01*
X23295Y-34519D01*
X22942Y-33668D01*
X22381Y-32937D01*
X21650Y-32376D01*
X20799Y-32023D01*
X19885Y-31903D01*
D02*
G37*
G36*
X103347Y-27810D02*
X102689Y-27941D01*
X102132Y-28313D01*
X101760Y-28870D01*
X101629Y-29528D01*
X101760Y-30185D01*
X102132Y-30742D01*
X102689Y-31114D01*
X103347Y-31245D01*
X103456Y-31223D01*
X126175Y-53943D01*
X126175Y-53943D01*
X126539Y-54186D01*
X126969Y-54271D01*
X217953D01*
X217953Y-54271D01*
X218382Y-54186D01*
X218746Y-53943D01*
X224353Y-48336D01*
X225097Y-48644D01*
X226063Y-48771D01*
X227029Y-48644D01*
X227929Y-48271D01*
X228702Y-47678D01*
X229295Y-46905D01*
X229668Y-46005D01*
X229795Y-45039D01*
X229668Y-44074D01*
X229295Y-43173D01*
X228702Y-42401D01*
X227929Y-41807D01*
X227029Y-41435D01*
X226063Y-41307D01*
X225097Y-41435D01*
X224197Y-41807D01*
X223424Y-42401D01*
X222831Y-43173D01*
X222458Y-44074D01*
X222331Y-45039D01*
X222458Y-46005D01*
X222767Y-46750D01*
X217488Y-52028D01*
X127433D01*
X105042Y-29637D01*
X105064Y-29528D01*
X104933Y-28870D01*
X104561Y-28313D01*
X104004Y-27941D01*
X103347Y-27810D01*
D02*
G37*
G36*
X111221Y-22889D02*
X110563Y-23020D01*
X110006Y-23392D01*
X109634Y-23949D01*
X109503Y-24606D01*
X109634Y-25264D01*
X110006Y-25821D01*
X110563Y-26193D01*
X111221Y-26324D01*
X111330Y-26302D01*
X130860Y-45832D01*
X130860Y-45832D01*
X131224Y-46075D01*
X131653Y-46161D01*
X202523D01*
X202831Y-46905D01*
X203424Y-47678D01*
X204197Y-48271D01*
X204931Y-48575D01*
X204831Y-49075D01*
X130386D01*
X109243Y-27932D01*
X109317Y-27559D01*
X109186Y-26902D01*
X108814Y-26345D01*
X108257Y-25972D01*
X107599Y-25842D01*
X106942Y-25972D01*
X106385Y-26345D01*
X106013Y-26902D01*
X105882Y-27559D01*
X106013Y-28216D01*
X106385Y-28773D01*
X106942Y-29146D01*
X107369Y-29231D01*
X129128Y-50990D01*
X129128Y-50990D01*
X129492Y-51233D01*
X129921Y-51318D01*
X129921Y-51318D01*
X210906D01*
X210906Y-51318D01*
X211335Y-51233D01*
X211699Y-50990D01*
X214353Y-48336D01*
X215097Y-48644D01*
X216063Y-48771D01*
X217029Y-48644D01*
X217929Y-48271D01*
X218702Y-47678D01*
X219295Y-46905D01*
X219668Y-46005D01*
X219795Y-45039D01*
X219668Y-44074D01*
X219295Y-43173D01*
X218702Y-42401D01*
X217929Y-41807D01*
X217029Y-41435D01*
X216063Y-41307D01*
X215097Y-41435D01*
X214197Y-41807D01*
X213424Y-42401D01*
X212831Y-43173D01*
X212458Y-44074D01*
X212331Y-45039D01*
X212458Y-46005D01*
X212767Y-46750D01*
X210441Y-49075D01*
X207295D01*
X207195Y-48575D01*
X207929Y-48271D01*
X208702Y-47678D01*
X209295Y-46905D01*
X209668Y-46005D01*
X209795Y-45039D01*
X209668Y-44074D01*
X209295Y-43173D01*
X208702Y-42401D01*
X207929Y-41807D01*
X207029Y-41435D01*
X206063Y-41307D01*
X205097Y-41435D01*
X204197Y-41807D01*
X203424Y-42401D01*
X202831Y-43173D01*
X202523Y-43918D01*
X132118D01*
X112916Y-24716D01*
X112938Y-24606D01*
X112807Y-23949D01*
X112435Y-23392D01*
X111878Y-23020D01*
X111221Y-22889D01*
D02*
G37*
G36*
X19185Y-47388D02*
X18493Y-47479D01*
X17569Y-47862D01*
X16775Y-48471D01*
X16166Y-49265D01*
X15783Y-50189D01*
X15718Y-50681D01*
X19185D01*
Y-47388D01*
D02*
G37*
G36*
X23652Y-51681D02*
X20185D01*
Y-54974D01*
X20877Y-54883D01*
X21801Y-54500D01*
X22595Y-53891D01*
X23204Y-53097D01*
X23587Y-52173D01*
X23652Y-51681D01*
D02*
G37*
G36*
X19185D02*
X15718D01*
X15783Y-52173D01*
X16166Y-53097D01*
X16775Y-53891D01*
X17569Y-54500D01*
X18493Y-54883D01*
X19185Y-54974D01*
Y-51681D01*
D02*
G37*
G36*
X19885Y-55525D02*
X19485D01*
X18571Y-55645D01*
X17720Y-55998D01*
X16989Y-56559D01*
X16428Y-57290D01*
X16075Y-58141D01*
X15955Y-59055D01*
X16075Y-59969D01*
X16428Y-60820D01*
X16989Y-61551D01*
X17720Y-62112D01*
X18571Y-62465D01*
X19485Y-62585D01*
X19885D01*
X20799Y-62465D01*
X21650Y-62112D01*
X22381Y-61551D01*
X22942Y-60820D01*
X23295Y-59969D01*
X23415Y-59055D01*
X23295Y-58141D01*
X22942Y-57290D01*
X22381Y-56559D01*
X21650Y-55998D01*
X20799Y-55645D01*
X19885Y-55525D01*
D02*
G37*
G36*
X376000Y-61087D02*
X370579D01*
Y-66508D01*
X376000D01*
Y-61087D01*
D02*
G37*
G36*
X369579D02*
X364158D01*
Y-66508D01*
X369579D01*
Y-61087D01*
D02*
G37*
G36*
X19885Y-63399D02*
X19485D01*
X18571Y-63519D01*
X17720Y-63872D01*
X16989Y-64433D01*
X16428Y-65164D01*
X16075Y-66015D01*
X15955Y-66929D01*
X16075Y-67843D01*
X16428Y-68694D01*
X16989Y-69425D01*
X17720Y-69986D01*
X18571Y-70339D01*
X19485Y-70459D01*
X19885D01*
X20799Y-70339D01*
X21650Y-69986D01*
X22381Y-69425D01*
X22942Y-68694D01*
X23295Y-67843D01*
X23415Y-66929D01*
X23295Y-66015D01*
X22942Y-65164D01*
X22381Y-64433D01*
X21650Y-63872D01*
X20799Y-63519D01*
X19885Y-63399D01*
D02*
G37*
G36*
X129440Y-65442D02*
X122528D01*
Y-72354D01*
X129440D01*
Y-65442D01*
D02*
G37*
G36*
X243595Y-76953D02*
X240339D01*
Y-80209D01*
X243595D01*
Y-76953D01*
D02*
G37*
G36*
X220472Y-73040D02*
X219507Y-73167D01*
X218606Y-73540D01*
X217834Y-74133D01*
X217241Y-74906D01*
X216868Y-75806D01*
X216740Y-76772D01*
X216792Y-77161D01*
X209476Y-84476D01*
X209123Y-85006D01*
X208999Y-85630D01*
Y-109561D01*
X197665Y-120894D01*
X197312Y-121423D01*
X197188Y-122047D01*
Y-133183D01*
X190269Y-140101D01*
X136503D01*
X129305Y-132903D01*
X129351Y-132792D01*
X129470Y-131890D01*
X129351Y-130988D01*
X129003Y-130147D01*
X128449Y-129425D01*
X127727Y-128871D01*
X126886Y-128523D01*
X125984Y-128404D01*
X125082Y-128523D01*
X124241Y-128871D01*
X123520Y-129425D01*
X122966Y-130147D01*
X122617Y-130988D01*
X122499Y-131890D01*
X122617Y-132792D01*
X122966Y-133633D01*
X123520Y-134354D01*
X124241Y-134908D01*
X125082Y-135257D01*
X125984Y-135375D01*
X126886Y-135257D01*
X126998Y-135211D01*
X134673Y-142886D01*
X135203Y-143239D01*
X135827Y-143364D01*
X135827Y-143364D01*
X190945D01*
X191569Y-143239D01*
X192098Y-142886D01*
X199972Y-135012D01*
X200326Y-134483D01*
X200450Y-133858D01*
Y-122723D01*
X211784Y-111390D01*
X212137Y-110861D01*
X212261Y-110236D01*
Y-86306D01*
X218582Y-79985D01*
X218606Y-80004D01*
X219507Y-80376D01*
X220472Y-80504D01*
X221438Y-80376D01*
X222338Y-80004D01*
X223111Y-79410D01*
X223704Y-78638D01*
X224077Y-77737D01*
X224204Y-76772D01*
X224077Y-75806D01*
X223704Y-74906D01*
X223111Y-74133D01*
X222338Y-73540D01*
X221438Y-73167D01*
X220472Y-73040D01*
D02*
G37*
G36*
X247850Y-81209D02*
X244595D01*
Y-84465D01*
X247850D01*
Y-81209D01*
D02*
G37*
G36*
X243595D02*
X240339D01*
Y-84465D01*
X243595D01*
Y-81209D01*
D02*
G37*
G36*
X220972Y-82645D02*
Y-86114D01*
X224441D01*
X224370Y-85570D01*
X223966Y-84597D01*
X223325Y-83761D01*
X222490Y-83120D01*
X221517Y-82717D01*
X220972Y-82645D01*
D02*
G37*
G36*
X219972Y-82645D02*
X219428Y-82717D01*
X218455Y-83120D01*
X217620Y-83761D01*
X216978Y-84597D01*
X216575Y-85570D01*
X216504Y-86114D01*
X219972D01*
Y-82645D01*
D02*
G37*
G36*
X126484Y-84860D02*
Y-88083D01*
X129707D01*
X129643Y-87602D01*
X129265Y-86689D01*
X128663Y-85904D01*
X127878Y-85302D01*
X126965Y-84923D01*
X126484Y-84860D01*
D02*
G37*
G36*
X125484Y-84860D02*
X125004Y-84923D01*
X124090Y-85302D01*
X123305Y-85904D01*
X122704Y-86689D01*
X122325Y-87602D01*
X122262Y-88083D01*
X125484D01*
Y-84860D01*
D02*
G37*
G36*
X219972Y-87114D02*
X216504D01*
X216575Y-87658D01*
X216978Y-88631D01*
X217620Y-89467D01*
X218455Y-90108D01*
X219428Y-90511D01*
X219972Y-90583D01*
Y-87114D01*
D02*
G37*
G36*
X224441D02*
X220972D01*
Y-90583D01*
X221517Y-90511D01*
X222490Y-90108D01*
X223325Y-89467D01*
X223966Y-88631D01*
X224370Y-87658D01*
X224441Y-87114D01*
D02*
G37*
G36*
X129707Y-89083D02*
X126484D01*
Y-92305D01*
X126965Y-92242D01*
X127878Y-91864D01*
X128663Y-91261D01*
X129265Y-90477D01*
X129643Y-89563D01*
X129707Y-89083D01*
D02*
G37*
G36*
X125484D02*
X122262D01*
X122325Y-89563D01*
X122704Y-90477D01*
X123305Y-91261D01*
X124090Y-91864D01*
X125004Y-92242D01*
X125484Y-92305D01*
Y-89083D01*
D02*
G37*
G36*
X129740Y-108449D02*
X126484D01*
Y-111705D01*
X129740D01*
Y-108449D01*
D02*
G37*
G36*
X125484D02*
X122228D01*
Y-111705D01*
X125484D01*
Y-108449D01*
D02*
G37*
G36*
X129740Y-112705D02*
X126484D01*
Y-115961D01*
X129740D01*
Y-112705D01*
D02*
G37*
G36*
X125484D02*
X122228D01*
Y-115961D01*
X125484D01*
Y-112705D01*
D02*
G37*
G36*
X59055Y-117361D02*
X58543Y-117463D01*
X43307D01*
X42683Y-117587D01*
X42153Y-117941D01*
X38217Y-121878D01*
X37863Y-122407D01*
X37739Y-123031D01*
Y-134483D01*
X37605Y-134538D01*
X36874Y-135099D01*
X36313Y-135830D01*
X35960Y-136682D01*
X35840Y-137595D01*
Y-137995D01*
X35960Y-138909D01*
X36313Y-139760D01*
X36874Y-140491D01*
X37605Y-141052D01*
X38456Y-141405D01*
X39370Y-141525D01*
X40284Y-141405D01*
X41135Y-141052D01*
X41866Y-140491D01*
X42427Y-139760D01*
X42780Y-138909D01*
X42900Y-137995D01*
Y-137595D01*
X42780Y-136682D01*
X42427Y-135830D01*
X41866Y-135099D01*
X41135Y-134538D01*
X41001Y-134483D01*
Y-123707D01*
X43983Y-120726D01*
X58543D01*
X59055Y-120828D01*
X59718Y-120696D01*
X60281Y-120320D01*
X60656Y-119758D01*
X60788Y-119095D01*
X60656Y-118431D01*
X60281Y-117869D01*
X59718Y-117493D01*
X59055Y-117361D01*
D02*
G37*
G36*
X287631Y-117322D02*
Y-121547D01*
X291856D01*
X291758Y-120807D01*
X291280Y-119652D01*
X290518Y-118659D01*
X289526Y-117898D01*
X288371Y-117420D01*
X287631Y-117322D01*
D02*
G37*
G36*
X275590Y-95978D02*
X220472D01*
X219536Y-96164D01*
X218742Y-96695D01*
X218212Y-97489D01*
X218025Y-98425D01*
Y-122409D01*
X217525Y-122558D01*
X216884Y-121777D01*
X215983Y-121037D01*
X214954Y-120487D01*
X213838Y-120149D01*
X213177Y-120084D01*
Y-125984D01*
Y-131885D01*
X213838Y-131820D01*
X214954Y-131481D01*
X215983Y-130931D01*
X216884Y-130192D01*
X217525Y-129410D01*
X218025Y-129559D01*
Y-142717D01*
X218212Y-143653D01*
X218742Y-144447D01*
X219536Y-144977D01*
X220472Y-145164D01*
X275590D01*
X276527Y-144977D01*
X277321Y-144447D01*
X282242Y-139526D01*
X282773Y-138732D01*
X282959Y-137795D01*
Y-125234D01*
X283459Y-125065D01*
X283743Y-125435D01*
X284735Y-126196D01*
X285891Y-126675D01*
X286631Y-126772D01*
Y-122047D01*
Y-117322D01*
X285891Y-117420D01*
X284735Y-117898D01*
X283743Y-118659D01*
X283459Y-119030D01*
X282959Y-118860D01*
Y-103347D01*
X282773Y-102410D01*
X282242Y-101616D01*
X277321Y-96695D01*
X276527Y-96164D01*
X276372Y-96134D01*
X275590Y-95978D01*
D02*
G37*
G36*
X212177Y-120084D02*
X211516Y-120149D01*
X210400Y-120487D01*
X209372Y-121037D01*
X208470Y-121777D01*
X207730Y-122679D01*
X207180Y-123707D01*
X206842Y-124823D01*
X206776Y-125484D01*
X212177D01*
Y-120084D01*
D02*
G37*
G36*
X291856Y-122547D02*
X287631D01*
Y-126772D01*
X288371Y-126675D01*
X289526Y-126196D01*
X290518Y-125435D01*
X291280Y-124443D01*
X291758Y-123287D01*
X291856Y-122547D01*
D02*
G37*
G36*
X381102Y-115015D02*
X379769Y-115147D01*
X378487Y-115535D01*
X377305Y-116167D01*
X376269Y-117017D01*
X375419Y-118053D01*
X374787Y-119235D01*
X374398Y-120517D01*
X374267Y-121850D01*
X374398Y-123184D01*
X374787Y-124466D01*
X375419Y-125648D01*
X376269Y-126684D01*
X377305Y-127534D01*
X378487Y-128165D01*
X379769Y-128554D01*
X381102Y-128686D01*
X382436Y-128554D01*
X383718Y-128165D01*
X384900Y-127534D01*
X385936Y-126684D01*
X386786Y-125648D01*
X387417Y-124466D01*
X387806Y-123184D01*
X387938Y-121850D01*
X387806Y-120517D01*
X387417Y-119235D01*
X386786Y-118053D01*
X385936Y-117017D01*
X384900Y-116167D01*
X383718Y-115535D01*
X382436Y-115147D01*
X381102Y-115015D01*
D02*
G37*
G36*
X11024D02*
X9690Y-115147D01*
X8408Y-115535D01*
X7226Y-116167D01*
X6190Y-117017D01*
X5340Y-118053D01*
X4709Y-119235D01*
X4320Y-120517D01*
X4188Y-121850D01*
X4320Y-123184D01*
X4709Y-124466D01*
X5340Y-125648D01*
X6190Y-126684D01*
X7226Y-127534D01*
X8408Y-128165D01*
X9690Y-128554D01*
X11024Y-128686D01*
X12357Y-128554D01*
X13639Y-128165D01*
X14821Y-127534D01*
X15857Y-126684D01*
X16707Y-125648D01*
X17339Y-124466D01*
X17728Y-123184D01*
X17859Y-121850D01*
X17728Y-120517D01*
X17339Y-119235D01*
X16707Y-118053D01*
X15857Y-117017D01*
X14821Y-116167D01*
X13639Y-115535D01*
X12357Y-115147D01*
X11024Y-115015D01*
D02*
G37*
G36*
X184843Y-126191D02*
X183929Y-126311D01*
X183077Y-126664D01*
X182346Y-127225D01*
X181785Y-127956D01*
X181433Y-128808D01*
X181362Y-129342D01*
X180862Y-129310D01*
Y-126221D01*
X173862D01*
Y-133621D01*
X180862D01*
Y-130533D01*
X181362Y-130500D01*
X181433Y-131035D01*
X181785Y-131886D01*
X182346Y-132617D01*
X183077Y-133178D01*
X183929Y-133531D01*
X184843Y-133651D01*
X185756Y-133531D01*
X186608Y-133178D01*
X187339Y-132617D01*
X187900Y-131886D01*
X188252Y-131035D01*
X188373Y-130121D01*
Y-129721D01*
X188252Y-128808D01*
X187900Y-127956D01*
X187339Y-127225D01*
X186608Y-126664D01*
X185756Y-126311D01*
X184843Y-126191D01*
D02*
G37*
G36*
X212177Y-126484D02*
X206776D01*
X206842Y-127145D01*
X207180Y-128261D01*
X207730Y-129290D01*
X208470Y-130192D01*
X209372Y-130931D01*
X210400Y-131481D01*
X211516Y-131820D01*
X212177Y-131885D01*
Y-126484D01*
D02*
G37*
G36*
X47744Y-133828D02*
Y-137295D01*
X51037D01*
X50946Y-136603D01*
X50563Y-135679D01*
X49954Y-134885D01*
X49161Y-134276D01*
X48236Y-133893D01*
X47744Y-133828D01*
D02*
G37*
G36*
X46744Y-133828D02*
X46252Y-133893D01*
X45328Y-134276D01*
X44534Y-134885D01*
X43925Y-135679D01*
X43542Y-136603D01*
X43451Y-137295D01*
X46744D01*
Y-133828D01*
D02*
G37*
G36*
X59055Y-83897D02*
X58392Y-84029D01*
X57829Y-84404D01*
X57454Y-84967D01*
X57322Y-85630D01*
X57454Y-86293D01*
X57829Y-86856D01*
X58392Y-87231D01*
X59055Y-87363D01*
X59568Y-87261D01*
X69206D01*
X72188Y-90243D01*
Y-118219D01*
X56311Y-134095D01*
X51618D01*
Y-141495D01*
X58618D01*
Y-136402D01*
X74972Y-120048D01*
X75326Y-119519D01*
X75450Y-118895D01*
Y-89567D01*
X75326Y-88943D01*
X74972Y-88413D01*
X71035Y-84476D01*
X70506Y-84123D01*
X69882Y-83999D01*
X59568D01*
X59055Y-83897D01*
D02*
G37*
G36*
X51037Y-138295D02*
X47744D01*
Y-141762D01*
X48236Y-141698D01*
X49161Y-141315D01*
X49954Y-140706D01*
X50563Y-139912D01*
X50946Y-138987D01*
X51037Y-138295D01*
D02*
G37*
G36*
X46744D02*
X43451D01*
X43542Y-138987D01*
X43925Y-139912D01*
X44534Y-140706D01*
X45328Y-141315D01*
X46252Y-141698D01*
X46744Y-141762D01*
Y-138295D01*
D02*
G37*
G36*
X376000Y-67508D02*
X370079D01*
X364158D01*
Y-72356D01*
X336614D01*
X335678Y-72542D01*
X334884Y-73073D01*
X333900Y-74057D01*
X333369Y-74851D01*
X333183Y-75787D01*
Y-140748D01*
X333369Y-141684D01*
X333900Y-142478D01*
X334694Y-143009D01*
X335630Y-143195D01*
X365158D01*
X366094Y-143009D01*
X366888Y-142478D01*
X371809Y-137557D01*
X372340Y-136763D01*
X372526Y-135827D01*
Y-109281D01*
X389526Y-92282D01*
X390056Y-91488D01*
X390242Y-90551D01*
Y-74803D01*
X390056Y-73867D01*
X389526Y-73073D01*
X388732Y-72542D01*
X387795Y-72356D01*
X376000D01*
Y-67508D01*
D02*
G37*
%LPD*%
G36*
X259397Y65500D02*
X260104Y64957D01*
X260760Y64686D01*
X270188Y55257D01*
Y41599D01*
X269727Y41407D01*
X268271Y42862D01*
Y43810D01*
X268168Y44593D01*
X267866Y45323D01*
X267385Y45949D01*
X265039Y48296D01*
X264767Y48951D01*
X264225Y49658D01*
X263518Y50200D01*
X262695Y50542D01*
X261811Y50658D01*
X260928Y50542D01*
X260104Y50200D01*
X259397Y49658D01*
X258855Y48951D01*
X258514Y48128D01*
X258397Y47244D01*
X258514Y46361D01*
X258855Y45537D01*
X259397Y44830D01*
X260104Y44288D01*
X260760Y44016D01*
X262220Y42556D01*
Y41609D01*
X262323Y40826D01*
X262625Y40096D01*
X263106Y39470D01*
X264084Y38491D01*
X263838Y38030D01*
X263746Y38049D01*
X254921D01*
X254584Y38325D01*
Y57395D01*
X258043Y60854D01*
X258397Y61384D01*
X258521Y62008D01*
Y62559D01*
X258607Y62992D01*
X258521Y63425D01*
Y65820D01*
X259021Y65990D01*
X259397Y65500D01*
D02*
G37*
G36*
X76541Y-7120D02*
X77099Y-7492D01*
X77756Y-7623D01*
X77865Y-7601D01*
X83640Y-13376D01*
Y-58702D01*
X83640Y-58702D01*
X83726Y-59132D01*
X83829Y-59286D01*
X83572Y-59786D01*
X75943D01*
X75844Y-59687D01*
Y-6976D01*
X76344Y-6824D01*
X76541Y-7120D01*
D02*
G37*
G36*
X280512Y-103347D02*
Y-137795D01*
X275590Y-142717D01*
X220472D01*
Y-98425D01*
X275590D01*
X280512Y-103347D01*
D02*
G37*
%LPC*%
G36*
X268216Y-112388D02*
Y-121547D01*
X277375D01*
X277238Y-120153D01*
X276686Y-118332D01*
X275789Y-116654D01*
X274581Y-115182D01*
X273110Y-113975D01*
X271432Y-113078D01*
X269611Y-112526D01*
X268216Y-112388D01*
D02*
G37*
G36*
X267216D02*
X265823Y-112526D01*
X264001Y-113078D01*
X262323Y-113975D01*
X260852Y-115182D01*
X259645Y-116654D01*
X258747Y-118332D01*
X258195Y-120153D01*
X258058Y-121547D01*
X267216D01*
Y-112388D01*
D02*
G37*
G36*
X234189Y-120063D02*
X228768D01*
Y-125484D01*
X234189D01*
Y-120063D01*
D02*
G37*
G36*
X227768D02*
X222346D01*
Y-125484D01*
X227768D01*
Y-120063D01*
D02*
G37*
G36*
X277375Y-122547D02*
X268216D01*
Y-131706D01*
X269611Y-131569D01*
X271432Y-131016D01*
X273110Y-130119D01*
X274581Y-128912D01*
X275789Y-127441D01*
X276686Y-125762D01*
X277238Y-123941D01*
X277375Y-122547D01*
D02*
G37*
G36*
X267216D02*
X258058D01*
X258195Y-123941D01*
X258747Y-125762D01*
X259645Y-127441D01*
X260852Y-128912D01*
X262323Y-130119D01*
X264001Y-131016D01*
X265823Y-131569D01*
X267216Y-131706D01*
Y-122547D01*
D02*
G37*
G36*
X234189Y-126484D02*
X228768D01*
Y-131905D01*
X234189D01*
Y-126484D01*
D02*
G37*
G36*
X227768D02*
X222346D01*
Y-131905D01*
X227768D01*
Y-126484D01*
D02*
G37*
%LPD*%
G36*
X387795Y-90551D02*
X370079Y-108268D01*
Y-135827D01*
X365158Y-140748D01*
X335630D01*
Y-75787D01*
X336614Y-74803D01*
X387795D01*
Y-90551D01*
D02*
G37*
%LPC*%
G36*
X370579Y-76698D02*
Y-82098D01*
X375979D01*
X375914Y-81438D01*
X375576Y-80322D01*
X375026Y-79293D01*
X374286Y-78391D01*
X373384Y-77651D01*
X372356Y-77101D01*
X371239Y-76763D01*
X370579Y-76698D01*
D02*
G37*
G36*
X369579Y-76698D02*
X368918Y-76763D01*
X367802Y-77101D01*
X366773Y-77651D01*
X365872Y-78391D01*
X365132Y-79293D01*
X364582Y-80322D01*
X364243Y-81438D01*
X364178Y-82098D01*
X369579D01*
Y-76698D01*
D02*
G37*
G36*
X375979Y-83098D02*
X370579D01*
Y-88499D01*
X371239Y-88434D01*
X372356Y-88095D01*
X373384Y-87546D01*
X374286Y-86806D01*
X375026Y-85904D01*
X375576Y-84875D01*
X375914Y-83759D01*
X375979Y-83098D01*
D02*
G37*
G36*
X369579D02*
X364178D01*
X364243Y-83759D01*
X364582Y-84875D01*
X365132Y-85904D01*
X365872Y-86806D01*
X366773Y-87546D01*
X367802Y-88095D01*
X368918Y-88434D01*
X369579Y-88499D01*
Y-83098D01*
D02*
G37*
G36*
X353831Y-112388D02*
X352437Y-112526D01*
X350616Y-113078D01*
X348937Y-113975D01*
X347466Y-115182D01*
X346259Y-116654D01*
X345647Y-117799D01*
X345187Y-117898D01*
X344031Y-117420D01*
X343291Y-117322D01*
Y-122047D01*
Y-126772D01*
X344031Y-126675D01*
X345187Y-126196D01*
X345647Y-126296D01*
X346259Y-127441D01*
X347466Y-128912D01*
X348937Y-130119D01*
X350616Y-131016D01*
X352437Y-131569D01*
X353831Y-131706D01*
Y-122047D01*
Y-112388D01*
D02*
G37*
G36*
X354831D02*
Y-121547D01*
X363990D01*
X363852Y-120153D01*
X363300Y-118332D01*
X362403Y-116654D01*
X361195Y-115182D01*
X359724Y-113975D01*
X358046Y-113078D01*
X356225Y-112526D01*
X354831Y-112388D01*
D02*
G37*
G36*
X342291Y-117322D02*
X341551Y-117420D01*
X340396Y-117898D01*
X339404Y-118659D01*
X338642Y-119652D01*
X338164Y-120807D01*
X338066Y-121547D01*
X342291D01*
Y-117322D01*
D02*
G37*
G36*
Y-122547D02*
X338066D01*
X338164Y-123287D01*
X338642Y-124443D01*
X339404Y-125435D01*
X340396Y-126196D01*
X341551Y-126675D01*
X342291Y-126772D01*
Y-122547D01*
D02*
G37*
G36*
X363990D02*
X354831D01*
Y-131706D01*
X356225Y-131569D01*
X358046Y-131016D01*
X359724Y-130119D01*
X361195Y-128912D01*
X362403Y-127441D01*
X363300Y-125762D01*
X363852Y-123941D01*
X363990Y-122547D01*
D02*
G37*
%LPD*%
D11*
X77756Y-5906D02*
X84762Y-12911D01*
X85230Y-59171D02*
X93388D01*
X84762Y-58702D02*
X85230Y-59171D01*
X84762Y-58702D02*
Y-12911D01*
X93388Y-59171D02*
X99902Y-52658D01*
Y-8366D02*
X102362Y-5906D01*
X99902Y-52658D02*
Y-8366D01*
X103347Y-29528D02*
X126969Y-53150D01*
X102362Y-5906D02*
X121063D01*
X125868Y-1100D01*
Y70398D01*
X109252Y49213D02*
X124016Y63976D01*
Y67913D01*
X109252Y5906D02*
Y49213D01*
X119095Y72835D02*
X124016Y67913D01*
X81614Y125079D02*
X87598Y119095D01*
Y15748D02*
Y119095D01*
X107599Y-27875D02*
Y-27559D01*
X126969Y-53150D02*
X217953D01*
X107599Y-27875D02*
X129921Y-50197D01*
X193100Y43120D02*
X233455D01*
X147638Y88583D02*
X193100Y43120D01*
X76772Y125079D02*
X81614D01*
X114173Y74803D02*
X116142Y72835D01*
X119095D01*
X114173Y74803D02*
Y89567D01*
X169291Y95472D02*
X183071Y81693D01*
X120079Y95472D02*
X169291D01*
X114173Y89567D02*
X120079Y95472D01*
X119095Y76772D02*
X129587D01*
X145335Y61024D01*
X108003Y-15203D02*
X114612D01*
X111221Y-24606D02*
X131653Y-45039D01*
X246063Y-44291D02*
X246811D01*
X143701Y-11811D02*
Y-7874D01*
Y-11811D02*
X151575Y-19685D01*
X243110D01*
X230831Y-21185D02*
X241142Y-31496D01*
X144217Y-21185D02*
X230831D01*
X243110Y-19685D02*
X251969Y-28543D01*
X140748Y-17717D02*
X144217Y-21185D01*
X251969Y-39134D02*
Y-28543D01*
X246811Y-44291D02*
X251969Y-39134D01*
X246063Y-45039D02*
Y-44291D01*
X137795Y-20669D02*
Y0D01*
X140748Y-17717D02*
Y-3937D01*
X241142Y-39961D02*
Y-31496D01*
X236063Y-45039D02*
X241142Y-39961D01*
X217953Y-53150D02*
X226063Y-45039D01*
X137795Y-20669D02*
X140748Y-23622D01*
X224646D01*
X236063Y-35039D01*
X129921Y-50197D02*
X210906D01*
X216063Y-45039D01*
X103230Y-11811D02*
X116142D01*
X130905Y-26575D01*
X217598D01*
X129921Y-30512D02*
X211535D01*
X114612Y-15203D02*
X129921Y-30512D01*
X217598Y-26575D02*
X226063Y-35039D01*
X215984Y-34961D02*
X216063D01*
X211535Y-30512D02*
X215984Y-34961D01*
X216063Y-35039D02*
Y-34961D01*
X159449Y61024D02*
X216722Y3750D01*
X233081D01*
X145335Y61024D02*
X159449D01*
X113305Y-19801D02*
Y-19685D01*
Y-19801D02*
X128543Y-35039D01*
X131653Y-45039D02*
X206063D01*
X128543Y-35039D02*
X206063D01*
X152559Y63976D02*
X162875D01*
X128937Y87598D02*
X152559Y63976D01*
X154528Y66929D02*
X164923D01*
X133858Y87598D02*
X154528Y66929D01*
X138779Y88583D02*
X147638D01*
X162875Y63976D02*
X188919Y37933D01*
X188919Y42933D02*
X188919D01*
X164923Y66929D02*
X188919Y42933D01*
D14*
X0Y-148228D02*
Y148228D01*
X395669D01*
X395669Y-148228D01*
X0D02*
X395669D01*
D72*
X256890Y62992D02*
Y82677D01*
Y62008D02*
Y62992D01*
X252953Y58071D02*
X256890Y62008D01*
Y82677D02*
X278543Y104331D01*
X254921Y36417D02*
X263746D01*
X252953Y34449D02*
Y58071D01*
Y34449D02*
X254921Y36417D01*
X277607Y-31496D02*
X281536Y-35425D01*
X277607Y-31496D02*
Y-30512D01*
X281536Y-35473D02*
Y-35425D01*
Y-35473D02*
X286417Y-40354D01*
X264632Y29431D02*
X264801Y29600D01*
X264632Y23622D02*
Y29431D01*
X263746Y36417D02*
X264801Y35363D01*
Y29600D02*
Y35363D01*
X286417Y-40354D02*
X330709D01*
X118110Y125984D02*
Y125984D01*
X126969Y134843D01*
X157480D01*
X176339Y115984D01*
X191850D01*
X74213Y6299D02*
X78740Y10827D01*
Y55820D01*
X82677Y59757D01*
Y83661D01*
X76772Y89567D02*
X82677Y83661D01*
X280110Y-73236D02*
X285433Y-67913D01*
X255323Y-73236D02*
X280110D01*
X285433Y-67913D02*
Y-50598D01*
X19685Y-43307D02*
X38386D01*
X19685D02*
X52165Y-75787D01*
X151575D01*
X167323Y-60039D01*
X242126D01*
X255323Y-73236D01*
X244842Y-72835D02*
X248326Y-76319D01*
X311476D01*
X334193Y-53602D01*
X244094Y-72835D02*
X244842D01*
X238189Y-66929D02*
X244094Y-72835D01*
X285433Y-31496D02*
X286417D01*
X45276Y-59055D02*
X60039Y-44291D01*
X149213Y-61417D02*
X151575Y-59055D01*
X74213Y-60363D02*
Y6299D01*
Y-60363D02*
X75267Y-61417D01*
X149213D01*
X324803Y39370D02*
X334193Y29980D01*
Y-53602D02*
Y29980D01*
X327953Y104331D02*
X342717Y119095D01*
X278543Y104331D02*
X327953D01*
X252953Y-15748D02*
Y34449D01*
X172244Y-4921D02*
X183071Y-15748D01*
X252953D01*
X162402Y43307D02*
X176181Y29528D01*
X141732Y43307D02*
X162402D01*
X210630Y-85630D02*
X219488Y-76772D01*
X125984Y-131890D02*
X135827Y-141732D01*
X190945D01*
X198819Y-133858D01*
Y-122047D01*
X210630Y-110236D01*
Y-85630D01*
X219488Y-76772D02*
X220472D01*
X286417Y-31496D02*
X290059Y-27854D01*
Y39370D01*
X319882Y-15748D02*
X320866Y-14764D01*
Y64961D01*
X191850Y115984D02*
X201850D01*
X290158Y141732D02*
X312795Y119095D01*
X65945Y141732D02*
X290158D01*
X60039Y135827D02*
X65945Y141732D01*
X60039Y-44291D02*
Y135827D01*
X13780Y4921D02*
Y79724D01*
Y4921D02*
X45571Y-26870D01*
X13780Y79724D02*
X43110Y109055D01*
X35630Y106496D02*
Y125984D01*
X8858Y79724D02*
X35630Y106496D01*
X8858Y-40354D02*
Y79724D01*
Y-40354D02*
X11811Y-43307D01*
X19685D01*
X45276Y-16732D02*
X51181Y-22638D01*
Y-30512D02*
Y-22638D01*
X38386Y-43307D02*
X51181Y-30512D01*
X43110Y109055D02*
Y125984D01*
X220472Y-66929D02*
X220473Y-66929D01*
X238189D01*
X220472D02*
X220472Y-66929D01*
X73819Y-118895D02*
Y-89567D01*
X59055Y-85630D02*
X69882D01*
X73819Y-89567D01*
X55118Y-137595D02*
X73819Y-118895D01*
X39370Y-137795D02*
Y-123031D01*
X59055Y-119095D02*
X59055Y-119095D01*
X43307Y-119095D02*
X59055D01*
X39370Y-123031D02*
X43307Y-119095D01*
X55118Y-137795D02*
Y-137595D01*
D73*
X261811Y67913D02*
X273214Y56510D01*
X265245Y41609D02*
Y43810D01*
X273214Y-60513D02*
Y56510D01*
X269732Y24394D02*
Y37122D01*
X261811Y47244D02*
X265245Y43810D01*
Y41609D02*
X269732Y37122D01*
X273214Y-60513D02*
X274606Y-61905D01*
Y-62008D02*
Y-61905D01*
X269685Y24346D02*
X269732Y24394D01*
X268701Y-63976D02*
Y-63873D01*
X269685Y-62889D01*
Y24346D01*
X88583Y-57087D02*
X96773Y-48897D01*
Y-6657D01*
X96725Y-6610D02*
X96773Y-6657D01*
X96725Y-6610D02*
Y56487D01*
X105199Y64961D01*
X94488Y62008D02*
X100394Y67913D01*
X94488Y-19685D02*
Y62008D01*
X70866Y37402D02*
X75556Y42091D01*
Y76019D01*
X67913Y83661D02*
X75556Y76019D01*
X82677Y24606D02*
Y56102D01*
X263779Y-62008D02*
Y-12795D01*
X258858Y-67913D02*
Y28543D01*
X261811Y31496D01*
X229331Y84646D02*
X239173Y74803D01*
Y24606D02*
Y74803D01*
X100394Y67913D02*
X117242D01*
X70787Y115079D02*
X76772D01*
X67913Y112205D02*
X70787Y115079D01*
X67913Y83661D02*
Y112205D01*
D74*
X354331Y-122047D02*
D03*
X267717D02*
D03*
D75*
X19685Y-66929D02*
D03*
Y-51181D02*
D03*
Y-43307D02*
D03*
Y-27559D02*
D03*
Y-35433D02*
D03*
Y-59055D02*
D03*
D76*
Y-19685D02*
D03*
D77*
X244094Y-72835D02*
D03*
X350394Y-11811D02*
D03*
X125984Y-88583D02*
D03*
Y-131890D02*
D03*
D78*
X244094Y-80709D02*
D03*
X350394Y-19685D02*
D03*
X125984Y-68898D02*
D03*
Y-112205D02*
D03*
D79*
X342791Y-122047D02*
D03*
X287131D02*
D03*
D80*
X177362Y-129921D02*
D03*
X35630Y125984D02*
D03*
X141732D02*
D03*
X55118Y-137795D02*
D03*
D81*
X184843Y-129921D02*
D03*
X43110Y125984D02*
D03*
X118110D02*
D03*
X133858D02*
D03*
X125984D02*
D03*
X39370Y-137795D02*
D03*
X47244D02*
D03*
D82*
X374016Y8032D02*
D03*
X374638Y71024D02*
D03*
D83*
X374016Y-1969D02*
D03*
Y-11969D02*
D03*
X374638Y61024D02*
D03*
Y51024D02*
D03*
D84*
X220472Y-66929D02*
D03*
Y-76772D02*
D03*
Y-86614D02*
D03*
X191850Y115984D02*
D03*
X201850Y125984D02*
D03*
X191850D02*
D03*
X201850Y135984D02*
D03*
X191850D02*
D03*
X76772Y125079D02*
D03*
Y115079D02*
D03*
Y135079D02*
D03*
X34409Y23425D02*
D03*
X24409D02*
D03*
X34409Y33425D02*
D03*
X24409D02*
D03*
X34409Y43425D02*
D03*
X24409D02*
D03*
X34409Y53425D02*
D03*
X24409D02*
D03*
X34409Y63425D02*
D03*
X24409D02*
D03*
X34409Y73425D02*
D03*
X216063Y-35039D02*
D03*
Y-45039D02*
D03*
X246063D02*
D03*
X236063Y-35039D02*
D03*
Y-45039D02*
D03*
X226063Y-35039D02*
D03*
Y-45039D02*
D03*
X206063Y-35039D02*
D03*
Y-45039D02*
D03*
D85*
X342717Y119095D02*
D03*
D86*
X312795D02*
D03*
D87*
X228268Y-125984D02*
D03*
D88*
X212677D02*
D03*
X370079Y-82598D02*
D03*
D89*
Y-67008D02*
D03*
D90*
X201850Y115984D02*
D03*
X76772Y105079D02*
D03*
X24409Y73425D02*
D03*
D91*
X246063Y-35039D02*
D03*
D92*
X11024Y106890D02*
D03*
Y-121850D02*
D03*
X381102D02*
D03*
X381398Y106890D02*
D03*
D93*
X256890Y62992D02*
D03*
X261811Y67913D02*
D03*
X260827Y40354D02*
D03*
X277607Y-30512D02*
D03*
X262795Y16732D02*
D03*
X260827Y57087D02*
D03*
X359252Y60039D02*
D03*
X342520Y32480D02*
D03*
X200787Y-95472D02*
D03*
X149606Y-37402D02*
D03*
X187992Y-1969D02*
D03*
X214567Y-6890D02*
D03*
X232283D02*
D03*
X248031Y-12795D02*
D03*
X196850Y33465D02*
D03*
X232283Y32480D02*
D03*
X245079Y24606D02*
D03*
X90551Y87598D02*
D03*
X100394Y37402D02*
D03*
X113189D02*
D03*
Y49213D02*
D03*
X100394D02*
D03*
X99410Y98425D02*
D03*
X187008Y62008D02*
D03*
X146653Y55118D02*
D03*
X167323Y78740D02*
D03*
Y87598D02*
D03*
X170276Y29528D02*
D03*
X148622Y3937D02*
D03*
X120079Y-8858D02*
D03*
X77756Y-14764D02*
D03*
X67913Y24606D02*
D03*
X77756Y-5906D02*
D03*
X88583Y-57087D02*
D03*
X103347Y-29528D02*
D03*
X125868Y70398D02*
D03*
X78740Y31496D02*
D03*
X70866Y37402D02*
D03*
X76772Y89567D02*
D03*
X261811Y47244D02*
D03*
X264632Y23622D02*
D03*
X263779Y-12795D02*
D03*
X268701Y-63976D02*
D03*
X274606Y-62008D02*
D03*
X151575Y-59055D02*
D03*
X258858Y-67913D02*
D03*
X285433Y-50598D02*
D03*
Y-31496D02*
D03*
X45276Y-59055D02*
D03*
X107599Y-27559D02*
D03*
X74213Y6299D02*
D03*
X330709Y-40354D02*
D03*
X263779Y-62008D02*
D03*
X172244Y-4921D02*
D03*
X252953Y-15748D02*
D03*
X176181Y29528D02*
D03*
X141732Y43307D02*
D03*
X261811Y31496D02*
D03*
X229331Y84646D02*
D03*
X233455Y43120D02*
D03*
X239173Y24606D02*
D03*
X290059Y39370D02*
D03*
X324803Y39370D02*
D03*
X319882Y-15748D02*
D03*
X320866Y64961D02*
D03*
X82677Y24606D02*
D03*
Y56102D02*
D03*
X87598Y15748D02*
D03*
X183071Y81693D02*
D03*
X119095Y76772D02*
D03*
X109252Y5906D02*
D03*
X111221Y-24606D02*
D03*
X108003Y-15203D02*
D03*
X143701Y-7874D02*
D03*
X137795Y0D02*
D03*
X140748Y-3937D02*
D03*
X103230Y-11811D02*
D03*
X113305Y-19685D02*
D03*
X233081Y3750D02*
D03*
X128937Y87598D02*
D03*
X133858D02*
D03*
X138779Y88583D02*
D03*
X117242Y67913D02*
D03*
X188919Y37933D02*
D03*
Y42933D02*
D03*
X105199Y64961D02*
D03*
X94488Y-19685D02*
D03*
D94*
X45276Y-16732D02*
D03*
X45571Y-26870D02*
D03*
D95*
X59055Y-119095D02*
D03*
Y-85630D02*
D03*
M02*
