G04*
G04 #@! TF.GenerationSoftware,Altium Limited,Altium Designer,20.0.10 (225)*
G04*
G04 Layer_Color=255*
%FSLAX25Y25*%
%MOIN*%
G70*
G01*
G75*
%ADD14C,0.01000*%
%ADD74C,0.17323*%
%ADD75O,0.06000X0.05600*%
%ADD76R,0.06000X0.05600*%
%ADD77C,0.05512*%
%ADD78R,0.05512X0.05512*%
%ADD79C,0.07500*%
%ADD80R,0.05600X0.06000*%
%ADD81O,0.05600X0.06000*%
%ADD82R,0.06299X0.06299*%
%ADD83C,0.06299*%
%ADD84C,0.06000*%
%ADD85R,0.07087X0.07087*%
%ADD86C,0.07087*%
%ADD87R,0.09843X0.09843*%
%ADD88C,0.09843*%
%ADD89R,0.09843X0.09843*%
%ADD90R,0.06000X0.06000*%
%ADD91R,0.06000X0.06000*%
%ADD92C,0.12205*%
D14*
X0Y-148228D02*
Y148228D01*
X395669D01*
X395669Y-148228D01*
X0D02*
X395669D01*
D74*
X354331Y-122047D02*
D03*
X267717D02*
D03*
D75*
X19685Y-66929D02*
D03*
Y-51181D02*
D03*
Y-43307D02*
D03*
Y-27559D02*
D03*
Y-35433D02*
D03*
Y-59055D02*
D03*
D76*
Y-19685D02*
D03*
D77*
X244094Y-72835D02*
D03*
X350394Y-11811D02*
D03*
X125984Y-88583D02*
D03*
Y-131890D02*
D03*
D78*
X244094Y-80709D02*
D03*
X350394Y-19685D02*
D03*
X125984Y-68898D02*
D03*
Y-112205D02*
D03*
D79*
X342791Y-122047D02*
D03*
X287131D02*
D03*
D80*
X177362Y-129921D02*
D03*
X35630Y125984D02*
D03*
X141732D02*
D03*
X55118Y-137795D02*
D03*
D81*
X184843Y-129921D02*
D03*
X43110Y125984D02*
D03*
X118110D02*
D03*
X133858D02*
D03*
X125984D02*
D03*
X39370Y-137795D02*
D03*
X47244D02*
D03*
D82*
X374016Y8032D02*
D03*
X374638Y71024D02*
D03*
D83*
X374016Y-1969D02*
D03*
Y-11969D02*
D03*
X374638Y61024D02*
D03*
Y51024D02*
D03*
D84*
X220472Y-66929D02*
D03*
Y-76772D02*
D03*
Y-86614D02*
D03*
X191850Y115984D02*
D03*
X201850Y125984D02*
D03*
X191850D02*
D03*
X201850Y135984D02*
D03*
X191850D02*
D03*
X76772Y125079D02*
D03*
Y115079D02*
D03*
Y135079D02*
D03*
X34409Y23425D02*
D03*
X24409D02*
D03*
X34409Y33425D02*
D03*
X24409D02*
D03*
X34409Y43425D02*
D03*
X24409D02*
D03*
X34409Y53425D02*
D03*
X24409D02*
D03*
X34409Y63425D02*
D03*
X24409D02*
D03*
X34409Y73425D02*
D03*
X216063Y-35039D02*
D03*
Y-45039D02*
D03*
X246063D02*
D03*
X236063Y-35039D02*
D03*
Y-45039D02*
D03*
X226063Y-35039D02*
D03*
Y-45039D02*
D03*
X206063Y-35039D02*
D03*
Y-45039D02*
D03*
D85*
X342717Y119095D02*
D03*
D86*
X312795D02*
D03*
D87*
X228268Y-125984D02*
D03*
D88*
X212677D02*
D03*
X370079Y-82598D02*
D03*
D89*
Y-67008D02*
D03*
D90*
X201850Y115984D02*
D03*
X76772Y105079D02*
D03*
X24409Y73425D02*
D03*
D91*
X246063Y-35039D02*
D03*
D92*
X11024Y106890D02*
D03*
Y-121850D02*
D03*
X381102D02*
D03*
X381398Y106890D02*
D03*
M02*
