M48
;Layer_Color=9474304
;FILE_FORMAT=2:5
INCH,LZ
;TYPE=PLATED
T1F00S00C0.01181
T2F00S00C0.01200
T3F00S00C0.03150
T4F00S00C0.03200
T5F00S00C0.03400
T6F00S00C0.03500
T7F00S00C0.03800
T8F00S00C0.03937
T9F00S00C0.05315
T10F00S00C0.05512
T11F00S00C0.07283
T12F00S00C0.12205
%
T01
X0151575Y-0059055
X0200787Y-0095472
X0258858Y-0067913
X0263779Y-0062008
X0268701Y-0063976
X0274606Y-0062008
X0285433Y-0050598
X0088583Y-0057087
X0045276Y-0059055
X0077756Y-0014764
Y-0005906
X0074213Y0006299
X0087598Y0015748
X0082677Y0024606
X007874Y0031496
X0070866Y0037402
X0067913Y0024606
X0100394Y0037402
Y0049213
X0113189
Y0037402
X0141732Y0043307
X0146653Y0055118
X0125868Y0070398
X0117242Y0067913
X0119095Y0076772
X0128937Y0087598
X0133858
X0138779Y0088583
X0090551Y0087598
X0076772Y0089567
X009941Y0098425
X0105199Y0064961
X0082677Y0056102
X0109252Y0005906
X0108003Y-0015203
X010323Y-0011811
X0094488Y-0019685
X0103347Y-0029528
X0107599Y-0027559
X0111221Y-0024606
X0113305Y-0019685
X0120079Y-0008858
X0143701Y-0007874
X0140748Y-0003937
X0137795Y0
X0148622Y0003937
X0149606Y-0037402
X0172244Y-0004921
X0187992Y-0001969
X0214567Y-000689
X0232283
X0233081Y000375
X0239173Y0024606
X0245079
X0264632Y0023622
X0262795Y0016732
X0261811Y0031496
X0260827Y0040354
X0261811Y0047244
X0260827Y0057087
X025689Y0062992
X0261811Y0067913
X0229331Y0084646
X0233455Y004312
X0232283Y003248
X019685Y0033465
X0188919Y0037933
Y0042933
X0187008Y0062008
X0183071Y0081693
X0167323Y007874
Y0087598
X0170276Y0029528
X0176181
X0248031Y-0012795
X0252953Y-0015748
X0263779Y-0012795
X0277607Y-0030512
X0285433Y-0031496
X0290059Y003937
X0324803Y003937
X034252Y003248
X0359252Y0060039
X0320866Y0064961
X0319882Y-0015748
X0330709Y-0040354
T02
X0059055Y-0119095
Y-008563
X0045571Y-002687
X0045276Y-0016732
T03
X0244094Y-0080709
Y-0072835
X0125984Y-0068898
Y-0088583
Y-0112205
Y-013189
X0350394Y-0019685
Y-0011811
X0342717Y0119095
X0312795
T04
X0177362Y-0129921
X0184843
X0055118Y-0137795
X0047244
X003937
X0019685Y-0066929
Y-0059055
Y-0051181
Y-0043307
Y-0035433
Y-0027559
Y-0019685
X003563Y0125984
X004311
X011811
X0125984
X0133858
X0141732
T05
X0206063Y-0045039
X0216063
Y-0035039
X0226063
X0236063
X0246063
Y-0045039
X0236063
X0226063
X0206063Y-0035039
T06
X0220472Y-0086614
Y-0076772
Y-0066929
T07
X0024409Y0023425
X0034409
Y0033425
X0024409
Y0043425
X0034409
Y0053425
X0024409
Y0063425
X0034409
Y0073425
X0024409
X0076772Y0105079
X019185Y0115984
X020185
Y0125984
X019185
Y0135984
X020185
X0076772Y0135079
Y0125079
Y0115079
T08
X0374016Y-0011969
Y-0001969
Y0008032
X0374638Y0051024
Y0061024
Y0071024
T09
X0342791Y-0122047
X0287131
T10
X0354331Y-0122047
X0267717
T11
X0370079Y-0082598
Y-0067008
X0228268Y-0125984
X0212677
T12
X0381102Y-012185
X0011024
Y010689
X0381398
M30
