G04*
G04 #@! TF.GenerationSoftware,Altium Limited,Altium Designer,20.0.10 (225)*
G04*
G04 Layer_Color=16711935*
%FSLAX25Y25*%
%MOIN*%
G70*
G01*
G75*
%ADD14C,0.01000*%
%ADD50C,0.17402*%
%ADD51O,0.06079X0.05679*%
%ADD52R,0.06079X0.05679*%
%ADD53C,0.05591*%
%ADD54R,0.05591X0.05591*%
%ADD55C,0.07579*%
%ADD56R,0.05679X0.06079*%
%ADD57O,0.05679X0.06079*%
%ADD58R,0.06378X0.06378*%
%ADD59C,0.06378*%
%ADD60C,0.06079*%
%ADD61R,0.07287X0.07287*%
%ADD62C,0.07287*%
%ADD63R,0.09921X0.09921*%
%ADD64C,0.09921*%
%ADD65R,0.09921X0.09921*%
%ADD66R,0.06079X0.06079*%
%ADD67R,0.06079X0.06079*%
%ADD68C,0.12284*%
%ADD69C,0.02048*%
%ADD70C,0.02279*%
%ADD71C,0.02079*%
D14*
X0Y-148228D02*
Y148228D01*
X395669D01*
X395669Y-148228D01*
X0D02*
X395669D01*
D50*
X354331Y-122047D02*
D03*
X267717D02*
D03*
D51*
X19685Y-66929D02*
D03*
Y-51181D02*
D03*
Y-43307D02*
D03*
Y-27559D02*
D03*
Y-35433D02*
D03*
Y-59055D02*
D03*
D52*
Y-19685D02*
D03*
D53*
X244094Y-72835D02*
D03*
X350394Y-11811D02*
D03*
X125984Y-88583D02*
D03*
Y-131890D02*
D03*
D54*
X244094Y-80709D02*
D03*
X350394Y-19685D02*
D03*
X125984Y-68898D02*
D03*
Y-112205D02*
D03*
D55*
X342791Y-122047D02*
D03*
X287131D02*
D03*
D56*
X177362Y-129921D02*
D03*
X35630Y125984D02*
D03*
X141732D02*
D03*
X55118Y-137795D02*
D03*
D57*
X184843Y-129921D02*
D03*
X43110Y125984D02*
D03*
X118110D02*
D03*
X133858D02*
D03*
X125984D02*
D03*
X39370Y-137795D02*
D03*
X47244D02*
D03*
D58*
X374016Y8032D02*
D03*
X374638Y71024D02*
D03*
D59*
X374016Y-1969D02*
D03*
Y-11969D02*
D03*
X374638Y61024D02*
D03*
Y51024D02*
D03*
D60*
X220472Y-66929D02*
D03*
Y-76772D02*
D03*
Y-86614D02*
D03*
X191850Y115984D02*
D03*
X201850Y125984D02*
D03*
X191850D02*
D03*
X201850Y135984D02*
D03*
X191850D02*
D03*
X76772Y125079D02*
D03*
Y115079D02*
D03*
Y135079D02*
D03*
X34409Y23425D02*
D03*
X24409D02*
D03*
X34409Y33425D02*
D03*
X24409D02*
D03*
X34409Y43425D02*
D03*
X24409D02*
D03*
X34409Y53425D02*
D03*
X24409D02*
D03*
X34409Y63425D02*
D03*
X24409D02*
D03*
X34409Y73425D02*
D03*
X216063Y-35039D02*
D03*
Y-45039D02*
D03*
X246063D02*
D03*
X236063Y-35039D02*
D03*
Y-45039D02*
D03*
X226063Y-35039D02*
D03*
Y-45039D02*
D03*
X206063Y-35039D02*
D03*
Y-45039D02*
D03*
D61*
X342717Y119095D02*
D03*
D62*
X312795D02*
D03*
D63*
X228268Y-125984D02*
D03*
D64*
X212677D02*
D03*
X370079Y-82598D02*
D03*
D65*
Y-67008D02*
D03*
D66*
X201850Y115984D02*
D03*
X76772Y105079D02*
D03*
X24409Y73425D02*
D03*
D67*
X246063Y-35039D02*
D03*
D68*
X11024Y106890D02*
D03*
Y-121850D02*
D03*
X381102D02*
D03*
X381398Y106890D02*
D03*
D69*
X256890Y62992D02*
D03*
X261811Y67913D02*
D03*
X260827Y40354D02*
D03*
X277607Y-30512D02*
D03*
X262795Y16732D02*
D03*
X260827Y57087D02*
D03*
X359252Y60039D02*
D03*
X342520Y32480D02*
D03*
X200787Y-95472D02*
D03*
X149606Y-37402D02*
D03*
X187992Y-1969D02*
D03*
X214567Y-6890D02*
D03*
X232283D02*
D03*
X248031Y-12795D02*
D03*
X196850Y33465D02*
D03*
X232283Y32480D02*
D03*
X245079Y24606D02*
D03*
X90551Y87598D02*
D03*
X100394Y37402D02*
D03*
X113189D02*
D03*
Y49213D02*
D03*
X100394D02*
D03*
X99410Y98425D02*
D03*
X187008Y62008D02*
D03*
X146653Y55118D02*
D03*
X167323Y78740D02*
D03*
Y87598D02*
D03*
X170276Y29528D02*
D03*
X148622Y3937D02*
D03*
X120079Y-8858D02*
D03*
X77756Y-14764D02*
D03*
X67913Y24606D02*
D03*
X77756Y-5906D02*
D03*
X88583Y-57087D02*
D03*
X103347Y-29528D02*
D03*
X125868Y70398D02*
D03*
X78740Y31496D02*
D03*
X70866Y37402D02*
D03*
X76772Y89567D02*
D03*
X261811Y47244D02*
D03*
X264632Y23622D02*
D03*
X263779Y-12795D02*
D03*
X268701Y-63976D02*
D03*
X274606Y-62008D02*
D03*
X151575Y-59055D02*
D03*
X258858Y-67913D02*
D03*
X285433Y-50598D02*
D03*
Y-31496D02*
D03*
X45276Y-59055D02*
D03*
X107599Y-27559D02*
D03*
X74213Y6299D02*
D03*
X330709Y-40354D02*
D03*
X263779Y-62008D02*
D03*
X172244Y-4921D02*
D03*
X252953Y-15748D02*
D03*
X176181Y29528D02*
D03*
X141732Y43307D02*
D03*
X261811Y31496D02*
D03*
X229331Y84646D02*
D03*
X233455Y43120D02*
D03*
X239173Y24606D02*
D03*
X290059Y39370D02*
D03*
X324803Y39370D02*
D03*
X319882Y-15748D02*
D03*
X320866Y64961D02*
D03*
X82677Y24606D02*
D03*
Y56102D02*
D03*
X87598Y15748D02*
D03*
X183071Y81693D02*
D03*
X119095Y76772D02*
D03*
X109252Y5906D02*
D03*
X111221Y-24606D02*
D03*
X108003Y-15203D02*
D03*
X143701Y-7874D02*
D03*
X137795Y0D02*
D03*
X140748Y-3937D02*
D03*
X103230Y-11811D02*
D03*
X113305Y-19685D02*
D03*
X233081Y3750D02*
D03*
X128937Y87598D02*
D03*
X133858D02*
D03*
X138779Y88583D02*
D03*
X117242Y67913D02*
D03*
X188919Y37933D02*
D03*
Y42933D02*
D03*
X105199Y64961D02*
D03*
X94488Y-19685D02*
D03*
D70*
X45276Y-16732D02*
D03*
X45571Y-26870D02*
D03*
D71*
X59055Y-119095D02*
D03*
Y-85630D02*
D03*
M02*
