G04*
G04 #@! TF.GenerationSoftware,Altium Limited,Altium Designer,20.0.10 (225)*
G04*
G04 Layer_Physical_Order=1*
G04 Layer_Color=255*
%FSLAX25Y25*%
%MOIN*%
G70*
G01*
G75*
%ADD11C,0.00800*%
%ADD14C,0.01000*%
%ADD25R,0.03937X0.06299*%
%ADD26R,0.03543X0.02756*%
%ADD27R,0.02756X0.03543*%
%ADD28O,0.07874X0.02362*%
%ADD29R,0.02362X0.04528*%
%ADD30R,0.04528X0.02362*%
%ADD31R,0.07700X0.08000*%
%ADD32R,0.03937X0.09449*%
%ADD33R,0.12992X0.09449*%
%ADD34O,0.01181X0.04724*%
%ADD35O,0.04724X0.01181*%
%ADD36R,0.04724X0.05512*%
%ADD72C,0.01800*%
%ADD73C,0.01200*%
%ADD74C,0.17323*%
%ADD75O,0.06000X0.05600*%
%ADD76R,0.06000X0.05600*%
%ADD77C,0.05512*%
%ADD78R,0.05512X0.05512*%
%ADD79C,0.07500*%
%ADD80R,0.05600X0.06000*%
%ADD81O,0.05600X0.06000*%
%ADD82R,0.06299X0.06299*%
%ADD83C,0.06299*%
%ADD84C,0.06000*%
%ADD85R,0.07087X0.07087*%
%ADD86C,0.07087*%
%ADD87R,0.09843X0.09843*%
%ADD88C,0.09843*%
%ADD89R,0.09843X0.09843*%
%ADD90R,0.06000X0.06000*%
%ADD91R,0.06000X0.06000*%
%ADD92C,0.12205*%
%ADD93C,0.01969*%
%ADD94C,0.02200*%
%ADD95C,0.02000*%
G36*
X395669Y-148228D02*
X0D01*
Y148228D01*
X395669D01*
X395669Y-148228D01*
D02*
G37*
%LPC*%
G36*
X202350Y139953D02*
Y136484D01*
X205819D01*
X205747Y137029D01*
X205344Y138002D01*
X204703Y138837D01*
X203868Y139478D01*
X202895Y139881D01*
X202350Y139953D01*
D02*
G37*
G36*
X192350D02*
Y136484D01*
X195819D01*
X195747Y137029D01*
X195344Y138002D01*
X194703Y138837D01*
X193868Y139478D01*
X192895Y139881D01*
X192350Y139953D01*
D02*
G37*
G36*
X201350Y139953D02*
X200806Y139881D01*
X199833Y139478D01*
X198998Y138837D01*
X198356Y138002D01*
X197953Y137029D01*
X197882Y136484D01*
X201350D01*
Y139953D01*
D02*
G37*
G36*
X191350D02*
X190806Y139881D01*
X189833Y139478D01*
X188998Y138837D01*
X188356Y138002D01*
X187953Y137029D01*
X187882Y136484D01*
X191350D01*
Y139953D01*
D02*
G37*
G36*
X77272Y139047D02*
Y135579D01*
X80740D01*
X80669Y136123D01*
X80266Y137096D01*
X79624Y137932D01*
X78789Y138573D01*
X77816Y138976D01*
X77272Y139047D01*
D02*
G37*
G36*
X76272Y139047D02*
X75727Y138976D01*
X74754Y138573D01*
X73919Y137932D01*
X73278Y137096D01*
X72875Y136123D01*
X72803Y135579D01*
X76272D01*
Y139047D01*
D02*
G37*
G36*
X205819Y135484D02*
X202350D01*
Y132016D01*
X202895Y132087D01*
X203868Y132490D01*
X204703Y133131D01*
X205344Y133967D01*
X205747Y134940D01*
X205819Y135484D01*
D02*
G37*
G36*
X195819D02*
X192350D01*
Y132016D01*
X192895Y132087D01*
X193868Y132490D01*
X194703Y133131D01*
X195344Y133967D01*
X195747Y134940D01*
X195819Y135484D01*
D02*
G37*
G36*
X201350D02*
X197882D01*
X197953Y134940D01*
X198356Y133967D01*
X198998Y133131D01*
X199833Y132490D01*
X200806Y132087D01*
X201350Y132016D01*
Y135484D01*
D02*
G37*
G36*
X191350D02*
X187882D01*
X187953Y134940D01*
X188356Y133967D01*
X188998Y133131D01*
X189833Y132490D01*
X190806Y132087D01*
X191350Y132016D01*
Y135484D01*
D02*
G37*
G36*
X76272Y134579D02*
X72803D01*
X72875Y134035D01*
X73278Y133062D01*
X73919Y132226D01*
X74754Y131585D01*
X75727Y131182D01*
X76272Y131110D01*
Y134579D01*
D02*
G37*
G36*
X80740D02*
X77272D01*
Y131110D01*
X77816Y131182D01*
X78789Y131585D01*
X79624Y132226D01*
X80266Y133062D01*
X80669Y134035D01*
X80740Y134579D01*
D02*
G37*
G36*
X43110Y129715D02*
X42197Y129594D01*
X41345Y129242D01*
X40614Y128681D01*
X40053Y127949D01*
X39700Y127098D01*
X39630Y126563D01*
X39130Y126596D01*
Y129684D01*
X32130D01*
Y122284D01*
X39130D01*
Y125373D01*
X39630Y125405D01*
X39700Y124871D01*
X40053Y124019D01*
X40614Y123288D01*
X41345Y122727D01*
X42197Y122374D01*
X43110Y122254D01*
X44024Y122374D01*
X44875Y122727D01*
X45606Y123288D01*
X46167Y124019D01*
X46520Y124871D01*
X46640Y125784D01*
Y126184D01*
X46520Y127098D01*
X46167Y127949D01*
X45606Y128681D01*
X44875Y129242D01*
X44024Y129594D01*
X43110Y129715D01*
D02*
G37*
G36*
X145532Y129984D02*
X142232D01*
Y126484D01*
X145532D01*
Y129984D01*
D02*
G37*
G36*
X141232D02*
X137932D01*
Y126484D01*
X141232D01*
Y129984D01*
D02*
G37*
G36*
X191850Y129716D02*
X190884Y129589D01*
X189984Y129216D01*
X189211Y128623D01*
X188618Y127850D01*
X188246Y126950D01*
X188119Y125984D01*
X188246Y125018D01*
X188554Y124274D01*
X182278Y117998D01*
X182035Y117634D01*
X181949Y117205D01*
X181949Y117205D01*
Y107677D01*
X181949Y107677D01*
X182035Y107248D01*
X182278Y106884D01*
X188469Y100693D01*
X188473Y100673D01*
Y97725D01*
X193417D01*
Y101881D01*
X190424D01*
X190366Y101968D01*
X190366Y101968D01*
X184192Y108142D01*
Y116740D01*
X190140Y122688D01*
X190884Y122380D01*
X191850Y122252D01*
X192816Y122380D01*
X193716Y122752D01*
X194489Y123345D01*
X195082Y124118D01*
X195455Y125018D01*
X195582Y125984D01*
X195455Y126950D01*
X195082Y127850D01*
X194489Y128623D01*
X193716Y129216D01*
X192816Y129589D01*
X191850Y129716D01*
D02*
G37*
G36*
X145532Y125484D02*
X142232D01*
Y121984D01*
X145532D01*
Y125484D01*
D02*
G37*
G36*
X141232D02*
X137932D01*
Y121984D01*
X141232D01*
Y125484D01*
D02*
G37*
G36*
X76772Y128811D02*
X75806Y128683D01*
X74906Y128311D01*
X74133Y127718D01*
X73540Y126945D01*
X73167Y126045D01*
X73040Y125079D01*
X73167Y124113D01*
X73540Y123213D01*
X74133Y122440D01*
X74906Y121847D01*
X75806Y121474D01*
X76772Y121347D01*
X77737Y121474D01*
X78638Y121847D01*
X79410Y122440D01*
X80004Y123213D01*
X80376Y124113D01*
X80504Y125079D01*
X80376Y126045D01*
X80004Y126945D01*
X79410Y127718D01*
X78638Y128311D01*
X77737Y128683D01*
X76772Y128811D01*
D02*
G37*
G36*
X346960Y123338D02*
X338473D01*
Y114851D01*
X346960D01*
Y123338D01*
D02*
G37*
G36*
X312795Y123374D02*
X311688Y123229D01*
X310655Y122801D01*
X309769Y122121D01*
X309089Y121234D01*
X308661Y120202D01*
X308515Y119095D01*
X308661Y117987D01*
X309089Y116955D01*
X309769Y116068D01*
X310655Y115388D01*
X311688Y114960D01*
X312795Y114815D01*
X313903Y114960D01*
X314935Y115388D01*
X315822Y116068D01*
X316502Y116955D01*
X316929Y117987D01*
X317075Y119095D01*
X316929Y120202D01*
X316502Y121234D01*
X315822Y122121D01*
X314935Y122801D01*
X313903Y123229D01*
X312795Y123374D01*
D02*
G37*
G36*
X205550Y119684D02*
X198150D01*
Y112284D01*
X205550D01*
Y119684D01*
D02*
G37*
G36*
X191850Y119716D02*
X190884Y119589D01*
X189984Y119216D01*
X189211Y118623D01*
X188618Y117850D01*
X188246Y116950D01*
X188119Y115984D01*
X188246Y115018D01*
X188618Y114118D01*
X189211Y113345D01*
X189984Y112752D01*
X190884Y112380D01*
X191850Y112252D01*
X192816Y112380D01*
X193716Y112752D01*
X194489Y113345D01*
X195082Y114118D01*
X195455Y115018D01*
X195582Y115984D01*
X195455Y116950D01*
X195082Y117850D01*
X194489Y118623D01*
X193716Y119216D01*
X192816Y119589D01*
X191850Y119716D01*
D02*
G37*
G36*
X76772Y118811D02*
X75806Y118684D01*
X74906Y118311D01*
X74133Y117718D01*
X73540Y116945D01*
X73167Y116045D01*
X73040Y115079D01*
X73167Y114113D01*
X73540Y113213D01*
X74133Y112440D01*
X74906Y111847D01*
X75806Y111474D01*
X76772Y111347D01*
X77737Y111474D01*
X78638Y111847D01*
X79410Y112440D01*
X80004Y113213D01*
X80376Y114113D01*
X80504Y115079D01*
X80376Y116045D01*
X80004Y116945D01*
X79410Y117718D01*
X78638Y118311D01*
X77737Y118684D01*
X76772Y118811D01*
D02*
G37*
G36*
X127772Y107102D02*
X125894D01*
Y104831D01*
X127772D01*
Y107102D01*
D02*
G37*
G36*
X124894D02*
X123016D01*
Y104831D01*
X124894D01*
Y107102D01*
D02*
G37*
G36*
X127772Y103831D02*
X125894D01*
Y101559D01*
X127772D01*
Y103831D01*
D02*
G37*
G36*
X124894D02*
X123016D01*
Y101559D01*
X124894D01*
Y103831D01*
D02*
G37*
G36*
X381398Y113725D02*
X380064Y113594D01*
X378782Y113205D01*
X377600Y112573D01*
X376564Y111723D01*
X375714Y110687D01*
X375083Y109505D01*
X374694Y108223D01*
X374562Y106890D01*
X374694Y105556D01*
X375083Y104274D01*
X375714Y103092D01*
X376564Y102057D01*
X377600Y101206D01*
X378782Y100575D01*
X380064Y100186D01*
X381398Y100055D01*
X382731Y100186D01*
X384013Y100575D01*
X385195Y101206D01*
X386231Y102057D01*
X387081Y103092D01*
X387713Y104274D01*
X388102Y105556D01*
X388233Y106890D01*
X388102Y108223D01*
X387713Y109505D01*
X387081Y110687D01*
X386231Y111723D01*
X385195Y112573D01*
X384013Y113205D01*
X382731Y113594D01*
X381398Y113725D01*
D02*
G37*
G36*
X11024D02*
X9690Y113594D01*
X8408Y113205D01*
X7226Y112573D01*
X6190Y111723D01*
X5340Y110687D01*
X4709Y109505D01*
X4320Y108223D01*
X4188Y106890D01*
X4320Y105556D01*
X4709Y104274D01*
X5340Y103092D01*
X6190Y102057D01*
X7226Y101206D01*
X8408Y100575D01*
X9690Y100186D01*
X11024Y100055D01*
X12357Y100186D01*
X13639Y100575D01*
X14821Y101206D01*
X15857Y102057D01*
X16707Y103092D01*
X17339Y104274D01*
X17728Y105556D01*
X17859Y106890D01*
X17728Y108223D01*
X17339Y109505D01*
X16707Y110687D01*
X15857Y111723D01*
X14821Y112573D01*
X13639Y113205D01*
X12357Y113594D01*
X11024Y113725D01*
D02*
G37*
G36*
X278259Y104834D02*
X274103D01*
Y103688D01*
X254528D01*
X254020Y103587D01*
X253590Y103299D01*
X221400Y71109D01*
X196369D01*
Y71566D01*
X190442D01*
Y67804D01*
X196369D01*
Y68458D01*
X221949D01*
X222456Y68559D01*
X222886Y68846D01*
X255077Y101037D01*
X274103D01*
Y99891D01*
X278259D01*
Y104834D01*
D02*
G37*
G36*
X201850Y129716D02*
X200885Y129589D01*
X199984Y129216D01*
X199212Y128623D01*
X198618Y127850D01*
X198246Y126950D01*
X198118Y125984D01*
X198246Y125018D01*
X198618Y124118D01*
X199212Y123345D01*
X199984Y122752D01*
X200885Y122380D01*
X201850Y122252D01*
X202816Y122380D01*
X203561Y122688D01*
X209508Y116740D01*
Y108142D01*
X203334Y101968D01*
X203276Y101881D01*
X200284D01*
Y97725D01*
X205228D01*
Y100689D01*
X211423Y106884D01*
X211423Y106884D01*
X211666Y107248D01*
X211752Y107677D01*
X211752Y107677D01*
Y117205D01*
X211752Y117205D01*
X211666Y117634D01*
X211423Y117998D01*
X211423Y117998D01*
X205147Y124274D01*
X205455Y125018D01*
X205582Y125984D01*
X205455Y126950D01*
X205082Y127850D01*
X204489Y128623D01*
X203716Y129216D01*
X202816Y129589D01*
X201850Y129716D01*
D02*
G37*
G36*
X133858Y129715D02*
X132945Y129594D01*
X132093Y129242D01*
X131362Y128681D01*
X130801Y127949D01*
X130448Y127098D01*
X130328Y126184D01*
Y125784D01*
X130448Y124871D01*
X130801Y124019D01*
X131362Y123288D01*
X132093Y122727D01*
X132737Y122460D01*
Y99874D01*
X129799Y96936D01*
X129751Y96946D01*
X129586Y97488D01*
X130714Y98616D01*
X130714Y98616D01*
X130957Y98980D01*
X131043Y99410D01*
Y109252D01*
X130957Y109681D01*
X130714Y110045D01*
X130714Y110045D01*
X127106Y113654D01*
Y122460D01*
X127749Y122727D01*
X128481Y123288D01*
X129042Y124019D01*
X129394Y124871D01*
X129515Y125784D01*
Y126184D01*
X129394Y127098D01*
X129042Y127949D01*
X128481Y128681D01*
X127749Y129242D01*
X126898Y129594D01*
X125984Y129715D01*
X125071Y129594D01*
X124219Y129242D01*
X123488Y128681D01*
X122927Y127949D01*
X122574Y127098D01*
X122454Y126184D01*
Y125784D01*
X122574Y124871D01*
X122927Y124019D01*
X123488Y123288D01*
X124219Y122727D01*
X124863Y122460D01*
Y113189D01*
X124863Y113189D01*
X124948Y112760D01*
X125191Y112396D01*
X128800Y108787D01*
Y99874D01*
X127488Y98563D01*
X109252D01*
X109252Y98563D01*
X108823Y98477D01*
X108459Y98234D01*
X108459Y98234D01*
X98616Y88392D01*
X98373Y88028D01*
X98288Y87598D01*
X98288Y87598D01*
Y84946D01*
X98244Y84465D01*
X97788Y84465D01*
X95972D01*
Y82087D01*
Y79709D01*
X98244Y79709D01*
X98288Y79227D01*
Y77829D01*
X97944Y77472D01*
X93001D01*
Y77025D01*
X91621D01*
X78403Y90243D01*
Y101379D01*
X80472D01*
Y103753D01*
X104530D01*
X104890Y103393D01*
X105319Y103106D01*
X105827Y103005D01*
X116623D01*
Y101859D01*
X120779D01*
Y106802D01*
X120026D01*
Y109646D01*
X119925Y110153D01*
X119638Y110583D01*
X119436Y110785D01*
Y122545D01*
X119875Y122727D01*
X120607Y123288D01*
X121168Y124019D01*
X121520Y124871D01*
X121640Y125784D01*
Y126184D01*
X121520Y127098D01*
X121168Y127949D01*
X120607Y128681D01*
X119875Y129242D01*
X119024Y129594D01*
X118110Y129715D01*
X117197Y129594D01*
X116345Y129242D01*
X115614Y128681D01*
X115053Y127949D01*
X114700Y127098D01*
X114580Y126184D01*
Y125784D01*
X114700Y124871D01*
X115053Y124019D01*
X115614Y123288D01*
X116345Y122727D01*
X116785Y122545D01*
Y110236D01*
X116886Y109729D01*
X117173Y109299D01*
X117375Y109097D01*
Y106802D01*
X116623D01*
Y105656D01*
X106376D01*
X106016Y106016D01*
X105586Y106303D01*
X105079Y106404D01*
X80472D01*
Y108779D01*
X73072D01*
Y101379D01*
X75140D01*
Y90000D01*
X75054Y89567D01*
X75185Y88910D01*
X75557Y88353D01*
X75924Y88107D01*
X89791Y74240D01*
X90321Y73887D01*
X90945Y73762D01*
X93001D01*
Y73316D01*
X94147D01*
Y60039D01*
X94157Y59991D01*
Y58268D01*
X94257Y57764D01*
X94542Y57337D01*
X94969Y57052D01*
X95472Y56952D01*
X95976Y57052D01*
X96128Y57154D01*
X96294Y57121D01*
X96820Y56770D01*
X96941Y56745D01*
Y60039D01*
X97941D01*
Y56745D01*
X98062Y56770D01*
X98588Y57121D01*
X98753Y57154D01*
X98906Y57052D01*
X99410Y56952D01*
X99913Y57052D01*
X99999Y57109D01*
X100394Y57310D01*
X100789Y57109D01*
X100874Y57052D01*
X101378Y56952D01*
X101882Y57052D01*
X101967Y57109D01*
X102362Y57310D01*
X102757Y57109D01*
X102843Y57052D01*
X103347Y56952D01*
X103850Y57052D01*
X103936Y57109D01*
X104331Y57310D01*
X104726Y57109D01*
X104811Y57052D01*
X105315Y56952D01*
X105818Y57052D01*
X105904Y57109D01*
X106299Y57310D01*
X106694Y57109D01*
X106780Y57052D01*
X107283Y56952D01*
X107787Y57052D01*
X107873Y57109D01*
X108268Y57310D01*
X108663Y57109D01*
X108748Y57052D01*
X109252Y56952D01*
X109756Y57052D01*
X109841Y57109D01*
X110236Y57310D01*
X110631Y57109D01*
X110717Y57052D01*
X111221Y56952D01*
X111724Y57052D01*
X111810Y57109D01*
X112205Y57310D01*
X112600Y57109D01*
X112685Y57052D01*
X113189Y56952D01*
X113692Y57052D01*
X113778Y57109D01*
X114173Y57310D01*
X114568Y57109D01*
X114654Y57052D01*
X115157Y56952D01*
X115661Y57052D01*
X115747Y57109D01*
X116142Y57310D01*
X116537Y57109D01*
X116622Y57052D01*
X117126Y56952D01*
X117630Y57052D01*
X118056Y57337D01*
X118342Y57764D01*
X118442Y58268D01*
Y59953D01*
X118461Y60049D01*
Y66706D01*
X118829Y67256D01*
X118959Y67913D01*
X118829Y68571D01*
X118456Y69128D01*
X118282Y69245D01*
X118433Y69745D01*
X121063D01*
X121063Y69745D01*
X121492Y69830D01*
X121856Y70073D01*
X126369Y74586D01*
X126831Y74395D01*
Y72336D01*
X126331Y72023D01*
X125868Y72115D01*
X125211Y71984D01*
X124654Y71612D01*
X124282Y71055D01*
X124151Y70398D01*
X124282Y69740D01*
X124654Y69183D01*
X124747Y69121D01*
Y62945D01*
X124747Y62945D01*
X124832Y62516D01*
X125075Y62152D01*
X125331Y61896D01*
Y55766D01*
X124942Y55422D01*
X124803Y55450D01*
X121260D01*
X120756Y55349D01*
X120329Y55064D01*
X120044Y54637D01*
X119944Y54134D01*
X120044Y53630D01*
X120329Y53203D01*
Y53096D01*
X120044Y52669D01*
X119944Y52165D01*
X120044Y51662D01*
X120101Y51576D01*
X120302Y51181D01*
X120101Y50786D01*
X120044Y50700D01*
X119944Y50197D01*
X120044Y49693D01*
X120329Y49266D01*
Y49159D01*
X120044Y48732D01*
X119944Y48228D01*
X120044Y47725D01*
X120146Y47572D01*
X120113Y47407D01*
X119762Y46880D01*
X119738Y46760D01*
X123031D01*
Y45760D01*
X119738D01*
X119762Y45639D01*
X120113Y45113D01*
X120146Y44947D01*
X120044Y44795D01*
X119944Y44291D01*
X120044Y43788D01*
X120329Y43361D01*
Y43253D01*
X120044Y42826D01*
X119944Y42323D01*
X120044Y41819D01*
X120101Y41734D01*
X120302Y41339D01*
X120101Y40944D01*
X120044Y40858D01*
X119944Y40354D01*
X120044Y39851D01*
X120329Y39424D01*
Y39316D01*
X120044Y38889D01*
X119944Y38386D01*
X120044Y37882D01*
X120329Y37455D01*
Y37348D01*
X120044Y36921D01*
X119944Y36417D01*
X120044Y35914D01*
X120101Y35828D01*
X120302Y35433D01*
X120101Y35038D01*
X120044Y34952D01*
X119944Y34449D01*
X120044Y33945D01*
X120101Y33860D01*
X120302Y33465D01*
X120101Y33069D01*
X120044Y32984D01*
X119944Y32480D01*
X120044Y31977D01*
X120329Y31550D01*
X120756Y31265D01*
X121260Y31165D01*
X124803D01*
X125307Y31265D01*
X125734Y31550D01*
X126019Y31977D01*
X126043Y32097D01*
X126585Y32262D01*
X128800Y30047D01*
Y-1969D01*
X128800Y-1969D01*
X128885Y-2398D01*
X129128Y-2762D01*
X135034Y-8667D01*
X135034Y-8667D01*
X135398Y-8910D01*
X135827Y-8996D01*
X142424D01*
X142486Y-9088D01*
X143043Y-9461D01*
X143701Y-9591D01*
X144358Y-9461D01*
X144915Y-9088D01*
X145288Y-8531D01*
X145418Y-7874D01*
X145288Y-7217D01*
X144915Y-6660D01*
X144358Y-6287D01*
X143701Y-6157D01*
X143043Y-6287D01*
X142486Y-6660D01*
X142424Y-6752D01*
X136291D01*
X131385Y-1846D01*
X131394Y-1798D01*
X131937Y-1633D01*
X135034Y-4730D01*
X135034Y-4730D01*
X135398Y-4973D01*
X135827Y-5059D01*
X135827Y-5059D01*
X139471D01*
X139534Y-5152D01*
X140091Y-5524D01*
X140748Y-5655D01*
X141405Y-5524D01*
X141963Y-5152D01*
X142335Y-4594D01*
X142465Y-3937D01*
X142335Y-3280D01*
X141963Y-2723D01*
X141405Y-2350D01*
X140748Y-2220D01*
X140091Y-2350D01*
X139534Y-2723D01*
X139471Y-2816D01*
X136291D01*
X133011Y465D01*
Y31088D01*
X133473Y31279D01*
X136674Y28079D01*
Y1276D01*
X136581Y1214D01*
X136208Y657D01*
X136078Y0D01*
X136208Y-657D01*
X136581Y-1214D01*
X137138Y-1587D01*
X137795Y-1718D01*
X138452Y-1587D01*
X139010Y-1214D01*
X139382Y-657D01*
X139513Y0D01*
X139382Y657D01*
X139010Y1214D01*
X138917Y1276D01*
Y28543D01*
X138917Y28543D01*
X138831Y28973D01*
X138588Y29336D01*
X136286Y31639D01*
X136493Y32139D01*
X141183D01*
X144344Y28978D01*
Y-1969D01*
X144445Y-2476D01*
X144732Y-2906D01*
X146701Y-4874D01*
X147131Y-5162D01*
X147638Y-5263D01*
X157480D01*
X157988Y-5162D01*
X158418Y-4874D01*
X161764Y-1528D01*
X162051Y-1098D01*
X162152Y-591D01*
Y1465D01*
X162905D01*
Y6409D01*
X162152D01*
Y11898D01*
X163692D01*
Y18810D01*
X157693D01*
Y19110D01*
X154831D01*
Y15354D01*
Y11598D01*
X157693D01*
Y11898D01*
X159501D01*
Y6409D01*
X158749D01*
Y1465D01*
X159501D01*
Y-41D01*
X156931Y-2612D01*
X148187D01*
X146995Y-1419D01*
Y29528D01*
X146894Y30035D01*
X146607Y30465D01*
X142669Y34402D01*
X142239Y34689D01*
X141732Y34790D01*
X136376D01*
X135543Y35623D01*
X135789Y36084D01*
X135827Y36076D01*
X143152D01*
X144732Y34496D01*
X145162Y34209D01*
X145669Y34108D01*
X145669Y34108D01*
X152056D01*
Y32961D01*
X153005D01*
Y27472D01*
X151268D01*
Y20560D01*
X157268D01*
Y20260D01*
X160130D01*
Y24016D01*
X160630D01*
Y24516D01*
X163992D01*
Y27772D01*
X161955D01*
Y32661D01*
X163205D01*
Y34933D01*
X158449D01*
Y32661D01*
X159304D01*
Y27772D01*
X157268D01*
Y27472D01*
X155656D01*
Y32961D01*
X156212D01*
Y37905D01*
X152056D01*
Y36759D01*
X146218D01*
X144638Y38339D01*
X144208Y38626D01*
X143701Y38727D01*
X136376D01*
X132599Y42504D01*
X132790Y42966D01*
X132874D01*
X133381Y43067D01*
X133811Y43354D01*
X135386Y44929D01*
X135673Y45359D01*
X135774Y45866D01*
Y48709D01*
X136527D01*
Y53176D01*
X137027Y53383D01*
X139064Y51346D01*
Y48709D01*
X139510D01*
Y43898D01*
X139635Y43273D01*
X139988Y42744D01*
X140272Y42460D01*
X140518Y42093D01*
X141075Y41720D01*
X141732Y41590D01*
X142390Y41720D01*
X142947Y42093D01*
X143319Y42650D01*
X143450Y43307D01*
X143319Y43964D01*
X142947Y44522D01*
X142773Y44638D01*
Y48709D01*
X143220D01*
Y53653D01*
X141371D01*
X139427Y55597D01*
Y56283D01*
X140642D01*
Y59055D01*
Y61827D01*
X139427D01*
Y64157D01*
X140642D01*
Y66929D01*
Y69701D01*
X139427D01*
Y70387D01*
X141371Y72332D01*
X143220D01*
Y75191D01*
X143682Y75382D01*
X145532Y73532D01*
Y61024D01*
X145532Y61024D01*
X145617Y60594D01*
X145861Y60231D01*
X147829Y58262D01*
X148193Y58019D01*
X148622Y57934D01*
X148622Y57934D01*
X152056D01*
Y56583D01*
X153012D01*
Y53653D01*
X152056D01*
Y48709D01*
X153012D01*
Y45779D01*
X152056D01*
Y40835D01*
X156212D01*
Y45779D01*
X155255D01*
Y48709D01*
X156212D01*
X156212Y53166D01*
Y53291D01*
X156212Y53291D01*
X156273Y53643D01*
X156285Y53662D01*
X156663Y53694D01*
X156863Y53664D01*
X158749Y51778D01*
Y48709D01*
X160598D01*
X162728Y46579D01*
X162521Y46079D01*
X161327D01*
Y43807D01*
X163205D01*
Y45395D01*
X163705Y45602D01*
X174550Y34757D01*
Y29961D01*
X174464Y29528D01*
X174550Y29094D01*
Y-308D01*
X171397Y-3461D01*
X171030Y-3707D01*
X170784Y-4074D01*
X168138Y-6720D01*
X167784Y-7250D01*
X167660Y-7874D01*
Y-16623D01*
X162095D01*
Y-20416D01*
X130991D01*
X125647Y-15072D01*
Y11614D01*
X125523Y12239D01*
X125169Y12768D01*
X120582Y17355D01*
Y19204D01*
X119436D01*
Y20669D01*
X119335Y21177D01*
X119047Y21607D01*
X118451Y22203D01*
Y26575D01*
X118442Y26623D01*
Y28346D01*
X118342Y28850D01*
X118056Y29277D01*
X117630Y29562D01*
X117126Y29662D01*
X116622Y29562D01*
X116470Y29460D01*
X116304Y29493D01*
X115778Y29845D01*
X115657Y29869D01*
Y26575D01*
Y22917D01*
X115800Y22800D01*
Y21654D01*
X115901Y21146D01*
X116189Y20716D01*
X116785Y20120D01*
Y19204D01*
X115639D01*
Y15048D01*
X118275D01*
X120050Y13273D01*
X119859Y12811D01*
X118610D01*
Y10933D01*
X120882D01*
Y11788D01*
X121344Y11979D01*
X122384Y10938D01*
Y-15748D01*
X122509Y-16372D01*
X122862Y-16902D01*
X129161Y-23201D01*
X129691Y-23554D01*
X130315Y-23679D01*
X162095D01*
Y-27472D01*
X167660D01*
Y-39457D01*
X166623D01*
Y-50306D01*
X167152D01*
X167359Y-50806D01*
X164594Y-53571D01*
X164241Y-54100D01*
X164117Y-54724D01*
Y-56583D01*
X163670D01*
Y-61527D01*
X164117D01*
Y-63891D01*
X163694Y-64314D01*
X154219D01*
X153206Y-63301D01*
Y-59488D01*
X153292Y-59055D01*
X153162Y-58398D01*
X152789Y-57841D01*
X152232Y-57468D01*
X151575Y-57338D01*
X150917Y-57468D01*
X150360Y-57841D01*
X149988Y-58398D01*
X149857Y-59055D01*
X149943Y-59488D01*
Y-63976D01*
X150068Y-64601D01*
X150421Y-65130D01*
X152390Y-67098D01*
X152919Y-67452D01*
X153543Y-67576D01*
X164370D01*
X164994Y-67452D01*
X165524Y-67098D01*
X166902Y-65720D01*
X167255Y-65191D01*
X167379Y-64567D01*
X167379Y-64567D01*
Y-61527D01*
X167826D01*
Y-56583D01*
X167379D01*
Y-55400D01*
X170445Y-52335D01*
X170799Y-51805D01*
X170923Y-51181D01*
Y-50306D01*
X171960D01*
Y-39457D01*
X170923D01*
Y-27472D01*
X176487D01*
Y-23679D01*
X184449D01*
X185073Y-23554D01*
X185602Y-23201D01*
X194520Y-14283D01*
X196369D01*
Y-13442D01*
X196850D01*
X197475Y-13318D01*
X197849Y-13068D01*
X201024D01*
X201235Y-13209D01*
X201969Y-13355D01*
X207480D01*
X208214Y-13209D01*
X208837Y-12793D01*
X209252Y-12171D01*
X209398Y-11437D01*
X209252Y-10703D01*
X208837Y-10081D01*
X208214Y-9665D01*
X207480Y-9519D01*
X201969D01*
X201235Y-9665D01*
X201024Y-9806D01*
X197224D01*
X196869Y-9876D01*
X196369Y-9528D01*
Y-9339D01*
X195923D01*
Y-2558D01*
X196023Y-2516D01*
X196423Y-2412D01*
X196796Y-2662D01*
X197303Y-2763D01*
X200592D01*
X200612Y-2793D01*
X201235Y-3209D01*
X201969Y-3355D01*
X207480D01*
X208214Y-3209D01*
X208837Y-2793D01*
X209252Y-2171D01*
X209398Y-1437D01*
X209252Y-703D01*
X208837Y-81D01*
X208214Y335D01*
X207480Y481D01*
X201969D01*
X201235Y335D01*
X200612Y-81D01*
X200592Y-111D01*
X197852D01*
X197817Y-76D01*
Y6966D01*
X198384Y7533D01*
X209646D01*
X210153Y7634D01*
X210583Y7921D01*
X211757Y9095D01*
X212257Y8888D01*
Y6454D01*
X210691Y4888D01*
X208857D01*
X208837Y4919D01*
X208214Y5335D01*
X207480Y5481D01*
X201969D01*
X201235Y5335D01*
X200612Y4919D01*
X200197Y4297D01*
X200050Y3563D01*
X200197Y2829D01*
X200612Y2207D01*
X201235Y1791D01*
X201969Y1645D01*
X207480D01*
X208214Y1791D01*
X208837Y2207D01*
X208857Y2238D01*
X211240D01*
X211747Y2338D01*
X212177Y2626D01*
X214520Y4968D01*
X214807Y5398D01*
X214908Y5906D01*
Y41339D01*
X214908Y41339D01*
X214807Y41846D01*
X214520Y42276D01*
X212926Y43870D01*
X212495Y44158D01*
X211988Y44258D01*
X208857D01*
X208837Y44289D01*
X208214Y44705D01*
X207480Y44851D01*
X201969D01*
X201235Y44705D01*
X200612Y44289D01*
X200455Y44055D01*
X190195D01*
X190133Y44148D01*
X189576Y44520D01*
X188919Y44651D01*
X188261Y44520D01*
X187704Y44148D01*
X187332Y43590D01*
X187201Y42933D01*
X187332Y42276D01*
X187704Y41719D01*
X188261Y41346D01*
X188919Y41216D01*
X189576Y41346D01*
X190133Y41719D01*
X190195Y41811D01*
X200455D01*
X200612Y41577D01*
X201235Y41161D01*
X201969Y41015D01*
X207480D01*
X208214Y41161D01*
X208837Y41577D01*
X208857Y41608D01*
X211439D01*
X212257Y40790D01*
Y38356D01*
X211757Y38149D01*
X211036Y38870D01*
X210606Y39158D01*
X210098Y39259D01*
X208857D01*
X208837Y39289D01*
X208214Y39705D01*
X207480Y39851D01*
X201969D01*
X201235Y39705D01*
X200612Y39289D01*
X200455Y39055D01*
X190195D01*
X190133Y39147D01*
X189576Y39520D01*
X188919Y39651D01*
X188261Y39520D01*
X187704Y39147D01*
X187332Y38590D01*
X187201Y37933D01*
X187332Y37276D01*
X187704Y36719D01*
X188261Y36346D01*
X188919Y36216D01*
X189576Y36346D01*
X190133Y36719D01*
X190195Y36812D01*
X200455D01*
X200612Y36577D01*
X201235Y36161D01*
X201969Y36015D01*
X207480D01*
X208214Y36161D01*
X208837Y36577D01*
X208857Y36608D01*
X209549D01*
X209792Y36365D01*
Y34300D01*
X209292Y34148D01*
X209053Y34506D01*
X208331Y34988D01*
X207480Y35157D01*
X205224D01*
Y32933D01*
Y30709D01*
X207480D01*
X208331Y30878D01*
X209053Y31361D01*
X209292Y31718D01*
X209792Y31566D01*
Y28518D01*
X209292Y28469D01*
X209252Y28667D01*
X208837Y29289D01*
X208214Y29705D01*
X207480Y29851D01*
X201969D01*
X201235Y29705D01*
X201024Y29564D01*
X197224D01*
X196869Y29494D01*
X196369Y29842D01*
Y30031D01*
X192213D01*
Y25087D01*
X192660D01*
Y-9339D01*
X192213D01*
Y-11976D01*
X190438Y-13751D01*
X189976Y-13559D01*
Y-12311D01*
X188098D01*
Y-14583D01*
X188953D01*
X189144Y-15045D01*
X183773Y-20416D01*
X176487D01*
Y-16623D01*
X170923D01*
Y-8550D01*
X173091Y-6381D01*
X173459Y-6136D01*
X173704Y-5768D01*
X177335Y-2138D01*
X177688Y-1609D01*
X177812Y-984D01*
Y29094D01*
X177899Y29528D01*
X177812Y29961D01*
Y35433D01*
X177688Y36057D01*
X177335Y36587D01*
X162905Y51016D01*
Y53653D01*
X160623D01*
X158806Y55470D01*
Y56583D01*
X162905D01*
Y57730D01*
X174648D01*
X179181Y53197D01*
X179611Y52909D01*
X180118Y52808D01*
X220472D01*
X220980Y52909D01*
X221410Y53197D01*
X228895Y60682D01*
X252404D01*
X255564Y57522D01*
Y4921D01*
X255665Y4414D01*
X255953Y3984D01*
X260874Y-937D01*
X261304Y-1225D01*
X261811Y-1326D01*
X274103D01*
Y-2472D01*
X276384D01*
X278202Y-4289D01*
Y-5402D01*
X274103D01*
Y-6549D01*
X268701D01*
X268194Y-6650D01*
X267763Y-6937D01*
X263584Y-11117D01*
X263122Y-11208D01*
X262565Y-11581D01*
X262193Y-12138D01*
X262062Y-12795D01*
X262193Y-13453D01*
X262565Y-14010D01*
X263122Y-14382D01*
X263779Y-14513D01*
X264437Y-14382D01*
X264994Y-14010D01*
X265366Y-13453D01*
X265458Y-12991D01*
X269250Y-9200D01*
X274103D01*
Y-10346D01*
X278202D01*
Y-11811D01*
X278303Y-12318D01*
X278590Y-12748D01*
X280559Y-14717D01*
X280989Y-15004D01*
X281496Y-15105D01*
X288386D01*
X288893Y-15004D01*
X289323Y-14717D01*
X291292Y-12748D01*
X291579Y-12318D01*
X291680Y-11811D01*
Y6549D01*
X329221D01*
Y5402D01*
X333320D01*
Y1533D01*
X328191Y-3596D01*
X304528D01*
X304020Y-3697D01*
X303590Y-3984D01*
X299653Y-7921D01*
X299366Y-8351D01*
X299265Y-8858D01*
Y-11898D01*
X297922D01*
Y-19598D01*
X302624D01*
X302831Y-20098D01*
X300864Y-22065D01*
X245396D01*
X233831Y-10500D01*
X233401Y-10212D01*
X232894Y-10112D01*
X228542D01*
X228522Y-10081D01*
X227899Y-9665D01*
X227165Y-9519D01*
X221654D01*
X220920Y-9665D01*
X220297Y-10081D01*
X219882Y-10703D01*
X219736Y-11437D01*
X219882Y-12171D01*
X220297Y-12793D01*
X220920Y-13209D01*
X221654Y-13355D01*
X227165D01*
X227899Y-13209D01*
X228522Y-12793D01*
X228542Y-12763D01*
X232345D01*
X243079Y-23497D01*
X242888Y-23959D01*
X187008D01*
X186384Y-24083D01*
X185854Y-24437D01*
X177193Y-33098D01*
X176839Y-33628D01*
X176715Y-34252D01*
Y-39457D01*
X175678D01*
Y-50306D01*
X176715D01*
Y-52362D01*
X176839Y-52987D01*
X177193Y-53516D01*
X177896Y-54219D01*
Y-56583D01*
X177450D01*
Y-61527D01*
X181606D01*
Y-56583D01*
X181159D01*
Y-53543D01*
X181035Y-52919D01*
X180681Y-52390D01*
X179978Y-51687D01*
Y-50306D01*
X181015D01*
Y-39457D01*
X179978D01*
Y-34928D01*
X187684Y-27222D01*
X270978D01*
X275421Y-31665D01*
X275951Y-32019D01*
X276575Y-32143D01*
X277173D01*
X277607Y-32229D01*
X278264Y-32099D01*
X278788Y-31748D01*
X278960Y-31786D01*
X279288Y-31927D01*
Y-37879D01*
X264789Y-52379D01*
X194429D01*
X193961Y-52472D01*
X193564Y-52737D01*
X175674Y-70627D01*
X153066D01*
X135708Y-53269D01*
X135311Y-53004D01*
X134843Y-52910D01*
X105315D01*
X104847Y-53004D01*
X104450Y-53269D01*
X81186Y-76532D01*
X14356D01*
X12050Y-74226D01*
Y-62515D01*
X14286Y-60279D01*
X16204D01*
X16428Y-60820D01*
X16989Y-61551D01*
X17720Y-62112D01*
X18571Y-62465D01*
X19485Y-62585D01*
X19885D01*
X20799Y-62465D01*
X21650Y-62112D01*
X22381Y-61551D01*
X22942Y-60820D01*
X23295Y-59969D01*
X23415Y-59055D01*
X23295Y-58141D01*
X22942Y-57290D01*
X22381Y-56559D01*
X21650Y-55998D01*
X20799Y-55645D01*
X19885Y-55525D01*
X19485D01*
X18571Y-55645D01*
X17720Y-55998D01*
X16989Y-56559D01*
X16428Y-57290D01*
X16204Y-57832D01*
X13780D01*
X13311Y-57925D01*
X12914Y-58190D01*
X9962Y-61143D01*
X9696Y-61540D01*
X9603Y-62008D01*
Y-74733D01*
X9696Y-75201D01*
X9962Y-75598D01*
X12984Y-78621D01*
X13382Y-78886D01*
X13850Y-78979D01*
X81693D01*
X82161Y-78886D01*
X82558Y-78621D01*
X105822Y-55357D01*
X134336D01*
X145745Y-66766D01*
X145537Y-67266D01*
X129440D01*
Y-65442D01*
X122528D01*
Y-67266D01*
X101568D01*
X100943Y-67391D01*
X100414Y-67744D01*
X81524Y-86635D01*
X81170Y-87164D01*
X81046Y-87788D01*
Y-89788D01*
X78127D01*
Y-99188D01*
X81046D01*
Y-105536D01*
X78127D01*
Y-114936D01*
X87227D01*
Y-105536D01*
X84308D01*
Y-99188D01*
X87227D01*
Y-89788D01*
X84308D01*
Y-88464D01*
X102243Y-70529D01*
X122528D01*
Y-72354D01*
X129440D01*
Y-70529D01*
X145395D01*
X150370Y-75504D01*
X150899Y-75858D01*
X151523Y-75982D01*
X183524D01*
X184148Y-75858D01*
X184677Y-75504D01*
X202447Y-57734D01*
X286726D01*
X294654Y-65661D01*
X295183Y-66015D01*
X295807Y-66139D01*
X341988D01*
X342613Y-66015D01*
X343142Y-65661D01*
X362880Y-45923D01*
X372047D01*
X372672Y-45799D01*
X373201Y-45445D01*
X386980Y-31665D01*
X387334Y-31136D01*
X387458Y-30512D01*
Y10827D01*
Y65945D01*
X387334Y66569D01*
X386980Y67098D01*
X381902Y72177D01*
X381372Y72531D01*
X380748Y72655D01*
X378487D01*
Y74873D01*
X370788D01*
Y72497D01*
X367802D01*
X366311Y73988D01*
X365782Y74342D01*
X365158Y74466D01*
X360739D01*
Y74913D01*
X355796D01*
Y70757D01*
X360739D01*
Y71203D01*
X364482D01*
X365972Y69713D01*
X366502Y69359D01*
X367126Y69235D01*
X370788D01*
Y67174D01*
X378487D01*
Y69392D01*
X380072D01*
X384195Y65269D01*
Y11502D01*
X382356Y9663D01*
X377865D01*
Y11881D01*
X370166D01*
Y9663D01*
X364603D01*
X363979Y9539D01*
X363450Y9185D01*
X363180Y8915D01*
X358771D01*
Y9361D01*
X353828D01*
Y5206D01*
X358771D01*
Y5652D01*
X363856D01*
X364480Y5776D01*
X365009Y6130D01*
X365279Y6400D01*
X370166D01*
Y4182D01*
X377865D01*
Y6400D01*
X383032D01*
X383656Y6524D01*
X383695Y6551D01*
X384195Y6284D01*
Y-29836D01*
X371372Y-42660D01*
X362205D01*
X361580Y-42784D01*
X361051Y-43138D01*
X341313Y-62876D01*
X339690D01*
X339499Y-62415D01*
X351547Y-50366D01*
X351901Y-49837D01*
X352025Y-49213D01*
Y-47835D01*
Y-23141D01*
X353850D01*
Y-21316D01*
X366299D01*
X366923Y-21192D01*
X367453Y-20839D01*
X372701Y-15591D01*
X373011Y-15719D01*
X374016Y-15851D01*
X375021Y-15719D01*
X375957Y-15331D01*
X376761Y-14714D01*
X377378Y-13910D01*
X377766Y-12973D01*
X377899Y-11969D01*
X377766Y-10964D01*
X377378Y-10027D01*
X376761Y-9223D01*
X375957Y-8606D01*
X375021Y-8218D01*
X374016Y-8086D01*
X373011Y-8218D01*
X372074Y-8606D01*
X371270Y-9223D01*
X370653Y-10027D01*
X370265Y-10964D01*
X370133Y-11969D01*
X370265Y-12973D01*
X370394Y-13284D01*
X365623Y-18054D01*
X353850D01*
Y-16229D01*
X346938D01*
Y-23141D01*
X348762D01*
Y-46509D01*
X325306D01*
Y-45757D01*
X320363D01*
Y-49856D01*
X313150D01*
X312708Y-49716D01*
Y-43788D01*
X312152D01*
Y-37205D01*
X312051Y-36698D01*
X311764Y-36268D01*
X311342Y-35846D01*
X311549Y-35346D01*
X316251D01*
Y-32822D01*
X326772D01*
X327279Y-32721D01*
X327709Y-32433D01*
X331055Y-29087D01*
X331343Y-28657D01*
X331444Y-28150D01*
Y-18220D01*
X332196D01*
Y-13276D01*
X328040D01*
Y-18220D01*
X328793D01*
Y-27601D01*
X326223Y-30171D01*
X316251D01*
Y-27646D01*
X310914D01*
Y-34710D01*
X310414Y-34918D01*
X308412Y-32915D01*
Y-23974D01*
X312789Y-19598D01*
X316251D01*
Y-17074D01*
X318834D01*
X319225Y-17335D01*
X319882Y-17466D01*
X320539Y-17335D01*
X320847Y-17129D01*
X321347Y-17281D01*
Y-18220D01*
X325503D01*
Y-13276D01*
X321347D01*
Y-14215D01*
X320847Y-14367D01*
X320539Y-14161D01*
X319882Y-14030D01*
X319225Y-14161D01*
X318834Y-14423D01*
X316251D01*
Y-11898D01*
X310914D01*
Y-17723D01*
X306149Y-22488D01*
X305862Y-22918D01*
X305761Y-23425D01*
Y-26803D01*
X305299Y-26994D01*
X304015Y-25710D01*
X303618Y-25444D01*
X303150Y-25351D01*
X285433D01*
X284965Y-25444D01*
X284568Y-25710D01*
X279802Y-30475D01*
X279282Y-30303D01*
X279193Y-29855D01*
X278821Y-29297D01*
X278264Y-28925D01*
X277607Y-28794D01*
X277238Y-28868D01*
X273548Y-25178D01*
X273739Y-24716D01*
X301413D01*
X301920Y-24615D01*
X302350Y-24328D01*
X309008Y-17670D01*
X309295Y-17240D01*
X309396Y-16732D01*
Y-12360D01*
X311573Y-10184D01*
X333661D01*
X334169Y-10083D01*
X334599Y-9796D01*
X345425Y1031D01*
X345713Y1461D01*
X345814Y1969D01*
Y20669D01*
X345713Y21177D01*
X345425Y21607D01*
X342473Y24559D01*
X342043Y24847D01*
X341535Y24948D01*
X340070D01*
Y26094D01*
X335971D01*
Y27559D01*
X335870Y28066D01*
X335583Y28496D01*
X328772Y35307D01*
X328342Y35595D01*
X327835Y35695D01*
X321062D01*
X321041Y35726D01*
X320419Y36142D01*
X319685Y36288D01*
X314173D01*
X313439Y36142D01*
X312817Y35726D01*
X312401Y35104D01*
X312255Y34370D01*
X312401Y33636D01*
X312817Y33014D01*
X313439Y32598D01*
X314173Y32452D01*
X319685D01*
X320419Y32598D01*
X321041Y33014D01*
X321062Y33045D01*
X327286D01*
X333320Y27010D01*
Y26094D01*
X330702D01*
X326488Y30307D01*
X326058Y30595D01*
X325551Y30696D01*
X321062D01*
X321041Y30726D01*
X320419Y31142D01*
X319685Y31288D01*
X314173D01*
X313439Y31142D01*
X312817Y30726D01*
X312401Y30104D01*
X312255Y29370D01*
X312401Y28636D01*
X312817Y28014D01*
X313439Y27598D01*
X314173Y27452D01*
X319685D01*
X320419Y27598D01*
X321041Y28014D01*
X321062Y28045D01*
X325002D01*
X329190Y23856D01*
X329221Y23836D01*
Y21150D01*
X333320D01*
Y19488D01*
X333421Y18981D01*
X333546Y18794D01*
X333536Y18419D01*
X333453Y18317D01*
X333415Y18283D01*
X333087Y18221D01*
X332956Y18220D01*
X332930Y18220D01*
X331096D01*
X324008Y25307D01*
X323578Y25595D01*
X323071Y25695D01*
X321062D01*
X321041Y25726D01*
X320419Y26142D01*
X319685Y26288D01*
X314173D01*
X313439Y26142D01*
X312817Y25726D01*
X312401Y25104D01*
X312255Y24370D01*
X312401Y23636D01*
X312817Y23014D01*
X313439Y22598D01*
X314173Y22452D01*
X319685D01*
X320419Y22598D01*
X321041Y23014D01*
X321062Y23045D01*
X322522D01*
X329221Y16345D01*
Y13276D01*
X331503D01*
X333320Y11459D01*
Y10346D01*
X329221D01*
Y9200D01*
X291680D01*
Y22089D01*
X292636Y23045D01*
X293111D01*
X293132Y23014D01*
X293754Y22598D01*
X294488Y22452D01*
X300000D01*
X300734Y22598D01*
X301356Y23014D01*
X301772Y23636D01*
X301918Y24370D01*
X301772Y25104D01*
X301356Y25726D01*
X300734Y26142D01*
X300000Y26288D01*
X294488D01*
X293754Y26142D01*
X293132Y25726D01*
X293111Y25695D01*
X292087D01*
X291579Y25595D01*
X291149Y25307D01*
X289417Y23575D01*
X289130Y23145D01*
X289029Y22638D01*
Y7874D01*
Y-11262D01*
X287837Y-12454D01*
X282045D01*
X280853Y-11262D01*
Y-10346D01*
X284952D01*
Y-5402D01*
X284200D01*
Y-2472D01*
X284952D01*
Y886D01*
X288195Y4128D01*
X288195Y4128D01*
X288438Y4492D01*
X288523Y4921D01*
Y27095D01*
X289677Y28249D01*
X292975D01*
X293132Y28014D01*
X293754Y27598D01*
X294488Y27452D01*
X300000D01*
X300734Y27598D01*
X301356Y28014D01*
X301772Y28636D01*
X301918Y29370D01*
X301772Y30104D01*
X301356Y30726D01*
X300734Y31142D01*
X300000Y31288D01*
X294488D01*
X293754Y31142D01*
X293132Y30726D01*
X292975Y30492D01*
X289213D01*
X288783Y30406D01*
X288420Y30163D01*
X288420Y30163D01*
X286609Y28352D01*
X286365Y27988D01*
X286280Y27559D01*
X286280Y27559D01*
Y5386D01*
X283366Y2472D01*
X280796D01*
X280796Y-1985D01*
Y-2110D01*
X280796Y-2110D01*
X280735Y-2462D01*
X280723Y-2481D01*
X280345Y-2513D01*
X280145Y-2483D01*
X278259Y-597D01*
Y2472D01*
X277507D01*
Y5402D01*
X278259D01*
Y10346D01*
X274103D01*
Y5402D01*
X274856D01*
Y2472D01*
X274103D01*
Y1326D01*
X262360D01*
X258215Y5470D01*
Y45774D01*
X258715Y45874D01*
X258855Y45537D01*
X259397Y44830D01*
X260104Y44288D01*
X260928Y43947D01*
X261811Y43830D01*
X262695Y43947D01*
X263350Y44218D01*
X272403D01*
Y43072D01*
X279959D01*
Y51416D01*
X272403D01*
Y50270D01*
X263350D01*
X262695Y50542D01*
X261811Y50658D01*
X260928Y50542D01*
X260104Y50200D01*
X259397Y49658D01*
X258855Y48951D01*
X258715Y48614D01*
X258215Y48714D01*
Y58071D01*
X258114Y58578D01*
X257827Y59008D01*
X255626Y61210D01*
X255944Y61598D01*
X256233Y61405D01*
X256890Y61275D01*
X257323Y61361D01*
X274103D01*
Y60520D01*
X278259D01*
Y65464D01*
X274103D01*
Y64623D01*
X265967D01*
X265868Y65123D01*
X266277Y65293D01*
X266903Y65774D01*
X268970Y67840D01*
X272403D01*
Y66694D01*
X279959D01*
Y75038D01*
X272403D01*
Y73892D01*
X267717D01*
X266933Y73789D01*
X266204Y73487D01*
X265577Y73006D01*
X265577Y73006D01*
X263510Y70939D01*
X263350D01*
X262695Y71211D01*
X261890Y71317D01*
X261621Y71754D01*
X267281Y77415D01*
X274103D01*
Y76269D01*
X278259D01*
Y81212D01*
X277812D01*
Y84143D01*
X278259D01*
Y87178D01*
X278327Y87279D01*
X278427Y87786D01*
X278327Y88293D01*
X278259Y88394D01*
Y89086D01*
X278701Y89226D01*
X280354D01*
X280796Y89086D01*
X280796Y88726D01*
Y84143D01*
X281243D01*
Y81212D01*
X280796D01*
Y76269D01*
X281243D01*
Y73338D01*
X280796D01*
Y68395D01*
X284952D01*
Y69541D01*
X285868D01*
X286076Y69333D01*
Y52165D01*
X286177Y51658D01*
X286464Y51228D01*
X289260Y48433D01*
X289690Y48145D01*
X290197Y48045D01*
X293111D01*
X293132Y48014D01*
X293754Y47598D01*
X294488Y47452D01*
X300000D01*
X300734Y47598D01*
X301356Y48014D01*
X301772Y48636D01*
X301918Y49370D01*
X301772Y50104D01*
X301356Y50726D01*
X300734Y51142D01*
X300000Y51288D01*
X294488D01*
X293754Y51142D01*
X293132Y50726D01*
X293111Y50696D01*
X290746D01*
X288727Y52714D01*
Y69882D01*
X288626Y70389D01*
X288339Y70819D01*
X287355Y71803D01*
X286925Y72091D01*
X286417Y72192D01*
X284952D01*
Y73338D01*
X284505D01*
Y76269D01*
X284952D01*
Y81212D01*
X284505D01*
Y84143D01*
X284952D01*
X284952Y89086D01*
X285394Y89226D01*
X290013D01*
Y55073D01*
X290114Y54566D01*
X290401Y54136D01*
X291104Y53433D01*
X291534Y53145D01*
X292041Y53045D01*
X293111D01*
X293132Y53014D01*
X293754Y52598D01*
X294488Y52452D01*
X300000D01*
X300734Y52598D01*
X301356Y53014D01*
X301772Y53636D01*
X301918Y54370D01*
X301772Y55104D01*
X301356Y55726D01*
X300734Y56142D01*
X300000Y56288D01*
X294488D01*
X293754Y56142D01*
X293164Y55748D01*
X292664Y55857D01*
Y89848D01*
X292563Y90355D01*
X292276Y90785D01*
X291573Y91488D01*
X291143Y91776D01*
X290636Y91877D01*
X285394D01*
X284952Y92017D01*
X284952Y92377D01*
Y93163D01*
X290986D01*
X293950Y90199D01*
Y67913D01*
X294051Y67406D01*
X294338Y66976D01*
X298275Y63039D01*
X298705Y62752D01*
X299213Y62651D01*
X304569D01*
X306745Y60475D01*
Y47244D01*
X306846Y46737D01*
X307134Y46307D01*
X310008Y43433D01*
X310438Y43145D01*
X310945Y43045D01*
X312796D01*
X312817Y43014D01*
X313439Y42598D01*
X314173Y42452D01*
X319685D01*
X320419Y42598D01*
X321041Y43014D01*
X321062Y43045D01*
X328425D01*
X328932Y43145D01*
X329363Y43433D01*
X330702Y44772D01*
X333377D01*
Y49277D01*
X333877Y49485D01*
X335914Y47447D01*
Y44772D01*
X340070D01*
Y49716D01*
X337395D01*
X335971Y51140D01*
Y52646D01*
X340070D01*
Y57590D01*
X339318D01*
Y76378D01*
X339217Y76885D01*
X338929Y77315D01*
X308024Y108221D01*
X307594Y108508D01*
X307087Y108609D01*
X251969D01*
X251461Y108508D01*
X251031Y108221D01*
X229135Y86324D01*
X228674Y86232D01*
X228116Y85860D01*
X227744Y85303D01*
X227613Y84646D01*
X227744Y83988D01*
X228116Y83431D01*
X228674Y83059D01*
X229331Y82928D01*
X229988Y83059D01*
X230545Y83431D01*
X230918Y83988D01*
X231009Y84450D01*
X252518Y105958D01*
X306538D01*
X336667Y75829D01*
Y57590D01*
X335971D01*
Y58071D01*
X335870Y58578D01*
X335583Y59008D01*
X333614Y60977D01*
X333184Y61264D01*
X332677Y61365D01*
X329081D01*
Y68898D01*
X328980Y69405D01*
X328693Y69835D01*
X322788Y75740D01*
X322358Y76028D01*
X321850Y76129D01*
X316251D01*
Y78653D01*
X314908D01*
Y83071D01*
X314807Y83578D01*
X314520Y84008D01*
X295229Y103299D01*
X294799Y103587D01*
X294291Y103688D01*
X284952D01*
Y104834D01*
X280796D01*
Y99891D01*
X284952D01*
Y101037D01*
X293742D01*
X312257Y82522D01*
Y78653D01*
X310914D01*
Y70954D01*
X316251D01*
Y73478D01*
X321301D01*
X326430Y68349D01*
Y60588D01*
X321538Y55696D01*
X321062D01*
X321041Y55726D01*
X320419Y56142D01*
X319685Y56288D01*
X314173D01*
X313439Y56142D01*
X312817Y55726D01*
X312401Y55104D01*
X312255Y54370D01*
X312401Y53636D01*
X312817Y53014D01*
X313439Y52598D01*
X314173Y52452D01*
X319685D01*
X320419Y52598D01*
X321041Y53014D01*
X321062Y53045D01*
X322087D01*
X322594Y53145D01*
X323024Y53433D01*
X328305Y58714D01*
X332128D01*
X332790Y58052D01*
X332599Y57590D01*
X329221D01*
Y54521D01*
X325396Y50696D01*
X321062D01*
X321041Y50726D01*
X320419Y51142D01*
X319685Y51288D01*
X314173D01*
X313439Y51142D01*
X312817Y50726D01*
X312401Y50104D01*
X312255Y49370D01*
X312401Y48636D01*
X312817Y48014D01*
X313439Y47598D01*
X314173Y47452D01*
X319685D01*
X320419Y47598D01*
X321041Y48014D01*
X321062Y48045D01*
X325945D01*
X326452Y48145D01*
X326882Y48433D01*
X331096Y52646D01*
X333320D01*
Y50590D01*
X333396Y50208D01*
X333179Y49834D01*
X333065Y49716D01*
X329221D01*
Y47041D01*
X327876Y45695D01*
X321062D01*
X321041Y45726D01*
X320419Y46142D01*
X319685Y46288D01*
X314173D01*
X313439Y46142D01*
X312817Y45726D01*
X312796Y45695D01*
X311494D01*
X309396Y47793D01*
Y61024D01*
X309295Y61531D01*
X309008Y61961D01*
X306055Y64914D01*
X305625Y65201D01*
X305118Y65302D01*
X299762D01*
X296601Y68462D01*
Y90748D01*
X296500Y91255D01*
X296213Y91685D01*
X292473Y95425D01*
X292043Y95713D01*
X291535Y95814D01*
X284952D01*
Y96960D01*
X280796D01*
X280796Y92017D01*
X280354Y91877D01*
X278701D01*
X278259Y92017D01*
Y96960D01*
X274103D01*
Y92017D01*
X274550D01*
Y89086D01*
X274103D01*
Y84143D01*
X274550D01*
Y81212D01*
X274103D01*
Y80066D01*
X266732D01*
X266225Y79965D01*
X265795Y79677D01*
X252404Y66286D01*
X227362D01*
X226855Y66185D01*
X226425Y65898D01*
X218939Y58412D01*
X182636D01*
X173181Y67866D01*
X172751Y68154D01*
X172244Y68255D01*
X162905D01*
Y69401D01*
X158806D01*
Y70514D01*
X160623Y72332D01*
X162905D01*
Y77275D01*
X158749D01*
Y74206D01*
X156863Y72320D01*
X156663Y72290D01*
X156285Y72323D01*
X156273Y72341D01*
X156212Y72694D01*
X156212Y72818D01*
Y77275D01*
X155255D01*
Y80206D01*
X156212D01*
Y85149D01*
X152056D01*
Y83799D01*
X136235D01*
X136044Y84261D01*
X138670Y86887D01*
X138779Y86865D01*
X139437Y86996D01*
X139994Y87368D01*
X140366Y87925D01*
X140497Y88583D01*
X140366Y89240D01*
X139994Y89797D01*
X139819Y89914D01*
X139971Y90414D01*
X173748D01*
X176044Y88118D01*
Y69882D01*
X176044Y69882D01*
X176129Y69453D01*
X176372Y69089D01*
X180309Y65152D01*
X180309Y65152D01*
X180673Y64909D01*
X181102Y64823D01*
X189991D01*
X190142Y64386D01*
X190142Y64323D01*
Y62705D01*
X193406D01*
X196669D01*
Y64323D01*
X196669Y64386D01*
X196820Y64823D01*
X199300D01*
Y64064D01*
X205228D01*
Y67826D01*
X199300D01*
Y67066D01*
X181567D01*
X178287Y70346D01*
Y88583D01*
X178201Y89012D01*
X177958Y89376D01*
X177958Y89376D01*
X175807Y91527D01*
X175999Y91989D01*
X188473D01*
Y91032D01*
X193417D01*
Y95188D01*
X188473D01*
Y94232D01*
X130944D01*
X130799Y94515D01*
X130767Y94732D01*
X134651Y98616D01*
X134651Y98616D01*
X134895Y98980D01*
X134980Y99410D01*
Y122460D01*
X135623Y122727D01*
X136354Y123288D01*
X136916Y124019D01*
X137268Y124871D01*
X137389Y125784D01*
Y126184D01*
X137268Y127098D01*
X136916Y127949D01*
X136354Y128681D01*
X135623Y129242D01*
X134772Y129594D01*
X133858Y129715D01*
D02*
G37*
G36*
X163205Y85449D02*
X161327D01*
Y83177D01*
X163205D01*
Y85449D01*
D02*
G37*
G36*
X160327D02*
X158449D01*
Y83177D01*
X160327D01*
Y85449D01*
D02*
G37*
G36*
X205228Y95188D02*
X200284D01*
Y91032D01*
X201634D01*
Y87079D01*
X197370Y82815D01*
X184347D01*
X184285Y82907D01*
X183728Y83280D01*
X183071Y83410D01*
X182414Y83280D01*
X181856Y82907D01*
X181484Y82350D01*
X181353Y81693D01*
X181484Y81036D01*
X181856Y80478D01*
X182414Y80106D01*
X183071Y79975D01*
X183728Y80106D01*
X184285Y80478D01*
X184347Y80571D01*
X197835D01*
X197835Y80571D01*
X198264Y80657D01*
X198628Y80900D01*
X203549Y85821D01*
X203549Y85821D01*
X203792Y86185D01*
X203877Y86614D01*
X203877Y86614D01*
Y91032D01*
X205228D01*
Y95188D01*
D02*
G37*
G36*
X94972Y84465D02*
X92701D01*
Y82587D01*
X94972D01*
Y84465D01*
D02*
G37*
G36*
X163205Y82177D02*
X161327D01*
Y79905D01*
X163205D01*
Y82177D01*
D02*
G37*
G36*
X160327D02*
X158449D01*
Y79905D01*
X160327D01*
Y82177D01*
D02*
G37*
G36*
X94972Y81587D02*
X92701D01*
Y79709D01*
X94972D01*
Y81587D01*
D02*
G37*
G36*
X34909Y77394D02*
Y73925D01*
X38378D01*
X38306Y74469D01*
X37903Y75442D01*
X37262Y76278D01*
X36427Y76919D01*
X35454Y77322D01*
X34909Y77394D01*
D02*
G37*
G36*
X33909Y77394D02*
X33365Y77322D01*
X32392Y76919D01*
X31557Y76278D01*
X30915Y75442D01*
X30512Y74469D01*
X30441Y73925D01*
X33909D01*
Y77394D01*
D02*
G37*
G36*
X28109Y77125D02*
X20709D01*
Y75057D01*
X18307D01*
X17683Y74932D01*
X17154Y74579D01*
X15461Y72886D01*
X15107Y72357D01*
X14983Y71732D01*
Y44480D01*
Y12913D01*
X15107Y12289D01*
X15461Y11760D01*
X22075Y5146D01*
X22604Y4792D01*
X23228Y4668D01*
X69621D01*
X69812Y4206D01*
X68078Y2472D01*
X66229D01*
Y-1998D01*
X66229Y-2322D01*
X65770Y-2569D01*
X63779Y-579D01*
X63692Y-521D01*
Y2472D01*
X59536D01*
Y1631D01*
X50197D01*
X49573Y1507D01*
X49043Y1154D01*
X29836Y-18054D01*
X23385D01*
Y-16185D01*
X15985D01*
Y-23185D01*
X23385D01*
Y-21316D01*
X30512D01*
X31136Y-21192D01*
X31665Y-20839D01*
X50873Y-1631D01*
X59536D01*
Y-2472D01*
X62484D01*
X62504Y-2476D01*
X66727Y-6699D01*
X66727Y-6699D01*
X67090Y-6942D01*
X67520Y-7027D01*
X67520Y-7027D01*
X76479D01*
X76541Y-7120D01*
X77099Y-7492D01*
X77756Y-7623D01*
X78413Y-7492D01*
X78970Y-7120D01*
X79343Y-6563D01*
X79473Y-5906D01*
X79343Y-5248D01*
X78970Y-4691D01*
X78413Y-4319D01*
X77756Y-4188D01*
X77099Y-4319D01*
X76541Y-4691D01*
X76479Y-4784D01*
X67984D01*
X66132Y-2931D01*
X66379Y-2472D01*
X66667Y-2472D01*
X70385D01*
Y165D01*
X75060Y4839D01*
X75427Y5085D01*
X75799Y5642D01*
X75930Y6299D01*
X75799Y6956D01*
X75427Y7514D01*
X74870Y7886D01*
X74213Y8017D01*
X73779Y7931D01*
X23904D01*
X18246Y13589D01*
Y41794D01*
X21080D01*
X21178Y41559D01*
X21771Y40786D01*
X22544Y40193D01*
X23444Y39820D01*
X24409Y39693D01*
X25375Y39820D01*
X26275Y40193D01*
X27048Y40786D01*
X27641Y41559D01*
X28014Y42459D01*
X28141Y43425D01*
X28014Y44391D01*
X27641Y45291D01*
X27048Y46064D01*
X26275Y46657D01*
X25375Y47030D01*
X24409Y47157D01*
X23444Y47030D01*
X22544Y46657D01*
X21771Y46064D01*
X21178Y45291D01*
X21080Y45057D01*
X18344D01*
X18246Y45155D01*
Y71057D01*
X18983Y71794D01*
X20709D01*
Y69725D01*
X28109D01*
Y77125D01*
D02*
G37*
G36*
X143520Y69701D02*
X141642D01*
Y67429D01*
X143520D01*
Y69701D01*
D02*
G37*
G36*
X38378Y72925D02*
X34409D01*
X30441D01*
X30512Y72381D01*
X30915Y71408D01*
X31557Y70572D01*
X32392Y69931D01*
X32857Y69739D01*
X32757Y69239D01*
X28898D01*
X28390Y69138D01*
X27960Y68851D01*
X25916Y66806D01*
X25375Y67030D01*
X24409Y67157D01*
X23444Y67030D01*
X22544Y66657D01*
X21771Y66064D01*
X21178Y65291D01*
X20805Y64391D01*
X20677Y63425D01*
X20805Y62459D01*
X21178Y61559D01*
X21771Y60786D01*
X22544Y60193D01*
X23444Y59820D01*
X24409Y59693D01*
X25375Y59820D01*
X26275Y60193D01*
X27048Y60786D01*
X27641Y61559D01*
X28014Y62459D01*
X28141Y63425D01*
X28014Y64391D01*
X27790Y64932D01*
X29447Y66588D01*
X31675D01*
X31836Y66114D01*
X31771Y66064D01*
X31177Y65291D01*
X30805Y64391D01*
X30678Y63425D01*
X30805Y62459D01*
X31177Y61559D01*
X31771Y60786D01*
X32544Y60193D01*
X33444Y59820D01*
X34409Y59693D01*
X35375Y59820D01*
X36275Y60193D01*
X37048Y60786D01*
X37641Y61559D01*
X37865Y62100D01*
X43309D01*
X54435Y50973D01*
X54244Y50511D01*
X53725D01*
X49874Y54362D01*
X49444Y54650D01*
X48937Y54751D01*
X37865D01*
X37641Y55291D01*
X37048Y56064D01*
X36275Y56657D01*
X35375Y57030D01*
X34409Y57157D01*
X33444Y57030D01*
X32544Y56657D01*
X31771Y56064D01*
X31177Y55291D01*
X30805Y54391D01*
X30678Y53425D01*
X30805Y52459D01*
X31177Y51559D01*
X31771Y50786D01*
X32544Y50193D01*
X33444Y49820D01*
X34409Y49693D01*
X35375Y49820D01*
X36275Y50193D01*
X37048Y50786D01*
X37641Y51559D01*
X37865Y52100D01*
X48388D01*
X52239Y48249D01*
X52669Y47962D01*
X53176Y47861D01*
X53176Y47861D01*
X60097D01*
X60288Y47399D01*
X57522Y44633D01*
X37914D01*
X37641Y45291D01*
X37048Y46064D01*
X36275Y46657D01*
X35375Y47030D01*
X34409Y47157D01*
X33444Y47030D01*
X32544Y46657D01*
X31771Y46064D01*
X31177Y45291D01*
X30805Y44391D01*
X30678Y43425D01*
X30805Y42459D01*
X31177Y41559D01*
X31771Y40786D01*
X32520Y40211D01*
X32524Y40160D01*
X32331Y39711D01*
X29370D01*
X28863Y39610D01*
X28433Y39323D01*
X25916Y36806D01*
X25375Y37030D01*
X24409Y37157D01*
X23444Y37030D01*
X22544Y36657D01*
X21771Y36064D01*
X21178Y35291D01*
X20805Y34391D01*
X20677Y33425D01*
X20805Y32459D01*
X21178Y31559D01*
X21771Y30786D01*
X22544Y30193D01*
X23444Y29820D01*
X24409Y29693D01*
X25375Y29820D01*
X26275Y30193D01*
X27048Y30786D01*
X27641Y31559D01*
X28014Y32459D01*
X28141Y33425D01*
X28014Y34391D01*
X27790Y34932D01*
X29919Y37060D01*
X32263D01*
X32417Y36560D01*
X31771Y36064D01*
X31177Y35291D01*
X30805Y34391D01*
X30678Y33425D01*
X30805Y32459D01*
X31177Y31559D01*
X31771Y30786D01*
X32315Y30369D01*
X32145Y29869D01*
X29528D01*
X29020Y29768D01*
X28590Y29481D01*
X25916Y26806D01*
X25375Y27030D01*
X24409Y27157D01*
X23444Y27030D01*
X22544Y26657D01*
X21771Y26064D01*
X21178Y25291D01*
X20805Y24391D01*
X20677Y23425D01*
X20805Y22459D01*
X21178Y21559D01*
X21771Y20786D01*
X22544Y20193D01*
X23444Y19820D01*
X24409Y19693D01*
X25375Y19820D01*
X26275Y20193D01*
X27048Y20786D01*
X27641Y21559D01*
X28014Y22459D01*
X28141Y23425D01*
X28014Y24391D01*
X27790Y24932D01*
X30077Y27218D01*
X32590D01*
X32690Y26718D01*
X32544Y26657D01*
X31771Y26064D01*
X31177Y25291D01*
X30805Y24391D01*
X30678Y23425D01*
X30805Y22459D01*
X31177Y21559D01*
X31771Y20786D01*
X32544Y20193D01*
X33444Y19820D01*
X34409Y19693D01*
X35375Y19820D01*
X36275Y20193D01*
X37048Y20786D01*
X37641Y21559D01*
X37865Y22100D01*
X49016D01*
X49523Y22201D01*
X49953Y22488D01*
X65826Y38361D01*
X68925D01*
X69240Y37861D01*
X69149Y37402D01*
X69279Y36744D01*
X69652Y36187D01*
X70209Y35815D01*
X70866Y35684D01*
X71523Y35815D01*
X71914Y36076D01*
X74601D01*
X75366Y35311D01*
X75796Y35024D01*
X76303Y34923D01*
X81524D01*
X82031Y35024D01*
X82133Y35092D01*
X85792D01*
X85909Y34949D01*
X89567D01*
X92861D01*
X92837Y35069D01*
X92485Y35596D01*
X92452Y35761D01*
X92554Y35914D01*
X92654Y36417D01*
X92554Y36921D01*
X92269Y37348D01*
Y37455D01*
X92554Y37882D01*
X92654Y38386D01*
X92554Y38889D01*
X92497Y38975D01*
X92296Y39370D01*
X92497Y39765D01*
X92554Y39851D01*
X92654Y40354D01*
X92554Y40858D01*
X92269Y41285D01*
Y41392D01*
X92554Y41819D01*
X92654Y42323D01*
X92554Y42826D01*
X92269Y43253D01*
Y43361D01*
X92554Y43788D01*
X92654Y44291D01*
X92554Y44795D01*
X92497Y44881D01*
X92296Y45276D01*
X92497Y45671D01*
X92554Y45756D01*
X92654Y46260D01*
X92554Y46763D01*
X92269Y47190D01*
Y47298D01*
X92554Y47725D01*
X92654Y48228D01*
X92554Y48732D01*
X92497Y48818D01*
X92296Y49213D01*
X92497Y49608D01*
X92554Y49693D01*
X92654Y50197D01*
X92554Y50700D01*
X92269Y51127D01*
Y51235D01*
X92554Y51662D01*
X92654Y52165D01*
X92554Y52669D01*
X92269Y53096D01*
Y53203D01*
X92554Y53630D01*
X92654Y54134D01*
X92554Y54637D01*
X92269Y55064D01*
X91842Y55349D01*
X91339Y55450D01*
X89615D01*
X89567Y55459D01*
X85195D01*
X84356Y56298D01*
X84264Y56760D01*
X83892Y57317D01*
X83334Y57689D01*
X82677Y57820D01*
X82020Y57689D01*
X81463Y57317D01*
X81090Y56760D01*
X80960Y56102D01*
X81090Y55445D01*
X81463Y54888D01*
X82020Y54516D01*
X82481Y54424D01*
X82721Y54184D01*
X82543Y53655D01*
X82299Y53623D01*
X81998Y53923D01*
X81568Y54211D01*
X81061Y54312D01*
X61736D01*
X47197Y68851D01*
X46767Y69138D01*
X46260Y69239D01*
X36062D01*
X35962Y69739D01*
X36427Y69931D01*
X37262Y70572D01*
X37903Y71408D01*
X38306Y72381D01*
X38378Y72925D01*
D02*
G37*
G36*
X361039Y68520D02*
X358768D01*
Y66642D01*
X361039D01*
Y68520D01*
D02*
G37*
G36*
X357768D02*
X355496D01*
Y66642D01*
X357768D01*
Y68520D01*
D02*
G37*
G36*
X143520Y66429D02*
X141642D01*
Y64157D01*
X143520D01*
Y66429D01*
D02*
G37*
G36*
X361039Y65642D02*
X358768D01*
Y63764D01*
X361039D01*
Y65642D01*
D02*
G37*
G36*
X357768D02*
X355496D01*
Y63764D01*
X357768D01*
Y65642D01*
D02*
G37*
G36*
X303259Y78653D02*
X297922D01*
Y70954D01*
X301501D01*
X301659Y70922D01*
X302164D01*
X309279Y63807D01*
X309809Y63454D01*
X310433Y63329D01*
X320433D01*
X320866Y63243D01*
X321523Y63374D01*
X322081Y63746D01*
X322453Y64303D01*
X322584Y64961D01*
X322453Y65618D01*
X322081Y66175D01*
X321523Y66547D01*
X320866Y66678D01*
X320433Y66592D01*
X311109D01*
X303994Y73707D01*
X303464Y74061D01*
X303259Y74102D01*
Y78653D01*
D02*
G37*
G36*
X375138Y65143D02*
Y61524D01*
X378757D01*
X378681Y62107D01*
X378262Y63116D01*
X377597Y63983D01*
X376730Y64648D01*
X375721Y65066D01*
X375138Y65143D01*
D02*
G37*
G36*
X374138Y65143D02*
X373554Y65066D01*
X372545Y64648D01*
X371678Y63983D01*
X371013Y63116D01*
X370595Y62107D01*
X370518Y61524D01*
X374138D01*
Y65143D01*
D02*
G37*
G36*
X196669Y61705D02*
X193906D01*
Y60024D01*
X196669D01*
Y61705D01*
D02*
G37*
G36*
X192906D02*
X190142D01*
Y60024D01*
X192906D01*
Y61705D01*
D02*
G37*
G36*
X143520Y61827D02*
X141642D01*
Y59555D01*
X143520D01*
Y61827D01*
D02*
G37*
G36*
X374138Y60524D02*
X370518D01*
X370595Y59940D01*
X371013Y58931D01*
X371678Y58064D01*
X372545Y57399D01*
X373554Y56981D01*
X374138Y56904D01*
Y60524D01*
D02*
G37*
G36*
X378757D02*
X375138D01*
Y56904D01*
X375721Y56981D01*
X376730Y57399D01*
X377597Y58064D01*
X378262Y58931D01*
X378681Y59940D01*
X378757Y60524D01*
D02*
G37*
G36*
X143520Y58555D02*
X141642D01*
Y56283D01*
X143520D01*
Y58555D01*
D02*
G37*
G36*
X278559Y57890D02*
X276681D01*
Y55618D01*
X278559D01*
Y57890D01*
D02*
G37*
G36*
X275681D02*
X273803D01*
Y55618D01*
X275681D01*
Y57890D01*
D02*
G37*
G36*
X361039Y54937D02*
X358768D01*
Y53059D01*
X361039D01*
Y54937D01*
D02*
G37*
G36*
X357768D02*
X355496D01*
Y53059D01*
X357768D01*
Y54937D01*
D02*
G37*
G36*
X278559Y54618D02*
X276681D01*
Y52346D01*
X278559D01*
Y54618D01*
D02*
G37*
G36*
X275681D02*
X273803D01*
Y52346D01*
X275681D01*
Y54618D01*
D02*
G37*
G36*
X361039Y52059D02*
X358768D01*
Y50181D01*
X361039D01*
Y52059D01*
D02*
G37*
G36*
X357768D02*
X355496D01*
Y50181D01*
X357768D01*
Y52059D01*
D02*
G37*
G36*
X24409Y57157D02*
X23444Y57030D01*
X22544Y56657D01*
X21771Y56064D01*
X21178Y55291D01*
X20805Y54391D01*
X20677Y53425D01*
X20805Y52459D01*
X21178Y51559D01*
X21771Y50786D01*
X22544Y50193D01*
X23444Y49820D01*
X24409Y49693D01*
X25375Y49820D01*
X26275Y50193D01*
X27048Y50786D01*
X27641Y51559D01*
X28014Y52459D01*
X28141Y53425D01*
X28014Y54391D01*
X27641Y55291D01*
X27048Y56064D01*
X26275Y56657D01*
X25375Y57030D01*
X24409Y57157D01*
D02*
G37*
G36*
X244972Y50016D02*
X243094D01*
Y47744D01*
X244972D01*
Y50016D01*
D02*
G37*
G36*
X374638Y54906D02*
X373633Y54774D01*
X372696Y54386D01*
X371892Y53769D01*
X371275Y52965D01*
X371085Y52506D01*
X368788D01*
X368164Y52382D01*
X367635Y52028D01*
X363104Y47497D01*
X360739D01*
Y47944D01*
X355796D01*
Y47497D01*
X352953D01*
X352328Y47373D01*
X351799Y47020D01*
X348256Y43476D01*
X347902Y42947D01*
X347778Y42323D01*
Y-308D01*
X342350Y-5736D01*
X341997Y-6266D01*
X341873Y-6890D01*
Y-26883D01*
X329861Y-38895D01*
X329494Y-39140D01*
X329122Y-39697D01*
X328991Y-40354D01*
X329122Y-41012D01*
X329494Y-41569D01*
X330051Y-41941D01*
X330709Y-42072D01*
X331366Y-41941D01*
X331923Y-41569D01*
X332168Y-41202D01*
X344657Y-28713D01*
X345011Y-28183D01*
X345135Y-27559D01*
Y-7565D01*
X350563Y-2138D01*
X350917Y-1609D01*
X351041Y-984D01*
Y41647D01*
X353628Y44235D01*
X355796D01*
Y43788D01*
X360739D01*
Y44235D01*
X363779D01*
X364404Y44359D01*
X364933Y44713D01*
X369464Y49244D01*
X371208D01*
X371275Y49082D01*
X371892Y48278D01*
X372696Y47661D01*
X373633Y47273D01*
X374638Y47141D01*
X375643Y47273D01*
X376579Y47661D01*
X377383Y48278D01*
X378000Y49082D01*
X378388Y50019D01*
X378521Y51024D01*
X378388Y52029D01*
X378000Y52965D01*
X377383Y53769D01*
X376579Y54386D01*
X375643Y54774D01*
X374638Y54906D01*
D02*
G37*
G36*
X247850Y46744D02*
X245972D01*
Y44472D01*
X247850D01*
Y46744D01*
D02*
G37*
G36*
X244972D02*
X243094D01*
Y44472D01*
X244972D01*
Y46744D01*
D02*
G37*
G36*
X160327Y46079D02*
X158449D01*
Y43807D01*
X160327D01*
Y46079D01*
D02*
G37*
G36*
X284952Y65464D02*
X280796D01*
Y60520D01*
X281549D01*
Y57590D01*
X280796D01*
Y52646D01*
X281549D01*
Y49716D01*
X280796D01*
Y44772D01*
X284952D01*
Y45919D01*
X285868D01*
X288354Y43433D01*
X288784Y43145D01*
X289291Y43045D01*
X293111D01*
X293132Y43014D01*
X293754Y42598D01*
X294488Y42452D01*
X300000D01*
X300734Y42598D01*
X301356Y43014D01*
X301772Y43636D01*
X301918Y44370D01*
X301772Y45104D01*
X301356Y45726D01*
X300734Y46142D01*
X300000Y46288D01*
X294488D01*
X293754Y46142D01*
X293132Y45726D01*
X293111Y45695D01*
X289840D01*
X287355Y48181D01*
X286925Y48469D01*
X286417Y48570D01*
X284952D01*
Y49716D01*
X284200D01*
Y52646D01*
X284952D01*
Y57590D01*
X284200D01*
Y60520D01*
X284952D01*
Y65464D01*
D02*
G37*
G36*
X227165Y44851D02*
X221654D01*
X220920Y44705D01*
X220297Y44289D01*
X219882Y43667D01*
X219736Y42933D01*
X219882Y42199D01*
X220297Y41577D01*
X220920Y41161D01*
X221654Y41015D01*
X227165D01*
X227899Y41161D01*
X228522Y41577D01*
X228803Y41998D01*
X232178D01*
X232240Y41906D01*
X232798Y41533D01*
X233455Y41403D01*
X234112Y41533D01*
X234669Y41906D01*
X235041Y42463D01*
X235172Y43120D01*
X235041Y43777D01*
X234669Y44335D01*
X234112Y44707D01*
X233455Y44838D01*
X232798Y44707D01*
X232240Y44335D01*
X232178Y44242D01*
X228553D01*
X228522Y44289D01*
X227899Y44705D01*
X227165Y44851D01*
D02*
G37*
G36*
X333377Y41842D02*
X329221D01*
Y41001D01*
X325236D01*
X324803Y41088D01*
X324370Y41001D01*
X320629D01*
X320419Y41142D01*
X319685Y41288D01*
X314173D01*
X313439Y41142D01*
X312817Y40726D01*
X312401Y40104D01*
X312255Y39370D01*
X312401Y38636D01*
X312817Y38014D01*
X313439Y37598D01*
X314173Y37452D01*
X319685D01*
X320419Y37598D01*
X320629Y37739D01*
X324370D01*
X324803Y37653D01*
X325236Y37739D01*
X329221D01*
Y36898D01*
X333377D01*
Y41842D01*
D02*
G37*
G36*
X163205Y42807D02*
X161327D01*
Y40535D01*
X163205D01*
Y42807D01*
D02*
G37*
G36*
X160327D02*
X158449D01*
Y40535D01*
X160327D01*
Y42807D01*
D02*
G37*
G36*
X340370Y42142D02*
X338492D01*
Y39870D01*
X340370D01*
Y42142D01*
D02*
G37*
G36*
X337492D02*
X335614D01*
Y39870D01*
X337492D01*
Y42142D01*
D02*
G37*
G36*
X278559Y42142D02*
X276681D01*
Y39870D01*
X278559D01*
Y42142D01*
D02*
G37*
G36*
X275681D02*
X273803D01*
Y39870D01*
X275681D01*
Y42142D01*
D02*
G37*
G36*
X247850Y42142D02*
X245972D01*
Y39870D01*
X247850D01*
Y42142D01*
D02*
G37*
G36*
X244972D02*
X243094D01*
Y39870D01*
X244972D01*
Y42142D01*
D02*
G37*
G36*
X240858Y57590D02*
X236702D01*
Y52646D01*
X237148D01*
Y49716D01*
X236702D01*
Y44772D01*
X237148D01*
Y41842D01*
X236702D01*
Y37912D01*
X236240Y37721D01*
X234874Y39087D01*
X234345Y39440D01*
X233720Y39564D01*
X228110D01*
X227899Y39705D01*
X227165Y39851D01*
X221654D01*
X220920Y39705D01*
X220297Y39289D01*
X219882Y38667D01*
X219736Y37933D01*
X219882Y37199D01*
X220297Y36577D01*
X220920Y36161D01*
X221654Y36015D01*
X227165D01*
X227899Y36161D01*
X228110Y36302D01*
X233045D01*
X235067Y34280D01*
X235596Y33926D01*
X236221Y33802D01*
X236702D01*
Y29024D01*
X240858D01*
Y33968D01*
X240411D01*
Y36898D01*
X240858D01*
Y41842D01*
X240411D01*
Y44772D01*
X240858D01*
Y49716D01*
X240411D01*
Y52646D01*
X240858D01*
Y57590D01*
D02*
G37*
G36*
X284952Y41842D02*
X280796D01*
Y36898D01*
X284952D01*
Y37739D01*
X289626D01*
X290059Y37653D01*
X290492Y37739D01*
X293544D01*
X293754Y37598D01*
X294488Y37452D01*
X300000D01*
X300734Y37598D01*
X301356Y38014D01*
X301772Y38636D01*
X301918Y39370D01*
X301772Y40104D01*
X301356Y40726D01*
X300734Y41142D01*
X300000Y41288D01*
X294488D01*
X293754Y41142D01*
X293544Y41001D01*
X290492D01*
X290059Y41088D01*
X289626Y41001D01*
X284952D01*
Y41842D01*
D02*
G37*
G36*
X278559Y38870D02*
X276681D01*
Y36598D01*
X278559D01*
Y38870D01*
D02*
G37*
G36*
X275681D02*
X273803D01*
Y36598D01*
X275681D01*
Y38870D01*
D02*
G37*
G36*
X247850Y38870D02*
X245972D01*
Y36598D01*
X247850D01*
Y38870D01*
D02*
G37*
G36*
X244972D02*
X243094D01*
Y36598D01*
X244972D01*
Y38870D01*
D02*
G37*
G36*
X340370Y38870D02*
X338492D01*
Y36598D01*
X340370D01*
Y38870D01*
D02*
G37*
G36*
X337492D02*
X335614D01*
Y36598D01*
X337492D01*
Y38870D01*
D02*
G37*
G36*
X163205Y38205D02*
X161327D01*
Y35933D01*
X163205D01*
Y38205D01*
D02*
G37*
G36*
X160327D02*
X158449D01*
Y35933D01*
X160327D01*
Y38205D01*
D02*
G37*
G36*
X227165Y35157D02*
X224909D01*
Y33433D01*
X229290D01*
X229220Y33784D01*
X228738Y34506D01*
X228016Y34988D01*
X227165Y35157D01*
D02*
G37*
G36*
X223909D02*
X221654D01*
X220802Y34988D01*
X220081Y34506D01*
X219599Y33784D01*
X219529Y33433D01*
X223909D01*
Y35157D01*
D02*
G37*
G36*
X204224D02*
X201969D01*
X201117Y34988D01*
X200396Y34506D01*
X199914Y33784D01*
X199844Y33433D01*
X204224D01*
Y35157D01*
D02*
G37*
G36*
X300000Y36288D02*
X294488D01*
X293754Y36142D01*
X293132Y35726D01*
X293111Y35695D01*
X288307D01*
X287800Y35595D01*
X287370Y35307D01*
X285414Y33351D01*
X284952Y33543D01*
Y33968D01*
X280796D01*
Y29024D01*
X281549D01*
Y26094D01*
X280796D01*
Y21150D01*
X281549D01*
Y18220D01*
X280796D01*
Y13276D01*
X281549D01*
Y10346D01*
X280796D01*
Y5402D01*
X284952D01*
Y10346D01*
X284200D01*
Y13276D01*
X284952D01*
Y18220D01*
X284200D01*
Y21150D01*
X284952D01*
Y26094D01*
X284200D01*
Y29024D01*
X284952D01*
Y30171D01*
X285433D01*
X285940Y30272D01*
X286370Y30559D01*
X288856Y33045D01*
X293111D01*
X293132Y33014D01*
X293754Y32598D01*
X294488Y32452D01*
X300000D01*
X300734Y32598D01*
X301356Y33014D01*
X301772Y33636D01*
X301918Y34370D01*
X301772Y35104D01*
X301356Y35726D01*
X300734Y36142D01*
X300000Y36288D01*
D02*
G37*
G36*
X278259Y33968D02*
X274103D01*
Y32822D01*
X262859D01*
X262468Y33083D01*
X261811Y33214D01*
X261154Y33083D01*
X260597Y32710D01*
X260224Y32153D01*
X260093Y31496D01*
X260224Y30839D01*
X260597Y30282D01*
X261154Y29909D01*
X261811Y29779D01*
X262468Y29909D01*
X262859Y30171D01*
X274103D01*
Y29024D01*
X278259D01*
Y33968D01*
D02*
G37*
G36*
X247850Y34268D02*
X245972D01*
Y31996D01*
X247850D01*
Y34268D01*
D02*
G37*
G36*
X244972D02*
X243094D01*
Y31996D01*
X244972D01*
Y34268D01*
D02*
G37*
G36*
X69898Y34268D02*
X68020D01*
Y31996D01*
X69898D01*
Y34268D01*
D02*
G37*
G36*
X67020D02*
X65142D01*
Y31996D01*
X67020D01*
Y34268D01*
D02*
G37*
G36*
X229290Y32433D02*
X224909D01*
Y30709D01*
X227165D01*
X228016Y30878D01*
X228738Y31361D01*
X229220Y32082D01*
X229290Y32433D01*
D02*
G37*
G36*
X223909D02*
X219529D01*
X219599Y32082D01*
X220081Y31361D01*
X220802Y30878D01*
X221654Y30709D01*
X223909D01*
Y32433D01*
D02*
G37*
G36*
X204224D02*
X199844D01*
X199914Y32082D01*
X200396Y31361D01*
X201117Y30878D01*
X201969Y30709D01*
X204224D01*
Y32433D01*
D02*
G37*
G36*
X76291Y33968D02*
X72135D01*
Y29024D01*
X76291D01*
Y30171D01*
X77692D01*
X78083Y29909D01*
X78740Y29779D01*
X79397Y29909D01*
X79789Y30171D01*
X80709D01*
X81216Y30272D01*
X81646Y30559D01*
X82242Y31155D01*
X89567D01*
X89615Y31165D01*
X91339D01*
X91842Y31265D01*
X92269Y31550D01*
X92554Y31977D01*
X92654Y32480D01*
X92554Y32984D01*
X92452Y33136D01*
X92485Y33302D01*
X92837Y33828D01*
X92861Y33949D01*
X89567D01*
X85909D01*
X85792Y33806D01*
X81693D01*
X81186Y33705D01*
X80756Y33418D01*
X80160Y32822D01*
X79789D01*
X79397Y33083D01*
X78740Y33214D01*
X78083Y33083D01*
X77692Y32822D01*
X76291D01*
Y33968D01*
D02*
G37*
G36*
X114657Y29869D02*
X114537Y29845D01*
X114011Y29493D01*
X113845Y29460D01*
X113692Y29562D01*
X113189Y29662D01*
X112685Y29562D01*
X112600Y29505D01*
X112205Y29304D01*
X111810Y29505D01*
X111724Y29562D01*
X111221Y29662D01*
X110717Y29562D01*
X110631Y29505D01*
X110236Y29304D01*
X109841Y29505D01*
X109756Y29562D01*
X109252Y29662D01*
X108748Y29562D01*
X108663Y29505D01*
X108268Y29304D01*
X107873Y29505D01*
X107787Y29562D01*
X107283Y29662D01*
X106780Y29562D01*
X106694Y29505D01*
X106299Y29304D01*
X105904Y29505D01*
X105818Y29562D01*
X105315Y29662D01*
X104811Y29562D01*
X104726Y29505D01*
X104331Y29304D01*
X103936Y29505D01*
X103850Y29562D01*
X103347Y29662D01*
X102843Y29562D01*
X102757Y29505D01*
X102362Y29304D01*
X101967Y29505D01*
X101882Y29562D01*
X101378Y29662D01*
X100874Y29562D01*
X100789Y29505D01*
X100394Y29304D01*
X99999Y29505D01*
X99913Y29562D01*
X99409Y29662D01*
X98906Y29562D01*
X98820Y29505D01*
X98425Y29304D01*
X98030Y29505D01*
X97944Y29562D01*
X97441Y29662D01*
X96937Y29562D01*
X96852Y29505D01*
X96457Y29304D01*
X96061Y29505D01*
X95976Y29562D01*
X95472Y29662D01*
X94969Y29562D01*
X94542Y29277D01*
X94257Y28850D01*
X94157Y28346D01*
Y24803D01*
X94257Y24300D01*
X94351Y24159D01*
Y19165D01*
X92055Y16870D01*
X88875D01*
X88813Y16962D01*
X88256Y17335D01*
X87598Y17466D01*
X86941Y17335D01*
X86384Y16962D01*
X86012Y16405D01*
X85881Y15748D01*
X86012Y15091D01*
X86384Y14534D01*
X86941Y14161D01*
X87598Y14030D01*
X88256Y14161D01*
X88813Y14534D01*
X88875Y14627D01*
X92520D01*
X92520Y14627D01*
X92949Y14712D01*
X93313Y14955D01*
X95653Y17296D01*
X96115Y17104D01*
Y-18191D01*
X95935Y-18313D01*
X95616Y-18412D01*
X95145Y-18098D01*
X94488Y-17967D01*
X93831Y-18098D01*
X93274Y-18471D01*
X92901Y-19028D01*
X92771Y-19685D01*
X92901Y-20342D01*
X93163Y-20733D01*
Y-31931D01*
X84549Y-40545D01*
X78936D01*
X78915Y-40514D01*
X78293Y-40098D01*
X77559Y-39952D01*
X72047D01*
X71313Y-40098D01*
X70691Y-40514D01*
X70275Y-41136D01*
X70129Y-41870D01*
X70275Y-42604D01*
X70691Y-43226D01*
X71313Y-43642D01*
X72047Y-43788D01*
X77559D01*
X78293Y-43642D01*
X78915Y-43226D01*
X78936Y-43196D01*
X85098D01*
X85606Y-43095D01*
X86036Y-42807D01*
X95425Y-33418D01*
X95616Y-33133D01*
X96115Y-33285D01*
Y-33900D01*
X84471Y-45545D01*
X78936D01*
X78915Y-45514D01*
X78293Y-45098D01*
X77559Y-44952D01*
X72047D01*
X71313Y-45098D01*
X70691Y-45514D01*
X70275Y-46136D01*
X70129Y-46870D01*
X70275Y-47604D01*
X70691Y-48226D01*
X71313Y-48642D01*
X72047Y-48788D01*
X77559D01*
X78293Y-48642D01*
X78915Y-48226D01*
X78936Y-48195D01*
X84119D01*
X84311Y-48658D01*
X82423Y-50545D01*
X78936D01*
X78915Y-50514D01*
X78293Y-50098D01*
X77559Y-49952D01*
X72047D01*
X71313Y-50098D01*
X70691Y-50514D01*
X70275Y-51136D01*
X70129Y-51870D01*
X70275Y-52604D01*
X70691Y-53226D01*
X71313Y-53642D01*
X72047Y-53788D01*
X77559D01*
X78293Y-53642D01*
X78915Y-53226D01*
X78936Y-53196D01*
X82972D01*
X83480Y-53095D01*
X83910Y-52807D01*
X100347Y-36370D01*
X100634Y-35940D01*
X100735Y-35433D01*
Y-29155D01*
X101197Y-28964D01*
X101651Y-29418D01*
X101629Y-29528D01*
X101760Y-30185D01*
X102132Y-30742D01*
X102689Y-31114D01*
X103347Y-31245D01*
X104004Y-31114D01*
X104561Y-30742D01*
X104933Y-30185D01*
X105064Y-29528D01*
X104933Y-28870D01*
X104561Y-28313D01*
X104004Y-27941D01*
X103347Y-27810D01*
X103237Y-27832D01*
X102268Y-26862D01*
Y-13749D01*
X102768Y-13436D01*
X103230Y-13529D01*
X103693Y-13436D01*
X104193Y-13749D01*
Y-25275D01*
X104193Y-25275D01*
X104279Y-25704D01*
X104522Y-26068D01*
X105904Y-27450D01*
X105882Y-27559D01*
X106013Y-28216D01*
X106385Y-28773D01*
X106942Y-29146D01*
X107599Y-29277D01*
X108257Y-29146D01*
X108814Y-28773D01*
X109186Y-28216D01*
X109317Y-27559D01*
X109186Y-26902D01*
X108814Y-26345D01*
X108257Y-25972D01*
X107599Y-25842D01*
X107490Y-25863D01*
X106437Y-24810D01*
Y-16722D01*
X106937Y-16516D01*
X107345Y-16790D01*
X108003Y-16920D01*
X108660Y-16790D01*
X109217Y-16417D01*
X109590Y-15860D01*
X109599Y-15813D01*
X110099Y-15862D01*
Y-23330D01*
X110006Y-23392D01*
X109634Y-23949D01*
X109503Y-24606D01*
X109634Y-25264D01*
X110006Y-25821D01*
X110563Y-26193D01*
X111221Y-26324D01*
X111878Y-26193D01*
X112435Y-25821D01*
X112807Y-25264D01*
X112938Y-24606D01*
X112807Y-23949D01*
X112435Y-23392D01*
X112342Y-23330D01*
Y-21623D01*
X112842Y-21310D01*
X113305Y-21403D01*
X113962Y-21272D01*
X114519Y-20899D01*
X114892Y-20342D01*
X115023Y-19685D01*
X114892Y-19028D01*
X114519Y-18471D01*
X114368Y-18370D01*
Y22862D01*
X114657Y23080D01*
Y26575D01*
Y29869D01*
D02*
G37*
G36*
X247850Y30996D02*
X245972D01*
Y28724D01*
X247850D01*
Y30996D01*
D02*
G37*
G36*
X244972D02*
X243094D01*
Y28724D01*
X244972D01*
Y30996D01*
D02*
G37*
G36*
X69898Y30996D02*
X68020D01*
Y28724D01*
X69898D01*
Y30996D01*
D02*
G37*
G36*
X67020D02*
X65142D01*
Y28724D01*
X67020D01*
Y30996D01*
D02*
G37*
G36*
X189976Y30331D02*
X188098D01*
Y28059D01*
X189976D01*
Y30331D01*
D02*
G37*
G36*
X187098D02*
X185221D01*
Y28059D01*
X187098D01*
Y30331D01*
D02*
G37*
G36*
X187598Y27559D02*
D01*
D01*
D01*
D02*
G37*
G36*
X278259Y26094D02*
X274103D01*
Y25253D01*
X265065D01*
X264632Y25339D01*
X263975Y25209D01*
X263418Y24836D01*
X263045Y24279D01*
X262914Y23622D01*
X263045Y22965D01*
X263418Y22408D01*
X263975Y22035D01*
X264632Y21905D01*
X265065Y21991D01*
X274103D01*
Y21150D01*
X278259D01*
Y26094D01*
D02*
G37*
G36*
X189976Y27059D02*
X188098D01*
Y24787D01*
X189976D01*
Y27059D01*
D02*
G37*
G36*
X187098D02*
X185221D01*
Y24787D01*
X187098D01*
Y27059D01*
D02*
G37*
G36*
X227165Y29851D02*
X221654D01*
X220920Y29705D01*
X220297Y29289D01*
X219882Y28667D01*
X219736Y27933D01*
X219882Y27199D01*
X220297Y26577D01*
X220920Y26161D01*
X221654Y26015D01*
X227165D01*
X227899Y26161D01*
X228522Y26577D01*
X228542Y26608D01*
X234313D01*
X237252Y23669D01*
X237682Y23382D01*
X238098Y23299D01*
X238516Y23020D01*
X239173Y22889D01*
X239830Y23020D01*
X240388Y23392D01*
X240760Y23949D01*
X240891Y24606D01*
X240760Y25264D01*
X240388Y25821D01*
X239830Y26193D01*
X239173Y26324D01*
X238516Y26193D01*
X238492Y26177D01*
X235800Y28870D01*
X235369Y29158D01*
X234862Y29258D01*
X228542D01*
X228522Y29289D01*
X227899Y29705D01*
X227165Y29851D01*
D02*
G37*
G36*
X163992Y23516D02*
X161130D01*
Y20260D01*
X163992D01*
Y23516D01*
D02*
G37*
G36*
X278559Y18520D02*
X276681D01*
Y16248D01*
X278559D01*
Y18520D01*
D02*
G37*
G36*
X275681D02*
X273803D01*
Y16248D01*
X275681D01*
Y18520D01*
D02*
G37*
G36*
X153831Y19110D02*
X150969D01*
Y15854D01*
X153831D01*
Y19110D01*
D02*
G37*
G36*
X278559Y15248D02*
X276681D01*
Y12976D01*
X278559D01*
Y15248D01*
D02*
G37*
G36*
X275681D02*
X273803D01*
Y12976D01*
X275681D01*
Y15248D01*
D02*
G37*
G36*
X153831Y14854D02*
X150969D01*
Y11598D01*
X153831D01*
Y14854D01*
D02*
G37*
G36*
X117610Y12811D02*
X115339D01*
Y10933D01*
X117610D01*
Y12811D01*
D02*
G37*
G36*
X244972Y10646D02*
X243094D01*
Y8374D01*
X244972D01*
Y10646D01*
D02*
G37*
G36*
X120882Y9933D02*
X118610D01*
Y8055D01*
X120882D01*
Y9933D01*
D02*
G37*
G36*
X117610D02*
X115339D01*
Y8055D01*
X117610D01*
Y9933D01*
D02*
G37*
G36*
X247850Y7374D02*
X245972D01*
Y5102D01*
X247850D01*
Y7374D01*
D02*
G37*
G36*
X244972D02*
X243094D01*
Y5102D01*
X244972D01*
Y7374D01*
D02*
G37*
G36*
X156512Y6709D02*
X154634D01*
Y4437D01*
X156512D01*
Y6709D01*
D02*
G37*
G36*
X153634D02*
X151756D01*
Y4437D01*
X153634D01*
Y6709D01*
D02*
G37*
G36*
X227165Y5481D02*
X221654D01*
X220920Y5335D01*
X220297Y4919D01*
X219882Y4297D01*
X219736Y3563D01*
X219882Y2829D01*
X220297Y2207D01*
X220920Y1791D01*
X221654Y1645D01*
X227165D01*
X227899Y1791D01*
X228522Y2207D01*
X228803Y2629D01*
X231804D01*
X231866Y2536D01*
X232423Y2163D01*
X233081Y2032D01*
X233738Y2163D01*
X234295Y2536D01*
X234667Y3093D01*
X234798Y3750D01*
X234667Y4407D01*
X234295Y4964D01*
X233738Y5337D01*
X233081Y5468D01*
X232423Y5337D01*
X231866Y4964D01*
X231804Y4871D01*
X228553D01*
X228522Y4919D01*
X227899Y5335D01*
X227165Y5481D01*
D02*
G37*
G36*
X156512Y3437D02*
X154634D01*
Y1165D01*
X156512D01*
Y3437D01*
D02*
G37*
G36*
X153634D02*
X151756D01*
Y1165D01*
X153634D01*
Y3437D01*
D02*
G37*
G36*
X359071Y2968D02*
X356799D01*
Y1091D01*
X359071D01*
Y2968D01*
D02*
G37*
G36*
X355799D02*
X353528D01*
Y1091D01*
X355799D01*
Y2968D01*
D02*
G37*
G36*
X247850Y2772D02*
X245972D01*
Y500D01*
X247850D01*
Y2772D01*
D02*
G37*
G36*
X244972D02*
X243094D01*
Y500D01*
X244972D01*
Y2772D01*
D02*
G37*
G36*
X374516Y2151D02*
Y-1469D01*
X378135D01*
X378059Y-885D01*
X377640Y124D01*
X376975Y991D01*
X376109Y1656D01*
X375099Y2074D01*
X374516Y2151D01*
D02*
G37*
G36*
X373516Y2151D02*
X372933Y2074D01*
X371923Y1656D01*
X371056Y991D01*
X370391Y124D01*
X369973Y-885D01*
X369896Y-1469D01*
X373516D01*
Y2151D01*
D02*
G37*
G36*
X240858Y18220D02*
X236702D01*
Y13276D01*
X237148D01*
Y10346D01*
X236702D01*
Y5402D01*
X237148D01*
Y2472D01*
X236702D01*
Y-1458D01*
X236240Y-1649D01*
X234874Y-283D01*
X234345Y70D01*
X233720Y194D01*
X228110D01*
X227899Y335D01*
X227165Y481D01*
X221654D01*
X220920Y335D01*
X220297Y-81D01*
X219882Y-703D01*
X219736Y-1437D01*
X219882Y-2171D01*
X220297Y-2793D01*
X220920Y-3209D01*
X221654Y-3355D01*
X227165D01*
X227899Y-3209D01*
X228110Y-3068D01*
X233045D01*
X235067Y-5091D01*
X235596Y-5444D01*
X236221Y-5568D01*
X236702D01*
Y-10346D01*
X240858D01*
Y-5402D01*
X240411D01*
Y-2472D01*
X240858D01*
Y2472D01*
X240411D01*
Y5402D01*
X240858D01*
Y10346D01*
X240411D01*
Y13276D01*
X240858D01*
Y18220D01*
D02*
G37*
G36*
X359071Y91D02*
X356799D01*
Y-1787D01*
X359071D01*
Y91D01*
D02*
G37*
G36*
X355799D02*
X353528D01*
Y-1787D01*
X355799D01*
Y91D01*
D02*
G37*
G36*
X247850Y-500D02*
X245972D01*
Y-2772D01*
X247850D01*
Y-500D01*
D02*
G37*
G36*
X244972D02*
X243094D01*
Y-2772D01*
X244972D01*
Y-500D01*
D02*
G37*
G36*
X227165Y-4213D02*
X224909D01*
Y-5937D01*
X229290D01*
X229220Y-5586D01*
X228738Y-4865D01*
X228016Y-4383D01*
X227165Y-4213D01*
D02*
G37*
G36*
X207480D02*
X205224D01*
Y-5937D01*
X209605D01*
X209535Y-5586D01*
X209053Y-4865D01*
X208331Y-4383D01*
X207480Y-4213D01*
D02*
G37*
G36*
X223909D02*
X221654D01*
X220802Y-4383D01*
X220081Y-4865D01*
X219599Y-5586D01*
X219529Y-5937D01*
X223909D01*
Y-4213D01*
D02*
G37*
G36*
X204224D02*
X201969D01*
X201117Y-4383D01*
X200396Y-4865D01*
X199914Y-5586D01*
X199844Y-5937D01*
X204224D01*
Y-4213D01*
D02*
G37*
G36*
X373516Y-2469D02*
X369896D01*
X369973Y-3052D01*
X370391Y-4061D01*
X371056Y-4928D01*
X371923Y-5593D01*
X372933Y-6011D01*
X373516Y-6088D01*
Y-2469D01*
D02*
G37*
G36*
X378135D02*
X374516D01*
Y-6088D01*
X375099Y-6011D01*
X376109Y-5593D01*
X376975Y-4928D01*
X377640Y-4061D01*
X378059Y-3052D01*
X378135Y-2469D01*
D02*
G37*
G36*
X247850Y-5102D02*
X245972D01*
Y-7374D01*
X247850D01*
Y-5102D01*
D02*
G37*
G36*
X244972D02*
X243094D01*
Y-7374D01*
X244972D01*
Y-5102D01*
D02*
G37*
G36*
X229290Y-6937D02*
X224909D01*
Y-8661D01*
X227165D01*
X228016Y-8492D01*
X228738Y-8010D01*
X229220Y-7288D01*
X229290Y-6937D01*
D02*
G37*
G36*
X223909D02*
X219529D01*
X219599Y-7288D01*
X220081Y-8010D01*
X220802Y-8492D01*
X221654Y-8661D01*
X223909D01*
Y-6937D01*
D02*
G37*
G36*
X209605D02*
X205224D01*
Y-8661D01*
X207480D01*
X208331Y-8492D01*
X209053Y-8010D01*
X209535Y-7288D01*
X209605Y-6937D01*
D02*
G37*
G36*
X204224D02*
X199844D01*
X199914Y-7288D01*
X200396Y-8010D01*
X201117Y-8492D01*
X201969Y-8661D01*
X204224D01*
Y-6937D01*
D02*
G37*
G36*
X247850Y-8374D02*
X245972D01*
Y-10646D01*
X247850D01*
Y-8374D01*
D02*
G37*
G36*
X244972D02*
X243094D01*
Y-10646D01*
X244972D01*
Y-8374D01*
D02*
G37*
G36*
X189976Y-9039D02*
X188098D01*
Y-11311D01*
X189976D01*
Y-9039D01*
D02*
G37*
G36*
X187098D02*
X185221D01*
Y-11311D01*
X187098D01*
Y-9039D01*
D02*
G37*
G36*
X350894Y-8089D02*
Y-11311D01*
X354116D01*
X354053Y-10830D01*
X353675Y-9917D01*
X353072Y-9132D01*
X352288Y-8530D01*
X351374Y-8152D01*
X350894Y-8089D01*
D02*
G37*
G36*
X349894Y-8089D02*
X349413Y-8152D01*
X348499Y-8530D01*
X347715Y-9132D01*
X347113Y-9917D01*
X346734Y-10830D01*
X346671Y-11311D01*
X349894D01*
Y-8089D01*
D02*
G37*
G36*
X187098Y-12311D02*
X185221D01*
Y-14583D01*
X187098D01*
Y-12311D01*
D02*
G37*
G36*
X354116Y-12311D02*
X350894D01*
Y-15533D01*
X351374Y-15470D01*
X352288Y-15092D01*
X353072Y-14490D01*
X353675Y-13705D01*
X354053Y-12791D01*
X354116Y-12311D01*
D02*
G37*
G36*
X349894D02*
X346671D01*
X346734Y-12791D01*
X347113Y-13705D01*
X347715Y-14490D01*
X348499Y-15092D01*
X349413Y-15470D01*
X349894Y-15533D01*
Y-12311D01*
D02*
G37*
G36*
X247550Y57590D02*
X243394D01*
Y52646D01*
X245243D01*
X247374Y50516D01*
X247167Y50016D01*
X245972D01*
Y47744D01*
X247850D01*
Y49332D01*
X248350Y49539D01*
X251321Y46568D01*
Y24298D01*
X245243Y18220D01*
X243394D01*
Y13276D01*
X245243D01*
X247374Y11146D01*
X247167Y10646D01*
X245972D01*
Y8374D01*
X247850D01*
Y9962D01*
X248350Y10169D01*
X251321Y7198D01*
Y-15315D01*
X251235Y-15748D01*
X251366Y-16405D01*
X251738Y-16962D01*
X252295Y-17335D01*
X252953Y-17466D01*
X253610Y-17335D01*
X254167Y-16962D01*
X254539Y-16405D01*
X254670Y-15748D01*
X254584Y-15315D01*
Y7874D01*
X254460Y8498D01*
X254106Y9028D01*
X247550Y15584D01*
Y15913D01*
X254106Y22468D01*
X254460Y22998D01*
X254584Y23622D01*
Y47244D01*
X254460Y47868D01*
X254106Y48398D01*
X247550Y54953D01*
Y57590D01*
D02*
G37*
G36*
X77559Y-19646D02*
X75303D01*
Y-21370D01*
X79683D01*
X79614Y-21019D01*
X79132Y-20298D01*
X78410Y-19816D01*
X77559Y-19646D01*
D02*
G37*
G36*
X74303D02*
X72047D01*
X71196Y-19816D01*
X70475Y-20298D01*
X69993Y-21019D01*
X69923Y-21370D01*
X74303D01*
Y-19646D01*
D02*
G37*
G36*
X45276Y-14897D02*
X44573Y-15037D01*
X43978Y-15435D01*
X43580Y-16030D01*
X43440Y-16732D01*
X43580Y-17435D01*
X43978Y-18030D01*
X44573Y-18428D01*
X44687Y-18450D01*
X49260Y-23024D01*
X49789Y-23377D01*
X50413Y-23501D01*
X51418D01*
X51628Y-23642D01*
X52362Y-23788D01*
X57874D01*
X58608Y-23642D01*
X59230Y-23226D01*
X59646Y-22604D01*
X59792Y-21870D01*
X59646Y-21136D01*
X59230Y-20514D01*
X58608Y-20098D01*
X57874Y-19952D01*
X52362D01*
X51628Y-20098D01*
X51418Y-20239D01*
X51089D01*
X46994Y-16143D01*
X46971Y-16030D01*
X46573Y-15435D01*
X45978Y-15037D01*
X45276Y-14897D01*
D02*
G37*
G36*
X79683Y-22370D02*
X75303D01*
Y-24094D01*
X77559D01*
X78410Y-23925D01*
X79132Y-23443D01*
X79614Y-22721D01*
X79683Y-22370D01*
D02*
G37*
G36*
X74303D02*
X69923D01*
X69993Y-22721D01*
X70475Y-23443D01*
X71196Y-23925D01*
X72047Y-24094D01*
X74303D01*
Y-22370D01*
D02*
G37*
G36*
X57874Y-24952D02*
X52362D01*
X51628Y-25098D01*
X51418Y-25239D01*
X46369D01*
X46273Y-25174D01*
X45571Y-25035D01*
X44868Y-25174D01*
X44273Y-25572D01*
X43875Y-26168D01*
X43736Y-26870D01*
X43875Y-27572D01*
X44273Y-28168D01*
X44868Y-28566D01*
X45571Y-28705D01*
X46273Y-28566D01*
X46369Y-28501D01*
X51418D01*
X51628Y-28642D01*
X52362Y-28788D01*
X53487D01*
Y-29952D01*
X52362D01*
X51628Y-30098D01*
X51006Y-30514D01*
X50590Y-31136D01*
X50444Y-31870D01*
X50590Y-32604D01*
X51006Y-33226D01*
X51628Y-33642D01*
X52362Y-33788D01*
X53487D01*
Y-34952D01*
X52362D01*
X51628Y-35098D01*
X51006Y-35514D01*
X50590Y-36136D01*
X50444Y-36870D01*
X50590Y-37604D01*
X51006Y-38226D01*
X51628Y-38642D01*
X52362Y-38788D01*
X57874D01*
X58608Y-38642D01*
X59230Y-38226D01*
X59646Y-37604D01*
X59792Y-36870D01*
X59646Y-36136D01*
X59230Y-35514D01*
X58608Y-35098D01*
X57874Y-34952D01*
X56749D01*
Y-33788D01*
X57874D01*
X58608Y-33642D01*
X59230Y-33226D01*
X59646Y-32604D01*
X59792Y-31870D01*
X59646Y-31136D01*
X59230Y-30514D01*
X58608Y-30098D01*
X57874Y-29952D01*
X56749D01*
Y-28788D01*
X57874D01*
X58608Y-28642D01*
X59230Y-28226D01*
X59646Y-27604D01*
X59792Y-26870D01*
X59646Y-26136D01*
X59230Y-25514D01*
X58608Y-25098D01*
X57874Y-24952D01*
D02*
G37*
G36*
X82677Y26324D02*
X82020Y26193D01*
X81463Y25821D01*
X81090Y25264D01*
X80960Y24606D01*
X81090Y23949D01*
X81352Y23558D01*
Y-24057D01*
X79864Y-25545D01*
X78936D01*
X78915Y-25514D01*
X78293Y-25098D01*
X77559Y-24952D01*
X72047D01*
X71313Y-25098D01*
X70691Y-25514D01*
X70275Y-26136D01*
X70129Y-26870D01*
X70275Y-27604D01*
X70691Y-28226D01*
X71313Y-28642D01*
X72047Y-28788D01*
X73172D01*
Y-29952D01*
X72047D01*
X71313Y-30098D01*
X70691Y-30514D01*
X70275Y-31136D01*
X70129Y-31870D01*
X70275Y-32604D01*
X70691Y-33226D01*
X71313Y-33642D01*
X72047Y-33788D01*
X73172D01*
Y-34952D01*
X72047D01*
X71313Y-35098D01*
X70691Y-35514D01*
X70275Y-36136D01*
X70129Y-36870D01*
X70275Y-37604D01*
X70691Y-38226D01*
X71313Y-38642D01*
X72047Y-38788D01*
X77559D01*
X78293Y-38642D01*
X78915Y-38226D01*
X79331Y-37604D01*
X79477Y-36870D01*
X79331Y-36136D01*
X78915Y-35514D01*
X78293Y-35098D01*
X77559Y-34952D01*
X76434D01*
Y-33788D01*
X77559D01*
X78293Y-33642D01*
X78915Y-33226D01*
X79331Y-32604D01*
X79477Y-31870D01*
X79331Y-31136D01*
X78915Y-30514D01*
X78293Y-30098D01*
X77559Y-29952D01*
X76434D01*
Y-28788D01*
X77559D01*
X78293Y-28642D01*
X78915Y-28226D01*
X78936Y-28196D01*
X80413D01*
X80921Y-28095D01*
X81351Y-27807D01*
X83614Y-25543D01*
X83902Y-25113D01*
X84003Y-24606D01*
Y23558D01*
X84264Y23949D01*
X84395Y24606D01*
X84264Y25264D01*
X83892Y25821D01*
X83334Y26193D01*
X82677Y26324D01*
D02*
G37*
G36*
X250063Y-31039D02*
X246563D01*
Y-34539D01*
X250063D01*
Y-31039D01*
D02*
G37*
G36*
X245563D02*
X242063D01*
Y-34539D01*
X245563D01*
Y-31039D01*
D02*
G37*
G36*
X19885Y-24029D02*
X19485D01*
X18571Y-24149D01*
X17720Y-24502D01*
X16989Y-25063D01*
X16428Y-25794D01*
X16075Y-26645D01*
X15955Y-27559D01*
X16075Y-28473D01*
X16428Y-29324D01*
X16989Y-30055D01*
X17720Y-30616D01*
X18571Y-30969D01*
X19485Y-31089D01*
X19885D01*
X20799Y-30969D01*
X21650Y-30616D01*
X22381Y-30055D01*
X22942Y-29324D01*
X22998Y-29190D01*
X33773D01*
X39707Y-35124D01*
Y-37677D01*
X39207Y-37884D01*
X35602Y-34280D01*
X35073Y-33926D01*
X34449Y-33802D01*
X22998D01*
X22942Y-33668D01*
X22381Y-32937D01*
X21650Y-32376D01*
X20799Y-32023D01*
X19885Y-31903D01*
X19485D01*
X18571Y-32023D01*
X17720Y-32376D01*
X16989Y-32937D01*
X16428Y-33668D01*
X16075Y-34519D01*
X15955Y-35433D01*
X16075Y-36347D01*
X16428Y-37198D01*
X16989Y-37929D01*
X17720Y-38490D01*
X18571Y-38843D01*
X19485Y-38963D01*
X19885D01*
X20799Y-38843D01*
X21650Y-38490D01*
X22381Y-37929D01*
X22942Y-37198D01*
X22998Y-37064D01*
X33773D01*
X36755Y-40046D01*
Y-42323D01*
X36879Y-42947D01*
X37232Y-43476D01*
X41780Y-48024D01*
X42309Y-48377D01*
X42933Y-48501D01*
X51418D01*
X51628Y-48642D01*
X52362Y-48788D01*
X57874D01*
X58608Y-48642D01*
X59230Y-48226D01*
X59646Y-47604D01*
X59792Y-46870D01*
X59646Y-46136D01*
X59230Y-45514D01*
X58608Y-45098D01*
X57874Y-44952D01*
X52362D01*
X51628Y-45098D01*
X51418Y-45239D01*
X43609D01*
X40017Y-41647D01*
Y-41063D01*
X40517Y-40856D01*
X42685Y-43024D01*
X43214Y-43377D01*
X43839Y-43501D01*
X51418D01*
X51628Y-43642D01*
X52362Y-43788D01*
X57874D01*
X58608Y-43642D01*
X59230Y-43226D01*
X59646Y-42604D01*
X59792Y-41870D01*
X59646Y-41136D01*
X59230Y-40514D01*
X58608Y-40098D01*
X57874Y-39952D01*
X52362D01*
X51628Y-40098D01*
X51418Y-40239D01*
X44514D01*
X42970Y-38694D01*
Y-34449D01*
X42846Y-33825D01*
X42492Y-33295D01*
X35602Y-26406D01*
X35073Y-26052D01*
X34449Y-25928D01*
X22998D01*
X22942Y-25794D01*
X22381Y-25063D01*
X21650Y-24502D01*
X20799Y-24149D01*
X19885Y-24029D01*
D02*
G37*
G36*
X236063Y-31307D02*
X235097Y-31435D01*
X234197Y-31807D01*
X233424Y-32401D01*
X232831Y-33173D01*
X232458Y-34073D01*
X232331Y-35039D01*
X232458Y-36005D01*
X232831Y-36905D01*
X233424Y-37678D01*
X234197Y-38271D01*
X235097Y-38644D01*
X236063Y-38771D01*
X237029Y-38644D01*
X237929Y-38271D01*
X238702Y-37678D01*
X239295Y-36905D01*
X239668Y-36005D01*
X239795Y-35039D01*
X239668Y-34073D01*
X239295Y-33173D01*
X238702Y-32401D01*
X237929Y-31807D01*
X237029Y-31435D01*
X236063Y-31307D01*
D02*
G37*
G36*
X226063D02*
X225097Y-31435D01*
X224197Y-31807D01*
X223424Y-32401D01*
X222831Y-33173D01*
X222458Y-34073D01*
X222331Y-35039D01*
X222458Y-36005D01*
X222831Y-36905D01*
X223424Y-37678D01*
X224197Y-38271D01*
X225097Y-38644D01*
X226063Y-38771D01*
X227029Y-38644D01*
X227929Y-38271D01*
X228702Y-37678D01*
X229295Y-36905D01*
X229668Y-36005D01*
X229795Y-35039D01*
X229668Y-34073D01*
X229295Y-33173D01*
X228702Y-32401D01*
X227929Y-31807D01*
X227029Y-31435D01*
X226063Y-31307D01*
D02*
G37*
G36*
X216063D02*
X215097Y-31435D01*
X214197Y-31807D01*
X213424Y-32401D01*
X212831Y-33173D01*
X212458Y-34073D01*
X212331Y-35039D01*
X212458Y-36005D01*
X212831Y-36905D01*
X213424Y-37678D01*
X214197Y-38271D01*
X215097Y-38644D01*
X216063Y-38771D01*
X217029Y-38644D01*
X217929Y-38271D01*
X218702Y-37678D01*
X219295Y-36905D01*
X219668Y-36005D01*
X219795Y-35039D01*
X219668Y-34073D01*
X219295Y-33173D01*
X218702Y-32401D01*
X217929Y-31807D01*
X217029Y-31435D01*
X216063Y-31307D01*
D02*
G37*
G36*
X206063D02*
X205097Y-31435D01*
X204197Y-31807D01*
X203424Y-32401D01*
X202831Y-33173D01*
X202458Y-34073D01*
X202331Y-35039D01*
X202458Y-36005D01*
X202831Y-36905D01*
X203424Y-37678D01*
X204197Y-38271D01*
X205097Y-38644D01*
X206063Y-38771D01*
X207029Y-38644D01*
X207929Y-38271D01*
X208702Y-37678D01*
X209295Y-36905D01*
X209668Y-36005D01*
X209795Y-35039D01*
X209668Y-34073D01*
X209295Y-33173D01*
X208702Y-32401D01*
X207929Y-31807D01*
X207029Y-31435D01*
X206063Y-31307D01*
D02*
G37*
G36*
X250063Y-35539D02*
X246563D01*
Y-39039D01*
X250063D01*
Y-35539D01*
D02*
G37*
G36*
X245563D02*
X242063D01*
Y-39039D01*
X245563D01*
Y-35539D01*
D02*
G37*
G36*
X163205Y-39158D02*
X160736D01*
Y-44382D01*
X163205D01*
Y-39158D01*
D02*
G37*
G36*
X159736D02*
X157268D01*
Y-44382D01*
X159736D01*
Y-39158D01*
D02*
G37*
G36*
X19885Y-39777D02*
X19485D01*
X18571Y-39897D01*
X17720Y-40250D01*
X16989Y-40811D01*
X16428Y-41542D01*
X16075Y-42393D01*
X15955Y-43307D01*
X16075Y-44221D01*
X16428Y-45072D01*
X16989Y-45803D01*
X17720Y-46364D01*
X18571Y-46717D01*
X19485Y-46837D01*
X19885D01*
X20799Y-46717D01*
X21650Y-46364D01*
X22381Y-45803D01*
X22942Y-45072D01*
X23295Y-44221D01*
X23415Y-43307D01*
X23295Y-42393D01*
X22942Y-41542D01*
X22381Y-40811D01*
X21650Y-40250D01*
X20799Y-39897D01*
X19885Y-39777D01*
D02*
G37*
G36*
X246063Y-41307D02*
X245097Y-41435D01*
X244197Y-41807D01*
X243424Y-42401D01*
X242831Y-43173D01*
X242458Y-44074D01*
X242331Y-45039D01*
X242458Y-46005D01*
X242831Y-46905D01*
X243424Y-47678D01*
X244197Y-48271D01*
X245097Y-48644D01*
X246063Y-48771D01*
X247029Y-48644D01*
X247929Y-48271D01*
X248702Y-47678D01*
X249295Y-46905D01*
X249668Y-46005D01*
X249795Y-45039D01*
X249668Y-44074D01*
X249295Y-43173D01*
X248702Y-42401D01*
X247929Y-41807D01*
X247029Y-41435D01*
X246063Y-41307D01*
D02*
G37*
G36*
X236063D02*
X235097Y-41435D01*
X234197Y-41807D01*
X233424Y-42401D01*
X232831Y-43173D01*
X232458Y-44074D01*
X232331Y-45039D01*
X232458Y-46005D01*
X232831Y-46905D01*
X233424Y-47678D01*
X234197Y-48271D01*
X235097Y-48644D01*
X236063Y-48771D01*
X237029Y-48644D01*
X237929Y-48271D01*
X238702Y-47678D01*
X239295Y-46905D01*
X239668Y-46005D01*
X239795Y-45039D01*
X239668Y-44074D01*
X239295Y-43173D01*
X238702Y-42401D01*
X237929Y-41807D01*
X237029Y-41435D01*
X236063Y-41307D01*
D02*
G37*
G36*
X226063D02*
X225097Y-41435D01*
X224197Y-41807D01*
X223424Y-42401D01*
X222831Y-43173D01*
X222458Y-44074D01*
X222331Y-45039D01*
X222458Y-46005D01*
X222831Y-46905D01*
X223424Y-47678D01*
X224197Y-48271D01*
X225097Y-48644D01*
X226063Y-48771D01*
X227029Y-48644D01*
X227929Y-48271D01*
X228702Y-47678D01*
X229295Y-46905D01*
X229668Y-46005D01*
X229795Y-45039D01*
X229668Y-44074D01*
X229295Y-43173D01*
X228702Y-42401D01*
X227929Y-41807D01*
X227029Y-41435D01*
X226063Y-41307D01*
D02*
G37*
G36*
X216063D02*
X215097Y-41435D01*
X214197Y-41807D01*
X213424Y-42401D01*
X212831Y-43173D01*
X212458Y-44074D01*
X212331Y-45039D01*
X212458Y-46005D01*
X212831Y-46905D01*
X213424Y-47678D01*
X214197Y-48271D01*
X215097Y-48644D01*
X216063Y-48771D01*
X217029Y-48644D01*
X217929Y-48271D01*
X218702Y-47678D01*
X219295Y-46905D01*
X219668Y-46005D01*
X219795Y-45039D01*
X219668Y-44074D01*
X219295Y-43173D01*
X218702Y-42401D01*
X217929Y-41807D01*
X217029Y-41435D01*
X216063Y-41307D01*
D02*
G37*
G36*
X206063D02*
X205097Y-41435D01*
X204197Y-41807D01*
X203424Y-42401D01*
X202831Y-43173D01*
X202458Y-44074D01*
X202331Y-45039D01*
X202458Y-46005D01*
X202831Y-46905D01*
X203424Y-47678D01*
X204197Y-48271D01*
X205097Y-48644D01*
X206063Y-48771D01*
X207029Y-48644D01*
X207929Y-48271D01*
X208702Y-47678D01*
X209295Y-46905D01*
X209668Y-46005D01*
X209795Y-45039D01*
X209668Y-44074D01*
X209295Y-43173D01*
X208702Y-42401D01*
X207929Y-41807D01*
X207029Y-41435D01*
X206063Y-41307D01*
D02*
G37*
G36*
X163205Y-45382D02*
X160736D01*
Y-50606D01*
X163205D01*
Y-45382D01*
D02*
G37*
G36*
X159736D02*
X157268D01*
Y-50606D01*
X159736D01*
Y-45382D01*
D02*
G37*
G36*
X20185Y-47388D02*
Y-50681D01*
X23652D01*
X23587Y-50189D01*
X23204Y-49265D01*
X22595Y-48471D01*
X21801Y-47862D01*
X20877Y-47479D01*
X20185Y-47388D01*
D02*
G37*
G36*
X19185Y-47388D02*
X18493Y-47479D01*
X17569Y-47862D01*
X16775Y-48471D01*
X16166Y-49265D01*
X15783Y-50189D01*
X15718Y-50681D01*
X19185D01*
Y-47388D01*
D02*
G37*
G36*
X57874Y-49952D02*
X52362D01*
X51628Y-50098D01*
X51418Y-50239D01*
X42618D01*
X41994Y-50363D01*
X41465Y-50717D01*
X37232Y-54949D01*
X36879Y-55478D01*
X36755Y-56102D01*
Y-63301D01*
X34757Y-65298D01*
X22998D01*
X22942Y-65164D01*
X22381Y-64433D01*
X21650Y-63872D01*
X20799Y-63519D01*
X19885Y-63399D01*
X19485D01*
X18571Y-63519D01*
X17720Y-63872D01*
X16989Y-64433D01*
X16428Y-65164D01*
X16075Y-66015D01*
X15955Y-66929D01*
X16075Y-67843D01*
X16428Y-68694D01*
X16989Y-69425D01*
X17720Y-69986D01*
X18571Y-70339D01*
X19485Y-70459D01*
X19885D01*
X20799Y-70339D01*
X21650Y-69986D01*
X22381Y-69425D01*
X22942Y-68694D01*
X22998Y-68560D01*
X35433D01*
X36057Y-68436D01*
X36587Y-68083D01*
X39539Y-65130D01*
X39893Y-64601D01*
X40017Y-63976D01*
Y-56778D01*
X43294Y-53501D01*
X51418D01*
X51628Y-53642D01*
X52362Y-53788D01*
X57874D01*
X58608Y-53642D01*
X59230Y-53226D01*
X59646Y-52604D01*
X59792Y-51870D01*
X59646Y-51136D01*
X59230Y-50514D01*
X58608Y-50098D01*
X57874Y-49952D01*
D02*
G37*
G36*
X23652Y-51681D02*
X20185D01*
Y-54974D01*
X20877Y-54883D01*
X21801Y-54500D01*
X22595Y-53891D01*
X23204Y-53097D01*
X23587Y-52173D01*
X23652Y-51681D01*
D02*
G37*
G36*
X19185D02*
X15718D01*
X15783Y-52173D01*
X16166Y-53097D01*
X16775Y-53891D01*
X17569Y-54500D01*
X18493Y-54883D01*
X19185Y-54974D01*
Y-51681D01*
D02*
G37*
G36*
X175213Y-56283D02*
X173335D01*
Y-58555D01*
X175213D01*
Y-56283D01*
D02*
G37*
G36*
X161433D02*
X159555D01*
Y-58555D01*
X161433D01*
Y-56283D01*
D02*
G37*
G36*
X158555D02*
X156677D01*
Y-58555D01*
X158555D01*
Y-56283D01*
D02*
G37*
G36*
X172335D02*
X170457D01*
Y-58555D01*
X172335D01*
Y-56283D01*
D02*
G37*
G36*
X57874Y-54952D02*
X52362D01*
X51628Y-55098D01*
X51418Y-55239D01*
X47461D01*
X46836Y-55363D01*
X46307Y-55717D01*
X44428Y-57595D01*
X44061Y-57841D01*
X43689Y-58398D01*
X43558Y-59055D01*
X43689Y-59712D01*
X44061Y-60270D01*
X44618Y-60642D01*
X45276Y-60773D01*
X45933Y-60642D01*
X46490Y-60270D01*
X46735Y-59902D01*
X48136Y-58501D01*
X51418D01*
X51628Y-58642D01*
X52362Y-58788D01*
X57874D01*
X58608Y-58642D01*
X59230Y-58226D01*
X59646Y-57604D01*
X59792Y-56870D01*
X59646Y-56136D01*
X59230Y-55514D01*
X58608Y-55098D01*
X57874Y-54952D01*
D02*
G37*
G36*
X77559D02*
X72047D01*
X71313Y-55098D01*
X70691Y-55514D01*
X70275Y-56136D01*
X70129Y-56870D01*
X70275Y-57604D01*
X70691Y-58226D01*
X71313Y-58642D01*
X72047Y-58788D01*
X77559D01*
X78293Y-58642D01*
X78799Y-58304D01*
X87372D01*
X87925Y-58673D01*
X88583Y-58804D01*
X89240Y-58673D01*
X89797Y-58301D01*
X90169Y-57744D01*
X90300Y-57087D01*
X90169Y-56429D01*
X89797Y-55872D01*
X89240Y-55500D01*
X88583Y-55369D01*
X87925Y-55500D01*
X87696Y-55653D01*
X79008D01*
X78915Y-55514D01*
X78293Y-55098D01*
X77559Y-54952D01*
D02*
G37*
G36*
X274606Y-58594D02*
X273723Y-58710D01*
X272899Y-59052D01*
X272193Y-59594D01*
X271650Y-60301D01*
X271322Y-61092D01*
X271295Y-61129D01*
X270781Y-61306D01*
X270408Y-61020D01*
X269584Y-60679D01*
X268701Y-60563D01*
X267817Y-60679D01*
X266994Y-61020D01*
X266287Y-61563D01*
X265976Y-61968D01*
X265459Y-61819D01*
X265366Y-61351D01*
X264994Y-60793D01*
X264437Y-60421D01*
X263976Y-60329D01*
X262748Y-59102D01*
X262318Y-58815D01*
X261811Y-58714D01*
X206693D01*
X206186Y-58815D01*
X205756Y-59102D01*
X192960Y-71897D01*
X192673Y-72327D01*
X192572Y-72835D01*
Y-84884D01*
X191833Y-85623D01*
X191448Y-85301D01*
X191448Y-84864D01*
Y-81190D01*
X186505D01*
Y-81636D01*
X175700D01*
Y-81190D01*
X170757D01*
Y-85346D01*
X175700D01*
Y-84899D01*
X186505D01*
Y-85346D01*
X190950D01*
X191403Y-85346D01*
X191725Y-85731D01*
X189574Y-87883D01*
X186505D01*
Y-92039D01*
X187345D01*
Y-96938D01*
X186505D01*
Y-97384D01*
X183574D01*
Y-96938D01*
X178631D01*
Y-101094D01*
X183574D01*
Y-100647D01*
X186505D01*
Y-101094D01*
X191448D01*
Y-96938D01*
X190608D01*
Y-92039D01*
X191448D01*
Y-89757D01*
X194835Y-86370D01*
X195025Y-86086D01*
X195525Y-86238D01*
Y-101813D01*
X192955Y-104383D01*
X191448D01*
Y-103631D01*
X186505D01*
Y-104077D01*
X183574D01*
Y-103631D01*
X178631D01*
Y-107787D01*
X183574D01*
Y-107340D01*
X186505D01*
Y-107787D01*
X187345D01*
Y-125112D01*
X186031Y-126425D01*
X185756Y-126311D01*
X184843Y-126191D01*
X183929Y-126311D01*
X183077Y-126664D01*
X182346Y-127225D01*
X181785Y-127956D01*
X181433Y-128808D01*
X181362Y-129342D01*
X180862Y-129310D01*
Y-126221D01*
X176169D01*
X174860Y-124912D01*
Y-107787D01*
X175700D01*
Y-103631D01*
X170757D01*
Y-107787D01*
X171597D01*
Y-125587D01*
X171721Y-126212D01*
X172075Y-126741D01*
X173862Y-128528D01*
Y-133621D01*
X180862D01*
Y-130533D01*
X181362Y-130500D01*
X181433Y-131035D01*
X181785Y-131886D01*
X182346Y-132617D01*
X183077Y-133178D01*
X183929Y-133531D01*
X184843Y-133651D01*
X185756Y-133531D01*
X186608Y-133178D01*
X187339Y-132617D01*
X187900Y-131886D01*
X188252Y-131035D01*
X188373Y-130121D01*
Y-129721D01*
X188254Y-128817D01*
X190130Y-126941D01*
X190484Y-126412D01*
X190608Y-125787D01*
Y-107787D01*
X191448D01*
Y-107034D01*
X193504D01*
X194011Y-106933D01*
X194441Y-106646D01*
X197788Y-103299D01*
X198075Y-102869D01*
X198176Y-102362D01*
Y-92339D01*
X200287D01*
Y-89961D01*
Y-87583D01*
X198176D01*
Y-85788D01*
X198316Y-85346D01*
X198676Y-85346D01*
X203259D01*
Y-81190D01*
X203259Y-81190D01*
X203259D01*
X203537Y-80818D01*
X206258Y-78097D01*
X217017D01*
X217241Y-78638D01*
X217834Y-79410D01*
X218606Y-80004D01*
X219507Y-80376D01*
X220472Y-80504D01*
X221438Y-80376D01*
X222338Y-80004D01*
X223111Y-79410D01*
X223704Y-78638D01*
X224077Y-77737D01*
X224204Y-76772D01*
X224077Y-75806D01*
X223704Y-74906D01*
X223111Y-74133D01*
X222338Y-73540D01*
X221438Y-73167D01*
X220472Y-73040D01*
X219507Y-73167D01*
X218606Y-73540D01*
X217834Y-74133D01*
X217241Y-74906D01*
X217017Y-75446D01*
X205709D01*
X205201Y-75547D01*
X204771Y-75834D01*
X199850Y-80756D01*
X199563Y-81186D01*
X199562Y-81190D01*
X198316Y-81190D01*
X198176Y-80748D01*
Y-74368D01*
X208589Y-63955D01*
X217491D01*
X217707Y-64455D01*
X217241Y-65063D01*
X216868Y-65963D01*
X216740Y-66929D01*
X216868Y-67895D01*
X217241Y-68795D01*
X217834Y-69568D01*
X218606Y-70161D01*
X219507Y-70534D01*
X220472Y-70661D01*
X221438Y-70534D01*
X222338Y-70161D01*
X223111Y-69568D01*
X223704Y-68795D01*
X224077Y-67895D01*
X224204Y-66929D01*
X224077Y-65963D01*
X223704Y-65063D01*
X223237Y-64455D01*
X223454Y-63955D01*
X253025D01*
X257180Y-68109D01*
X257272Y-68571D01*
X257644Y-69128D01*
X258201Y-69500D01*
X258858Y-69631D01*
X259516Y-69500D01*
X260073Y-69128D01*
X260445Y-68571D01*
X260576Y-67913D01*
X260445Y-67256D01*
X260073Y-66699D01*
X259516Y-66327D01*
X259054Y-66235D01*
X254684Y-61865D01*
X254891Y-61365D01*
X261262D01*
X262101Y-62204D01*
X262193Y-62665D01*
X262565Y-63222D01*
X263122Y-63595D01*
X263779Y-63725D01*
X264437Y-63595D01*
X264871Y-63304D01*
X265303Y-63506D01*
X265344Y-63544D01*
X265287Y-63976D01*
X265403Y-64860D01*
X265675Y-65515D01*
Y-66929D01*
X265778Y-67712D01*
X266080Y-68442D01*
X266561Y-69069D01*
X272959Y-75466D01*
X273586Y-75947D01*
X274315Y-76249D01*
X275098Y-76353D01*
X287625D01*
X289297Y-78025D01*
Y-96188D01*
X283226Y-102258D01*
X283201Y-102267D01*
X282610Y-102167D01*
X282242Y-101616D01*
X277321Y-96695D01*
X276527Y-96164D01*
X275590Y-95978D01*
X220472D01*
X219536Y-96164D01*
X218742Y-96695D01*
X218212Y-97489D01*
X218025Y-98425D01*
Y-122409D01*
X217525Y-122558D01*
X216884Y-121777D01*
X215983Y-121037D01*
X214954Y-120487D01*
X213838Y-120149D01*
X213177Y-120084D01*
Y-125984D01*
Y-131885D01*
X213838Y-131820D01*
X214954Y-131481D01*
X215983Y-130931D01*
X216884Y-130192D01*
X217525Y-129410D01*
X218025Y-129559D01*
Y-142717D01*
X218212Y-143653D01*
X218742Y-144447D01*
X219536Y-144977D01*
X220472Y-145164D01*
X275590D01*
X276527Y-144977D01*
X277321Y-144447D01*
X282242Y-139526D01*
X282773Y-138732D01*
X282959Y-137795D01*
Y-125234D01*
X283459Y-125065D01*
X283743Y-125435D01*
X284735Y-126196D01*
X285891Y-126675D01*
X286631Y-126772D01*
Y-122047D01*
Y-117322D01*
X285891Y-117420D01*
X284735Y-117898D01*
X283743Y-118659D01*
X283459Y-119030D01*
X282959Y-118860D01*
Y-111084D01*
X294462Y-99581D01*
X294943Y-98954D01*
X295246Y-98224D01*
X295349Y-97441D01*
X295349Y-97441D01*
Y-80793D01*
X295811Y-80602D01*
X309966Y-94757D01*
Y-103347D01*
X310069Y-104130D01*
X310372Y-104859D01*
X310853Y-105486D01*
X329553Y-124187D01*
X330180Y-124668D01*
X330910Y-124970D01*
X331693Y-125073D01*
X331693Y-125073D01*
X333183D01*
Y-140748D01*
X333369Y-141684D01*
X333900Y-142478D01*
X334694Y-143009D01*
X335630Y-143195D01*
X365158D01*
X366094Y-143009D01*
X366888Y-142478D01*
X371809Y-137557D01*
X372340Y-136763D01*
X372526Y-135827D01*
Y-109281D01*
X389526Y-92282D01*
X390056Y-91488D01*
X390242Y-90551D01*
Y-74803D01*
X390056Y-73867D01*
X389526Y-73073D01*
X388732Y-72542D01*
X387795Y-72356D01*
X376000D01*
Y-67508D01*
X370079D01*
X364158D01*
Y-72356D01*
X336614D01*
X335678Y-72542D01*
X334884Y-73073D01*
X333900Y-74057D01*
X333369Y-74851D01*
X333183Y-75787D01*
Y-118551D01*
X332683Y-118758D01*
X316018Y-102093D01*
Y-93504D01*
X315915Y-92721D01*
X315613Y-91991D01*
X315132Y-91364D01*
X290526Y-66758D01*
X289899Y-66277D01*
X289169Y-65975D01*
X288386Y-65872D01*
X278812D01*
X277632Y-64692D01*
Y-63547D01*
X277904Y-62891D01*
X278020Y-62008D01*
X277904Y-61124D01*
X277563Y-60301D01*
X277020Y-59594D01*
X276313Y-59052D01*
X275490Y-58710D01*
X274606Y-58594D01*
D02*
G37*
G36*
X175213Y-59555D02*
X173335D01*
Y-61827D01*
X175213D01*
Y-59555D01*
D02*
G37*
G36*
X172335D02*
X170457D01*
Y-61827D01*
X172335D01*
Y-59555D01*
D02*
G37*
G36*
X161433D02*
X159555D01*
Y-61827D01*
X161433D01*
Y-59555D01*
D02*
G37*
G36*
X158555D02*
X156677D01*
Y-61827D01*
X158555D01*
Y-59555D01*
D02*
G37*
G36*
X376000Y-61087D02*
X370579D01*
Y-66508D01*
X376000D01*
Y-61087D01*
D02*
G37*
G36*
X369579D02*
X364158D01*
Y-66508D01*
X369579D01*
Y-61087D01*
D02*
G37*
G36*
X244094Y-69349D02*
X243192Y-69468D01*
X242352Y-69816D01*
X241630Y-70370D01*
X241076Y-71092D01*
X240727Y-71933D01*
X240609Y-72835D01*
X240727Y-73737D01*
X241076Y-74577D01*
X241630Y-75299D01*
X242352Y-75853D01*
X243192Y-76202D01*
X244094Y-76320D01*
X244997Y-76202D01*
X245837Y-75853D01*
X246559Y-75299D01*
X247113Y-74577D01*
X247461Y-73737D01*
X247580Y-72835D01*
X247461Y-71933D01*
X247113Y-71092D01*
X246559Y-70370D01*
X245837Y-69816D01*
X244997Y-69468D01*
X244094Y-69349D01*
D02*
G37*
G36*
X247850Y-76953D02*
X244595D01*
Y-80209D01*
X247850D01*
Y-76953D01*
D02*
G37*
G36*
X243595D02*
X240339D01*
Y-80209D01*
X243595D01*
Y-76953D01*
D02*
G37*
G36*
X247850Y-81209D02*
X244595D01*
Y-84465D01*
X247850D01*
Y-81209D01*
D02*
G37*
G36*
X243595D02*
X240339D01*
Y-84465D01*
X243595D01*
Y-81209D01*
D02*
G37*
G36*
X220972Y-82645D02*
Y-86114D01*
X224441D01*
X224370Y-85570D01*
X223966Y-84597D01*
X223325Y-83761D01*
X222490Y-83120D01*
X221517Y-82717D01*
X220972Y-82645D01*
D02*
G37*
G36*
X219972Y-82645D02*
X219428Y-82717D01*
X218455Y-83120D01*
X217620Y-83761D01*
X216978Y-84597D01*
X216575Y-85570D01*
X216504Y-86114D01*
X219972D01*
Y-82645D01*
D02*
G37*
G36*
X126484Y-84860D02*
Y-88083D01*
X129707D01*
X129643Y-87602D01*
X129265Y-86689D01*
X128663Y-85904D01*
X127878Y-85302D01*
X126965Y-84923D01*
X126484Y-84860D01*
D02*
G37*
G36*
X125484Y-84860D02*
X125004Y-84923D01*
X124090Y-85302D01*
X123305Y-85904D01*
X122704Y-86689D01*
X122325Y-87602D01*
X122262Y-88083D01*
X125484D01*
Y-84860D01*
D02*
G37*
G36*
X203559Y-87583D02*
X201287D01*
Y-89461D01*
X203559D01*
Y-87583D01*
D02*
G37*
G36*
X219972Y-87114D02*
X216504D01*
X216575Y-87658D01*
X216978Y-88631D01*
X217620Y-89467D01*
X218455Y-90108D01*
X219428Y-90511D01*
X219972Y-90583D01*
Y-87114D01*
D02*
G37*
G36*
X224441D02*
X220972D01*
Y-90583D01*
X221517Y-90511D01*
X222490Y-90108D01*
X223325Y-89467D01*
X223966Y-88631D01*
X224370Y-87658D01*
X224441Y-87114D01*
D02*
G37*
G36*
X129707Y-89083D02*
X126484D01*
Y-92305D01*
X126965Y-92242D01*
X127878Y-91864D01*
X128663Y-91261D01*
X129265Y-90477D01*
X129643Y-89563D01*
X129707Y-89083D01*
D02*
G37*
G36*
X125484D02*
X122262D01*
X122325Y-89563D01*
X122704Y-90477D01*
X123305Y-91261D01*
X124090Y-91864D01*
X125004Y-92242D01*
X125484Y-92305D01*
Y-89083D01*
D02*
G37*
G36*
X203559Y-90461D02*
X201287D01*
Y-92339D01*
X203559D01*
Y-90461D01*
D02*
G37*
G36*
X59055Y-83897D02*
X58392Y-84029D01*
X57829Y-84404D01*
X57454Y-84967D01*
X57322Y-85630D01*
X57365Y-85847D01*
X53424Y-89788D01*
X46631D01*
Y-99188D01*
X55731D01*
Y-92095D01*
X59055Y-88771D01*
X62379Y-92095D01*
Y-99188D01*
X71479D01*
Y-89788D01*
X64686D01*
X60745Y-85847D01*
X60788Y-85630D01*
X60656Y-84967D01*
X60281Y-84404D01*
X59718Y-84029D01*
X59055Y-83897D01*
D02*
G37*
G36*
X175700Y-87883D02*
X170757D01*
Y-92039D01*
X171597D01*
Y-96938D01*
X170757D01*
Y-101094D01*
X175700D01*
Y-96938D01*
X174860D01*
Y-92039D01*
X175700D01*
Y-87883D01*
D02*
G37*
G36*
X129740Y-108449D02*
X126484D01*
Y-111705D01*
X129740D01*
Y-108449D01*
D02*
G37*
G36*
X125484D02*
X122228D01*
Y-111705D01*
X125484D01*
Y-108449D01*
D02*
G37*
G36*
X71479Y-105536D02*
X62379D01*
Y-112629D01*
X59055Y-115953D01*
X55731Y-112629D01*
Y-105536D01*
X46631D01*
Y-114936D01*
X53424D01*
X57365Y-118877D01*
X57322Y-119095D01*
X57454Y-119758D01*
X57829Y-120320D01*
X58392Y-120696D01*
X59055Y-120828D01*
X59718Y-120696D01*
X60281Y-120320D01*
X60656Y-119758D01*
X60788Y-119095D01*
X60745Y-118877D01*
X64686Y-114936D01*
X71479D01*
Y-105536D01*
D02*
G37*
G36*
X129740Y-112705D02*
X126484D01*
Y-115961D01*
X129740D01*
Y-112705D01*
D02*
G37*
G36*
X125484D02*
X122228D01*
Y-115961D01*
X125484D01*
Y-112705D01*
D02*
G37*
G36*
X287631Y-117322D02*
Y-121547D01*
X291856D01*
X291758Y-120807D01*
X291280Y-119652D01*
X290518Y-118659D01*
X289526Y-117898D01*
X288371Y-117420D01*
X287631Y-117322D01*
D02*
G37*
G36*
X212177Y-120084D02*
X211516Y-120149D01*
X210400Y-120487D01*
X209372Y-121037D01*
X208470Y-121777D01*
X207730Y-122679D01*
X207180Y-123707D01*
X206842Y-124823D01*
X206776Y-125484D01*
X212177D01*
Y-120084D01*
D02*
G37*
G36*
X291856Y-122547D02*
X287631D01*
Y-126772D01*
X288371Y-126675D01*
X289526Y-126196D01*
X290518Y-125435D01*
X291280Y-124443D01*
X291758Y-123287D01*
X291856Y-122547D01*
D02*
G37*
G36*
X381102Y-115015D02*
X379769Y-115147D01*
X378487Y-115535D01*
X377305Y-116167D01*
X376269Y-117017D01*
X375419Y-118053D01*
X374787Y-119235D01*
X374398Y-120517D01*
X374267Y-121850D01*
X374398Y-123184D01*
X374787Y-124466D01*
X375419Y-125648D01*
X376269Y-126684D01*
X377305Y-127534D01*
X378487Y-128165D01*
X379769Y-128554D01*
X381102Y-128686D01*
X382436Y-128554D01*
X383718Y-128165D01*
X384900Y-127534D01*
X385936Y-126684D01*
X386786Y-125648D01*
X387417Y-124466D01*
X387806Y-123184D01*
X387938Y-121850D01*
X387806Y-120517D01*
X387417Y-119235D01*
X386786Y-118053D01*
X385936Y-117017D01*
X384900Y-116167D01*
X383718Y-115535D01*
X382436Y-115147D01*
X381102Y-115015D01*
D02*
G37*
G36*
X11024D02*
X9690Y-115147D01*
X8408Y-115535D01*
X7226Y-116167D01*
X6190Y-117017D01*
X5340Y-118053D01*
X4709Y-119235D01*
X4320Y-120517D01*
X4188Y-121850D01*
X4320Y-123184D01*
X4709Y-124466D01*
X5340Y-125648D01*
X6190Y-126684D01*
X7226Y-127534D01*
X8408Y-128165D01*
X9690Y-128554D01*
X11024Y-128686D01*
X12357Y-128554D01*
X13639Y-128165D01*
X14821Y-127534D01*
X15857Y-126684D01*
X16707Y-125648D01*
X17339Y-124466D01*
X17728Y-123184D01*
X17859Y-121850D01*
X17728Y-120517D01*
X17339Y-119235D01*
X16707Y-118053D01*
X15857Y-117017D01*
X14821Y-116167D01*
X13639Y-115535D01*
X12357Y-115147D01*
X11024Y-115015D01*
D02*
G37*
G36*
X212177Y-126484D02*
X206776D01*
X206842Y-127145D01*
X207180Y-128261D01*
X207730Y-129290D01*
X208470Y-130192D01*
X209372Y-130931D01*
X210400Y-131481D01*
X211516Y-131820D01*
X212177Y-131885D01*
Y-126484D01*
D02*
G37*
G36*
X39983Y-89788D02*
X30883D01*
Y-99188D01*
X33802D01*
Y-105536D01*
X30883D01*
Y-114936D01*
X33802D01*
Y-121063D01*
X33926Y-121687D01*
X34280Y-122216D01*
X39201Y-127138D01*
X39730Y-127491D01*
X40354Y-127616D01*
X119403D01*
X122663Y-130876D01*
X122617Y-130988D01*
X122499Y-131890D01*
X122617Y-132792D01*
X122966Y-133633D01*
X123520Y-134354D01*
X124241Y-134908D01*
X125082Y-135257D01*
X125984Y-135375D01*
X126886Y-135257D01*
X127727Y-134908D01*
X128449Y-134354D01*
X129003Y-133633D01*
X129351Y-132792D01*
X129470Y-131890D01*
X129351Y-130988D01*
X129003Y-130147D01*
X128449Y-129425D01*
X127727Y-128871D01*
X126886Y-128523D01*
X125984Y-128404D01*
X125082Y-128523D01*
X124971Y-128569D01*
X121232Y-124831D01*
X120703Y-124477D01*
X120079Y-124353D01*
X41030D01*
X37064Y-120387D01*
Y-114936D01*
X39983D01*
Y-105536D01*
X37064D01*
Y-99188D01*
X39983D01*
Y-89788D01*
D02*
G37*
G36*
X47744Y-133828D02*
Y-137295D01*
X51037D01*
X50946Y-136603D01*
X50563Y-135679D01*
X49954Y-134885D01*
X49161Y-134276D01*
X48236Y-133893D01*
X47744Y-133828D01*
D02*
G37*
G36*
X46744Y-133828D02*
X46252Y-133893D01*
X45328Y-134276D01*
X44534Y-134885D01*
X43925Y-135679D01*
X43542Y-136603D01*
X43451Y-137295D01*
X46744D01*
Y-133828D01*
D02*
G37*
G36*
X58618Y-134095D02*
X51618D01*
Y-141495D01*
X58618D01*
Y-134095D01*
D02*
G37*
G36*
X39370Y-134065D02*
X38456Y-134185D01*
X37605Y-134538D01*
X36874Y-135099D01*
X36313Y-135830D01*
X35960Y-136682D01*
X35840Y-137595D01*
Y-137995D01*
X35960Y-138909D01*
X36313Y-139760D01*
X36874Y-140491D01*
X37605Y-141052D01*
X38456Y-141405D01*
X39370Y-141525D01*
X40284Y-141405D01*
X41135Y-141052D01*
X41866Y-140491D01*
X42427Y-139760D01*
X42780Y-138909D01*
X42900Y-137995D01*
Y-137595D01*
X42780Y-136682D01*
X42427Y-135830D01*
X41866Y-135099D01*
X41135Y-134538D01*
X40284Y-134185D01*
X39370Y-134065D01*
D02*
G37*
G36*
X51037Y-138295D02*
X47744D01*
Y-141762D01*
X48236Y-141698D01*
X49161Y-141315D01*
X49954Y-140706D01*
X50563Y-139912D01*
X50946Y-138987D01*
X51037Y-138295D01*
D02*
G37*
G36*
X46744D02*
X43451D01*
X43542Y-138987D01*
X43925Y-139912D01*
X44534Y-140706D01*
X45328Y-141315D01*
X46252Y-141698D01*
X46744Y-141762D01*
Y-138295D01*
D02*
G37*
%LPD*%
G36*
X387795Y-90551D02*
X370079Y-108268D01*
Y-135827D01*
X365158Y-140748D01*
X335630D01*
Y-75787D01*
X336614Y-74803D01*
X387795D01*
Y-90551D01*
D02*
G37*
G36*
X280512Y-103347D02*
Y-137795D01*
X275590Y-142717D01*
X220472D01*
Y-98425D01*
X275590D01*
X280512Y-103347D01*
D02*
G37*
%LPC*%
G36*
X370579Y-76698D02*
Y-82098D01*
X375979D01*
X375914Y-81438D01*
X375576Y-80322D01*
X375026Y-79293D01*
X374286Y-78391D01*
X373384Y-77651D01*
X372356Y-77101D01*
X371239Y-76763D01*
X370579Y-76698D01*
D02*
G37*
G36*
X369579Y-76698D02*
X368918Y-76763D01*
X367802Y-77101D01*
X366773Y-77651D01*
X365872Y-78391D01*
X365132Y-79293D01*
X364582Y-80322D01*
X364243Y-81438D01*
X364178Y-82098D01*
X369579D01*
Y-76698D01*
D02*
G37*
G36*
X375979Y-83098D02*
X370579D01*
Y-88499D01*
X371239Y-88434D01*
X372356Y-88095D01*
X373384Y-87546D01*
X374286Y-86806D01*
X375026Y-85904D01*
X375576Y-84875D01*
X375914Y-83759D01*
X375979Y-83098D01*
D02*
G37*
G36*
X369579D02*
X364178D01*
X364243Y-83759D01*
X364582Y-84875D01*
X365132Y-85904D01*
X365872Y-86806D01*
X366773Y-87546D01*
X367802Y-88095D01*
X368918Y-88434D01*
X369579Y-88499D01*
Y-83098D01*
D02*
G37*
G36*
X353831Y-112388D02*
X352437Y-112526D01*
X350616Y-113078D01*
X348937Y-113975D01*
X347466Y-115182D01*
X346259Y-116654D01*
X345647Y-117799D01*
X345187Y-117898D01*
X344031Y-117420D01*
X343291Y-117322D01*
Y-122047D01*
Y-126772D01*
X344031Y-126675D01*
X345187Y-126196D01*
X345647Y-126296D01*
X346259Y-127441D01*
X347466Y-128912D01*
X348937Y-130119D01*
X350616Y-131016D01*
X352437Y-131569D01*
X353831Y-131706D01*
Y-122047D01*
Y-112388D01*
D02*
G37*
G36*
X354831D02*
Y-121547D01*
X363990D01*
X363852Y-120153D01*
X363300Y-118332D01*
X362403Y-116654D01*
X361195Y-115182D01*
X359724Y-113975D01*
X358046Y-113078D01*
X356225Y-112526D01*
X354831Y-112388D01*
D02*
G37*
G36*
X342291Y-117322D02*
X341551Y-117420D01*
X340396Y-117898D01*
X339404Y-118659D01*
X338642Y-119652D01*
X338164Y-120807D01*
X338066Y-121547D01*
X342291D01*
Y-117322D01*
D02*
G37*
G36*
Y-122547D02*
X338066D01*
X338164Y-123287D01*
X338642Y-124443D01*
X339404Y-125435D01*
X340396Y-126196D01*
X341551Y-126675D01*
X342291Y-126772D01*
Y-122547D01*
D02*
G37*
G36*
X363990D02*
X354831D01*
Y-131706D01*
X356225Y-131569D01*
X358046Y-131016D01*
X359724Y-130119D01*
X361195Y-128912D01*
X362403Y-127441D01*
X363300Y-125762D01*
X363852Y-123941D01*
X363990Y-122547D01*
D02*
G37*
G36*
X268216Y-112388D02*
Y-121547D01*
X277375D01*
X277238Y-120153D01*
X276686Y-118332D01*
X275789Y-116654D01*
X274581Y-115182D01*
X273110Y-113975D01*
X271432Y-113078D01*
X269611Y-112526D01*
X268216Y-112388D01*
D02*
G37*
G36*
X267216D02*
X265823Y-112526D01*
X264001Y-113078D01*
X262323Y-113975D01*
X260852Y-115182D01*
X259645Y-116654D01*
X258747Y-118332D01*
X258195Y-120153D01*
X258058Y-121547D01*
X267216D01*
Y-112388D01*
D02*
G37*
G36*
X234189Y-120063D02*
X228768D01*
Y-125484D01*
X234189D01*
Y-120063D01*
D02*
G37*
G36*
X227768D02*
X222346D01*
Y-125484D01*
X227768D01*
Y-120063D01*
D02*
G37*
G36*
X277375Y-122547D02*
X268216D01*
Y-131706D01*
X269611Y-131569D01*
X271432Y-131016D01*
X273110Y-130119D01*
X274581Y-128912D01*
X275789Y-127441D01*
X276686Y-125762D01*
X277238Y-123941D01*
X277375Y-122547D01*
D02*
G37*
G36*
X267216D02*
X258058D01*
X258195Y-123941D01*
X258747Y-125762D01*
X259645Y-127441D01*
X260852Y-128912D01*
X262323Y-130119D01*
X264001Y-131016D01*
X265823Y-131569D01*
X267216Y-131706D01*
Y-122547D01*
D02*
G37*
G36*
X234189Y-126484D02*
X228768D01*
Y-131905D01*
X234189D01*
Y-126484D01*
D02*
G37*
G36*
X227768D02*
X222346D01*
Y-131905D01*
X227768D01*
Y-126484D01*
D02*
G37*
%LPD*%
D11*
X61614Y-394D02*
Y0D01*
Y-394D02*
X62592Y-1372D01*
X62986D01*
X67520Y-5906D01*
X77756D01*
X125868Y62945D02*
Y70398D01*
Y62945D02*
X126453Y62360D01*
Y55224D02*
Y62360D01*
X125436Y54207D02*
X126453Y55224D01*
X127953Y75134D02*
X135496Y82677D01*
X127953Y54134D02*
Y75134D01*
X129453Y74512D02*
X132615Y77675D01*
X129453Y52681D02*
Y74512D01*
X123104Y54207D02*
X125436D01*
X123031Y54134D02*
X123104Y54207D01*
X101146Y-27327D02*
X103347Y-29528D01*
X105315Y-25275D02*
X107599Y-27559D01*
X101146Y-27327D02*
Y5860D01*
X146653Y61024D02*
X148622Y59055D01*
X142975Y77675D02*
X146653Y73997D01*
Y61024D02*
Y73997D01*
X148622Y59055D02*
X154134D01*
X282874Y394D02*
X287402Y4921D01*
Y27559D01*
X282874Y0D02*
Y394D01*
X224597Y43120D02*
X233455D01*
X224410Y42933D02*
X224597Y43120D01*
X87598Y15748D02*
X92520D01*
X95472Y18701D01*
Y26575D01*
X202756Y86614D02*
Y93110D01*
X197835Y81693D02*
X202756Y86614D01*
X183071Y81693D02*
X197835D01*
X115157Y76772D02*
X119095D01*
X108003Y-15203D02*
Y-14887D01*
X111221Y10078D02*
X111337Y9962D01*
X109252Y5906D02*
Y16732D01*
X107167Y-14051D02*
Y6769D01*
X111221Y10078D02*
Y26575D01*
Y-7110D02*
X111337Y-6994D01*
X111221Y-24606D02*
Y-7110D01*
X107283Y6885D02*
Y26575D01*
X107167Y-14051D02*
X108003Y-14887D01*
X107167Y6769D02*
X107283Y6885D01*
X111337Y-6994D02*
Y9962D01*
X109252Y16732D02*
X109252Y16732D01*
X109252Y16732D02*
Y26575D01*
X111221D02*
X111221Y26575D01*
X105315Y-25275D02*
Y26575D01*
X123031Y34449D02*
X123104Y34376D01*
X126057D01*
X129921Y30512D01*
Y-1969D02*
Y30512D01*
Y-1969D02*
X135827Y-7874D01*
X143701D01*
X123031Y36417D02*
X127800D01*
X131890Y32327D01*
Y0D02*
Y32327D01*
Y0D02*
X135827Y-3937D01*
X140748D01*
X137795Y0D02*
Y28543D01*
X123031Y38386D02*
X127953D01*
X137795Y28543D01*
X101378Y6092D02*
Y26575D01*
X101146Y5860D02*
X101378Y6092D01*
X103288Y26517D02*
X103347Y26575D01*
X103288Y-11753D02*
Y26517D01*
X103230Y-11811D02*
X103288Y-11753D01*
X113247Y-19627D02*
X113305Y-19685D01*
X113247Y-19627D02*
Y26517D01*
X113189Y26575D02*
X113247Y26517D01*
X224410Y3563D02*
X224597Y3750D01*
X233081D01*
X111221Y72835D02*
X115157Y76772D01*
X111221Y60039D02*
Y72835D01*
X109252Y60039D02*
Y73819D01*
X107283Y73972D02*
X124847Y91535D01*
X174213D01*
X124301Y93110D02*
X190945D01*
X123031Y87598D02*
X128937D01*
X109252Y73819D02*
X123031Y87598D01*
X107283Y60039D02*
Y73972D01*
X103114Y71924D02*
X124301Y93110D01*
X103114Y64097D02*
Y71924D01*
X113189Y60039D02*
Y71850D01*
X114173Y72835D01*
X118979D01*
X174213Y91535D02*
X177165Y88583D01*
Y69882D02*
Y88583D01*
X133742Y87598D02*
X133858D01*
X118979Y72835D02*
X133742Y87598D01*
X132615Y77675D02*
X142975D01*
X135496Y82677D02*
X154134D01*
X121063Y70866D02*
X138779Y88583D01*
X116142Y70866D02*
X121063D01*
X115157Y60039D02*
Y69882D01*
X116142Y70866D01*
X188919Y37933D02*
X204724D01*
X188919Y42933D02*
X204724D01*
X101378Y85630D02*
X111221Y95472D01*
X101378Y60039D02*
Y85630D01*
X99410Y87598D02*
X109252Y97441D01*
X99410Y60039D02*
Y87598D01*
X103347Y60039D02*
Y63865D01*
X103114Y64097D02*
X103347Y63865D01*
X177165Y69882D02*
X181102Y65945D01*
X202264D01*
X109252Y97441D02*
X127953D01*
X129921Y95472D02*
X133858Y99410D01*
X129921D02*
Y109252D01*
X111221Y95472D02*
X129921D01*
X127953Y97441D02*
X129921Y99410D01*
X133858D02*
Y125984D01*
X287402Y27559D02*
X289213Y29370D01*
X297244D01*
X201850Y125984D02*
X210630Y117205D01*
X204128Y101175D02*
X210630Y107677D01*
Y117205D01*
X189573Y100781D02*
Y101175D01*
X190551Y99803D02*
X190945D01*
X183071Y107677D02*
Y117205D01*
X189573Y100781D02*
X190551Y99803D01*
X183071Y107677D02*
X189573Y101175D01*
X183071Y117205D02*
X191850Y125984D01*
X125984Y113189D02*
Y125984D01*
Y113189D02*
X129921Y109252D01*
X154134Y74803D02*
Y82677D01*
Y66929D02*
Y74803D01*
X154134Y82677D02*
X154134Y82677D01*
X125984Y52165D02*
X127953Y54134D01*
X126969Y50197D02*
X129453Y52681D01*
X123031Y52165D02*
X125984D01*
X154134Y51181D02*
Y59055D01*
Y43307D02*
Y51181D01*
X123031Y50197D02*
X126969D01*
D14*
X303346Y-46752D02*
Y-41142D01*
X305118Y-39370D01*
Y-28543D01*
X303150Y-26575D02*
X305118Y-28543D01*
X285433Y-26575D02*
X303150D01*
X280512Y-31496D02*
X285433Y-26575D01*
X280512Y-38386D02*
Y-31496D01*
X265295Y-53602D02*
X280512Y-38386D01*
X176181Y-71850D02*
X194429Y-53602D01*
X265295D01*
X152559Y-71850D02*
X176181D01*
X134843Y-54134D02*
X152559Y-71850D01*
X105315Y-54134D02*
X134843D01*
X81693Y-77756D02*
X105315Y-54134D01*
X13850Y-77756D02*
X81693D01*
X10827Y-74733D02*
X13850Y-77756D01*
X10827Y-74733D02*
Y-62008D01*
X13780Y-59055D01*
X19685D01*
X0Y-148228D02*
Y148228D01*
X395669D01*
X395669Y-148228D01*
X0D02*
X395669D01*
D25*
X300590Y-15748D02*
D03*
X313583D02*
D03*
Y-31496D02*
D03*
X300590D02*
D03*
Y74803D02*
D03*
X313583D02*
D03*
D26*
X95472Y82087D02*
D03*
Y75394D02*
D03*
X188976Y-89961D02*
D03*
Y-83268D02*
D03*
X173228D02*
D03*
Y-89961D02*
D03*
X181102Y-99016D02*
D03*
Y-105709D02*
D03*
X188976D02*
D03*
Y-99016D02*
D03*
X173228Y-105709D02*
D03*
Y-99016D02*
D03*
X322835Y-47835D02*
D03*
Y-54528D02*
D03*
X356299Y591D02*
D03*
Y7283D02*
D03*
X200787Y-83268D02*
D03*
Y-89961D02*
D03*
X358268Y52559D02*
D03*
Y45866D02*
D03*
X358268Y66142D02*
D03*
Y72835D02*
D03*
X118110Y10433D02*
D03*
Y17126D02*
D03*
X190945Y93110D02*
D03*
Y99803D02*
D03*
X202756D02*
D03*
Y93110D02*
D03*
D27*
X134449Y66929D02*
D03*
X141142D02*
D03*
X282874Y7874D02*
D03*
X276181D02*
D03*
Y15748D02*
D03*
X282874D02*
D03*
X276181Y23622D02*
D03*
X282874D02*
D03*
X160827Y51181D02*
D03*
X154134D02*
D03*
X276181Y31496D02*
D03*
X282874D02*
D03*
X160827Y59055D02*
D03*
X154134D02*
D03*
X276181Y-7874D02*
D03*
X282874D02*
D03*
X160827Y43307D02*
D03*
X154134D02*
D03*
X282874Y0D02*
D03*
X276181D02*
D03*
X337992Y15748D02*
D03*
X331299D02*
D03*
X330118Y-15748D02*
D03*
X323425D02*
D03*
X331299Y7874D02*
D03*
X337992D02*
D03*
Y23622D02*
D03*
X331299D02*
D03*
Y47244D02*
D03*
X337992D02*
D03*
X276181Y94488D02*
D03*
X282874D02*
D03*
Y102362D02*
D03*
X276181D02*
D03*
X337992Y55118D02*
D03*
X331299D02*
D03*
X159055Y-59055D02*
D03*
X165748D02*
D03*
X172835D02*
D03*
X179528D02*
D03*
X68307Y0D02*
D03*
X61614D02*
D03*
X245472Y15748D02*
D03*
X238779D02*
D03*
X245472Y-7874D02*
D03*
X238779D02*
D03*
X245472Y0D02*
D03*
X238779D02*
D03*
X187598Y-11811D02*
D03*
X194291D02*
D03*
X245472Y7874D02*
D03*
X238779D02*
D03*
X245472Y55118D02*
D03*
X238779D02*
D03*
X245472Y31496D02*
D03*
X238779D02*
D03*
X245472Y39370D02*
D03*
X238779D02*
D03*
X187598Y27559D02*
D03*
X194291D02*
D03*
X245472Y47244D02*
D03*
X238779D02*
D03*
X276181Y55118D02*
D03*
X282874D02*
D03*
Y39370D02*
D03*
X276181D02*
D03*
Y62992D02*
D03*
X282874D02*
D03*
X160827Y74803D02*
D03*
X154134D02*
D03*
X276181Y47244D02*
D03*
X282874D02*
D03*
X160827Y66929D02*
D03*
X154134D02*
D03*
X276181Y70866D02*
D03*
X282874D02*
D03*
X160827Y82677D02*
D03*
X154134D02*
D03*
X331299Y39370D02*
D03*
X337992D02*
D03*
X282874Y78740D02*
D03*
X276181D02*
D03*
X282874Y86614D02*
D03*
X276181D02*
D03*
X141142Y74803D02*
D03*
X134449D02*
D03*
Y51181D02*
D03*
X141142D02*
D03*
Y59055D02*
D03*
X134449D02*
D03*
X67520Y31496D02*
D03*
X74213D02*
D03*
X160827Y35433D02*
D03*
X154134D02*
D03*
Y3937D02*
D03*
X160827D02*
D03*
X125394Y104331D02*
D03*
X118701D02*
D03*
D28*
X297244Y54370D02*
D03*
Y49370D02*
D03*
Y44370D02*
D03*
Y39370D02*
D03*
Y24370D02*
D03*
Y29370D02*
D03*
Y34370D02*
D03*
X316929Y24370D02*
D03*
Y29370D02*
D03*
Y34370D02*
D03*
Y39370D02*
D03*
Y44370D02*
D03*
Y49370D02*
D03*
Y54370D02*
D03*
X74803Y-21870D02*
D03*
Y-56870D02*
D03*
Y-51870D02*
D03*
Y-46870D02*
D03*
Y-41870D02*
D03*
Y-26870D02*
D03*
Y-31870D02*
D03*
Y-36870D02*
D03*
X55118Y-56870D02*
D03*
Y-51870D02*
D03*
Y-21870D02*
D03*
Y-26870D02*
D03*
Y-31870D02*
D03*
Y-36870D02*
D03*
Y-41870D02*
D03*
Y-46870D02*
D03*
X224410Y-11437D02*
D03*
Y-6437D02*
D03*
Y-1437D02*
D03*
Y3563D02*
D03*
X204724Y-11437D02*
D03*
Y-6437D02*
D03*
Y-1437D02*
D03*
Y3563D02*
D03*
X224410Y27933D02*
D03*
Y32933D02*
D03*
Y37933D02*
D03*
Y42933D02*
D03*
X204724Y27933D02*
D03*
Y32933D02*
D03*
Y37933D02*
D03*
Y42933D02*
D03*
D29*
X310827Y-46752D02*
D03*
X303346D02*
D03*
X307087Y-55610D02*
D03*
D30*
X193405Y69685D02*
D03*
Y62205D02*
D03*
X202264Y65945D02*
D03*
D31*
X82677Y-110236D02*
D03*
X66929D02*
D03*
X82677Y-94488D02*
D03*
X66929D02*
D03*
X51181Y-110236D02*
D03*
X35433D02*
D03*
X51181Y-94488D02*
D03*
X35433D02*
D03*
D32*
X160236Y-44882D02*
D03*
X169291D02*
D03*
X178347D02*
D03*
D33*
X169291Y-22047D02*
D03*
D34*
X117126Y26575D02*
D03*
X115157D02*
D03*
X113189D02*
D03*
X111221D02*
D03*
X109252D02*
D03*
X107283D02*
D03*
X105315D02*
D03*
X103347D02*
D03*
X101378D02*
D03*
X99409D02*
D03*
X97441D02*
D03*
X95472D02*
D03*
X95472Y60039D02*
D03*
X97441D02*
D03*
X99410D02*
D03*
X101378D02*
D03*
X103347D02*
D03*
X105315D02*
D03*
X107283D02*
D03*
X109252D02*
D03*
X111221D02*
D03*
X113189D02*
D03*
X115157D02*
D03*
X117126D02*
D03*
D35*
X123031Y54134D02*
D03*
Y52165D02*
D03*
Y50197D02*
D03*
Y48228D02*
D03*
Y46260D02*
D03*
Y44291D02*
D03*
Y42323D02*
D03*
Y40354D02*
D03*
Y38386D02*
D03*
Y36417D02*
D03*
Y34449D02*
D03*
Y32480D02*
D03*
X89567Y44291D02*
D03*
Y36417D02*
D03*
Y52165D02*
D03*
Y34449D02*
D03*
Y32480D02*
D03*
Y42323D02*
D03*
Y40354D02*
D03*
Y38386D02*
D03*
Y46260D02*
D03*
Y50197D02*
D03*
Y48228D02*
D03*
Y54134D02*
D03*
D36*
X160630Y24016D02*
D03*
Y15354D02*
D03*
X154331Y24016D02*
D03*
Y15354D02*
D03*
D72*
X256890Y62992D02*
X276181D01*
X276181Y87786D02*
Y90748D01*
Y87008D02*
Y87786D01*
X276575Y-30512D02*
X277607D01*
X271654Y-25591D02*
X276575Y-30512D01*
X90945Y75394D02*
X95472D01*
X76772Y89567D02*
X90945Y75394D01*
X76772Y89567D02*
Y105079D01*
X264632Y23622D02*
X264764D01*
X276181Y62992D02*
X276181Y62992D01*
X151575Y-63976D02*
Y-59055D01*
X285433Y-31496D02*
X300590D01*
X296843Y-62008D02*
X337598D01*
X285433Y-50598D02*
X296843Y-62008D01*
X285433Y-50598D02*
Y-31496D01*
X201772Y-56102D02*
X287402D01*
X295807Y-64508D01*
X101568Y-68898D02*
X146071D01*
X183524Y-74350D02*
X201772Y-56102D01*
X146071Y-68898D02*
X151523Y-74350D01*
X183524D01*
X82677Y-94488D02*
Y-87788D01*
Y-110236D02*
Y-94488D01*
X165748Y-59055D02*
Y-54724D01*
X169291Y-51181D01*
Y-44882D01*
Y-22047D01*
X82677Y-87788D02*
X101568Y-68898D01*
X47461Y-56870D02*
X55118D01*
X45276Y-59055D02*
X47461Y-56870D01*
X165748Y-64567D02*
Y-59055D01*
X164370Y-65945D02*
X165748Y-64567D01*
X153543Y-65945D02*
X164370D01*
X151575Y-63976D02*
X153543Y-65945D01*
X16614Y12913D02*
X23228Y6299D01*
X74213D01*
X16614Y12913D02*
Y44480D01*
X24173Y43425D02*
X24291Y43307D01*
X18307Y73425D02*
X24409D01*
X16614Y71732D02*
X18307Y73425D01*
X17669Y43425D02*
X24173D01*
X16614Y44480D02*
X17669Y43425D01*
X16614Y44480D02*
Y71732D01*
X24291Y43307D02*
X24409Y43425D01*
X178347Y-34252D02*
X187008Y-25591D01*
X271654D01*
X352953Y45866D02*
X358268D01*
X349410Y42323D02*
X352953Y45866D01*
X349410Y-984D02*
Y42323D01*
X343504Y-6890D02*
X349410Y-984D01*
X343504Y-27559D02*
Y-6890D01*
X330709Y-40354D02*
X343504Y-27559D01*
X295807Y-64508D02*
X341988D01*
X178347Y-44882D02*
Y-34252D01*
X264764Y23622D02*
X264764Y23622D01*
X276181D01*
X245472Y54724D02*
Y55118D01*
Y54724D02*
X252953Y47244D01*
Y23622D02*
Y47244D01*
X245472Y15748D02*
Y16142D01*
X252953Y23622D01*
X172244Y-4921D02*
X176181Y-984D01*
X169291Y-7874D02*
X172244Y-4921D01*
X252953Y-15748D02*
Y7874D01*
X245472Y15354D02*
Y15748D01*
Y15354D02*
X252953Y7874D01*
X176181Y29528D02*
Y35433D01*
Y-984D02*
Y29528D01*
X141142Y43898D02*
X141732Y43307D01*
X141142Y43898D02*
Y51181D01*
Y51575D01*
X137795Y54921D02*
X141142Y51575D01*
X137795Y54921D02*
Y71063D01*
X141142Y74410D02*
Y74803D01*
X137795Y71063D02*
X141142Y74410D01*
X160827Y50787D02*
Y51181D01*
Y50787D02*
X176181Y35433D01*
X169291Y-22047D02*
Y-7874D01*
X118110Y17126D02*
X118504D01*
X124016Y11614D01*
Y-15748D02*
Y11614D01*
Y-15748D02*
X130315Y-22047D01*
X169291D01*
X194291Y-11811D02*
Y27559D01*
Y-12205D02*
Y-11811D01*
X184449Y-22047D02*
X194291Y-12205D01*
X169291Y-22047D02*
X184449D01*
X341988Y-64508D02*
X362205Y-44291D01*
X374016Y8032D02*
X383032D01*
X364603D02*
X374016D01*
X337598Y-62008D02*
X350394Y-49213D01*
X362205Y-44291D02*
X372047D01*
X350394Y-49213D02*
Y-47835D01*
X372047Y-44291D02*
X385827Y-30512D01*
Y10827D01*
X350394Y-47835D02*
Y-19685D01*
X290059Y39370D02*
X297244D01*
X282874D02*
X290059D01*
X324803Y39370D02*
X331299D01*
X316929D02*
X324803D01*
X310433Y64961D02*
X320866D01*
X300590Y73622D02*
Y74803D01*
Y73622D02*
X301659Y72553D01*
X302840D01*
X310433Y64961D01*
X50413Y-21870D02*
X55118D01*
X45276Y-16732D02*
X50413Y-21870D01*
X45276Y-16732D02*
X45276D01*
X45571Y-26870D02*
X55118D01*
X276181Y90748D02*
Y94488D01*
Y86614D02*
Y87008D01*
X68307Y0D02*
Y394D01*
X74213Y6299D01*
X50197Y0D02*
X61614D01*
X30512Y-19685D02*
X50197Y0D01*
X19685Y-19685D02*
X30512D01*
X383032Y8032D02*
X385827Y10827D01*
Y65945D01*
X374638Y71024D02*
X380748D01*
X385827Y65945D01*
X175462Y-128021D02*
Y-127821D01*
X173228Y-125587D02*
Y-105709D01*
X175462Y-128021D02*
X177362Y-129921D01*
X173228Y-125587D02*
X175462Y-127821D01*
X188976Y-125787D02*
Y-105709D01*
X184843Y-129921D02*
X188976Y-125787D01*
X184843Y-129921D02*
Y-129921D01*
X181102Y-105709D02*
X188976D01*
X181102Y-99016D02*
X188976D01*
X188976Y-89961D02*
X188976Y-89961D01*
Y-99016D02*
Y-89961D01*
Y-99016D02*
X188976Y-99016D01*
X173228Y-83268D02*
X188976D01*
X173228Y-99016D02*
Y-89961D01*
X55118Y-31870D02*
Y-26870D01*
Y-36870D02*
Y-31870D01*
X179528Y-59055D02*
Y-53543D01*
X178347Y-52362D02*
X179528Y-53543D01*
X178347Y-52362D02*
Y-44882D01*
X366299Y-19685D02*
X374016Y-11969D01*
X350394Y-19685D02*
X366299D01*
X356299Y7283D02*
X363856D01*
X364603Y8032D01*
X358268Y45866D02*
X363779D01*
X374489Y50875D02*
X374638Y51024D01*
X368788Y50875D02*
X374489D01*
X363779Y45866D02*
X368788Y50875D01*
X374480Y70866D02*
X374638Y71024D01*
X367126Y70866D02*
X374480D01*
X365158Y72835D02*
X367126Y70866D01*
X358268Y72835D02*
X365158D01*
X276181Y78740D02*
Y86614D01*
X282874Y78740D02*
Y86614D01*
Y70866D02*
Y78740D01*
X238779Y0D02*
Y7874D01*
Y15748D01*
X233720Y-1437D02*
X236221Y-3937D01*
X224410Y-1437D02*
X233720D01*
X236221Y-3937D02*
X238779D01*
Y-7874D02*
Y-3937D01*
Y0D01*
Y35433D02*
Y39370D01*
Y31496D02*
Y35433D01*
X236221D02*
X238779D01*
X224410Y37933D02*
X233720D01*
X236221Y35433D01*
X238779Y47244D02*
Y55118D01*
Y39370D02*
Y47244D01*
X74803Y-31870D02*
Y-26870D01*
Y-36870D02*
Y-31870D01*
X194291Y27559D02*
X196850D01*
X197224Y27933D01*
X204724D01*
X197224Y-11437D02*
X204724D01*
X196850Y-11811D02*
X197224Y-11437D01*
X194291Y-11811D02*
X194291Y-11811D01*
X196850D01*
X43839Y-41870D02*
X55118D01*
X41339Y-39370D02*
X43839Y-41870D01*
X34449Y-27559D02*
X41339Y-34449D01*
Y-39370D02*
Y-34449D01*
X19685Y-27559D02*
X34449D01*
X19685Y-35433D02*
X34449D01*
X38386Y-39370D01*
Y-42323D02*
X42933Y-46870D01*
X38386Y-42323D02*
Y-39370D01*
X42933Y-46870D02*
X55118D01*
X19685Y-66929D02*
X19685Y-66929D01*
X35433D01*
X38386Y-63976D01*
Y-56102D01*
X42618Y-51870D02*
X55118D01*
X38386Y-56102D02*
X42618Y-51870D01*
X120079Y-125984D02*
X125984Y-131890D01*
X35433Y-121063D02*
X40354Y-125984D01*
X120079D01*
X35433Y-121063D02*
Y-110236D01*
Y-94488D01*
X51181Y-110386D02*
X59017Y-118222D01*
X59093D02*
X66929Y-110386D01*
X51181Y-94488D02*
Y-94338D01*
X59017Y-86502D01*
Y-85668D01*
X59055Y-85630D01*
X66929Y-94488D02*
Y-94338D01*
X59093Y-86502D02*
X66929Y-94338D01*
X59093Y-86502D02*
Y-85668D01*
X59055Y-85630D02*
X59093Y-85668D01*
D73*
X252953Y62008D02*
X256890Y58071D01*
Y4921D02*
X261811Y0D01*
X256890Y4921D02*
Y58071D01*
X227362Y64961D02*
X252953D01*
X266732Y78740D02*
X276181D01*
X252953Y64961D02*
X266732Y78740D01*
X261811Y67913D02*
X264764D01*
X267717Y70866D01*
X160827Y51181D02*
Y51575D01*
X157480Y54921D02*
X160827Y51575D01*
X157480Y54921D02*
Y71063D01*
X160827Y74410D02*
Y74803D01*
X157480Y71063D02*
X160827Y74410D01*
X74911Y-56978D02*
X88474D01*
X88583Y-57087D01*
X131153Y50444D02*
Y58318D01*
X134449Y59055D02*
Y66929D01*
X131153Y58318D02*
X131890Y59055D01*
X134449D02*
X134449Y59055D01*
X131890Y59055D02*
X134449D01*
X75552Y39686D02*
X76852Y38386D01*
X65277Y39686D02*
X75552D01*
X49016Y23425D02*
X65277Y39686D01*
X76339Y41586D02*
X77571Y40354D01*
X64490Y41586D02*
X76339D01*
X51447Y28543D02*
X64490Y41586D01*
X77126Y43486D02*
X78289Y42323D01*
X63703Y43486D02*
X77126D01*
X53642Y33425D02*
X63703Y43486D01*
X77913Y45386D02*
X79008Y44291D01*
X62916Y45386D02*
X77913D01*
X55915Y38386D02*
X62916Y45386D01*
X78700Y47286D02*
X79726Y46260D01*
X62050Y47286D02*
X78700D01*
X58071Y43307D02*
X62050Y47286D01*
X79487Y49186D02*
X80445Y48228D01*
X53176Y49186D02*
X79487D01*
X48937Y53425D02*
X53176Y49186D01*
X80274Y51086D02*
X81163Y50197D01*
X56197Y51086D02*
X80274D01*
X43858Y63425D02*
X56197Y51086D01*
X81061Y52986D02*
X81882Y52165D01*
X61187Y52986D02*
X81061D01*
X46260Y67913D02*
X61187Y52986D01*
X81882Y52165D02*
X89567D01*
X81163Y50197D02*
X89567D01*
X80445Y48228D02*
X89567D01*
X79726Y46260D02*
X89567D01*
X79008Y44291D02*
X89567D01*
X78289Y42323D02*
X89567D01*
X77571Y40354D02*
X89567D01*
X76852Y38386D02*
X89567D01*
X70866Y37402D02*
X75150D01*
X76303Y36248D01*
X81524D01*
X81693Y36417D01*
X89567D01*
X261811Y47244D02*
X276181D01*
X276181Y47244D01*
X263779Y-12795D02*
X268701Y-7874D01*
Y-66929D02*
Y-63976D01*
Y-66929D02*
X275098Y-73327D01*
X267717Y70866D02*
X276181D01*
X274606Y-65945D02*
Y-62008D01*
Y-65945D02*
X277559Y-68898D01*
X258858Y-67913D02*
X258858D01*
X253574Y-62629D02*
X258858Y-67913D01*
X307087Y-33465D02*
Y-23425D01*
X313583Y-15748D02*
X323425D01*
X307087Y-33465D02*
X310827Y-37205D01*
Y-46752D02*
Y-37205D01*
X232894Y-11437D02*
X244847Y-23391D01*
X301413D01*
X308071Y-16732D01*
X74803Y-56870D02*
X74911Y-56978D01*
X311024Y-8858D02*
X333661D01*
X344488Y1969D02*
Y20669D01*
X333661Y-8858D02*
X344488Y1969D01*
X337992Y23622D02*
X341535D01*
X344488Y20669D01*
X261811Y-60039D02*
X263779Y-62008D01*
X275098Y-73327D02*
X288878D01*
X337992Y55118D02*
Y76378D01*
X251969Y107283D02*
X307087D01*
X337992Y76378D01*
X261811Y0D02*
X276181D01*
X196491Y-625D02*
X197303Y-1437D01*
X196491Y7515D02*
X197835Y8858D01*
X196491Y-625D02*
Y7515D01*
X197303Y-1437D02*
X204724D01*
X208040Y-62629D02*
X253574D01*
X268701Y-7874D02*
X276181D01*
X206693Y-60039D02*
X261811D01*
X193898Y-72835D02*
X206693Y-60039D01*
X196850Y-73819D02*
X208040Y-62629D01*
X193898Y-85433D02*
Y-72835D01*
X188976Y-89961D02*
X189370D01*
X193898Y-85433D01*
X261811Y31496D02*
X276181D01*
X261811Y31496D02*
X261811Y31496D01*
X196850Y-102362D02*
Y-73819D01*
X193504Y-105709D02*
X196850Y-102362D01*
X188976Y-105709D02*
X193504D01*
X205709Y-76772D02*
X220472D01*
X276181Y0D02*
Y7874D01*
X288386Y-13780D02*
X290354Y-11811D01*
X281496Y-13780D02*
X288386D01*
X279528Y-11811D02*
X281496Y-13780D01*
X279528Y-11811D02*
Y-3740D01*
X276181Y-394D02*
X279528Y-3740D01*
X276181Y-394D02*
Y0D01*
X282874Y-7874D02*
Y0D01*
Y7874D02*
Y15748D01*
X267717Y-120079D02*
X269685D01*
X288878Y-73327D02*
X292323Y-76772D01*
Y-97441D02*
Y-76772D01*
X269685Y-120079D02*
X292323Y-97441D01*
X267717Y-122047D02*
Y-120079D01*
X277559Y-68898D02*
X288386D01*
X312992Y-93504D01*
Y-103347D02*
Y-93504D01*
Y-103347D02*
X331693Y-122047D01*
X342791D01*
X229331Y84646D02*
X251969Y107283D01*
X221949Y69784D02*
X254528Y102362D01*
X276181D01*
X193504Y69784D02*
X221949D01*
X238189Y24606D02*
X239173D01*
X234862Y27933D02*
X238189Y24606D01*
X224410Y27933D02*
X234862D01*
X322835Y-54528D02*
X322835Y-54527D01*
Y-52165D01*
X321850Y-51181D02*
X322835Y-52165D01*
X308071Y-51181D02*
X321850D01*
X307087Y-52165D02*
X308071Y-51181D01*
X307087Y-55610D02*
Y-52165D01*
X322835Y-47835D02*
X350394D01*
X82677Y-24606D02*
Y24606D01*
X84646Y54134D02*
X89567D01*
X82677Y56102D02*
X84646Y54134D01*
X123031Y40354D02*
X128937D01*
X141732Y33465D02*
X145669Y29528D01*
X135827Y33465D02*
X141732D01*
X128937Y40354D02*
X135827Y33465D01*
X97441Y-34449D02*
Y26575D01*
X82972Y-51870D02*
X99409Y-35433D01*
Y26575D01*
X85020Y-46870D02*
X97441Y-34449D01*
X117126Y21654D02*
X118110Y20669D01*
X117126Y21654D02*
Y26575D01*
X118110Y17126D02*
Y20669D01*
X117135Y60049D02*
Y67807D01*
X117242Y67913D01*
X95472Y75394D02*
X95472Y75394D01*
Y60039D02*
Y75394D01*
X105306Y60049D02*
X105315Y60039D01*
X105199Y64961D02*
X105306Y64854D01*
Y60049D02*
Y64854D01*
X117126Y60039D02*
X117135Y60049D01*
X94488Y-32480D02*
Y-19685D01*
X85098Y-41870D02*
X94488Y-32480D01*
X74803Y-41870D02*
X85098D01*
X74803Y-26870D02*
X80413D01*
X82677Y-24606D01*
X299213Y63976D02*
X305118D01*
X308071Y47244D02*
Y61024D01*
X305118Y63976D02*
X308071Y61024D01*
X295276Y67913D02*
X299213Y63976D01*
X282874Y102362D02*
X294291D01*
X313583Y83071D01*
Y74803D02*
Y83071D01*
X282874Y94488D02*
X291535D01*
X295276Y67913D02*
Y90748D01*
X291535Y94488D02*
X295276Y90748D01*
X308071Y-11811D02*
X311024Y-8858D01*
X308071Y-16732D02*
Y-11811D01*
X224410Y-11437D02*
X232894D01*
X290354Y7874D02*
Y22638D01*
Y-11811D02*
Y7874D01*
X290354Y7874D02*
X331299D01*
X290354Y7874D02*
X290354Y7874D01*
X300590Y-15748D02*
Y-8858D01*
X304528Y-4921D02*
X328740D01*
X300590Y-8858D02*
X304528Y-4921D01*
X328740D02*
X334646Y984D01*
Y12008D01*
X331299Y15354D02*
Y15748D01*
Y15354D02*
X334646Y12008D01*
X337992Y15748D02*
Y16142D01*
Y8465D02*
Y15748D01*
X337598Y7874D02*
Y8071D01*
X337992Y8465D01*
X316929Y34370D02*
X327835D01*
X334646Y19488D02*
Y27559D01*
X327835Y34370D02*
X334646Y27559D01*
X313583Y-16929D02*
Y-15748D01*
X307087Y-23425D02*
X313583Y-16929D01*
X74803Y-51870D02*
X82972D01*
X74803Y-46870D02*
X85020D01*
X24409Y63425D02*
X28898Y67913D01*
X46260D01*
X34409Y63425D02*
X43858D01*
X34409Y53425D02*
X48937D01*
X34409Y33425D02*
X53642D01*
X29370Y38386D02*
X55915D01*
X29528Y28543D02*
X51447D01*
X34528Y43307D02*
X58071D01*
X34409Y23425D02*
X49016D01*
X34409Y43425D02*
X34528Y43307D01*
X24409Y33425D02*
X29370Y38386D01*
X24409Y23425D02*
X29528Y28543D01*
X308071Y47244D02*
X310945Y44370D01*
X316929D01*
X276378Y90551D02*
X290636D01*
X291339Y89848D01*
Y55073D02*
Y89848D01*
X282874Y70866D02*
X286417D01*
X287402Y69882D01*
Y52165D02*
Y69882D01*
Y52165D02*
X290197Y49370D01*
X297244D01*
X289291Y44370D02*
X297244D01*
X286417Y47244D02*
X289291Y44370D01*
X282874Y47244D02*
X286417D01*
X282874D02*
Y55118D01*
Y62992D01*
X276181Y90748D02*
X276378Y90551D01*
X292041Y54370D02*
X297244D01*
X291339Y55073D02*
X292041Y54370D01*
X321850Y74803D02*
X327756Y68898D01*
Y60039D02*
Y68898D01*
X313583Y74803D02*
X321850D01*
X316929Y54370D02*
X322087D01*
X327756Y60039D01*
X332677D01*
X334646Y58071D01*
Y50590D02*
Y58071D01*
Y50590D02*
X337992Y47244D01*
X316929Y44370D02*
X328425D01*
X331299Y47244D01*
X316929Y49370D02*
X325945D01*
X331299Y54724D01*
Y55118D01*
X334646Y19488D02*
X337992Y16142D01*
X331299Y23622D02*
Y24016D01*
X330521Y24794D02*
X331299Y24016D01*
X330128Y24794D02*
X330521D01*
X325551Y29370D02*
X330128Y24794D01*
X316929Y29370D02*
X325551D01*
X331299Y15748D02*
Y16142D01*
X323071Y24370D02*
X331299Y16142D01*
X316929Y24370D02*
X323071D01*
X330118Y-28150D02*
Y-15748D01*
X326772Y-31496D02*
X330118Y-28150D01*
X313583Y-31496D02*
X326772D01*
X313583Y-15748D02*
X313583Y-15748D01*
X276959Y87786D02*
X277102D01*
X276181Y87008D02*
X276959Y87786D01*
X182087Y57087D02*
X219488D01*
X227362Y64961D01*
X172244Y66929D02*
X182087Y57087D01*
X160827Y66929D02*
X172244D01*
X220472Y54134D02*
X228346Y62008D01*
X252953D01*
X180118Y54134D02*
X220472D01*
X160827Y59055D02*
X175197D01*
X180118Y54134D01*
X197835Y8858D02*
X209646D01*
X211117Y10330D01*
Y36914D01*
X210098Y37933D02*
X211117Y36914D01*
X204724Y37933D02*
X210098D01*
X213583Y5906D02*
Y41339D01*
X204724Y42933D02*
X211988D01*
X213583Y41339D01*
X204724Y3563D02*
X211240D01*
X213583Y5906D01*
X200787Y-83268D02*
X200787Y-83268D01*
Y-81693D01*
X205709Y-76772D01*
X193405Y69685D02*
X193504Y69784D01*
X105827Y104331D02*
X118701D01*
X105079Y105079D02*
X105827Y104331D01*
X76772Y105079D02*
X105079D01*
X118701Y104331D02*
Y109646D01*
X118110Y110236D02*
X118701Y109646D01*
X118110Y110236D02*
Y125984D01*
X74213Y31496D02*
X80709D01*
X81693Y32480D02*
X89567D01*
X80709Y31496D02*
X81693Y32480D01*
X282874Y31496D02*
X285433D01*
X288307Y34370D01*
X282874Y23622D02*
Y31496D01*
X288307Y34370D02*
X297244D01*
X292087Y24370D02*
X297244D01*
X290354Y22638D02*
X292087Y24370D01*
X282874Y15748D02*
Y23622D01*
X316929Y39370D02*
X316929Y39370D01*
X128937Y48228D02*
X131153Y50444D01*
X134449Y66929D02*
Y74803D01*
X123031Y48228D02*
X128937D01*
X134449Y45866D02*
Y51181D01*
X132874Y44291D02*
X134449Y45866D01*
X123031Y44291D02*
X132874D01*
X123031Y42323D02*
X130906D01*
X135827Y37402D02*
X143701D01*
X130906Y42323D02*
X135827Y37402D01*
X145669Y35433D02*
X154134D01*
X143701Y37402D02*
X145669Y35433D01*
X145669Y-1969D02*
Y29528D01*
Y-1969D02*
X147638Y-3937D01*
X157480D01*
X160827Y-591D02*
Y3937D01*
X157480Y-3937D02*
X160827Y-591D01*
Y3937D02*
Y15157D01*
X160630Y15354D02*
X160827Y15157D01*
X154331Y24016D02*
Y35236D01*
X154134Y35433D02*
X154331Y35236D01*
X160630Y24016D02*
Y35236D01*
X160827Y35433D01*
D74*
X354331Y-122047D02*
D03*
X267717D02*
D03*
D75*
X19685Y-66929D02*
D03*
Y-51181D02*
D03*
Y-43307D02*
D03*
Y-27559D02*
D03*
Y-35433D02*
D03*
Y-59055D02*
D03*
D76*
Y-19685D02*
D03*
D77*
X244094Y-72835D02*
D03*
X350394Y-11811D02*
D03*
X125984Y-88583D02*
D03*
Y-131890D02*
D03*
D78*
X244094Y-80709D02*
D03*
X350394Y-19685D02*
D03*
X125984Y-68898D02*
D03*
Y-112205D02*
D03*
D79*
X342791Y-122047D02*
D03*
X287131D02*
D03*
D80*
X177362Y-129921D02*
D03*
X35630Y125984D02*
D03*
X141732D02*
D03*
X55118Y-137795D02*
D03*
D81*
X184843Y-129921D02*
D03*
X43110Y125984D02*
D03*
X118110D02*
D03*
X133858D02*
D03*
X125984D02*
D03*
X39370Y-137795D02*
D03*
X47244D02*
D03*
D82*
X374016Y8032D02*
D03*
X374638Y71024D02*
D03*
D83*
X374016Y-1969D02*
D03*
Y-11969D02*
D03*
X374638Y61024D02*
D03*
Y51024D02*
D03*
D84*
X220472Y-66929D02*
D03*
Y-76772D02*
D03*
Y-86614D02*
D03*
X191850Y115984D02*
D03*
X201850Y125984D02*
D03*
X191850D02*
D03*
X201850Y135984D02*
D03*
X191850D02*
D03*
X76772Y125079D02*
D03*
Y115079D02*
D03*
Y135079D02*
D03*
X34409Y23425D02*
D03*
X24409D02*
D03*
X34409Y33425D02*
D03*
X24409D02*
D03*
X34409Y43425D02*
D03*
X24409D02*
D03*
X34409Y53425D02*
D03*
X24409D02*
D03*
X34409Y63425D02*
D03*
X24409D02*
D03*
X34409Y73425D02*
D03*
X216063Y-35039D02*
D03*
Y-45039D02*
D03*
X246063D02*
D03*
X236063Y-35039D02*
D03*
Y-45039D02*
D03*
X226063Y-35039D02*
D03*
Y-45039D02*
D03*
X206063Y-35039D02*
D03*
Y-45039D02*
D03*
D85*
X342717Y119095D02*
D03*
D86*
X312795D02*
D03*
D87*
X228268Y-125984D02*
D03*
D88*
X212677D02*
D03*
X370079Y-82598D02*
D03*
D89*
Y-67008D02*
D03*
D90*
X201850Y115984D02*
D03*
X76772Y105079D02*
D03*
X24409Y73425D02*
D03*
D91*
X246063Y-35039D02*
D03*
D92*
X11024Y106890D02*
D03*
Y-121850D02*
D03*
X381102D02*
D03*
X381398Y106890D02*
D03*
D93*
X256890Y62992D02*
D03*
X261811Y67913D02*
D03*
X260827Y40354D02*
D03*
X277607Y-30512D02*
D03*
X262795Y16732D02*
D03*
X260827Y57087D02*
D03*
X359252Y60039D02*
D03*
X342520Y32480D02*
D03*
X200787Y-95472D02*
D03*
X149606Y-37402D02*
D03*
X187992Y-1969D02*
D03*
X214567Y-6890D02*
D03*
X232283D02*
D03*
X248031Y-12795D02*
D03*
X196850Y33465D02*
D03*
X232283Y32480D02*
D03*
X245079Y24606D02*
D03*
X90551Y87598D02*
D03*
X100394Y37402D02*
D03*
X113189D02*
D03*
Y49213D02*
D03*
X100394D02*
D03*
X99410Y98425D02*
D03*
X187008Y62008D02*
D03*
X146653Y55118D02*
D03*
X167323Y78740D02*
D03*
Y87598D02*
D03*
X170276Y29528D02*
D03*
X148622Y3937D02*
D03*
X120079Y-8858D02*
D03*
X77756Y-14764D02*
D03*
X67913Y24606D02*
D03*
X77756Y-5906D02*
D03*
X88583Y-57087D02*
D03*
X103347Y-29528D02*
D03*
X125868Y70398D02*
D03*
X78740Y31496D02*
D03*
X70866Y37402D02*
D03*
X76772Y89567D02*
D03*
X261811Y47244D02*
D03*
X264632Y23622D02*
D03*
X263779Y-12795D02*
D03*
X268701Y-63976D02*
D03*
X274606Y-62008D02*
D03*
X151575Y-59055D02*
D03*
X258858Y-67913D02*
D03*
X285433Y-50598D02*
D03*
Y-31496D02*
D03*
X45276Y-59055D02*
D03*
X107599Y-27559D02*
D03*
X74213Y6299D02*
D03*
X330709Y-40354D02*
D03*
X263779Y-62008D02*
D03*
X172244Y-4921D02*
D03*
X252953Y-15748D02*
D03*
X176181Y29528D02*
D03*
X141732Y43307D02*
D03*
X261811Y31496D02*
D03*
X229331Y84646D02*
D03*
X233455Y43120D02*
D03*
X239173Y24606D02*
D03*
X290059Y39370D02*
D03*
X324803Y39370D02*
D03*
X319882Y-15748D02*
D03*
X320866Y64961D02*
D03*
X82677Y24606D02*
D03*
Y56102D02*
D03*
X87598Y15748D02*
D03*
X183071Y81693D02*
D03*
X119095Y76772D02*
D03*
X109252Y5906D02*
D03*
X111221Y-24606D02*
D03*
X108003Y-15203D02*
D03*
X143701Y-7874D02*
D03*
X137795Y0D02*
D03*
X140748Y-3937D02*
D03*
X103230Y-11811D02*
D03*
X113305Y-19685D02*
D03*
X233081Y3750D02*
D03*
X128937Y87598D02*
D03*
X133858D02*
D03*
X138779Y88583D02*
D03*
X117242Y67913D02*
D03*
X188919Y37933D02*
D03*
Y42933D02*
D03*
X105199Y64961D02*
D03*
X94488Y-19685D02*
D03*
D94*
X45276Y-16732D02*
D03*
X45571Y-26870D02*
D03*
D95*
X59055Y-119095D02*
D03*
Y-85630D02*
D03*
M02*
