G04*
G04 #@! TF.GenerationSoftware,Altium Limited,Altium Designer,20.0.10 (225)*
G04*
G04 Layer_Color=16711935*
%FSLAX25Y25*%
%MOIN*%
G70*
G01*
G75*
%ADD15C,0.01000*%
%ADD48C,0.05591*%
%ADD49R,0.05591X0.05591*%
%ADD50O,0.06772X0.05591*%
%ADD51R,0.06772X0.05591*%
%ADD52O,0.05591X0.06772*%
%ADD53R,0.05591X0.06772*%
%ADD54C,0.07287*%
%ADD55R,0.07287X0.07287*%
%ADD56C,0.17402*%
%ADD57C,0.07579*%
%ADD58R,0.06378X0.06378*%
%ADD59C,0.06378*%
%ADD60C,0.06079*%
%ADD61R,0.09921X0.09921*%
%ADD62C,0.09921*%
%ADD63R,0.09921X0.09921*%
%ADD64R,0.06079X0.06079*%
%ADD65R,0.06079X0.06079*%
%ADD66C,0.12284*%
%ADD67C,0.02048*%
%ADD68C,0.02279*%
%ADD69C,0.02079*%
D15*
X0Y-148228D02*
Y148228D01*
X393701D01*
X393701Y-148228D01*
X0D02*
X393701D01*
D48*
X125984Y-88583D02*
D03*
X244094Y-80709D02*
D03*
X350394Y-11811D02*
D03*
X125984Y-131890D02*
D03*
D49*
Y-68898D02*
D03*
X244094Y-72835D02*
D03*
X350394Y-19685D02*
D03*
X125984Y-112205D02*
D03*
D50*
X19685Y-72835D02*
D03*
Y-53150D02*
D03*
Y-43307D02*
D03*
Y-23622D02*
D03*
Y-33465D02*
D03*
Y-62992D02*
D03*
D51*
Y-13780D02*
D03*
D52*
X125000Y125984D02*
D03*
X134843D02*
D03*
X115157D02*
D03*
X47244Y-135827D02*
D03*
X37402D02*
D03*
X34449Y125984D02*
D03*
X176181Y-129921D02*
D03*
D53*
X144685Y125984D02*
D03*
X57087Y-135827D02*
D03*
X44291Y125984D02*
D03*
X186024Y-129921D02*
D03*
D54*
X314961Y119095D02*
D03*
D55*
X340551D02*
D03*
D56*
X354331Y-122047D02*
D03*
X267717D02*
D03*
D57*
X342791D02*
D03*
X287131D02*
D03*
D58*
X374016Y8032D02*
D03*
X374638Y71024D02*
D03*
D59*
X374016Y-1969D02*
D03*
Y-11969D02*
D03*
X374638Y61024D02*
D03*
Y51024D02*
D03*
D60*
X220472Y-86614D02*
D03*
Y-76772D02*
D03*
Y-66929D02*
D03*
X191850Y115984D02*
D03*
X201850Y125984D02*
D03*
X191850D02*
D03*
X201850Y135984D02*
D03*
X191850D02*
D03*
X76772Y125079D02*
D03*
Y115079D02*
D03*
Y135079D02*
D03*
X34409Y23425D02*
D03*
X24409D02*
D03*
X34409Y33425D02*
D03*
X24409D02*
D03*
X34409Y43425D02*
D03*
X24409D02*
D03*
X34409Y53425D02*
D03*
X24409D02*
D03*
X34409Y63425D02*
D03*
X24409D02*
D03*
X34409Y73425D02*
D03*
X216063Y-35039D02*
D03*
Y-45039D02*
D03*
X246063D02*
D03*
X236063Y-35039D02*
D03*
Y-45039D02*
D03*
X226063Y-35039D02*
D03*
Y-45039D02*
D03*
X206063Y-35039D02*
D03*
Y-45039D02*
D03*
D61*
X228268Y-125984D02*
D03*
D62*
X212677D02*
D03*
X370079Y-82598D02*
D03*
D63*
Y-67008D02*
D03*
D64*
X201850Y115984D02*
D03*
X76772Y105079D02*
D03*
X24409Y73425D02*
D03*
D65*
X246063Y-35039D02*
D03*
D66*
X11024Y106890D02*
D03*
Y-121850D02*
D03*
X381102D02*
D03*
X381398Y106890D02*
D03*
D67*
X72835Y34646D02*
D03*
X77165Y6299D02*
D03*
X58052D02*
D03*
X83071Y61811D02*
D03*
X98373Y64947D02*
D03*
X105118Y70079D02*
D03*
X100394Y68110D02*
D03*
X83071Y65748D02*
D03*
Y69685D02*
D03*
X76494Y43701D02*
D03*
X95156Y20276D02*
D03*
X82087Y42639D02*
D03*
X117442Y66142D02*
D03*
X100394Y49213D02*
D03*
X57874Y0D02*
D03*
X133465Y-17717D02*
D03*
X128405Y51122D02*
D03*
X186221Y85039D02*
D03*
X113189Y37402D02*
D03*
X141732Y43307D02*
D03*
X148622Y3937D02*
D03*
X255906Y-46063D02*
D03*
X192451Y72363D02*
D03*
X197244Y77953D02*
D03*
X232283Y32933D02*
D03*
X239370Y23228D02*
D03*
X227953Y75590D02*
D03*
X224410Y70079D02*
D03*
X139764Y-8661D02*
D03*
X135827Y-12598D02*
D03*
X46457Y-36870D02*
D03*
Y-26870D02*
D03*
X109568Y5906D02*
D03*
X200000Y-70472D02*
D03*
X200787Y-95472D02*
D03*
X269171Y-66096D02*
D03*
X274456D02*
D03*
X252953Y23622D02*
D03*
X280315Y-27756D02*
D03*
X252756Y64173D02*
D03*
X232283Y3563D02*
D03*
Y-6437D02*
D03*
X239370Y111811D02*
D03*
X261811Y67913D02*
D03*
X260827Y40354D02*
D03*
X262795Y16732D02*
D03*
X260827Y57087D02*
D03*
X359252Y60039D02*
D03*
X342520Y32480D02*
D03*
X187992Y-1969D02*
D03*
X245669Y23228D02*
D03*
X90551Y87598D02*
D03*
X100394Y37402D02*
D03*
X113189Y49213D02*
D03*
X99410Y98425D02*
D03*
X146653Y55118D02*
D03*
X170276Y29528D02*
D03*
X77756Y-14764D02*
D03*
X261811Y47244D02*
D03*
X264632Y23622D02*
D03*
X263779Y-12795D02*
D03*
X176181Y29528D02*
D03*
X261811Y31496D02*
D03*
X232283Y42933D02*
D03*
X290059Y39370D02*
D03*
X324803Y39370D02*
D03*
X319882Y-15748D02*
D03*
X320866Y64961D02*
D03*
X188919Y37933D02*
D03*
Y42933D02*
D03*
D68*
X280315Y-51968D02*
D03*
D69*
X59055Y-119095D02*
D03*
Y-85630D02*
D03*
M02*
